<svg width="115" height="40" viewBox="0 0 115 40" fill="none" xmlns="http://www.w3.org/2000/svg">
<path d="M45.1362 0H4.11916e-07L3.61737 3.55795L45.1362 0Z" transform="translate(15.2253 18.5984)" fill="#BF0000"/>
<path d="M8.20657 0.269542V0.808625C7.34272 0.269542 6.58685 0 5.56103 0C2.37559 0 -4.11916e-07 2.85714 -4.11916e-07 6.41509C-4.11916e-07 9.97305 2.42958 12.8302 5.56103 12.8302C6.58685 12.8302 7.34272 12.5067 8.20657 11.9677V12.5067H10.9601V0.269542H8.20657ZM5.56103 9.86523C3.99531 9.86523 2.8615 8.35579 2.8615 6.41509C2.8615 4.47439 3.99531 2.96496 5.56103 2.96496C7.12676 2.96496 8.20657 4.47439 8.20657 6.41509C8.20657 8.35579 7.12676 9.86523 5.56103 9.86523Z" transform="translate(11.2301 3.77356)" fill="#BF0000"/>
<path d="M7.28873 0V7.16981C7.28873 8.51752 6.37089 9.6496 5.02113 9.6496C3.67136 9.6496 2.75352 8.51752 2.75352 7.16981V0H4.11916e-07V7.16981C4.11916e-07 10.1348 1.99765 12.5067 4.96714 12.5067C6.3169 12.5067 7.34272 11.752 7.34272 11.752V12.1833H10.1502V0H7.28873Z" transform="translate(34.392 4.04309)" fill="#BF0000"/>
<path d="M2.80751 12.5067V5.33693C2.80751 3.98922 3.72535 2.85714 5.07511 2.85714C6.42488 2.85714 7.34273 3.98922 7.34273 5.33693V12.5067H10.1502V5.33693C10.1502 2.37197 8.15259 0 5.1831 0C3.83334 0 2.80751 0.754717 2.80751 0.754717V0.269542H0V12.5067H2.80751Z" transform="translate(64.7888 3.77356)" fill="#BF0000"/>
<path d="M2.91549 15.31V10.566H4.96714L8.53052 15.31H12.1479L7.82864 9.59569C9.1784 8.62534 10.0423 7.062 10.0423 5.28302C10.0423 2.37197 7.66667 -2.57055e-08 4.75117 -2.57055e-08H1.28724e-08V15.2561H2.91549V15.31ZM2.91549 2.96496H4.80516C6.10094 2.96496 7.18075 4.04313 7.18075 5.33693C7.18075 6.63073 6.10094 7.7089 4.80516 7.7089H2.91549V2.96496Z" transform="translate(0.323456 0.970398)" fill="#BF0000"/>
<path d="M6.47887 12.4528C6.20892 12.6146 5.93897 12.7763 5.56103 12.7763C5.12911 12.7763 4.26526 12.4528 4.26526 11.2668V6.03774H6.64084V3.07278H4.26526V-2.57055e-08H1.45775V3.07278H-1.64766e-06V5.98383H1.45775V11.2668C1.45775 14.0162 3.50939 15.6334 5.61502 15.6334C6.37089 15.6334 7.4507 15.3639 8.31455 14.8787L6.47887 12.4528Z" transform="translate(45.4601 0.970398)" fill="#BF0000"/>
<path d="M5.34507 9.81132L10.0962 4.04313H6.20892L2.8615 8.30189V0H0V16.2803H2.8615V11.2668L6.96479 16.2803H10.9061L5.34507 9.81132Z" transform="translate(23.7559)" fill="#BF0000"/>
<path d="M5.50704 0C2.2676 0 8.23831e-07 2.80323 8.23831e-07 6.41509C8.23831e-07 10.1887 2.91549 12.8302 5.77699 12.8302C7.23474 12.8302 9.12441 12.345 10.6901 10.0809L8.26056 8.67925C6.37089 11.4825 3.18545 10.0809 2.80751 7.27763H10.7981C11.554 2.85714 8.69249 0 5.50704 0ZM7.93662 4.79784H2.91549C3.50939 1.9407 7.39671 1.77898 7.93662 4.79784Z" transform="translate(52.8568 3.77356)" fill="#BF0000"/>
<path d="M11.23 12.345C10.1502 14.1779 8.42253 15.0943 6.20892 15.0943C2.53756 15.0943 0 12.0216 0 7.60108C0 3.18059 2.59155 -8.22576e-07 6.20892 -8.22576e-07C8.26056 -8.22576e-07 9.50235 0.700809 10.9601 2.64151L9.66432 3.71968C8.74648 2.26415 7.61268 1.56334 6.20892 1.56334C3.50939 1.56334 1.83568 3.93531 1.83568 7.65499C1.83568 11.3208 3.50939 13.531 6.26291 13.531C7.77465 13.531 8.90845 12.9919 9.66432 11.9137V8.89488H6.42488V7.33154H11.338V12.345H11.23Z" transform="translate(0 24.8518)" fill="#BF0000"/>
<path d="M-2.05958e-07 15.4717V-4.11288e-07H1.67371V15.4717H-2.05958e-07Z" transform="translate(13.1737 24.151)" fill="#BF0000"/>
<path d="M10.3662 6.09164C10.3662 9.7035 8.26056 12.1833 5.1831 12.1833C2.10563 12.1833 4.11916e-07 9.7035 4.11916e-07 6.09164C4.11916e-07 2.47978 2.10563 0 5.1831 0C8.26056 0 10.3662 2.47978 10.3662 6.09164ZM1.83568 6.09164C1.83568 8.73315 3.29343 10.6739 5.23709 10.6739C7.18075 10.6739 8.6385 8.73316 8.6385 6.14555C8.6385 3.50404 7.23474 1.56334 5.23709 1.56334C3.23944 1.56334 1.83568 3.45013 1.83568 6.09164Z" transform="translate(16.0352 27.7628)" fill="#BF0000"/>
<path d="M1.61972 5.28302C2.48357 4.15094 3.56338 3.61186 4.96714 3.61186C7.99061 3.61186 10.0962 6.09164 10.0962 9.7035C10.0962 13.3154 7.99061 15.7951 4.96714 15.7951C3.61737 15.7951 2.59155 15.31 1.67371 14.2318L1.45775 15.4717H-4.11916e-07V-4.11288e-07H1.67371V5.28302H1.61972ZM1.56573 9.7035C1.56573 12.345 2.96948 14.2857 4.96714 14.2857C6.9108 14.2857 8.36855 12.345 8.36855 9.75741C8.36855 7.1159 6.9108 5.1752 4.96714 5.1752C2.96948 5.1752 1.56573 7.062 1.56573 9.7035Z" transform="translate(27.6972 24.151)" fill="#BF0000"/>
<path d="M8.42254 10.6199C7.5047 11.6981 6.47887 12.1833 5.12911 12.1833C2.10564 12.1833 1.64766e-06 9.7035 1.64766e-06 6.09164C1.64766e-06 2.47978 2.10563 0 5.1831 0C6.58685 0 7.50469 0.431267 8.47653 1.34771L8.69249 0.269542H10.1502V11.9137H8.69249L8.42254 10.6199ZM1.78169 6.09164C1.78169 8.73315 3.23944 10.6739 5.1831 10.6739C7.12676 10.6739 8.58451 8.78706 8.58451 6.14555C8.58451 3.50404 7.18075 1.56334 5.1831 1.56334C3.23944 1.56334 1.78169 3.45013 1.78169 6.09164Z" transform="translate(38.7653 27.7628)" fill="#BF0000"/>
<path d="M0 15.4717V-4.11288e-07H1.67371V15.4717H0Z" transform="translate(50.7512 24.151)" fill="#BF0000"/>
<path d="M11.9859 -8.22576e-07V14.5013H10.3122V2.10243L5.99296 9.16442L1.67371 2.10243V14.5553H-8.23831e-07V-8.22576e-07H2.21361L5.99296 6.19946L9.7723 -8.22576e-07H11.9859Z" transform="translate(57.014 25.1213)" fill="#BF0000"/>
<path d="M8.42254 10.6199C7.5047 11.6981 6.47887 12.1833 5.12911 12.1833C2.10563 12.1833 -1.64766e-06 9.7035 -1.64766e-06 6.09164C-1.64766e-06 2.47978 2.10564 0 5.1831 0C6.58686 0 7.50469 0.431267 8.47652 1.34771L8.69249 0.269542H10.1502V11.9137H8.69249L8.42254 10.6199ZM1.7277 6.09164C1.7277 8.73315 3.18544 10.6739 5.12911 10.6739C7.07277 10.6739 8.53052 8.78706 8.53052 6.14555C8.53052 3.50404 7.12676 1.56334 5.12911 1.56334C3.18544 1.56334 1.7277 3.45013 1.7277 6.09164Z" transform="translate(70.2958 27.7628)" fill="#BF0000"/>
<path d="M1.61972 1.40162C2.21361 0.700808 3.56338 0.107817 4.91315 0V1.56334C3.07747 1.77898 1.67371 2.91105 1.67371 4.15094V11.9137H-1.64766e-06V0.269542H1.40376L1.61972 1.40162Z" transform="translate(82.1737 27.7628)" fill="#BF0000"/>
<path d="M6.74882 15.4717L1.67371 9.38006V15.4717H-3.29533e-06V-4.11288e-07H1.67371V8.84097L6.26291 3.8814H8.36854L3.4554 9.21833L9.07042 15.5256H6.74882V15.4717Z" transform="translate(88.4907 24.151)" fill="#BF0000"/>
<path d="M10.0962 9.81132C9.12441 11.3747 7.45071 12.2372 5.39906 12.2372C2.21362 12.2372 3.29533e-06 9.70351 3.29533e-06 6.09165C3.29533e-06 2.53369 2.10564 8.22576e-07 5.12911 8.22576e-07C7.93662 8.22576e-07 10.1502 2.47978 10.1502 5.60647C10.1502 5.92992 10.1502 6.14555 10.0962 6.52291H1.83568C1.94366 7.87062 2.2676 8.78706 3.02347 9.54178C3.67136 10.2426 4.53521 10.6739 5.45305 10.6739C6.9108 10.6739 8.15258 9.97305 8.74648 8.73315L10.0962 9.81132ZM8.31455 5.06739C8.15258 2.91105 6.9108 1.50943 5.1831 1.50943C4.04929 1.50943 3.02347 2.10243 2.37559 3.12669C2.05164 3.71968 1.88967 4.20485 1.78169 5.06739H8.31455Z" transform="translate(96.9671 27.7089)" fill="#BF0000"/>
<path d="M3.67136 -4.11288e-07V2.53369H6.58685V4.09704H3.67136V11.8059C3.67136 12.5067 4.10329 12.938 4.85915 12.938C5.50704 12.938 5.88498 12.7224 6.26291 12.0755L7.50469 12.938C6.69483 14.124 5.93896 14.5013 4.69718 14.5013C3.40141 14.5013 2.59155 14.0162 2.21362 12.938C2.05165 12.5606 1.99765 12.1294 1.99765 11.4825V4.09704H0V2.53369H1.99765V-4.11288e-07H3.67136Z" transform="translate(107.441 25.4987)" fill="#BF0000"/>
</svg>
