<svg id="レイヤー_1" data-name="レイヤー 1" xmlns="http://www.w3.org/2000/svg" xmlns:xlink="http://www.w3.org/1999/xlink" viewBox="0 0 268 64"><defs><style>.cls-1{fill:none;}.cls-2{fill:#fff;}.cls-3{fill:#c8102e;}.cls-4{fill:#1d428a;}.cls-5{fill:#bf0000;}.cls-6{clip-path:url(#clip-path);}.cls-7{fill:#deb500;}.cls-8{fill:#ffd200;}.cls-9{fill:#8b2346;}.cls-10{fill:#002596;}.cls-11{fill:#cc092f;}</style><clipPath id="clip-path"><rect class="cls-1" y="8" width="132" height="52.8"/></clipPath></defs><title>アートボード 1</title><path class="cls-2" d="M172.84,1H161.16A5.15,5.15,0,0,0,156,6.12V45.37a5.15,5.15,0,0,0,5.16,5.13h11.67A5.16,5.16,0,0,0,178,45.37V6.12A5.15,5.15,0,0,0,172.84,1Z"/><path class="cls-3" d="M170,10.24v-.17a5.66,5.66,0,0,0-1.31-.75.48.48,0,0,1,0-.57c.31,0,.72-.74,1.06-1.45.23,0,.33-.17.4-.31l0-.08a.83.83,0,0,0,.08-.12c.26-.41.48-.75.12-1,.9-1.6.32-2.69-.16-2.73A1.88,1.88,0,0,0,169,2.2h3.77a3.94,3.94,0,0,1,3.94,3.92v19a3,3,0,0,0-.45-.82c0-.35-.25-.46-.47-.55a.67.67,0,0,1-.25-.16.34.34,0,0,1-.05-.11c0-.11-.05-.2-.79-.37-.18-.1-.33-1.54-.33-1.54a7.18,7.18,0,0,0-.88-2.36l-.09-.17a6.81,6.81,0,0,1-.32-1.41,10.68,10.68,0,0,0-.31-1.45c.15-3.64-1-4.7-2-5.29-.15-.09-.26-.18-.37-.26S170.16,10.36,170,10.24Zm3.55,19.61a3.5,3.5,0,0,0,3.27-2.2h0V45.36a3.9,3.9,0,0,1-3.31,3.88h0c1.46-.88.93-2.42.53-3.58-.08-.22-.14-.42-.2-.6a.21.21,0,0,1,0-.17l0,0c.09-.16-.1-.52-.1-.52a2.56,2.56,0,0,1-.27-1,5.27,5.27,0,0,0-.1-.58,4.1,4.1,0,0,1,.18-1.74,3.19,3.19,0,0,0,.14-.69,3.44,3.44,0,0,0-.93-1.77,10.35,10.35,0,0,1-.3-1.58,21.27,21.27,0,0,0-.66-3.2,7,7,0,0,0-.6-1.17,7.81,7.81,0,0,1-.73-1.44,5.54,5.54,0,0,1-.34-1.76,21.91,21.91,0,0,0-.88-4.61,2.73,2.73,0,0,0,.25-.23s-.88-3.2-1.17-4.08-.8-.93-.8-.93,0-.36,0-.45,1.07-2.81,1.16-2.9,1.5-1.06,1.52-.92a2.6,2.6,0,0,1,.06.3,39.75,39.75,0,0,0,.89,4.22c.07.16.21.44.37.76.36.73.86,1.72,1.14,2.42a3.49,3.49,0,0,0,.82,6.88Z"/><path class="cls-4" d="M172.34,44.61c-.64-.56-.21-.8-.24-1-.42-1.71-1.79-2.75-1.08-3.32A11.37,11.37,0,0,0,170.5,39a21.52,21.52,0,0,1-4.27-3.49c-.37-.4-1-.81-1.13-1.14a33.79,33.79,0,0,1-3.62-5.32l-1-.15c-.47-1.89-2-3.47-2.06-5.36a10.69,10.69,0,0,1,.45-2.55,3.33,3.33,0,0,1,.72-.82v-.5c-2.23.06-1.59-.17-2-1-.27-.59-.08-.73,0-1.14a25.43,25.43,0,0,1,1.71-4c.13-.43.55-1.47.55-1.47,1.67-3.35,2.29-3.1,4.27-3.29l.09-.14c2-.09,1.66-.23,1.93-2.12-.28.12-.37-.6-.37-.6-.15-1.07.31-.87.52-.89,0-1.77.23-2.33,1.52-2.82h-6.67a3.93,3.93,0,0,0-3.95,3.92V45.38a3.94,3.94,0,0,0,3.95,3.92h11.67C171.5,48.58,172.29,47.21,172.34,44.61Z"/><path class="cls-2" d="M163.38,46.82V39.71h1.38c.81,0,1.3.43,1.3,1.43V42.2a1.19,1.19,0,0,1-.47,1.13,1.19,1.19,0,0,1,.47,1.05v1a1.23,1.23,0,0,1-1.3,1.41Zm1-3.08v2.19h.36c.33,0,.42-.17.42-.51v-1.2c0-.35-.11-.48-.43-.48Zm0-3.12V43h.35c.34,0,.43-.12.43-.5V41.09c0-.33-.1-.48-.42-.48h-.36Zm4,4.76h-.86l-.12,1.44h-1l.87-7.11h1.37l.83,7.11h-1Zm-.42-4.87h0c-.06.86-.18,2.36-.22,2.84l-.11,1.22h.74l-.11-1.22C168.1,42.86,168,41.38,167.88,40.51Zm-7.34,6.31h-.83V39.71H161l1.07,5.82c-.09-1.39-.21-3.07-.21-4.51V39.71h.83v7.1H161.5l-1.07-5.68c.08,1.32.1,2.37.1,3.46v2.23Z"/><circle class="cls-4" cx="187.5" cy="26.5" r="3.5"/><path class="cls-5" d="M224.29,25.16l4.44-5.38h-3.6l-3.14,4V16h-2.64V31.25H222V26.54l3.85,4.71h3.61Z"/><path class="cls-5" d="M200.22,26.8v4.41H197.5V16.92h4.44a4.94,4.94,0,0,1,2.85,9l4,5.34h-3.39L202.1,26.8ZM202,19.66h-1.76v4.45H202a2.23,2.23,0,0,0,0-4.45Z"/><path class="cls-5" d="M215.29,20.29v-.51h2.6V31.21h-2.6V30.7a4,4,0,0,1-2.42.8c-3,0-5.2-2.69-5.2-6s2.26-6,5.2-6A4.13,4.13,0,0,1,215.29,20.29Zm-5,5.25c0,1.8,1.05,3.23,2.51,3.23s2.52-1.43,2.47-3.23-1-3.24-2.47-3.24S210.31,23.73,210.31,25.54Z"/><path class="cls-5" d="M236,26.5V19.78h2.59V31.21H236v-.42a4.15,4.15,0,0,1-2.22.71,4.7,4.7,0,0,1-4.65-5V19.78h2.6V26.5a2.14,2.14,0,1,0,4.27,0Z"/><path class="cls-5" d="M245.56,28.52a1.54,1.54,0,0,1-.88.29,1.27,1.27,0,0,1-1.21-1.38V22.51h2.22V19.78h-2.22V16.92h-2.59v2.86h-1.39v2.73h1.39v4.92a3.89,3.89,0,0,0,3.85,4.07,5.48,5.48,0,0,0,2.51-.71Z"/><path class="cls-5" d="M251.55,19.49c-3,0-5.15,2.64-5.15,6a5.77,5.77,0,0,0,5.4,6,5.34,5.34,0,0,0,4.57-2.56l-2.31-1.34c-1.76,2.6-4.73,1.3-5.06-1.35h7.45C257.12,22.22,254.48,19.49,251.55,19.49ZM249.16,24a2.34,2.34,0,0,1,4.65,0Z"/><path class="cls-5" d="M260.13,31.21V24.53a2.14,2.14,0,1,1,4.27,0v6.72H267V24.53a4.7,4.7,0,0,0-4.65-5,4.15,4.15,0,0,0-2.22.71v-.46h-2.59V31.21Z"/><path class="cls-5" d="M211.4,33.39h42l-38.64,3.36Z"/><path class="cls-4" d="M164.05,59.77a3.64,3.64,0,0,1-.38,1.65,2.88,2.88,0,0,1-1,1.16,2.83,2.83,0,0,1-1.52.42,2.81,2.81,0,0,1-2.56-1.55,3.65,3.65,0,0,1-.39-1.62v-.25a3.64,3.64,0,0,1,.38-1.65,2.88,2.88,0,0,1,4.07-1.16,2.9,2.9,0,0,1,1.06,1.16,3.58,3.58,0,0,1,.39,1.61Zm-1.54-.19a2.5,2.5,0,0,0-.39-1.46,1.19,1.19,0,0,0-1-.57,1.18,1.18,0,0,0-1,.56,2.58,2.58,0,0,0-.39,1.51v.15a2.54,2.54,0,0,0,.39,1.48,1.2,1.2,0,0,0,1,.56,1.18,1.18,0,0,0,1-.58,2.61,2.61,0,0,0,.38-1.5Z"/><path class="cls-4" d="M165,62.91V59.15h-.69v-1H165v-.38a1.67,1.67,0,0,1,.48-1.28,1.85,1.85,0,0,1,1.33-.45,3,3,0,0,1,.7.09v1.1a1.63,1.63,0,0,0-.36,0c-.45,0-.67.2-.67.59v.37H168V58a1.83,1.83,0,0,1,.62-1.47,2.45,2.45,0,0,1,1.61-.48,5.81,5.81,0,0,1,1.55.26l-.21,1.18-.24-.07a3.66,3.66,0,0,0-1-.13c-.57,0-.85.26-.85.78v.09h.92v1h-.92v3.76H168V59.15h-1.49v3.76Zm7.42,0h-1.48v-4.8h1.48Z"/><path class="cls-4" d="M175.31,61.84a.69.69,0,0,0,.5-.17.63.63,0,0,0,.2-.48h1.38a1.71,1.71,0,0,1-.59,1.3,2.11,2.11,0,0,1-1.46.51,2.22,2.22,0,0,1-1.68-.67,2.56,2.56,0,0,1-.63-1.81v-.06a2.76,2.76,0,0,1,.28-1.27,2.1,2.1,0,0,1,.8-.87,2.45,2.45,0,0,1,1.22-.3,2.06,2.06,0,0,1,1.48.52,1.83,1.83,0,0,1,.58,1.4H176a.9.9,0,0,0-.2-.56.66.66,0,0,0-.51-.21c-.49,0-.76.38-.79,1.13v.26C174.5,61.41,174.77,61.84,175.31,61.84Z"/><path class="cls-4" d="M179.48,62.91H178v-4.8h1.48Zm-1.56-6a.66.66,0,0,1,.22-.52.85.85,0,0,1,.59-.21.82.82,0,0,1,.59.21.7.7,0,0,1,0,1,.82.82,0,0,1-.59.21.85.85,0,0,1-.59-.21A.66.66,0,0,1,177.92,56.87Z"/><path class="cls-4" d="M183,62.91a1.8,1.8,0,0,1-.14-.43,1.37,1.37,0,0,1-1.13.52,1.68,1.68,0,0,1-1.14-.41,1.45,1.45,0,0,1,.1-2.22,2.91,2.91,0,0,1,1.65-.4h.46v-.25q0-.66-.57-.66a.46.46,0,0,0-.52.52h-1.48a1.36,1.36,0,0,1,.59-1.13,2.42,2.42,0,0,1,1.49-.43,2.13,2.13,0,0,1,1.43.45,1.56,1.56,0,0,1,.54,1.23v2.12a2.1,2.1,0,0,0,.2,1v.08Zm-.92-1a.83.83,0,0,0,.46-.12.74.74,0,0,0,.26-.27v-.77h-.43c-.52,0-.77.24-.77.7a.45.45,0,0,0,.13.34A.51.51,0,0,0,182,61.93Z"/><path class="cls-4" d="M186.49,62.91H185V56.09h1.48Z"/><path class="cls-4" d="M191.06,60.72v2.19h-1.54V56.45h2.55a3,3,0,0,1,1.29.27,2.06,2.06,0,0,1,.87.78,2.16,2.16,0,0,1,.31,1.14,1.9,1.9,0,0,1-.67,1.51,2.73,2.73,0,0,1-1.83.57Zm0-1.21h1a.92.92,0,0,0,.67-.22.84.84,0,0,0,.24-.64,1,1,0,0,0-.24-.72.81.81,0,0,0-.66-.28h-1Z"/><path class="cls-4" d="M197.78,62.91a1.8,1.8,0,0,1-.14-.43,1.38,1.38,0,0,1-1.14.52,1.7,1.7,0,0,1-1.14-.41,1.33,1.33,0,0,1-.46-1,1.37,1.37,0,0,1,.56-1.18,2.92,2.92,0,0,1,1.66-.4h.45v-.25c0-.44-.19-.66-.56-.66a.47.47,0,0,0-.53.52H195a1.35,1.35,0,0,1,.58-1.13,2.44,2.44,0,0,1,1.49-.43,2.11,2.11,0,0,1,1.43.45,1.56,1.56,0,0,1,.54,1.23v2.12a2.22,2.22,0,0,0,.2,1v.08Zm-.93-1a.81.81,0,0,0,.46-.12.74.74,0,0,0,.26-.27v-.77h-.43c-.51,0-.77.24-.77.7a.46.46,0,0,0,.14.34A.49.49,0,0,0,196.85,61.93Z"/><path class="cls-4" d="M202.64,59.46l-.48,0a.86.86,0,0,0-.89.45v3h-1.48v-4.8h1.38l.05.61a1.15,1.15,0,0,1,1-.7,1.64,1.64,0,0,1,.41,0Z"/><path class="cls-4" d="M205,56.91v1.2h.78v1H205v2.19a.54.54,0,0,0,.1.38.51.51,0,0,0,.38.1,2.06,2.06,0,0,0,.37,0v1.07A3,3,0,0,1,205,63a1.54,1.54,0,0,1-1.12-.37,1.5,1.5,0,0,1-.36-1.1V59.15h-.61v-1h.61v-1.2Z"/><path class="cls-4" d="M207.65,58.11l0,.56a1.59,1.59,0,0,1,1.35-.65,1.33,1.33,0,0,1,1.1.45,2.16,2.16,0,0,1,.38,1.34v3.1h-1.48v-3a.87.87,0,0,0-.14-.54.69.69,0,0,0-.53-.17.7.7,0,0,0-.64.35v3.39h-1.48v-4.8Z"/><path class="cls-4" d="M213.55,63a2.4,2.4,0,0,1-1.76-.66,2.3,2.3,0,0,1-.68-1.72V60.5a3,3,0,0,1,.27-1.3,1.91,1.91,0,0,1,.79-.87,2.28,2.28,0,0,1,1.22-.31,2,2,0,0,1,1.58.63,2.51,2.51,0,0,1,.57,1.75V61h-2.93a1.09,1.09,0,0,0,.35.63,1,1,0,0,0,.69.23,1.3,1.3,0,0,0,1.09-.49l.68.8a1.91,1.91,0,0,1-.79.62A2.58,2.58,0,0,1,213.55,63Zm-.17-3.83c-.43,0-.68.29-.77.87h1.49v-.11a.72.72,0,0,0-.18-.56A.7.7,0,0,0,213.38,59.17Z"/><path class="cls-4" d="M218.91,59.46l-.48,0a.86.86,0,0,0-.89.45v3h-1.48v-4.8h1.39l0,.61a1.15,1.15,0,0,1,1-.7,1.64,1.64,0,0,1,.41,0Z"/><path class="cls-4" d="M221.28,60.46a2.79,2.79,0,0,1,.29-1.27,2.24,2.24,0,0,1,.83-.87,2.57,2.57,0,0,1,1.25-.3,2.25,2.25,0,0,1,1.73.68,2.5,2.5,0,0,1,.65,1.8v.06a2.72,2.72,0,0,1-.29,1.26,2.11,2.11,0,0,1-.83.87,2.54,2.54,0,0,1-1.25.31,2.33,2.33,0,0,1-1.72-.67,2.47,2.47,0,0,1-.66-1.81Zm1.48.1a1.62,1.62,0,0,0,.23.94.76.76,0,0,0,.67.34.77.77,0,0,0,.66-.33,1.85,1.85,0,0,0,.24-1,1.61,1.61,0,0,0-.24-.94.8.8,0,0,0-1.32,0A1.85,1.85,0,0,0,222.76,60.56Z"/><path class="cls-4" d="M226.94,62.91V59.15h-.69v-1h.69v-.38a1.67,1.67,0,0,1,.48-1.28,1.87,1.87,0,0,1,1.34-.45,3,3,0,0,1,.69.09v1.1a1.63,1.63,0,0,0-.36,0c-.45,0-.67.2-.67.59v.37h.92v1h-.92v3.76Z"/><path class="cls-4" d="M233.75,56.91v1.2h.78v1h-.78v2.19a.6.6,0,0,0,.1.38.51.51,0,0,0,.38.1,2,2,0,0,0,.37,0v1.07a2.93,2.93,0,0,1-.83.13,1.55,1.55,0,0,1-1.13-.37,1.5,1.5,0,0,1-.36-1.1V59.15h-.6v-1h.6v-1.2Z"/><path class="cls-4" d="M236.53,58.62a1.61,1.61,0,0,1,2.39-.13,2.11,2.11,0,0,1,.4,1.39v3h-1.47v-3a.81.81,0,0,0-.16-.56.64.64,0,0,0-.52-.18.72.72,0,0,0-.64.29v3.45h-1.47V56.09h1.47Z"/><path class="cls-4" d="M242.41,63a2.38,2.38,0,0,1-1.76-.66,2.3,2.3,0,0,1-.68-1.72V60.5a3,3,0,0,1,.27-1.3,1.91,1.91,0,0,1,.79-.87,2.28,2.28,0,0,1,1.22-.31,2,2,0,0,1,1.57.63,2.47,2.47,0,0,1,.58,1.75V61h-2.93a1,1,0,0,0,.35.63,1,1,0,0,0,.69.23,1.3,1.3,0,0,0,1.09-.49l.68.8a1.91,1.91,0,0,1-.79.62A2.58,2.58,0,0,1,242.41,63Zm-.17-3.83c-.43,0-.69.29-.77.87H243v-.11a.8.8,0,0,0-.18-.56A.72.72,0,0,0,242.24,59.17Z"/><path class="cls-4" d="M252.56,62.91H251l-2.26-4v4h-1.54V56.45h1.54l2.25,4v-4h1.53Z"/><path class="cls-4" d="M253.51,62.91V56.45h2.28a3.23,3.23,0,0,1,1.87.45,1.53,1.53,0,0,1,.64,1.33,1.57,1.57,0,0,1-.22.86,1.36,1.36,0,0,1-.67.52,1.33,1.33,0,0,1,.76.5,1.44,1.44,0,0,1,.27.88,1.74,1.74,0,0,1-.59,1.43,2.82,2.82,0,0,1-1.76.49ZM255,60.16v1.55h1a.94.94,0,0,0,.64-.19.71.71,0,0,0,.22-.55.71.71,0,0,0-.79-.81Zm0-1h.8a1.05,1.05,0,0,0,.72-.19.66.66,0,0,0,.21-.53.69.69,0,0,0-.23-.59,1.21,1.21,0,0,0-.75-.18H255Z"/><path class="cls-4" d="M262.88,61.7h-2.1l-.37,1.21h-1.64l2.33-6.46h1.45l2.35,6.46h-1.65Zm-1.74-1.2h1.37l-.68-2.24Z"/><g class="cls-6"><path d="M4.45,50.19a1.61,1.61,0,0,1,1.81-1.81A2,2,0,0,1,7.75,49v.75H6.92c0-.09-.08-.5-.66-.5s-.91.33-.91,1v1.32c0,.66.25.91.83.91a1.08,1.08,0,0,0,.74-.25v-1H6.18v-.82H7.75v2.8H7.09L7,52.83a1.31,1.31,0,0,1-1,.41c-1.07-.08-1.56-.66-1.56-1.81Z"/><path d="M8.76,48.43H9.7v3.86h1.91l-.14.83H8.76Z"/><path d="M12.14,50.23A1.68,1.68,0,0,1,14,48.33a1.68,1.68,0,0,1,1.81,1.9V51.3A1.68,1.68,0,0,1,14,53.2a1.68,1.68,0,0,1-1.82-1.9ZM14,52.38c.66,0,.91-.33.91-1V50.15c0-.66-.25-1-.91-1s-.91.33-.91,1v1.24C13.05,52.05,13.38,52.38,14,52.38Z"/><path d="M16.68,48.43h1.71c1.13,0,1.52.51,1.52,1.29a1.2,1.2,0,0,1-.14.59,1.11,1.11,0,0,1-.41.45,1.16,1.16,0,0,1,.45.43,1.12,1.12,0,0,1,.17.59c0,.83-.46,1.35-1.53,1.35H16.68Zm.92.83v1.12h1a.61.61,0,0,0,.27-.23.64.64,0,0,0,.1-.35.42.42,0,0,0,0-.22.46.46,0,0,0-.13-.18.41.41,0,0,0-.19-.12.53.53,0,0,0-.22,0Zm0,1.91v1.18h.88a.45.45,0,0,0,.23,0,.63.63,0,0,0,.2-.13A.62.62,0,0,0,19,52a.47.47,0,0,0,0-.23.74.74,0,0,0-.12-.36.67.67,0,0,0-.29-.24Z"/><path d="M20.62,52.62l1.12-4.19h1.52l1.16,4.19v.52h-.83l-.25-1a3.84,3.84,0,0,1-.83.09,4.56,4.56,0,0,1-.82-.08l-.24,1h-.83Zm1.29-1.25a3.15,3.15,0,0,0,.61.06,3.38,3.38,0,0,0,.63-.07l-.27-1c-.12-.43-.26-1-.26-1h-.18s-.14.62-.26,1Z"/><path d="M25.19,48.43h.94v3.86h1.92l-.14.83H25.19Z"/><path d="M30.36,52.4V49.18l-.47-.09v-.66h1.88v.66l-.47.09V52.4l.47.08v.66H29.89v-.66Z"/><path d="M32.55,48.43h.83l1.34,2.21c.12.19.38.72.38.72V48.43H36v4.71h-.9v-.38l-1.18-1.93L33.47,50v3.12h-.92Z"/><path d="M37,48.43h.82l1.35,2.21c.11.19.38.72.38.72V48.43h.93v4.71H39.6v-.38l-1.18-1.93L38,50v3.12H37Z"/><path d="M41.38,50.23a1.82,1.82,0,1,1,3.63,0V51.3a1.82,1.82,0,1,1-3.63,0Zm1.82,2.15c.66,0,.9-.33.9-1V50.15c0-.66-.24-1-.9-1s-.91.33-.91,1v1.24C42.29,52.05,42.62,52.38,43.2,52.38Z"/><path d="M46.43,48.43l.75,2.83c.12.44.23,1.05.23,1.05h.18s.12-.61.23-1.05l.74-2.83h.82V49l-1.14,4.12H46.72L45.6,49v-.56Z"/><path d="M49.58,52.62l1.16-4.19h1.52l1.16,4.19v.52h-.83l-.25-1a3.84,3.84,0,0,1-.83.09,4.56,4.56,0,0,1-.82-.08l-.26,1h-.85Zm1.29-1.25a3.15,3.15,0,0,0,.61.06,3.48,3.48,0,0,0,.64-.07l-.29-1-.24-1H51.4s-.14.62-.26,1Z"/><path d="M55.61,49.26v3.86h-.94V49.26H53.54v-.83h3.24l-.14.83Z"/><path d="M57.82,52.4V49.18l-.47-.09v-.66h1.89v.66l-.47.09V52.4l.47.08v.66H57.35v-.66Z"/><path d="M59.87,50.23a1.82,1.82,0,1,1,3.63,0V51.3a1.82,1.82,0,1,1-3.63,0Zm1.82,2.15c.66,0,.9-.33.9-1V50.15c0-.66-.24-1-.9-1s-.91.33-.91,1v1.24C60.78,52.05,61.11,52.38,61.69,52.38Z"/><path d="M64.35,48.43h.83l1.34,2.21c.12.19.38.72.38.72V48.43h.92v4.71H67v-.38l-1.19-1.93L65.3,50v3.12h-1Z"/><path d="M70.9,50.67a1.73,1.73,0,0,1-.36-1.07c0-.82.49-1.23,1.42-1.23s1.47.42,1.47,1.2-.38,1-1.14,1.31l.69.7v-.75h.82v.49a2.21,2.21,0,0,1-.17.92l.35.36v.54h-.62l-.25-.24a2.06,2.06,0,0,1-1.21.32c-1.18,0-1.65-.49-1.65-1.34a1.33,1.33,0,0,1,.16-.7A1.27,1.27,0,0,1,70.9,50.67Zm1,1.78a1.41,1.41,0,0,0,.64-.12l-1.08-1.08a.59.59,0,0,0-.24.23.75.75,0,0,0-.1.32C71.08,52.24,71.37,52.45,71.86,52.45Zm-.15-2.16.15-.06c.5-.21.64-.35.64-.64a.49.49,0,0,0-.54-.47c-.31,0-.54.15-.54.48A1,1,0,0,0,71.71,50.29Z"/><path d="M76.16,48.43h3l-.13.83H77.11v1.08h1.73v.82H77.11v1.08h2v.82H76.16Z"/><path d="M79.94,48.43h.83l1.34,2.21c.11.19.37.72.37.72V48.43h.91v4.71H82.5v-.38l-1.19-1.93L80.85,50v3.12h-.91Z"/><path d="M86.19,49.26v3.86h-.94V49.26h-1.1v-.83h3.23l-.14.83Z"/><path d="M88,48.43h3l-.13.83H89v1.08h1.77v.82H89v1.08h2v.82H88.08Z"/><path d="M91.81,48.43H93.6c1,0,1.58.49,1.58,1.41a1.46,1.46,0,0,1-.27.85,1.54,1.54,0,0,1-.7.56,8.1,8.1,0,0,0,1,1.31v.57h-.72a10.79,10.79,0,0,1-1.22-1.78h-.49v1.79h-.94Zm2,2.07a.62.62,0,0,0,.44-.62.63.63,0,0,0,0-.24.48.48,0,0,0-.14-.2.46.46,0,0,0-.2-.13.5.5,0,0,0-.24,0h-.88V50.5Z"/><path d="M97.8,49.26v3.86h-.94V49.26H95.74v-.83H99l-.14.83Z"/><path d="M99,52.62l1.16-4.19h1.52l1.17,4.19v.52H102l-.26-1a3.75,3.75,0,0,1-.82.09,4.67,4.67,0,0,1-.83-.08l-.29,1H99Zm1.29-1.25a3.15,3.15,0,0,0,.61.06,2.7,2.7,0,0,0,.63-.07l-.28-1c-.11-.43-.25-1-.25-1h-.18s-.14.62-.26,1Z"/><path d="M104,52.4V49.18l-.47-.09v-.66h1.88v.66l-.47.09V52.4l.47.08v.66h-1.88v-.66Z"/><path d="M106.17,48.43H107l1.34,2.21c.12.19.38.72.38.72V48.43h.92v4.71h-.94v-.38l-1.18-1.93-.48-.82v3.12h-.91Z"/><path d="M110.65,48.43h1.55l.55,2.54c.11.49.24,1.39.24,1.39h0s.14-.9.24-1.39l.58-2.54h1.54v4.71h-.9V49.21h-.09s-.19.94-.29,1.39l-.59,2.54h-1l-.59-2.54-.3-1.39h-.07v3.93h-.9Z"/><path d="M116.37,48.43h3l-.14.83h-1.9v1.08H119v.82h-1.73v1.08h2v.82h-2.92Z"/><path d="M120.14,48.43H121l1.35,2.21.37.72s0-.51,0-1v-2h.91v4.71h-.91v-.38l-1.18-1.93L121,50v3.12h-.91Z"/><path d="M126.39,49.26v3.86h-.94V49.26h-1.12v-.83h3.22l-.13.83Z"/><path d="M23.74,55.5h1.75c1.05,0,1.59.52,1.59,1.49a1.56,1.56,0,0,1-1,1.5H24.68v1.72h-.94Zm2,2.13a.68.68,0,0,0,.31-.27.7.7,0,0,0,.09-.4.52.52,0,0,0,0-.25A.77.77,0,0,0,26,56.5a.53.53,0,0,0-.22-.12.54.54,0,0,0-.25,0h-.82v1.28Z"/><path d="M27.37,59.69l1.15-4.19h1.53l1.15,4.19v.52h-.82l-.26-1a4.57,4.57,0,0,1-.82.09,5.69,5.69,0,0,1-.83-.08l-.25,1h-.85Zm1.28-1.25a3.15,3.15,0,0,0,.61.06,3.38,3.38,0,0,0,.63-.07l-.27-1c-.12-.43-.26-1-.26-1h-.18s-.14.61-.26,1Z"/><path d="M32,55.5h1.78c1,0,1.58.49,1.58,1.4a1.44,1.44,0,0,1-.26.87,1.51,1.51,0,0,1-.71.56,7.84,7.84,0,0,0,1,1.33v.57h-.72a11.45,11.45,0,0,1-1.19-1.8h-.49v1.8H32Zm2,2.06a.58.58,0,0,0,.32-.24.57.57,0,0,0,.11-.38.46.46,0,0,0,0-.23.76.76,0,0,0-.12-.19.64.64,0,0,0-.19-.13.57.57,0,0,0-.22,0h-.92v1.21Z"/><path d="M38,56.35v3.86H37V56.35H35.9v-.82h3.22l-.14.82Z"/><path d="M39.81,55.5h.82L42,57.71c.1.18.37.71.37.71V55.5h.91v4.71h-.89v-.38L41.18,57.9l-.46-.83V60.2h-.91Z"/><path d="M44.28,55.5h3l-.14.83h-1.9v1.08h1.72v.82H45.22v1.08h2v.83H44.28Z"/><path d="M48.05,55.5h1.78c1,0,1.59.49,1.59,1.4a1.58,1.58,0,0,1-.26.87,1.51,1.51,0,0,1-.71.56,7.84,7.84,0,0,0,.95,1.33v.57h-.72a10.23,10.23,0,0,1-1.18-1.81H49v1.79h-1Zm2,2.06a.58.58,0,0,0,.32-.24.57.57,0,0,0,.11-.38.5.5,0,0,0,0-.24.63.63,0,0,0-.13-.2.45.45,0,0,0-.21-.12.61.61,0,0,0-.24,0H49v1.22Z"/><path d="M53.55,57.29a1.82,1.82,0,1,1,3.63,0v1.08a1.82,1.82,0,1,1-3.63,0Zm1.82,2.15c.66,0,.9-.33.9-1V57.21c0-.66-.24-1-.9-1s-.91.33-.91,1v1.24C54.46,59.11,54.79,59.44,55.37,59.44Z"/><path d="M58.07,55.5H61l-.14.83H59v1.08h1.65v.82H59v1.93h-.94Z"/><path d="M63.1,55.5H66l-.14.83H64.05v1.08H65.7v.82H64.05v1.93H63.1Z"/><path d="M66.51,57.21c0-1.24.58-1.81,1.73-1.81a1.87,1.87,0,0,1,1.41.49v.74H68.9s-.08-.41-.66-.41-.82.33-.82,1v1.24c0,.66.16,1,.82,1s.66-.41.66-.41h.75v.74a1.87,1.87,0,0,1-1.41.49,1.65,1.65,0,0,1-1.73-1.89Z"/><path d="M72,55.5h1.71c1.13,0,1.51.51,1.51,1.29a1.19,1.19,0,0,1-.13.59,1.27,1.27,0,0,1-.41.45,1.14,1.14,0,0,1,.44.43,1.2,1.2,0,0,1,.18.58c0,.83-.46,1.36-1.54,1.36H72Zm.91.83v1.1h1a.62.62,0,0,0,.27-.24.59.59,0,0,0,.1-.34.54.54,0,0,0,0-.22.57.57,0,0,0-.12-.18.76.76,0,0,0-.19-.12.55.55,0,0,0-.22,0Zm0,1.91v1.17h.88a.59.59,0,0,0,.23,0,.51.51,0,0,0,.2-.12.63.63,0,0,0,.13-.2.65.65,0,0,0,0-.24.55.55,0,0,0-.12-.35.57.57,0,0,0-.3-.23Z"/><path d="M75.85,59.69,77,55.5h1.52l1.16,4.19v.52h-.83l-.25-1a4.68,4.68,0,0,1-.83.09,5.56,5.56,0,0,1-.82-.08l-.27,1h-.84Zm1.29-1.25a3.08,3.08,0,0,0,.61.06,3.38,3.38,0,0,0,.63-.07l-.29-1-.24-1h-.18s-.14.61-.26,1Z"/><path d="M80.45,55.5h1.79c1,0,1.58.49,1.58,1.4a1.58,1.58,0,0,1-.26.87,1.56,1.56,0,0,1-.71.56,7.84,7.84,0,0,0,1,1.33v.57h-.72a10.2,10.2,0,0,1-1.19-1.8h-.5v1.8h-.94Zm2,2.06a.61.61,0,0,0,.33-.24.57.57,0,0,0,.11-.38.67.67,0,0,0,0-.24.63.63,0,0,0-.13-.2.82.82,0,0,0-.2-.12.5.5,0,0,0-.24,0h-.88v1.21Z"/><path d="M84.5,57.21c0-1.24.58-1.81,1.74-1.81a1.84,1.84,0,0,1,1.4.49v.74H86.9a.61.61,0,0,0-.66-.41c-.58,0-.83.33-.83,1v1.24c0,.66.17,1,.83,1A.61.61,0,0,0,86.9,59h.74v.74a1.84,1.84,0,0,1-1.4.49,1.65,1.65,0,0,1-1.74-1.89Z"/><path d="M88.48,55.5h3l-.14.83H89.42v1.08h1.73v.82H89.42v1.08h2v.83H88.48Z"/><path d="M92.25,55.5h1v3.86h1.91l-.14.83H92.28Z"/><path d="M95.63,57.29a1.82,1.82,0,1,1,3.63,0v1.08a1.82,1.82,0,1,1-3.63,0Zm1.81,2.15c.66,0,.91-.33.91-1V57.21c0-.66-.25-1-.91-1s-.91.33-.91,1v1.24C96.53,59.11,96.86,59.44,97.44,59.44Z"/><path d="M100.17,55.5H101l1.34,2.21c.11.18.37.71.37.71V55.5h.92v4.71h-.92v-.38l-1.18-1.93-.47-.83V60.2h-.91Z"/><path d="M104.42,59.69l1.15-4.19h1.53l1.16,4.19v.52h-.83l-.25-1a4.68,4.68,0,0,1-.83.09,5.56,5.56,0,0,1-.82-.08l-.26,1h-.85Zm1.29-1.25a3.08,3.08,0,0,0,.61.06,3.18,3.18,0,0,0,.62-.07l-.27-1c-.11-.43-.25-1-.25-1h-.18s-.14.61-.26,1Z"/><path class="cls-7" d="M120,9.05l.16.1a8.58,8.58,0,0,0,5.44,1.41,7.63,7.63,0,0,0,2.41-.42l.2-.07,1,1.46-.11.14c-3.86,5.15-.82,10.73,1.29,12.93l.2.21-.2.2c-.28.27-.77.79-1.13,1.16l-.12.13v.24a.49.49,0,0,0,0,.17,11.09,11.09,0,0,1-2.64,8.38,13.22,13.22,0,0,1-9.14,3.84h-.15l-.11.1c-1,.89-2,1.65-2,1.65l-.17.13-.18-.13a20.17,20.17,0,0,1-2-1.65l-.11-.1h-.15a13.15,13.15,0,0,1-9.13-3.84,11.1,11.1,0,0,1-2.65-8.38v-.39l-.1-.16c-.34-.36-.83-.88-1.12-1.16l-.21-.21.2-.21c2.15-2.22,5.16-7.78,1.29-12.93l-.11-.14,1-1.46.2.07a7.3,7.3,0,0,0,2.4.42,8.67,8.67,0,0,0,5.45-1.4L110,9l.16.11A8.16,8.16,0,0,0,115,10.79a8.1,8.1,0,0,0,4.81-1.65l.17-.11"/><path class="cls-2" d="M103.17,21.76a10.78,10.78,0,0,0,1-5,10.61,10.61,0,0,0-1.42-4.9,8.56,8.56,0,0,0,1.59.15A10.42,10.42,0,0,0,110,10.78a9.65,9.65,0,0,0,5,1.44,9.54,9.54,0,0,0,5-1.44A10.45,10.45,0,0,0,125.56,12a7.8,7.8,0,0,0,1.59-.16,10.66,10.66,0,0,0-.38,9.9h-23.6"/><path class="cls-8" d="M126.77,21.76a10.66,10.66,0,0,1,.38-9.9,8.57,8.57,0,0,1-1.59.16A10.45,10.45,0,0,1,120,10.79a9.63,9.63,0,0,1-5,1.44h0v9.53Z"/><path class="cls-9" d="M120.49,36.92a10.9,10.9,0,0,0,3.68-1.69V26.38h-3.68Z"/><path class="cls-9" d="M105.76,35.23a11.39,11.39,0,0,0,3.71,1.71V26.38h-3.71Z"/><path class="cls-9" d="M115,28.33a3.39,3.39,0,0,1,1.83.53V26.38h-3.68v2.48A3.4,3.4,0,0,1,115,28.33Z"/><path class="cls-9" d="M115,35.23a3.46,3.46,0,0,1-1.85-.53v2.74h3.69v-2.7A3.3,3.3,0,0,1,115,35.23Z"/><path class="cls-10" d="M124.17,35.23c2.33-1.7,3.71-4.41,3.5-8.37a3.62,3.62,0,0,0-.06-.46h-3.44Z"/><path class="cls-10" d="M102.3,26.84c-.2,4,1.18,6.68,3.5,8.38V26.38h-3.5Z"/><path class="cls-10" d="M116.81,26.38v2.48a3.45,3.45,0,0,1,1.2,1.26,3.5,3.5,0,0,1,0,3.36,3.53,3.53,0,0,1-1.2,1.26v2.74a17.61,17.61,0,0,0,3.68-.56V26.38Z"/><path class="cls-10" d="M111.51,31.8a3.4,3.4,0,0,1,.44-1.68,3.45,3.45,0,0,1,1.21-1.25V26.4h-3.69V36.92a17.7,17.7,0,0,0,3.69.56V34.73A3.45,3.45,0,0,1,112,33.48,3.4,3.4,0,0,1,111.51,31.8Z"/><path class="cls-11" d="M104,15a10.35,10.35,0,0,1,.1,3.51h3.57v3.22h3.51V18.54h3.74V15h-3.74V11.46c-.41-.19-.82-.41-1.22-.64a9.08,9.08,0,0,1-2.29.92V15Z"/><path class="cls-11" d="M122.49,21.76v-10a8.39,8.39,0,0,1-1.27-.38V21.76Z"/><path class="cls-11" d="M117.44,21.76V11.93a9.36,9.36,0,0,1-1.26.25v9.58Z"/><path class="cls-11" d="M125,21.76V12.05a10.41,10.41,0,0,1-1.26-.07v9.78Z"/><path class="cls-11" d="M120,21.76V10.83a11.53,11.53,0,0,1-1.26.65V21.76Z"/><path d="M131.18,24.81l-.48-.51c-2.06-2.13-4.95-7.42-1.26-12.37l.29-.39-1.4-2-.51.17a7.21,7.21,0,0,1-2.26.4,8.31,8.31,0,0,1-5.22-1.32L120,8.57l-.4.27A7.72,7.72,0,0,1,115,10.38a7.8,7.8,0,0,1-4.58-1.55L110,8.56l-.41.27a8.27,8.27,0,0,1-5.21,1.33,7.31,7.31,0,0,1-2.27-.39l-.5-.18-1.41,2,.3.38c3.71,5,.83,10.26-1.25,12.38l-.48.5.49.49,1.12,1.16v.25a11.51,11.51,0,0,0,2.74,8.69c2.14,2.36,5.48,3.76,9.44,4a19.91,19.91,0,0,0,2,1.65l.42.32.42-.32a21.65,21.65,0,0,0,2-1.65,13.59,13.59,0,0,0,9.42-4,11.48,11.48,0,0,0,2.76-8.69v-.25l1.08-1.14Zm-2.35,1.35c0,.35,0,.34,0,.55.42,7.92-5.09,11.66-11.75,11.93-1,1-2.15,1.79-2.15,1.79-.74-.56-1.46-1.16-2.14-1.79-6.67-.27-12.19-4-11.77-11.93v-.55c-.38-.41-1-1.07-1.34-1.4,2.38-2.47,5.18-8.16,1.3-13.3l.83-1.08a8,8,0,0,0,2.47.43,8.88,8.88,0,0,0,5.6-1.46,8.55,8.55,0,0,0,5,1.65,8.38,8.38,0,0,0,5-1.65,8.92,8.92,0,0,0,5.61,1.46,8,8,0,0,0,2.47-.43l.83,1.08c-3.87,5.14-1.09,10.82,1.31,13.3A9.84,9.84,0,0,1,128.83,26.16Z"/><path d="M102.23,26.36v.47a9.68,9.68,0,0,0,2.26,7.33c1.89,2.08,5,3.3,8.89,3.43h3.3c3.92-.16,7-1.35,8.89-3.43a9.72,9.72,0,0,0,2.26-7.33v-.56h-25.6Zm.14.49v-.37h25.09v.37a9.46,9.46,0,0,1-2.2,7.17c-1.87,2-4.88,3.2-8.75,3.36h-3.28c-3.86-.16-6.89-1.32-8.74-3.36A9.94,9.94,0,0,1,102.37,26.85Z"/><path d="M103.07,21.72l-.06.15h23.92l-.06-.15a10.51,10.51,0,0,1,.37-9.77l.12-.2h-.23a8.35,8.35,0,0,1-1.57.15A10.15,10.15,0,0,1,120,10.68h-.11a9.41,9.41,0,0,1-5,1.43,9.35,9.35,0,0,1-5-1.43h-.1a10.2,10.2,0,0,1-5.54,1.22,8.26,8.26,0,0,1-1.57-.14h-.22l.11.2a10.49,10.49,0,0,1,.37,9.76Zm12-9.36a9.52,9.52,0,0,0,5-1.42,10.39,10.39,0,0,0,5.58,1.19A9.3,9.3,0,0,0,127,12a10.62,10.62,0,0,0-.34,9.61H115.06Zm-12-.31a9.3,9.3,0,0,0,1.39.11A10.41,10.41,0,0,0,110,10.94a9.54,9.54,0,0,0,4.86,1.42v9.29H103.33a10.74,10.74,0,0,0,1-4.84A10.59,10.59,0,0,0,103,12.05Z"/><path d="M112,23.14v-.7h-2.37v3.28h.71V24.37h1v-.7h-1v-.53Z"/><path d="M114.72,23.1a.54.54,0,0,1,.33.08.56.56,0,0,1,.23.25l.66-.3a1.31,1.31,0,0,0-.49-.55,1.23,1.23,0,0,0-.72-.18,1.39,1.39,0,0,0-.6.14,1.55,1.55,0,0,0-.5.38,1.48,1.48,0,0,0-.3.55,1.62,1.62,0,0,0-.06.62c0,1,.56,1.69,1.44,1.69a1.27,1.27,0,0,0,1.22-.74l-.6-.36a.6.6,0,0,1-.24.28.66.66,0,0,1-.36.11c-.44,0-.73-.4-.73-1S114.28,23.1,114.72,23.1Z"/><path d="M120.22,23.32c0-.55-.39-.88-1-.88h-1.51v3.3h1.49a1,1,0,0,0,.45,0,1,1,0,0,0,.4-.22,1,1,0,0,0,.25-.37,1,1,0,0,0,.08-.44.77.77,0,0,0-.1-.42.67.67,0,0,0-.31-.29.73.73,0,0,0,.23-.29A.84.84,0,0,0,120.22,23.32Zm-1.86-.22h.78c.32,0,.36.15.36.27a.3.3,0,0,1-.33.27h-.82Zm.83,1.94h-.83v-.76h.83c.29,0,.42.12.42.38s-.15.38-.43.38Z"/><path d="M115,35.32a3.45,3.45,0,0,0,2-.59,3.57,3.57,0,0,0,1.31-1.59,3.51,3.51,0,0,0,.2-2.05,3.54,3.54,0,0,0-2.79-2.79,3.51,3.51,0,0,0-2.05.2,3.54,3.54,0,0,0-2.18,3.28A3.55,3.55,0,0,0,115,35.32Zm0-.21a3.31,3.31,0,0,1-1.86-.56,5.52,5.52,0,0,0,2.22-.56c.56-.34,1.15-.75,1.26-1.31a.91.91,0,0,1,.42-.11.88.88,0,0,1,.42.11.92.92,0,0,1,.32.3.87.87,0,0,1,.14.41A3.34,3.34,0,0,1,115,35.11Zm-1.65-2.57a1.41,1.41,0,0,0,.59.22,1.17,1.17,0,0,0,.74-.26,1.14,1.14,0,0,0,.41-.67.92.92,0,0,1,.33-.16,1,1,0,0,1,.38,0,.8.8,0,0,1,.33.17.76.76,0,0,1,.23.3c.29.69-.32,1.19-1.12,1.65a5.24,5.24,0,0,1-2.37.53,3.42,3.42,0,0,1-.88-1.12H112a1.35,1.35,0,0,0,.73-.16,1.32,1.32,0,0,0,.54-.51Zm-.53-1.65a7.25,7.25,0,0,1,.32-1.84,3.23,3.23,0,0,1,1.56-.56.94.94,0,0,0-.2.33.9.9,0,0,0,0,.37.94.94,0,0,0,.34.66.81.81,0,0,0-.25.27,1.25,1.25,0,0,0-.18.94,1.28,1.28,0,0,0,.53.81,1,1,0,0,1-.93.72c-.76-.13-1.13-.85-1.13-1.73Zm3.81,1.6a1.23,1.23,0,0,0-.08-.39.94.94,0,0,0-.27-.38,1,1,0,0,0-.41-.22,1.06,1.06,0,0,0-.47,0,1,1,0,0,0-.41.2,1.06,1.06,0,0,1-.28-1.46c.38-.56,1.39-.35,2.07.07a3.78,3.78,0,0,1,1.52,1.82,3.63,3.63,0,0,1-.25,1,1.11,1.11,0,0,0-.22-.38,1.13,1.13,0,0,0-.34-.27,1,1,0,0,0-.85,0Zm.26-2.39a2.67,2.67,0,0,0-1.91-.36.72.72,0,0,1-.35-.63.77.77,0,0,1,.09-.36.75.75,0,0,1,.26-.27,3.32,3.32,0,0,1,3.3,3.13A3.88,3.88,0,0,0,116.85,30.1Zm-4-.87c-.06.24-.12.46-.17.67a2.78,2.78,0,0,0,.47,2.55,1.18,1.18,0,0,1-.47.47,1.21,1.21,0,0,1-.64.15h-.18a3.3,3.3,0,0,1-.14-2.08,3.21,3.21,0,0,1,1.13-1.75Z"/><path class="cls-5" d="M56.47,33.1H14.65L18,36.42Z"/><path class="cls-5" d="M18.53,19.62v.5a4.16,4.16,0,0,0-2.43-.78c-2.9,0-5.16,2.69-5.16,6s2.23,6,5.16,6a4.22,4.22,0,0,0,2.43-.77V31H21.1V19.62ZM16.1,28.51c-1.45,0-2.48-1.42-2.48-3.22s1.06-3.22,2.48-3.22,2.47,1.42,2.47,3.22S17.55,28.51,16.1,28.51Z"/><path class="cls-5" d="M39.15,19.62v6.66a1.87,1.87,0,0,1-.09.88,2.12,2.12,0,0,1-.44.77,2,2,0,0,1-.71.52,2.11,2.11,0,0,1-2.44-.52,2.12,2.12,0,0,1-.44-.77,2.17,2.17,0,0,1-.09-.88V19.62H32.36v6.66A4.66,4.66,0,0,0,37,31.23a3.94,3.94,0,0,0,2.18-.69V31h2.59V19.62Z"/><path class="cls-5" d="M63.16,31V24.3a2.21,2.21,0,0,1,.09-.88,2.12,2.12,0,0,1,1.16-1.28,2,2,0,0,1,1.72,0,2.12,2.12,0,0,1,1.16,1.28,2.21,2.21,0,0,1,.09.88V31H70V24.3a4.66,4.66,0,0,0-4.6-4.95,4,4,0,0,0-2.19.7v-.42H60.58V31Z"/><path class="cls-5" d="M3.52,31v-4.4h1.9L8.72,31h3.37l-4-5.31a4.89,4.89,0,0,0-2.83-8.87H.83V31Zm0-11.49H5.28a2.2,2.2,0,1,1,0,4.39H3.52Z"/><path class="cls-5" d="M48.67,28.28a1.5,1.5,0,0,1-.82.28,1.28,1.28,0,0,1-.5-.13,1.35,1.35,0,0,1-.41-.31,1.29,1.29,0,0,1-.25-.44,1.3,1.3,0,0,1,0-.52V22.31h2.2V19.62H46.6V16.79H44v2.83H42.66v2.69H44v4.9a3.89,3.89,0,0,0,3.83,4.05,5.41,5.41,0,0,0,2.52-.72Z"/><path class="cls-5" d="M27.51,24.94l4.41-5.32H28.31l-3.09,4V15.85H22.57V31h2.65V26.31L29,31h3.61Z"/><path class="cls-5" d="M54.62,19.33c-3,0-5.12,2.62-5.12,6a5.73,5.73,0,0,0,5.37,6,5.38,5.38,0,0,0,4.56-2.54l-2.27-1.31c-1.76,2.59-4.69,1.27-5-1.32h7.43C60.22,22,57.55,19.33,54.62,19.33Zm2.26,4.49H52.23A2.34,2.34,0,0,1,53,22.37a2.35,2.35,0,0,1,3.87,1.45Z"/><path d="M84.59,8.54h-.46V41.35h.46Z"/></g></svg>