<?xml version="1.0" encoding="UTF-8"?>
<svg width="170px" height="56px" viewBox="0 0 170 56" version="1.1" xmlns="http://www.w3.org/2000/svg" xmlns:xlink="http://www.w3.org/1999/xlink">
    <!-- Generator: Sketch 51.3 (57544) - http://www.bohemiancoding.com/sketch -->
    <title>rgb_SPU_v2.0</title>
    <desc>Created with Sketch.</desc>
    <defs></defs>
    <g id="rgb_SPU_v2.0" stroke="none" stroke-width="1" fill="none" fill-rule="evenodd">
        <polygon id="Fill-417" fill="#000000" points="157 45 165 45 165 37 157 37"></polygon>
        <g id="Group" transform="translate(0.500000, 0.500000)">
            <polygon id="Fill-418" fill="#000000" points="160.5 0 152 10.2119391 156.497474 10.2119391 156.497474 34 164.370609 34 164.370609 10.2119391 169 10.2119391"></polygon>
            <path d="M148,27.6907679 C148,38.7189373 142.595907,45 133,45 C123.404093,45 118,38.770666 118,27.6907679 L118,4 L125.575768,4 L125.575768,27.640034 C125.575768,34.1240325 128.302414,37.8514861 133,37.8514861 C137.696602,37.8514861 140.424232,34.1240325 140.424232,27.640034 L140.424232,4 L148,4 L148,27.6907679 Z" id="Fill-419" fill="#000000"></path>
            <path d="M100.343507,23.9747481 C103.890006,23.9747481 106.65404,21.1277201 106.65404,17.4686703 C106.65404,13.8601243 103.942848,11.1150942 100.343507,11.1150942 L93.8236387,11.1150942 L93.8236387,23.9747481 L100.343507,23.9747481 Z M100.864812,4 C108.896769,4 115,9.84457703 115,17.5191741 C115,25.1937712 108.896769,31.0908326 100.864812,31.0908326 L93.8236387,31.0908326 L93.8236387,44 L86,44 L86,4 L100.864812,4 Z" id="Fill-421" fill="#000000"></path>
            <path d="M75.3405884,13.7185575 C73.3727445,11.4105907 70.8505231,10.179675 68.1759461,10.179675 C65.2005898,10.179675 62.8788879,12.1799129 62.8788879,14.7956086 C62.8788879,16.2822989 63.585621,17.3593501 65.2005898,18.2815377 C66.1078424,18.7441302 66.1078424,18.7441302 70.6991505,20.3337298 C78.6707856,23.0513357 82,26.7950377 82,32.9486167 C82,40.0253824 76.1475813,45 67.7729411,45 C62.3746402,45 57.5818297,42.640079 54,38.179009 L58.7426806,32.8467065 C61.1636593,35.9739515 64.5449695,37.820325 67.8240539,37.820325 C71.6073861,37.820325 73.9782349,35.9739515 73.9782349,32.9995718 C73.9782349,30.9483788 73.2724847,29.7174632 71.5562733,28.7433214 C70.3964053,28.0769084 69.9422874,27.923044 66.7634628,26.8969479 C58.2384329,24.179342 54.8069929,20.6924138 54.8069929,14.7956086 C54.8069929,8.02657183 60.508039,3 68.1258162,3 C72.7672541,3 76.8543144,4.69250898 80.1835288,8.02657183 L75.3405884,13.7185575 Z" id="Fill-423" fill="#000000"></path>
            <polygon id="Fill-425" fill="#BF0000" points="7.12993487 55 0 49 50 49"></polygon>
            <path d="M15.1273297,10.1643265 L20.4302112,10.1643265 C24.0794628,10.1643265 27.0648482,13.14871 27.0648482,16.8248313 C27.0648482,20.5110656 24.0794628,23.4934265 20.4302112,23.4934265 L15.1273297,23.4934265 L15.1273297,10.1643265 Z M15.1273297,45 L15.1273297,31.6638209 L20.8748003,31.6638209 L30.82575,45 L41,45 L28.9749719,28.9079941 C32.7227975,26.2037442 35.1831253,21.8065571 35.1831253,16.8248313 C35.1831253,8.64432371 28.5665937,2 20.4302112,2 L7,2 L7,45 L15.1273297,45 Z" id="Fill-427" fill="#BF0000"></path>
        </g>
    </g>
</svg>