<svg width="80" height="20" viewBox="0 0 80 20" fill="none" xmlns="http://www.w3.org/2000/svg">
  <path d="M0 0H80V20H0V0Z" fill="black" fill-opacity="0.7"/>
  <path d="M21.544 6.336H18.244C17.584 6.336 17.212 6.312 16.9 6.264V7.08C17.308 7.032 17.656 7.008 18.232 7.008H21.544V8.244H18.94C18.304 8.244 17.968 8.22 17.68 8.172V8.964C18.028 8.916 18.364 8.904 18.94 8.904H25.06C25.696 8.904 25.984 8.916 26.332 8.964V8.172C26.044 8.232 25.708 8.244 25.06 8.244H22.288V7.008H25.9C26.428 7.008 26.836 7.032 27.196 7.08V6.264C26.884 6.312 26.512 6.336 25.888 6.336H22.288V6.108C22.288 5.58 22.312 5.28 22.36 5.004H21.472C21.532 5.328 21.544 5.604 21.544 6.108V6.336ZM17.752 12.156V10.56H26.248V12.156H27.064C27.028 11.916 27.016 11.688 27.016 11.328V10.644C27.016 10.296 27.028 10.092 27.064 9.84C26.692 9.876 26.404 9.888 25.864 9.888H18.136C17.62 9.888 17.32 9.876 16.948 9.84C16.984 10.104 16.996 10.32 16.996 10.656V11.34C16.996 11.676 16.984 11.892 16.948 12.156H17.752ZM20.176 11.1C20.2 11.304 20.212 11.4 20.212 11.58C20.212 12.9 19.636 13.836 18.388 14.532C17.908 14.784 17.548 14.916 16.768 15.084C17.02 15.348 17.128 15.516 17.284 15.84C18.412 15.492 18.988 15.204 19.612 14.664C20.272 14.112 20.716 13.38 20.872 12.612C20.908 12.396 21.004 11.784 21.016 11.616C21.028 11.388 21.04 11.304 21.076 11.124L20.176 11.1ZM23.404 12.048C23.404 11.616 23.428 11.364 23.476 11.112H22.576C22.624 11.34 22.636 11.556 22.636 12.072V14.712C22.636 15.132 22.732 15.312 23.02 15.42C23.332 15.528 23.788 15.576 24.676 15.576C25.924 15.576 26.464 15.492 26.74 15.252C27.028 14.988 27.208 14.4 27.304 13.308C27.028 13.248 26.776 13.14 26.548 13.008C26.488 13.944 26.392 14.4 26.236 14.604C26.08 14.808 25.744 14.856 24.628 14.856C23.536 14.856 23.404 14.808 23.404 14.448V12.048ZM31.192 5.28C31.192 5.424 31.18 5.484 31.156 5.664C30.856 7.788 30.748 8.916 30.748 10.092C30.748 10.152 30.748 10.26 30.748 10.368L30.772 11.616L30.784 11.832C30.784 11.856 30.784 11.904 30.784 11.964L31.648 11.928C31.636 11.748 31.636 11.688 31.636 11.64C31.636 10.764 31.864 9.84 32.284 8.964C32.968 7.56 33.736 6.876 34.648 6.876C35.8 6.876 36.472 7.992 36.472 9.924C36.472 11.844 35.812 13.104 34.408 13.908C33.712 14.304 33.088 14.496 31.972 14.664C32.236 14.988 32.308 15.12 32.452 15.48C33.292 15.3 34.012 15.06 34.588 14.772C36.388 13.872 37.36 12.228 37.36 10.056C37.36 8.772 37.144 7.884 36.64 7.14C36.172 6.444 35.5 6.072 34.72 6.072C33.784 6.072 32.992 6.588 32.32 7.62C31.972 8.16 31.732 8.748 31.588 9.408C31.528 9.66 31.528 9.66 31.504 9.756L31.456 9.744C31.492 9.132 31.66 7.824 31.852 6.612C31.96 5.964 32.032 5.628 32.128 5.376L31.192 5.28ZM47.092 6.684C47.056 7.548 47.032 8.064 47.02 8.232C46.912 9.696 46.66 10.8 46.228 11.808C45.58 13.296 44.656 14.28 43.084 15.168C43.396 15.396 43.54 15.528 43.72 15.792C44.752 15.12 45.316 14.616 45.904 13.86C46.744 12.792 47.308 11.424 47.584 9.828C47.764 8.796 47.776 8.556 47.86 6.684H50.332C50.308 8.724 50.248 9.888 50.128 11.16C49.984 12.804 49.744 14.016 49.504 14.508C49.384 14.724 49.24 14.796 48.88 14.796C48.448 14.796 47.956 14.736 47.332 14.616C47.428 14.916 47.476 15.132 47.5 15.468C48.004 15.516 48.628 15.552 49 15.552C49.792 15.552 50.104 15.3 50.344 14.496C50.74 13.188 50.98 10.86 51.088 7.44C51.124 6.492 51.124 6.492 51.16 5.94C50.848 5.976 50.476 5.988 50.044 5.988H46.024C45.412 5.988 44.992 5.964 44.716 5.916V6.744C44.944 6.708 45.328 6.684 45.844 6.684H47.092ZM41.92 9.096V12.444C41.92 13.128 42.136 13.308 42.988 13.308C43.936 13.308 44.476 13.188 44.764 12.9C45.088 12.6 45.232 12.048 45.34 10.692C45.052 10.608 44.86 10.524 44.608 10.368C44.584 11.064 44.56 11.316 44.5 11.724C44.404 12.276 44.26 12.468 43.876 12.528C43.684 12.564 43.24 12.6 43.06 12.6C42.76 12.6 42.676 12.528 42.676 12.252V8.928L44.692 8.496C45.028 8.424 45.364 8.376 45.604 8.352L45.532 7.548C45.328 7.62 45.016 7.716 44.632 7.8L42.676 8.22V6.336C42.676 5.76 42.688 5.544 42.736 5.256H41.86C41.908 5.568 41.92 5.808 41.92 6.348V8.376L41.224 8.532C40.864 8.604 40.54 8.652 40.36 8.652C40.336 8.652 40.324 8.652 40.288 8.652L40.384 9.468C40.744 9.36 40.984 9.288 41.32 9.216L41.92 9.096ZM53.32 13.512C53.404 13.38 53.44 13.344 53.632 13.128C53.836 12.9 54.004 12.708 54.136 12.564C54.544 12.108 54.544 12.108 54.724 11.904C54.856 11.748 54.892 11.712 54.94 11.616H54.964C54.928 12.156 54.928 12.156 54.928 13.56C54.916 15.096 54.916 15.096 54.844 15.54H55.78C55.744 15.18 55.744 15.084 55.744 13.548V10.956C57.004 9.744 57.34 9.444 58.06 8.916C58.828 8.364 59.404 8.1 59.872 8.1C60.28 8.1 60.532 8.352 60.532 8.748C60.532 9.072 60.472 9.456 60.232 10.548C59.8 12.6 59.776 12.732 59.776 13.344C59.776 14.016 59.944 14.436 60.34 14.712C60.556 14.868 60.868 14.964 61.18 14.964C61.816 14.964 62.356 14.688 62.836 14.1C63.112 13.764 63.244 13.548 63.58 12.912C63.352 12.648 63.28 12.54 63.028 12.096C62.884 12.564 62.644 13.056 62.344 13.476C62.056 13.872 61.648 14.136 61.324 14.136C60.856 14.136 60.604 13.836 60.604 13.284C60.604 12.792 60.676 12.372 61.12 10.44C61.324 9.54 61.396 9.096 61.396 8.688C61.396 7.824 60.856 7.284 59.992 7.284C59.272 7.284 58.372 7.728 57.28 8.604C56.344 9.36 55.936 9.744 55.756 10.008L55.732 9.996C55.732 9.924 55.744 9.9 55.744 9.804C55.756 9.744 55.756 9.696 55.756 9.696C55.768 9.132 55.768 9.132 55.78 8.892C55.792 8.82 55.792 8.724 55.792 8.592C56.104 8.16 56.248 7.98 56.404 7.848L56.092 7.476C55.996 7.512 55.96 7.524 55.852 7.536C55.9 6.072 55.936 5.688 55.996 5.4L55.048 5.388C55.072 5.628 55.084 5.736 55.084 5.988C55.084 6.144 55.072 6.684 55.036 7.596C54.028 7.656 53.5 7.692 53.464 7.692C53.356 7.692 53.284 7.692 53.092 7.668L53.14 8.496C53.416 8.436 53.416 8.436 55.024 8.328C54.988 9.384 54.964 10.14 54.952 10.62C54.04 11.592 53.176 12.432 52.84 12.648L53.32 13.512Z" fill="white"/>
</svg>
