<svg width="100" height="16" viewBox="0 0 100 16" fill="none" xmlns="http://www.w3.org/2000/svg">
<rect width="100" height="16" fill="#FEF536"/>
<path d="M12.911 11.406C11.657 10.075 10.689 9.206 9.248 8.106C9.93 7.259 10.447 6.39 11.063 5.026C11.184 4.751 11.261 4.619 11.371 4.487L10.909 4.014C10.722 4.08 10.59 4.091 10.205 4.102L6.278 4.146C6.124 4.146 6.025 4.146 5.992 4.146C5.618 4.146 5.42 4.135 5.123 4.091L5.145 4.982C5.464 4.927 5.783 4.905 6.278 4.894L9.952 4.839C10.084 4.839 10.117 4.839 10.216 4.828C10.205 4.861 10.205 4.872 10.183 4.905C10.161 4.96 10.15 4.971 10.128 5.037C9.325 6.962 7.961 8.7 6.201 9.998C5.354 10.625 4.815 10.922 3.968 11.263C4.243 11.538 4.331 11.659 4.507 11.989C5.321 11.582 5.904 11.219 6.663 10.669C7.455 10.086 7.994 9.58 8.764 8.7C10.172 9.789 11.415 10.988 12.284 12.099L12.911 11.406ZM14.0761 8.227C14.4061 8.194 14.6371 8.183 15.4401 8.183H21.8201C22.5571 8.183 22.8101 8.194 23.1621 8.227V7.336C22.8211 7.38 22.6451 7.391 21.8311 7.391H15.4401C14.6921 7.391 14.3951 7.38 14.0761 7.325V8.227ZM27.0337 4.003C27.0447 4.08 27.0447 4.146 27.0447 4.179C27.0447 4.377 27.0007 4.773 26.9347 5.213C26.7257 6.654 26.3407 7.941 25.8017 9.03C25.3397 9.954 24.8887 10.57 24.2067 11.208C24.5257 11.395 24.6247 11.472 24.9107 11.78C26.4837 10.119 27.3527 8.051 27.8147 4.916C27.8917 4.399 27.9137 4.311 27.9577 4.168L27.0337 4.003ZM30.1907 4.168C30.2457 4.344 30.2677 4.487 30.3337 4.894C30.5647 6.379 30.9607 7.754 31.4887 8.942C32.0387 10.141 32.5887 11.01 33.3257 11.802C33.5897 11.483 33.6997 11.395 34.0077 11.186C32.8857 10.119 32.0497 8.612 31.5107 6.643C31.2357 5.664 31.0267 4.575 31.0047 4.003L30.1907 4.168ZM32.9297 3.442C32.3027 3.442 31.7967 3.948 31.7967 4.564C31.7967 5.191 32.3027 5.697 32.9297 5.697C33.5567 5.697 34.0627 5.191 34.0627 4.564C34.0627 3.948 33.5567 3.442 32.9297 3.442ZM32.9297 3.904C33.3037 3.904 33.6007 4.201 33.6007 4.564C33.6007 4.938 33.3037 5.235 32.9297 5.235C32.5667 5.235 32.2587 4.938 32.2587 4.564C32.2587 4.201 32.5557 3.904 32.9297 3.904ZM35.3027 8.227C35.6327 8.194 35.8637 8.183 36.6667 8.183H43.0467C43.7837 8.183 44.0367 8.194 44.3887 8.227V7.336C44.0477 7.38 43.8717 7.391 43.0577 7.391H36.6667C35.9187 7.391 35.6217 7.38 35.3027 7.325V8.227ZM51.9457 5.609C51.8247 5.048 51.7147 4.773 51.4617 4.443C50.9667 3.783 50.1197 3.431 49.0307 3.431C47.3257 3.431 46.2147 4.322 46.2147 5.708C46.2147 6.478 46.5557 7.061 47.2377 7.446C47.6117 7.655 48.0407 7.809 48.7337 7.952C50.0647 8.249 50.1857 8.282 50.5487 8.491C50.9667 8.722 51.1867 9.129 51.1867 9.668C51.1867 10.691 50.3947 11.307 49.0857 11.307C48.2717 11.307 47.6117 11.032 47.2487 10.548C47.0177 10.251 46.9407 9.987 46.9077 9.459L45.9507 9.58C46.0607 10.306 46.1817 10.647 46.4677 11.032C46.9737 11.714 47.8867 12.077 49.1187 12.077C51.0107 12.077 52.0777 11.197 52.0777 9.646C52.0777 8.37 51.3737 7.699 49.6137 7.325C48.3487 7.05 48.3377 7.05 48.0407 6.929C47.3917 6.665 47.0837 6.258 47.0837 5.686C47.0837 4.795 47.8757 4.19 49.0087 4.19C49.7237 4.19 50.2847 4.41 50.6367 4.828C50.8457 5.081 50.9337 5.301 51.0217 5.741L51.9457 5.609ZM60.8001 11.934C60.6351 11.648 60.4921 11.329 60.2171 10.669L57.7531 4.597C57.4781 3.926 57.4231 3.783 57.3791 3.574H56.2681C56.2131 3.827 56.1251 4.08 55.9161 4.597L53.4521 10.669C53.1551 11.406 53.0781 11.571 52.8581 11.934H54.0021C54.0791 11.549 54.1781 11.23 54.3431 10.812L54.9151 9.393H58.7541L59.3261 10.812C59.4581 11.153 59.5791 11.538 59.6671 11.934H60.8001ZM58.4901 8.634H55.1791L56.5871 5.004C56.6091 4.96 56.6421 4.839 56.7081 4.663C56.7301 4.586 56.7741 4.465 56.8291 4.3C57.0381 4.905 57.0381 4.916 57.0711 5.004L58.4901 8.634ZM66.2121 11.934C66.8281 11.934 67.1361 11.956 67.4881 12.011V11.076C67.0591 11.131 66.7621 11.153 66.2121 11.153H62.7471V4.872C62.7471 4.267 62.7691 3.981 62.8351 3.574H61.8011C61.8671 3.959 61.8891 4.3 61.8891 4.872V10.658C61.8891 11.197 61.8671 11.549 61.8011 11.967C62.1861 11.945 62.4941 11.934 63.0001 11.934H66.2121ZM74.0833 11.087C73.6763 11.142 73.3683 11.164 72.8623 11.164H69.3753V7.93H72.2683C72.8403 7.93 73.1263 7.952 73.5003 8.007V7.083C73.0823 7.138 72.7523 7.16 72.2683 7.16H69.3753V4.344H72.7633C73.3133 4.344 73.6103 4.366 73.9953 4.421V3.497C73.6213 3.552 73.2473 3.574 72.7633 3.574H69.6283C69.1003 3.574 68.8033 3.563 68.4183 3.541C68.4843 4.025 68.5063 4.322 68.5063 4.795V10.658C68.5063 11.219 68.4843 11.549 68.4183 11.967C68.7923 11.945 69.1003 11.934 69.6283 11.934H72.8513C73.4343 11.934 73.7313 11.956 74.0833 12.011V11.087ZM80.4146 6.698V4.003C80.4146 3.53 80.4366 3.222 80.4916 2.826H79.6006C79.6556 3.211 79.6776 3.541 79.6776 4.003V6.698H76.9386C76.4436 6.698 76.1026 6.676 75.7946 6.632V7.402C76.1136 7.358 76.4656 7.336 76.9386 7.336H79.6776V9.074H76.3996C75.8826 9.074 75.5306 9.052 75.2446 9.008V9.789C75.5526 9.745 75.9046 9.723 76.3996 9.723H79.6776V11.626C79.6776 12.088 79.6556 12.506 79.6006 12.814H80.4916C80.4366 12.418 80.4146 12.099 80.4146 11.637V9.723H83.9236C84.4186 9.723 84.7706 9.745 85.0786 9.789V9.008C84.7926 9.052 84.4406 9.074 83.9236 9.074H80.4146V7.336H83.4066C83.8906 7.336 84.2206 7.358 84.5506 7.402V6.632C84.2646 6.676 83.9126 6.698 83.4066 6.698H80.4146ZM76.1026 3.706C76.8506 4.476 77.2796 5.059 77.9176 6.203L78.5336 5.818C77.9616 4.806 77.5436 4.223 76.7736 3.354L76.1026 3.706ZM83.2966 3.332C82.6586 4.509 82.2956 5.037 81.4926 5.884L82.0976 6.236C82.7906 5.488 83.1756 4.96 83.9676 3.695L83.2966 3.332ZM87.0806 11.725C87.0806 12.154 87.0586 12.495 87.0366 12.726H87.7186V12.033H89.5116C89.9516 12.044 90.2156 12.044 90.3256 12.055C90.3036 11.824 90.3036 11.824 90.3036 11.087V10.108C90.3036 9.657 90.3146 9.382 90.3476 9.14C90.1496 9.173 89.9626 9.184 89.5666 9.184H87.8616C87.6416 9.184 87.5536 9.184 87.3886 9.173C88.0156 8.766 88.3456 8.502 88.7746 8.106C89.4126 8.612 89.9956 8.964 90.8536 9.36C90.9416 9.085 91.0186 8.942 91.1506 8.755C90.2706 8.403 89.7536 8.117 89.1816 7.699C89.5996 7.237 89.8306 6.918 90.2596 6.225C90.4136 5.972 90.4136 5.972 90.5126 5.84L90.1386 5.455C89.9736 5.488 89.7646 5.51 89.5006 5.51H88.3346C88.4006 5.389 88.4336 5.334 88.4886 5.224C88.6206 4.971 88.6206 4.971 88.6756 4.883L88.0376 4.696C87.9716 4.96 87.8726 5.191 87.6636 5.532C87.2236 6.269 86.8166 6.731 86.0906 7.27C86.2556 7.402 86.3876 7.545 86.5196 7.743C86.9046 7.424 87.2126 7.116 87.4876 6.786C87.7736 7.171 87.9936 7.424 88.3346 7.732C87.6856 8.326 86.8936 8.81 85.9586 9.206C86.1346 9.371 86.2336 9.525 86.3326 9.767C86.7066 9.58 86.8386 9.503 87.0586 9.371C87.0696 9.613 87.0806 9.833 87.0806 10.064V11.725ZM89.6766 6.06C89.3576 6.61 89.1376 6.907 88.7306 7.336C88.3456 6.995 88.1696 6.808 87.8286 6.335C87.9166 6.192 87.9496 6.159 88.0046 6.06H89.6766ZM87.7186 9.745H89.6766V11.461H87.7186V9.745ZM88.3676 3.992H87.2016C86.6956 3.992 86.4646 3.981 86.2996 3.959C86.3326 4.223 86.3436 4.421 86.3436 4.641V5.125C86.3436 5.367 86.3326 5.554 86.2996 5.752H86.9706V4.564H90.4026V5.609H91.0296C91.0076 5.488 90.9966 5.213 90.9966 4.982V4.619C90.9966 4.322 91.0076 4.146 91.0296 3.959C90.8536 3.981 90.6446 3.992 90.1386 3.992H89.0386V3.651C89.0386 3.31 89.0496 3.134 89.1046 2.903H88.3016C88.3456 3.134 88.3676 3.321 88.3676 3.64V3.992ZM93.2516 3.849C93.1416 4.256 93.0206 4.608 92.8446 5.048H92.2506C91.7886 5.048 91.5576 5.037 91.2936 5.015C91.3266 5.257 91.3376 5.598 91.3376 6.049V9.701C91.3376 10.064 91.3266 10.372 91.3046 10.702C91.6456 10.68 91.9206 10.669 92.2506 10.669H94.6486C94.9896 10.669 95.2646 10.68 95.5946 10.702C95.5726 10.361 95.5616 10.097 95.5616 9.646V6.005C95.5616 5.565 95.5726 5.312 95.5946 5.004C95.3856 5.037 95.1106 5.048 94.6046 5.048H93.5046C93.6916 4.619 93.8016 4.3 93.9336 3.849H94.9896C95.5066 3.849 95.7266 3.86 96.0676 3.915V3.167C95.8256 3.211 95.5286 3.233 94.9896 3.233H92.0416C91.4916 3.233 91.2716 3.222 90.9636 3.167V3.915C91.2386 3.871 91.5356 3.849 92.0416 3.849H93.2516ZM91.9756 5.642H94.9126V6.698H91.9756V5.642ZM91.9756 7.281H94.9126V8.37H91.9756V7.281ZM91.9756 8.953H94.9126V10.086H91.9756V8.953ZM93.7136 11.252C94.4176 11.967 94.9566 12.374 95.9246 12.891C96.0456 12.66 96.1886 12.473 96.3756 12.275C95.3856 11.813 94.9126 11.494 94.2196 10.845L93.7136 11.252ZM92.4266 10.834C91.7446 11.549 91.1946 11.923 90.2046 12.33C90.3916 12.506 90.5456 12.671 90.6666 12.891C91.6566 12.407 92.2286 12 92.9656 11.252L92.4266 10.834Z" fill="#BF0000"/>
</svg>
