<svg width="28" height="16" viewBox="0 0 28 16" fill="none" xmlns="http://www.w3.org/2000/svg">
<rect x="0.5" y="0.5" width="27" height="15" stroke="#333333"/>
<path d="M11.99 4.14C11.78 4.16 11.62 4.17 11.25 4.17H6.67C6.18 4.17 5.92 4.16 5.62 4.11V4.79C5.91 4.75 6.12 4.74 6.65 4.74H11.28C10.6 5.33 10.07 5.68 9.15 6.16C8.67 5.86 8.33 5.67 7.45 5.21L7.04 5.65C8.19 6.22 9 6.72 9.8 7.35H5.8C5.27 7.35 4.97 7.33 4.69 7.29V8.01C5.01 7.97 5.28 7.95 5.72 7.95H8.82V11.73C8.82 11.95 8.72 12.02 8.38 12.02C7.95 12.02 7.55 11.99 6.98 11.9C7.07 12.14 7.1 12.27 7.14 12.59C7.48 12.62 8.01 12.64 8.32 12.64C9.25 12.64 9.49 12.47 9.49 11.83V7.95H12.53C11.96 8.62 11.6 8.95 10.93 9.4C11.13 9.52 11.27 9.63 11.45 9.81C12.26 9.18 12.51 8.93 13.2 8.06C13.31 7.91 13.43 7.77 13.47 7.73L13.08 7.3C12.87 7.34 12.62 7.35 12.02 7.35H10.21L10.47 7.09C10.09 6.8 9.97 6.72 9.69 6.52C10.78 5.93 11.26 5.59 12.4 4.61L11.99 4.14ZM14.59 8.68C14.79 8.64 14.8 8.64 15.2 8.61C15.58 8.58 15.58 8.58 16.32 8.51V11.73C16.32 12.15 16.3 12.47 16.26 12.76H16.99C16.95 12.46 16.93 12.17 16.93 11.74V8.45C17.31 8.41 17.54 8.38 17.62 8.37C17.67 8.37 17.76 8.36 17.87 8.34C17.97 8.6 18 8.69 18.1 9.01L18.61 8.78C18.34 8.04 18.07 7.45 17.73 6.88L17.27 7.06C17.47 7.42 17.52 7.52 17.67 7.85C16.98 7.94 16.8 7.95 16.05 8C16.57 7.42 17.1 6.68 17.9 5.47C18.04 5.27 18.1 5.18 18.19 5.06L17.6 4.71C17.47 5.07 17.13 5.62 16.45 6.6C16.24 6.35 16.08 6.17 15.78 5.87C16.19 5.29 16.48 4.83 16.77 4.3C16.88 4.1 16.93 4.02 17 3.92L16.38 3.64C16.28 4.03 15.94 4.66 15.39 5.49C15.23 5.33 15.18 5.29 14.96 5.08L14.59 5.55C15.34 6.19 15.6 6.46 16.11 7.08C15.82 7.47 15.72 7.6 15.35 8.04C15.19 8.05 14.89 8.06 14.84 8.06C14.7 8.06 14.63 8.05 14.48 8.03L14.59 8.68ZM22.58 5.94C22.56 8.09 22.41 10.03 22.15 11.17C22.01 11.81 21.9 11.93 21.43 11.93C21.03 11.93 20.65 11.89 20.1 11.8C20.2 12.06 20.24 12.22 20.27 12.49C20.67 12.53 21.04 12.55 21.33 12.55C22.29 12.55 22.54 12.34 22.77 11.38C23 10.39 23.19 8.42 23.2 6.85C23.22 5.6 23.22 5.6 23.25 5.31C23.04 5.34 22.84 5.35 22.44 5.35H19.94C20.07 5.03 20.15 4.83 20.23 4.61C20.41 4.11 20.41 4.11 20.49 3.92L19.81 3.75C19.73 4.23 19.58 4.68 19.25 5.4C18.94 6.07 18.58 6.62 18.13 7.11C18.34 7.22 18.49 7.33 18.65 7.5C19.05 7.02 19.37 6.54 19.67 5.94H22.58ZM15.16 9.16C15.04 10.37 14.87 11.05 14.5 11.84L15.05 12.1C15.42 11.2 15.53 10.74 15.71 9.27L15.16 9.16ZM17.48 9.26C17.72 10.03 17.86 10.68 17.99 11.67L18.57 11.48C18.4 10.54 18.27 10 17.98 9.1L17.48 9.26ZM21.3 9.61C20.82 8.57 20.53 8.06 19.88 7.17L19.36 7.47C20.01 8.36 20.27 8.83 20.73 9.95L21.3 9.61Z" fill="#333333"/>
</svg>
