<svg width="40" height="16" viewBox="0 0 40 16" fill="none" xmlns="http://www.w3.org/2000/svg">
<path fill-rule="evenodd" clip-rule="evenodd" d="M6 0C4.89543 0 4 0.895447 4 2V12L0 16H6H8H38C39.1046 16 40 15.1046 40 14V2C40 0.895447 39.1046 0 38 0H6Z" fill="#BF0000"/>
<path d="M9.5 4H11.2486L14.4263 9.5848V4H15.98V12H14.3126L11.0537 6.3175V12H9.5V4Z" fill="white"/>
<path d="M23.9941 5.41655H19.7716V7.11533H23.6477V8.50475H19.7716V10.5617H24.189V12H18.1421V4H23.9941V5.41655Z" fill="white"/>
<path d="M27.1307 4L28.1863 8.58073L28.4137 9.85617L28.6465 8.60787L29.5451 4H31.3045L32.2519 8.58073L32.4955 9.85617L32.7391 8.62958L33.8056 4H35.5L33.2534 12H31.6618L30.6982 7.32157L30.4167 5.77476L30.1352 7.32157L29.1716 12H27.6233L25.3605 4H27.1307Z" fill="white"/>
</svg>
