<svg width="86" height="16" viewBox="0 0 86 16" fill="none" xmlns="http://www.w3.org/2000/svg">
<rect x="0.5" y="0.5" width="85" height="15" stroke="#333333"/>
<path d="M8.96793 5.56H6.18793C5.86793 5.56 5.67793 5.55 5.43793 5.52C5.46793 5.78 5.48793 6 5.48793 6.31V9.04C5.48793 9.36 5.46793 9.64 5.42793 9.93H6.14793V9.25H8.96793V11.58C8.96793 12.12 8.94793 12.38 8.89793 12.72H9.69793C9.63793 12.4 9.62793 12.15 9.62793 11.58V9.25H12.6079V9.93H13.3279C13.2879 9.63 13.2679 9.37 13.2679 9.04V6.31C13.2679 5.99 13.2779 5.78 13.3179 5.52C13.0879 5.55 12.8979 5.56 12.5579 5.56H9.62793V4.68C9.62793 4.25 9.64793 3.97 9.69793 3.66H8.89793C8.94793 3.97 8.96793 4.21 8.96793 4.7V5.56ZM8.96793 6.16V8.65H6.14793V6.16H8.96793ZM9.62793 8.65V6.16H12.6079V8.65H9.62793ZM18.9279 5.59H16.0779C15.6379 5.59 15.3079 5.57 15.0279 5.53V6.25C15.3379 6.21 15.6079 6.2 16.0779 6.2H18.9279V8.29H16.8979C16.5579 8.29 16.3779 8.28 16.1579 8.25C16.1879 8.5 16.2079 8.75 16.2079 9.06V11.75C16.2079 12.07 16.1879 12.37 16.1479 12.67H16.8779V12.05H21.8679V12.67H22.5979C22.5579 12.41 22.5379 12.09 22.5379 11.75V9.06C22.5379 8.73 22.5479 8.5 22.5879 8.25C22.3679 8.28 22.1879 8.29 21.8479 8.29H19.6079V6.2H22.6979C23.0779 6.2 23.3979 6.22 23.7379 6.25V5.53C23.4579 5.57 23.1379 5.59 22.6979 5.59H19.6079V4.51C19.6079 4.12 19.6279 3.89 19.6779 3.64H18.8679C18.9179 3.87 18.9279 4.08 18.9279 4.51V5.59ZM16.8779 8.89H21.8679V11.46H16.8779V8.89ZM25.988 9.45C26.268 9.41 26.498 9.4 26.898 9.4H28.088C28.508 9.4 28.728 9.41 29.008 9.45V8.61C28.728 8.65 28.518 8.66 28.088 8.66H26.898C26.478 8.66 26.268 8.65 25.988 8.61V9.45ZM35.2621 5.92V7.32H33.5021C32.9721 7.32 32.7721 7.31 32.5721 7.27V7.93C32.8021 7.89 33.0621 7.88 33.5021 7.88H35.2521C35.2221 8.48 35.2021 8.76 35.1421 9.17C33.7321 9.55 32.5621 9.8 32.0821 9.83L32.2921 10.52C32.4721 10.44 32.6221 10.4 33.3921 10.21C34.0921 10.04 34.4621 9.94 35.0021 9.79C34.8621 10.28 34.6521 10.68 34.3421 11.05C33.9221 11.55 33.4421 11.87 32.5821 12.24C32.7721 12.41 32.9321 12.59 33.0521 12.8C34.6521 12.01 35.3921 11.1 35.7121 9.58L36.5021 9.33V8.76C36.1721 8.87 36.0021 8.92 35.8021 8.98C35.8621 8.46 35.8921 7.95 35.8921 7.31V4.86C35.8921 4.2 35.9021 3.97 35.9421 3.73H35.2021C35.2521 4.02 35.2621 4.27 35.2621 4.85V5.35H33.2121C32.7521 5.35 32.5221 5.34 32.2821 5.29V5.97C32.4821 5.93 32.7521 5.92 33.2121 5.92H35.2621ZM37.9321 10.21H40.0721C40.4721 10.21 40.7521 10.23 41.0321 10.27V9.58C40.8021 9.62 40.5521 9.63 40.0721 9.63H37.9321V8H39.8321C40.2721 8 40.5221 8.01 40.7521 8.05V7.39C40.5521 7.43 40.3521 7.44 39.8321 7.44H37.9321V5.94H40.0221C40.4921 5.94 40.7521 5.95 40.9621 5.99V5.31C40.7121 5.36 40.5021 5.37 40.0221 5.37H37.9321V4.88C37.9321 4.31 37.9521 4.01 37.9921 3.73H37.2521C37.2921 4.03 37.3021 4.3 37.3021 4.88V11.54C37.3021 12.16 37.2921 12.43 37.2421 12.72H37.9921C37.9421 12.43 37.9321 12.16 37.9321 11.54V10.21ZM46.2021 5.17H45.2221C44.9121 4.64 44.7121 4.35 44.3121 3.85L43.7121 4.06C44.0821 4.48 44.3021 4.77 44.5421 5.17H43.4821C42.9921 5.17 42.6921 5.16 42.4521 5.13C42.4821 5.39 42.4921 5.62 42.4921 5.95V6.48C42.4921 6.65 42.4821 6.86 42.4521 7.09H43.1121V5.71H50.1121V7.11H50.7721C50.7521 6.94 50.7321 6.74 50.7321 6.54V6.04C50.7321 5.65 50.7421 5.39 50.7721 5.13C50.4621 5.16 50.2021 5.17 49.6621 5.17H48.5321C48.7821 4.88 48.9721 4.62 49.2921 4.12L48.6921 3.89C48.4221 4.41 48.2121 4.72 47.8421 5.17H46.8321V4.43C46.8321 4.15 46.8521 3.92 46.8821 3.7H46.1521C46.1821 3.91 46.2021 4.18 46.2021 4.43V5.17ZM46.2021 8.52V9.34H44.0821C43.7321 9.34 43.4021 9.33 43.1421 9.3C43.1721 9.56 43.1821 9.82 43.1821 10.17V11.29C43.1821 11.68 43.1621 12 43.1321 12.28H43.8621C43.8221 12.07 43.8121 11.79 43.8121 11.3V9.9H46.2021V11.74C46.2021 12.12 46.1821 12.44 46.1521 12.76H46.8721C46.8421 12.48 46.8221 12.15 46.8221 11.74V9.9H49.4221V11.41C49.4221 11.6 49.3421 11.64 48.9821 11.64C48.7221 11.64 48.3221 11.61 47.9321 11.56C48.0121 11.76 48.0421 11.89 48.0721 12.16C48.4921 12.19 48.8021 12.2 49.0821 12.2C49.8321 12.2 50.0421 12.05 50.0421 11.51V10.18C50.0421 9.79 50.0521 9.52 50.0821 9.3C49.8621 9.33 49.6321 9.34 49.1221 9.34H46.8221V8.52H48.2821C48.6521 8.52 49.0021 8.53 49.2621 8.56C49.2421 8.38 49.2321 8.23 49.2321 7.74V7.17C49.2321 6.8 49.2421 6.61 49.2621 6.37C49.0321 6.4 48.7521 6.41 48.3421 6.41H44.9221C44.5821 6.41 44.2321 6.4 43.9821 6.37C44.0021 6.59 44.0121 6.83 44.0121 7.16V7.74C44.0121 8.21 44.0021 8.36 43.9821 8.56C44.2021 8.53 44.4621 8.52 44.8821 8.52H46.2021ZM48.6221 6.94V8H44.6221V6.94H48.6221ZM53.5621 4.2C53.5421 4.43 53.5221 4.53 53.4221 5C53.0921 6.48 52.9721 7.54 52.9721 8.96C52.9721 10.01 53.0421 10.73 53.2321 11.79C53.2621 11.98 53.2721 12.03 53.2921 12.19L54.0121 12.13C54.0121 12.06 54.0121 12.01 54.0121 11.98C54.0121 11.42 54.3721 10.22 54.8221 9.23L54.3421 9C54.0221 9.73 53.8321 10.28 53.6921 10.95C53.6521 10.42 53.6321 9.83 53.6321 9.05C53.6321 7.85 53.7221 6.97 53.9321 5.92C54.0821 5.24 54.2021 4.75 54.3521 4.32L53.5621 4.2ZM55.6221 6.09C56.2721 6.16 56.6621 6.19 57.2221 6.19C57.9921 6.19 58.7921 6.14 59.3721 6.06C59.8121 6 60.0421 5.97 60.0621 5.97L60.0121 5.26C59.3421 5.44 58.4421 5.53 57.3321 5.53C56.5521 5.53 56.0621 5.49 55.6321 5.38L55.6221 6.09ZM56.3521 8.04C55.7321 8.75 55.4821 9.29 55.4821 9.9C55.4821 10.27 55.5821 10.57 55.7821 10.82C56.2121 11.34 56.9321 11.58 58.0721 11.58C58.7521 11.58 59.4221 11.52 60.1221 11.38C60.3221 11.35 60.3421 11.34 60.4721 11.33L60.3721 10.56C59.8321 10.78 58.9821 10.91 58.0721 10.91C56.7821 10.91 56.1521 10.55 56.1521 9.81C56.1521 9.37 56.4021 8.89 56.9021 8.34L56.3521 8.04ZM65.9521 8.75C66.2721 9.64 66.6321 10.19 67.2721 10.82C68.1221 11.65 69.1721 12.23 70.7521 12.75C70.8821 12.43 70.9521 12.31 71.1121 12.09C69.8721 11.8 68.8221 11.32 67.9921 10.65C68.7821 10.26 69.4621 9.86 70.0021 9.44C70.2521 9.26 70.2621 9.26 70.3721 9.18L69.8721 8.7C69.4221 9.2 68.7421 9.66 67.5721 10.27C67.0921 9.78 66.8821 9.46 66.6021 8.75H68.8721C69.0921 8.75 69.4721 8.76 69.7221 8.77C69.7021 8.54 69.6921 8.29 69.6921 7.88V5.65C69.6921 5.28 69.7121 4.95 69.7321 4.73C69.5221 4.76 69.2221 4.77 68.8521 4.77H66.8921V4.39C66.8921 4.11 66.9121 3.87 66.9621 3.66H66.1721C66.2221 3.88 66.2421 4.13 66.2421 4.38V4.77H64.3921C64.0321 4.77 63.7321 4.76 63.5221 4.73C63.5521 4.96 63.5621 5.28 63.5621 5.64V11.79C62.8321 11.93 62.5221 11.98 62.1221 12L62.3221 12.73C62.4621 12.69 62.6121 12.65 62.8821 12.6C64.5321 12.25 65.4921 12 66.7921 11.58L66.7821 10.96C65.9121 11.24 65.2421 11.42 64.2121 11.66V8.75H65.9521ZM64.2121 5.34H69.0721V6.43H64.2121V5.34ZM64.2121 6.98H69.0721V8.19H64.2121V6.98ZM72.9821 4.91C73.0021 5.09 73.0021 5.12 73.0121 5.5C73.0621 7.96 73.2021 9.24 73.5521 10.19C73.8921 11.15 74.4121 11.71 74.9721 11.71C75.6821 11.71 76.1421 11.04 76.6321 9.29C76.3521 9.07 76.2621 8.98 76.0421 8.72C75.9121 9.4 75.7521 9.93 75.5221 10.43C75.3721 10.76 75.2021 10.93 75.0221 10.93C74.6421 10.93 74.2321 10.24 74.0121 9.22C73.8621 8.58 73.7521 7.21 73.7521 6.11C73.7521 5.56 73.7721 5.23 73.8221 4.92L72.9821 4.91ZM78.0421 5.76C79.2121 7.12 79.9421 8.83 80.1221 10.69L80.8321 10.4C80.6521 9.28 80.4621 8.57 80.0821 7.73C79.7121 6.88 79.3021 6.22 78.6521 5.45L78.0421 5.76Z" fill="#333333"/>
</svg>
