<svg width="38" height="16" viewBox="0 0 38 16" fill="none" xmlns="http://www.w3.org/2000/svg">
<rect x="0.5" y="0.5" width="37" height="15" stroke="#333333"/>
<path d="M7.57 7.79C7.53 9.85 7.45 10.79 7.27 11.39C7.19 11.65 7.1 11.7 6.77 11.7C6.57 11.7 6.27 11.65 5.96 11.58C6.05 11.82 6.09 11.97 6.1 12.24C6.38 12.28 6.59 12.29 6.77 12.29C7.07 12.29 7.28 12.25 7.41 12.18C7.68 12.03 7.78 11.83 7.92 11.18C8.05 10.54 8.13 9.49 8.17 7.91C8.17 7.56 8.18 7.42 8.21 7.21C8.05 7.23 7.83 7.24 7.44 7.24H6.07C5.69 7.24 5.49 7.23 5.26 7.19C5.69 6.48 6.1 5.56 6.27 4.91C6.42 4.35 6.42 4.33 6.51 4.13L5.84 3.92C5.8 4.46 5.62 5.12 5.35 5.75C5.08 6.37 4.71 6.97 4.25 7.52C4.45 7.66 4.57 7.75 4.74 7.93C4.99 7.62 5.07 7.5 5.26 7.2V7.84C5.48 7.8 5.6 7.79 5.97 7.79C5.93 8.84 5.82 9.5 5.58 10.17C5.31 10.94 4.93 11.49 4.32 12.02C4.54 12.19 4.66 12.32 4.79 12.53C5.44 11.87 5.8 11.3 6.1 10.47C6.37 9.73 6.5 9.01 6.57 7.79H7.57ZM10.77 4.68C10.65 5.15 10.61 5.27 10.4 5.77H9.92C9.5 5.77 9.28 5.76 9.05 5.74C9.08 6.03 9.09 6.27 9.09 6.67V9.97C9.09 10.3 9.08 10.6 9.06 10.88C9.38 10.86 9.59 10.85 9.92 10.85H12.22C12.55 10.85 12.83 10.86 13.08 10.88C13.06 10.6 13.05 10.29 13.05 9.92V6.65C13.05 6.28 13.06 6 13.08 5.73C12.88 5.76 12.63 5.77 12.18 5.77H11.01C11.19 5.36 11.28 5.1 11.41 4.68H12.52C12.98 4.68 13.22 4.69 13.5 4.74V4.05C13.26 4.09 13 4.11 12.52 4.11H9.69C9.2 4.11 8.98 4.1 8.71 4.05V4.74C8.98 4.69 9.23 4.68 9.69 4.68H10.77ZM9.66 6.3H12.47V7.25H9.66V6.3ZM9.66 7.77H12.47V8.76H9.66V7.77ZM9.66 9.27H12.47V10.31H9.66V9.27ZM6.94 4.12C7.01 4.32 7.01 4.32 7.11 4.62C7.36 5.35 7.4 5.45 7.59 5.88C7.9 6.57 8.18 7.08 8.62 7.69C8.73 7.49 8.87 7.32 9.03 7.2C8.27 6.16 7.75 5.01 7.53 3.9L6.94 4.12ZM10.05 11C9.47 11.64 8.98 11.97 7.98 12.37C8.18 12.54 8.29 12.67 8.41 12.88C9.35 12.45 9.85 12.1 10.55 11.38L10.05 11ZM11.39 11.37C12.1 12.07 12.49 12.37 13.39 12.9C13.52 12.67 13.63 12.53 13.82 12.37C12.9 11.91 12.48 11.62 11.86 11.02L11.39 11.37ZM18.45 5.29C18.57 4.97 18.69 4.61 18.79 4.27C18.88 3.99 18.9 3.92 18.98 3.77L18.21 3.64C18.15 4.18 18.03 4.64 17.77 5.29H15.68C15.11 5.29 14.81 5.27 14.54 5.23V5.94C14.88 5.9 15.2 5.88 15.68 5.88H17.51C16.78 7.35 15.73 8.53 14.38 9.4C14.55 9.56 14.7 9.76 14.8 9.95C15.69 9.24 15.91 9.05 16.41 8.5V10.95C16.41 11.41 16.39 11.71 16.35 12.02H17.1C17.06 11.77 17.05 11.5 17.05 10.95V8.34H19.07V11.65C19.07 12.16 19.05 12.54 19 12.8H19.78C19.73 12.55 19.71 12.17 19.71 11.66V8.34H21.95V10.88C21.95 11.15 21.85 11.21 21.44 11.21C21.12 11.21 20.81 11.18 20.35 11.1C20.47 11.36 20.51 11.51 20.54 11.77C21.01 11.8 21.16 11.81 21.49 11.81C22.33 11.81 22.59 11.62 22.59 11V8.54C22.59 8.21 22.6 7.97 22.63 7.72C22.33 7.75 22.03 7.77 21.7 7.77H19.71V7.57C19.71 7.02 19.72 6.76 19.77 6.5H19.01C19.05 6.76 19.07 7.06 19.07 7.57V7.77H17.01C17.47 7.17 17.85 6.56 18.19 5.88H22.3C22.83 5.88 23.14 5.9 23.42 5.94V5.23C23.16 5.27 22.85 5.29 22.3 5.29H18.45ZM27.8 9.31C27.41 10.23 27.09 10.83 26.53 11.72C25.63 11.78 25.63 11.78 25.47 11.78C25.32 11.78 25.13 11.77 24.96 11.75L25.08 12.51C25.33 12.45 25.53 12.43 26.77 12.33C28.33 12.21 29.84 12.05 31.62 11.81C31.83 12.07 31.96 12.24 32.35 12.79L32.9 12.38C32.15 11.42 31.48 10.68 30.48 9.74L29.96 10.06C30.4 10.47 30.58 10.65 31.18 11.3C29.7 11.48 28.66 11.58 27.28 11.67C27.79 10.88 27.98 10.51 28.53 9.31H32.12C32.61 9.31 32.95 9.33 33.26 9.37V8.65C32.95 8.69 32.63 8.71 32.12 8.71H25.96C25.46 8.71 25.13 8.69 24.82 8.65V9.37C25.12 9.33 25.47 9.31 25.96 9.31H27.8ZM28.63 3.73C28.19 4.42 27.73 4.93 27.04 5.51C26.21 6.2 25.42 6.69 24.39 7.14C24.55 7.29 24.71 7.5 24.81 7.71C25.81 7.25 26.63 6.71 27.51 5.95C28.14 5.4 28.52 4.99 29.01 4.31C29.48 4.97 29.94 5.47 30.61 6.02C31.42 6.68 32.39 7.29 33.39 7.76C33.48 7.53 33.58 7.36 33.78 7.12C32.85 6.76 31.89 6.21 31.02 5.52C30.25 4.92 29.81 4.45 29.34 3.73H28.63ZM26.6 7.49C26.8 7.46 27.08 7.45 27.38 7.45H30.62C30.99 7.45 31.25 7.46 31.46 7.49V6.82C31.24 6.85 31.01 6.86 30.62 6.86H27.39C27.02 6.86 26.8 6.85 26.6 6.82V7.49Z" fill="#333333"/>
</svg>
