<svg width="76" height="16" viewBox="0 0 76 16" fill="none" xmlns="http://www.w3.org/2000/svg">
<rect width="76" height="16" fill="#BF0000"/>
<path fill-rule="evenodd" clip-rule="evenodd" d="M12.7519 9.27277C11.4547 10.7138 9.74335 11.5894 8.20001 11.9173V10.4498C10.229 9.86551 12.3902 8.16957 13.0517 5.58967H8.65797V4.16769H14.8505C14.7542 5.62603 14.34 6.88421 13.7307 7.93233C14.1982 9.15489 15.1244 9.93859 15.927 10.3855V11.9999C14.5251 11.5255 13.4219 10.4854 12.7519 9.27277Z" fill="white"/>
<path fill-rule="evenodd" clip-rule="evenodd" d="M16.0278 8.20663H22.9117V6.75711H16.0278V8.20663Z" fill="white"/>
<path fill-rule="evenodd" clip-rule="evenodd" d="M30.6658 4.10237C30.4451 4.10237 30.2682 4.28563 30.2682 4.51295C30.2682 4.7322 30.4451 4.92353 30.6658 4.92353C30.8775 4.92353 31.0719 4.7322 31.0719 4.51295C31.0719 4.28563 30.8775 4.10237 30.6658 4.10237ZM30.6658 5.47036C30.1449 5.47036 29.7392 5.04289 29.7392 4.51295C29.7392 3.98375 30.1449 3.55554 30.6658 3.55554C31.1777 3.55554 31.592 3.98375 31.592 4.51295C31.592 5.04289 31.1777 5.47036 30.6658 5.47036ZM27.9664 4.67748V4.00285H29.5015V4.70502C29.5015 7.00324 29.871 9.0455 31.1866 10.3033V12C29.1572 10.9868 27.9664 8.68009 27.9664 4.67748ZM23.2383 12V10.3217C24.5621 9.06312 24.9319 7.00324 24.9319 4.69547V4.00285H26.4404V4.66866C26.4404 8.72599 25.2495 10.9967 23.2383 12Z" fill="white"/>
<path fill-rule="evenodd" clip-rule="evenodd" d="M31.5283 8.20663H38.4115V6.75711H31.5283V8.20663Z" fill="white"/>
<path fill-rule="evenodd" clip-rule="evenodd" d="M41.1172 9.48273C41.1671 9.8443 41.2652 10.1146 41.4114 10.2936C41.6788 10.6193 42.1369 10.7822 42.7859 10.7822C43.1745 10.7822 43.4901 10.7393 43.7325 10.6533C44.1925 10.4887 44.4225 10.1826 44.4225 9.73511C44.4225 9.47378 44.3084 9.27152 44.0802 9.12833C43.852 8.98871 43.4936 8.86521 43.0052 8.75781L42.1708 8.56987C41.3507 8.38372 40.7838 8.18146 40.4701 7.96308C39.9388 7.59794 39.6732 7.02696 39.6732 6.25013C39.6732 5.54131 39.9299 4.95243 40.4433 4.48347C40.9568 4.01451 41.7109 3.78003 42.7056 3.78003C43.5364 3.78003 44.2451 4.00108 44.8316 4.4432C45.4181 4.88531 45.7257 5.52699 45.7542 6.36826H44.1711C44.1426 5.89214 43.9358 5.55385 43.5507 5.35337C43.294 5.22092 42.9748 5.15469 42.5933 5.15469C42.169 5.15469 41.8303 5.24061 41.5772 5.41244C41.324 5.58427 41.1974 5.82412 41.1974 6.13199C41.1974 6.4148 41.3222 6.62601 41.5718 6.76562C41.7323 6.8587 42.0745 6.96789 42.5987 7.09318L43.9572 7.42074C44.5526 7.56393 45.0019 7.75545 45.3049 7.9953C45.7756 8.36761 46.0109 8.90637 46.0109 9.61161C46.0109 10.3347 45.7355 10.9353 45.1846 11.4132C44.6337 11.8911 43.8555 12.13 42.8501 12.13C41.8232 12.13 41.0156 11.8947 40.4273 11.4239C39.839 10.9532 39.5448 10.3061 39.5448 9.48273H41.1172ZM49.3857 8.93502H51.3859L50.4019 5.82056L49.3857 8.93502ZM49.4873 4.01102H51.3485L54.1403 11.9261H52.354L51.8459 10.299H48.9417L48.3962 11.9261H46.6741L49.4873 4.01102ZM55.1404 4.01102H56.7877V10.5031H60.692V11.9261H55.1404V4.01102ZM67.6608 5.41253H63.4891V7.09327H67.3185V8.46793H63.4891V10.5031H67.8533V11.9261H61.8793V4.01102H67.6608V5.41253Z" fill="white"/>
</svg>
