<svg width="86" height="16" viewBox="0 0 86 16" fill="none" xmlns="http://www.w3.org/2000/svg">
<path d="M33.5975 7.37103C33.67 7.19703 33.6845 6.93603 33.6845 6.74753V1.32453H27.435V2.67303H28.682L27.957 3.70253C28.5805 3.94903 29.3925 4.41303 29.9145 4.81903L30.741 3.70253C30.1175 3.23853 29.2475 2.80353 28.827 2.67303H32.2055V6.21103C32.2055 6.47203 32.1765 6.50103 31.901 6.50103H30.6395L30.9005 7.82053H32.713C32.9015 7.82053 33.061 7.79153 33.206 7.74803C33.351 7.69003 33.467 7.60303 33.554 7.47253V8.57453H28.131V9.95203H30.0885C30.48 10.8365 30.741 11.634 31.0165 12.6345H27.435V14.041H41.0795V12.6345H37.5995C37.846 11.8805 38.252 10.706 38.4985 9.95203H40.4125V8.57453H34.9315V7.37103H33.5975ZM36.9035 9.95203C36.7005 10.8365 36.2365 12.098 36.019 12.6345H32.5535C32.365 11.953 32.1185 11.1265 31.6545 9.95203H36.9035ZM37.44 3.70253C36.918 3.31103 36.3235 3.02103 35.5695 2.67303H38.9625V6.24003C38.9625 6.50103 38.8755 6.50103 38.658 6.50103H37.2515L37.5415 7.82053H39.122C40.021 7.82053 40.4125 7.70453 40.4125 6.73303V1.32453H34.279V2.67303H35.352L34.627 3.70253C35.236 4.00703 36.106 4.50003 36.628 4.83353L37.44 3.70253ZM27.754 7.29853C29.03 6.93603 30.77 6.22553 31.669 5.81953L31.466 4.52903C30.4075 4.99303 29.1025 5.51503 27.435 5.89203L27.754 7.29853ZM34.54 7.11003C35.526 6.84903 37.3965 6.22553 38.4115 5.73253L38.2085 4.48553C36.6425 5.09453 35.2795 5.41353 34.163 5.64553L34.54 7.11003Z" fill="#BF0000"/>
<path d="M43.1385 1.54203V14.099H54.3615V1.54203H43.1385ZM44.7335 3.03553H52.752V7.00853H44.7335V3.03553ZM52.752 8.48753V12.6055H44.7335V8.48753H52.752Z" fill="#BF0000"/>
<path d="M56.464 1.33903V2.71653H58.755V4.07953H56.783V14.186H63.047V4.07953H61.0315V2.71653H63.3515V1.33903H56.464ZM60.2775 8.31353C60.2775 8.90803 60.4515 9.06753 61.0315 9.06753H61.7855V10.0825H58.059V8.42953L58.755 9.27053C59.19 8.77753 59.5815 8.00903 59.5815 6.54453V5.29753H60.2775V8.31353ZM60.2775 4.07953H59.5815V2.71653H60.2775V4.07953ZM58.755 6.39953C58.755 6.82003 58.755 7.71903 58.059 8.37153V5.29753H58.755V6.39953ZM61.7855 7.82053H61.336C61.046 7.82053 61.0315 7.79153 61.0315 7.47253V5.29753H61.7855V7.82053ZM61.7855 12.823H58.059V11.344H61.7855V12.823ZM69.775 1.33903H63.83V2.77453H68.3105V6.28353H63.917V13.084C63.917 14.099 64.7 14.099 65.164 14.099H68.615C69.978 14.099 70.1375 13.2435 70.1955 10.9525L68.731 10.6045C68.731 11.344 68.702 12.0835 68.6295 12.359C68.5425 12.6635 68.412 12.6635 68.093 12.6635H65.802C65.512 12.6635 65.3815 12.62 65.3815 12.301V7.70453H69.775V1.33903Z" fill="#BF0000"/>
<path d="M84.6805 1.56603H80.954V0.870026H79.446V1.56603H75.676V2.75503H79.446V3.61053H75.067V4.78503H76.9375C77.039 5.03153 77.2275 5.66953 77.2855 5.98853H75.4295V7.17753H79.446V8.03303H75.7775V9.14953H79.446V10.034H75.183V11.2665H79.446V12.2815H80.954V11.2665H85.13V10.034H80.954V9.14953H84.579V8.03303H80.954V7.17753H84.8835V5.98853H83.129C83.3175 5.55353 83.3465 5.46653 83.5785 4.78503H85.217V3.61053H80.954V2.75503H84.6805V1.56603ZM82.056 4.78503C81.969 5.11853 81.824 5.61153 81.6645 5.98853H78.7355C78.634 5.56803 78.5615 5.27803 78.402 4.78503H82.056ZM71.761 1.91403C72.428 2.55203 73.5155 4.33553 73.617 4.49503L74.9075 3.61053C74.371 2.74053 73.82 1.98653 72.8485 1.05853L71.761 1.91403ZM71.761 7.85903H72.979V11.7015C72.486 12.2235 71.7755 12.6295 71.5 12.76L72.1235 14.5C72.979 13.862 73.588 13.2385 74.1535 12.441C74.7335 13.2095 75.009 13.398 75.6325 13.688C76.053 13.8765 76.952 14.094 77.793 14.094H85.13L85.4635 12.6875H77.7785C77.155 12.6875 75.3715 12.6875 74.458 10.9765V6.43803H71.761V7.85903Z" fill="#BF0000"/>
<path d="M23.3491 3.63303L16.4882 0L9.62735 3.63303L16.4882 7.26605L23.3491 3.63303ZM8.88962 12.3303L15.7874 16V8.40367L8.88962 4.73394V12.3303ZM17.1522 8.40367V16L24.0499 12.3303V4.73394L17.1522 8.40367Z" fill="#003399"/>
<path d="M7.56172 3.41287H0V4.73397H7.56172V3.41287Z" fill="#003399"/>
<path d="M7.56172 7.48627H0V8.80737H7.56172V7.48627Z" fill="#003399"/>
<path d="M7.56172 11.5963H0V12.9174H7.56172V11.5963Z" fill="#003399"/>
</svg>
