<svg width="76" height="16" viewBox="0 0 76 16" fill="none" xmlns="http://www.w3.org/2000/svg">
<path fill-rule="evenodd" clip-rule="evenodd" d="M1.75008 2.74658H6.94475C7.00221 2.74657 7.0591 2.75787 7.11219 2.77985C7.16528 2.80184 7.21351 2.83406 7.25414 2.87469C7.29477 2.91532 7.327 2.96355 7.34898 3.01664C7.37096 3.06973 7.38227 3.12662 7.38225 3.18408V8.27985H1.31258V3.18408C1.31256 3.12662 1.32387 3.06973 1.34585 3.01664C1.36783 2.96355 1.40005 2.91532 1.44068 2.87469C1.48131 2.83406 1.52955 2.80183 1.58263 2.77985C1.63572 2.75787 1.69262 2.74657 1.75008 2.74658ZM6.0473 4.88751C6.08815 4.84692 6.12053 4.79864 6.14258 4.74545C6.18136 4.65231 6.18666 4.54861 6.15759 4.452C6.12851 4.3554 6.06686 4.27185 5.98312 4.21559C5.89938 4.15932 5.79873 4.13382 5.6983 4.14341C5.59787 4.15301 5.50387 4.19711 5.43229 4.26822L3.87071 5.83407L3.28602 5.24917C3.2469 5.20359 3.19878 5.16658 3.14469 5.14047C3.09059 5.11436 3.03169 5.0997 2.97166 5.09741C2.91164 5.09513 2.85179 5.10527 2.79586 5.12719C2.73994 5.14912 2.68915 5.18237 2.64667 5.22484C2.6042 5.26732 2.57095 5.31811 2.54903 5.37403C2.5271 5.42996 2.51696 5.48981 2.51925 5.54983C2.52153 5.60986 2.53619 5.66876 2.56231 5.72286C2.58842 5.77695 2.62543 5.82507 2.67101 5.86419L3.56117 6.75864C3.64288 6.83983 3.75339 6.8854 3.86858 6.8854C3.98376 6.8854 4.09427 6.83983 4.17598 6.75864L6.0473 4.88751ZM10.1638 4.36788L12.9977 7.3774C13.0401 7.41267 13.0737 7.45736 13.0958 7.50791C13.118 7.55846 13.1279 7.61347 13.125 7.66857V11.94C13.1164 12.0486 13.0716 12.1512 12.9977 12.2314C12.9659 12.2766 12.9225 12.3125 12.8721 12.3353C12.8217 12.3581 12.766 12.3669 12.711 12.3608H11.5011C11.3882 12.7394 11.1576 13.0721 10.8428 13.3107C10.5279 13.5492 10.1452 13.6812 9.75021 13.6874C9.3536 13.6874 8.96787 13.5578 8.65172 13.3183C8.33558 13.0788 8.10635 12.7426 7.99893 12.3608H6.47065C6.35767 12.7394 6.12698 13.0721 5.81206 13.3106C5.49715 13.5492 5.1144 13.6812 4.71939 13.6874C4.32279 13.6873 3.93706 13.5577 3.62093 13.3182C3.30479 13.0788 3.07556 12.7425 2.9681 12.3608H1.72652C1.67233 12.3605 1.6188 12.3489 1.56941 12.3266C1.52001 12.3042 1.47587 12.2718 1.43984 12.2313C1.39491 12.1982 1.3595 12.1538 1.33715 12.1027C1.3148 12.0515 1.30631 11.9954 1.31253 11.9399V9.15132H7.81222C7.86968 9.15136 7.92659 9.14006 7.97969 9.11809C8.03278 9.09612 8.08102 9.06389 8.12166 9.02326C8.16229 8.98263 8.19451 8.93438 8.21649 8.88129C8.23846 8.82819 8.24976 8.77129 8.24972 8.71382L8.25356 4.23842H9.84549C9.90479 4.23536 9.96403 4.24537 10.019 4.26774C10.074 4.29011 10.1235 4.3243 10.1638 4.36788ZM4.01583 12.5517C4.19364 12.7325 4.43416 12.8379 4.68757 12.8462C4.87583 12.8462 5.05989 12.7905 5.21664 12.6863C5.37338 12.582 5.49582 12.4337 5.56858 12.2601C5.64134 12.0865 5.66117 11.8952 5.62558 11.7103C5.58999 11.5255 5.50056 11.3552 5.36854 11.221C5.23652 11.0868 5.06778 10.9946 4.88352 10.956C4.69927 10.9174 4.50771 10.9341 4.3329 11.004C4.1581 11.0739 4.00785 11.1938 3.90102 11.3489C3.79419 11.5039 3.73555 11.687 3.73246 11.8752C3.73656 12.1287 3.83803 12.371 4.01583 12.5517ZM9.01469 12.5518C9.19254 12.7325 9.43311 12.8379 9.68656 12.8462C9.87481 12.8461 10.0589 12.7904 10.2156 12.6861C10.3723 12.5819 10.4947 12.4336 10.5674 12.2599C10.6401 12.0863 10.6599 11.895 10.6243 11.7102C10.5887 11.5253 10.4993 11.3551 10.3672 11.2209C10.2352 11.0868 10.0665 10.9946 9.88222 10.956C9.69797 10.9174 9.50642 10.9341 9.33163 11.004C9.15684 11.0739 9.0066 11.1939 8.89978 11.3489C8.79296 11.5039 8.73432 11.687 8.73124 11.8752C8.73534 12.1288 8.83684 12.371 9.01469 12.5518ZM10.1595 9.13615H11.3058L11.3058 9.13616C11.3652 9.13711 11.4242 9.12599 11.4792 9.10346C11.5342 9.08093 11.584 9.04747 11.6257 9.0051C11.6674 8.96273 11.7 8.91234 11.7216 8.85698C11.7432 8.80163 11.7534 8.74246 11.7514 8.68306C11.7514 8.39189 10.1916 6.77391 10.1916 6.77391C10.0322 6.57973 9.71389 6.61197 9.71389 6.9681V8.68305C9.71195 8.74245 9.72209 8.80162 9.7437 8.85697C9.76532 8.91233 9.79794 8.96272 9.83961 9.00509C9.88128 9.04746 9.93112 9.08092 9.98611 9.10345C10.0411 9.12598 10.1001 9.1371 10.1595 9.13615Z" fill="black" fill-opacity="0.5"/>
<path fill-rule="evenodd" clip-rule="evenodd" d="M73.0515 5.77957L73.1486 5.79133C73.2141 5.79927 73.2809 5.80337 73.3486 5.80337C74.2588 5.80337 74.9966 5.06388 74.9966 4.15168C74.9966 3.23948 74.2588 2.5 73.3486 2.5C72.5953 2.5 71.9599 3.00659 71.7634 3.69858L71.7427 3.77128H63.97V5.36075H71.2368L71.2257 5.4709C71.0524 7.19363 70.4274 8.60975 69.3938 9.67083C68.3767 10.7149 66.9703 11.4086 65.227 11.7172V13.3C67.1691 13.0877 68.9364 12.4326 70.3071 11.2499C71.7024 10.046 72.6942 8.28927 73.0377 5.87657L73.0515 5.77957ZM73.3486 3.55107C73.6796 3.55107 73.9479 3.81997 73.9479 4.15168C73.9479 4.48339 73.6796 4.7523 73.3486 4.7523C73.0176 4.7523 72.7493 4.48339 72.7493 4.15168C72.7493 3.81997 73.0176 3.55107 73.3486 3.55107ZM39.1595 5.61145V4.00097C37.5984 3.81528 35.8807 3.66271 34.4143 3.61389V5.18051C35.8234 5.23112 37.6491 5.42485 39.1595 5.61145ZM42.0842 5.28562C41.8619 7.54516 41.1771 9.08817 39.9346 10.0821C38.6959 11.0729 36.9208 11.5032 34.5514 11.5809V13.2636C37.2611 13.2176 39.4799 12.6807 41.0779 11.4335C42.6728 10.1887 43.6653 8.22364 43.8969 5.28562H42.0842ZM39.0452 7.32675C37.5571 7.13024 35.799 6.96702 34.3 6.91784V8.49523C35.708 8.53497 37.4745 8.71854 39.0452 8.91526V7.32675ZM45.6301 6.73424H51.5099V8.40747H45.7724V9.8012H51.5099V11.6943H45.6301V13.11H53.1168V5.32951H45.6301V6.73424ZM61.1238 5.49437V5.4037H62.7081V5.50459C62.6871 8.00671 62.0917 9.76292 61.0233 10.9642C59.9753 12.1424 58.4595 12.801 56.5422 13.0941V11.6909C58.2635 11.3198 59.407 10.6819 60.1208 9.67932C60.8435 8.66432 61.1132 7.2923 61.1238 5.49437ZM58.9153 5.32951C59.2637 6.35052 59.6196 7.87856 59.8384 9.09316H58.344C58.1831 8.04334 57.815 6.46185 57.4934 5.32951H58.9153ZM56.1805 5.4037C56.5202 6.4271 56.9035 8.02658 57.1242 9.18855H55.6307C55.4686 8.15547 55.0822 6.53006 54.75 5.4037H56.1805ZM16.918 10.0421L17.0082 10.1663C17.7243 11.1523 18.5909 11.6354 19.6106 11.6354C20.1267 11.6354 20.5322 11.5021 20.8366 11.2441L20.8377 11.2432C21.1505 10.9858 21.306 10.6534 21.306 10.2377C21.306 9.81358 21.142 9.4825 20.8115 9.2349L20.8102 9.23388C20.4769 8.97492 20.0164 8.83996 19.4181 8.83996H18.1368V7.00499H19.5218C20.0094 7.00499 20.3965 6.88582 20.6915 6.65559C20.9831 6.42802 21.1283 6.12612 21.1283 5.74039C21.1283 5.38463 20.9933 5.10763 20.7218 4.8997L20.719 4.89752C20.4549 4.67923 20.0892 4.56456 19.6106 4.56456C18.7285 4.56456 17.965 4.97935 17.3179 5.82839L17.2232 5.95262L16.3868 4.24808L16.4257 4.20021C16.8198 3.71562 17.2956 3.34632 17.8524 3.09344C18.4192 2.83064 19.0453 2.7 19.7291 2.7C20.4016 2.7 20.9981 2.81533 21.5163 3.04878C22.0334 3.28175 22.4379 3.60773 22.7255 4.02798C23.0241 4.43992 23.1726 4.91831 23.1726 5.45931C23.1726 6.03136 23.0085 6.53546 22.6789 6.96754C22.3981 7.33571 22.0282 7.6272 21.5719 7.84307C22.1371 8.04456 22.5769 8.3357 22.8849 8.72028C23.2368 9.15969 23.4095 9.7123 23.4095 10.3708C23.4095 10.9989 23.2521 11.5506 22.9344 12.0219C22.6277 12.4913 22.1991 12.8574 21.6518 13.1206L21.6505 13.1212C21.1022 13.3748 20.4659 13.5 19.7439 13.5C18.206 13.5 16.9684 12.931 16.0407 11.7928L16 11.7428L16.918 10.0421ZM25.8549 13.1676C25.3 12.9459 24.829 12.6326 24.4435 12.2273L24.3984 12.1799L25.2034 10.4375L25.3008 10.5634C25.8849 11.3191 26.6467 11.6946 27.5939 11.6946C28.361 11.6946 28.9346 11.4123 29.3291 10.8517C29.6826 10.3493 29.8981 9.61521 29.9664 8.6398C29.7522 8.9485 29.4809 9.1986 29.153 9.38906L29.1515 9.38991C28.7098 9.6362 28.1844 9.75717 27.5791 9.75717C26.9519 9.75717 26.3917 9.61553 25.9014 9.32981L25.8993 9.32861C25.42 9.03316 25.043 8.62559 24.7688 8.10813C24.4939 7.58936 24.3577 6.99652 24.3577 6.33214C24.3577 5.60844 24.5088 4.97506 24.8145 4.43542C25.1293 3.88775 25.5619 3.46042 26.1105 3.15595C26.6699 2.85116 27.3188 2.7 28.053 2.7C29.3139 2.7 30.2922 3.16035 30.974 4.08522C31.6625 5.00581 32 6.3164 32 8.00384C32 9.13749 31.8259 10.1174 31.4741 10.9408C31.1323 11.764 30.6377 12.401 29.9885 12.8469C29.3479 13.2837 28.5775 13.5 27.6827 13.5C27.0299 13.5 26.4199 13.3894 25.8549 13.1676ZM29.2554 7.55404L29.2564 7.55299C29.5723 7.21887 29.7336 6.7805 29.7336 6.22858C29.7336 5.69742 29.5729 5.26853 29.2564 4.93376C28.9404 4.59947 28.537 4.43141 28.0382 4.43141C27.5394 4.43141 27.1416 4.59941 26.8357 4.93271C26.5292 5.26673 26.3724 5.70547 26.3724 6.25817C26.3724 6.80024 26.5288 7.23408 26.8353 7.56834C27.1408 7.8918 27.5388 8.05535 28.0382 8.05535C28.5474 8.05535 28.95 7.88693 29.2554 7.55404Z" fill="black" fill-opacity="0.5"/>
</svg>
