<svg xmlns="http://www.w3.org/2000/svg" viewBox="0 0 140 18"><defs><style>.cls-1{fill:#fff;}.cls-2{fill:#ffef00;}.cls-3{fill:#bf0000;}</style></defs><g id="レイヤー_2" data-name="レイヤー 2"><g id="レイヤー_1-2" data-name="レイヤー 1"><rect class="cls-1" width="140" height="18"/><rect class="cls-1" x="94.75" y="0.48" width="44.57" height="17.02"/><rect class="cls-2" x="94.75" y="0.48" width="44.57" height="17.02"/><path d="M139,1V17H1V1H139m1-1H0V18H140V0Z"/><path class="cls-3" d="M13.59,12a9.77,9.77,0,0,0,.09,1.65h-2a9.59,9.59,0,0,0,.1-1.63V6.14a9.64,9.64,0,0,0-.09-1.51c.44,0,.74,0,1.5,0h3.2A13.56,13.56,0,0,0,18,4.59V6.36a10.9,10.9,0,0,0-1.58-.08h-2.8V8.37h2.25a11.08,11.08,0,0,0,1.58-.08V10a12.8,12.8,0,0,0-1.58-.08H13.59Z"/><path class="cls-3" d="M23.14,13a3.13,3.13,0,0,1-2.12.69,2.49,2.49,0,0,1-1.73-.52,1.81,1.81,0,0,1-.63-1.43c0-1.07.75-1.81,2.11-2.12a11.4,11.4,0,0,1,2.37-.21V9c0-.54-.38-.81-1.13-.81a1.81,1.81,0,0,0-1,.26,1.16,1.16,0,0,0-.42.6l-1.74-.28a2.34,2.34,0,0,1,.83-1.24A3.84,3.84,0,0,1,22,6.91a3.2,3.2,0,0,1,2.3.68,1.89,1.89,0,0,1,.52,1.57v3a10.66,10.66,0,0,0,.08,1.47H23.14Zm0-2.41a6.61,6.61,0,0,0-2,.24c-.51.15-.77.45-.77.87s.33.71.92.71A2.25,2.25,0,0,0,22.68,12a1.15,1.15,0,0,0,.46-.94Z"/><path class="cls-3" d="M27.74,11.47A1.13,1.13,0,0,0,28,12a1.47,1.47,0,0,0,1.13.38c.71,0,1.17-.26,1.17-.66a.5.5,0,0,0-.24-.43,2.67,2.67,0,0,0-1-.31,7.53,7.53,0,0,1-1.8-.5,1.68,1.68,0,0,1-1-1.57c0-1.26,1-2,2.75-2a3.14,3.14,0,0,1,2.18.67,2,2,0,0,1,.65,1.2L30,9c-.06-.51-.38-.73-1-.73s-1.07.22-1.07.58a.49.49,0,0,0,.34.44,4,4,0,0,0,1,.29,5.78,5.78,0,0,1,1.92.61A1.63,1.63,0,0,1,32,11.63c0,1.36-1.1,2.16-3,2.16a3.12,3.12,0,0,1-2.69-1,2.49,2.49,0,0,1-.43-1.06Z"/><path class="cls-3" d="M33,13.61a11.86,11.86,0,0,0,.08-1.54V6.2A10.47,10.47,0,0,0,33,4.66h1.9a9.05,9.05,0,0,0-.09,1.54V7.53c0,.1,0,.23,0,.44a3,3,0,0,1,2.31-1,2.09,2.09,0,0,1,2.28,2.33v2.78a11,11,0,0,0,.08,1.54H37.58a12.17,12.17,0,0,0,.09-1.54V9.71c0-.57-.09-.84-.36-1a1,1,0,0,0-.63-.18,2.24,2.24,0,0,0-1.82,1.33v2.24A10.9,10.9,0,0,0,35,13.61Z"/><path class="cls-3" d="M42.7,7.09a10.51,10.51,0,0,0-.08,1.56v3.41a11.63,11.63,0,0,0,.08,1.55H40.76a12.05,12.05,0,0,0,.09-1.54V8.63a10.8,10.8,0,0,0-.09-1.54Zm0-2.43V6.18H40.78V4.66Z"/><path class="cls-3" d="M43.69,10.35a3.44,3.44,0,1,1,6.88,0,3.44,3.44,0,1,1-6.88,0Zm1.75,0c0,1.3.64,2.09,1.7,2.09s1.68-.77,1.68-2.06-.62-2.1-1.67-2.1S45.44,9,45.44,10.33Z"/><path class="cls-3" d="M51.57,13.61a10.22,10.22,0,0,0,.09-1.54V8.63a9.05,9.05,0,0,0-.09-1.54h1.82v.44c0,.09,0,.23,0,.44a3,3,0,0,1,2.31-1A2.09,2.09,0,0,1,58,9.29v2.78A9.5,9.5,0,0,0,58,13.61H56.11a10.55,10.55,0,0,0,.09-1.54V9.71c0-.57-.09-.82-.35-1a1.11,1.11,0,0,0-.65-.19,2.3,2.3,0,0,0-1.8,1.33v2.24a12.69,12.69,0,0,0,.08,1.54Z"/><path class="cls-3" d="M61,10.76a1.4,1.4,0,0,0,.3.89,1.78,1.78,0,0,0,1.46.59c1,0,1.56-.44,1.56-1.14a.87.87,0,0,0-.43-.79A5.67,5.67,0,0,0,62,9.7,4.18,4.18,0,0,1,60.33,9a2.33,2.33,0,0,1-.95-1.95c0-1.61,1.29-2.64,3.32-2.64A3.43,3.43,0,0,1,65.57,5.6a3,3,0,0,1,.56,1.34l-1.93.21a1.36,1.36,0,0,0-.29-.71A1.59,1.59,0,0,0,62.69,6c-.86,0-1.43.42-1.43,1a.82.82,0,0,0,.38.71,3,3,0,0,0,1,.37,10.49,10.49,0,0,1,2.17.59,2.52,2.52,0,0,1,1.11,1A2.5,2.5,0,0,1,66.28,11c0,1.79-1.26,2.82-3.46,2.82a3.78,3.78,0,0,1-3.07-1.14,3.11,3.11,0,0,1-.63-1.73Z"/><path class="cls-3" d="M71.66,13a3.12,3.12,0,0,1-2.12.69,2.49,2.49,0,0,1-1.73-.52,1.81,1.81,0,0,1-.63-1.43c0-1.07.75-1.81,2.11-2.12a11.4,11.4,0,0,1,2.37-.21V9c0-.54-.38-.81-1.13-.81a1.84,1.84,0,0,0-1,.26,1.16,1.16,0,0,0-.42.6l-1.74-.28a2.4,2.4,0,0,1,.83-1.24,3.84,3.84,0,0,1,2.37-.63,3.2,3.2,0,0,1,2.3.68,1.89,1.89,0,0,1,.52,1.57v3a10.66,10.66,0,0,0,.08,1.47H71.66Zm0-2.41a6.61,6.61,0,0,0-2,.24c-.51.15-.77.45-.77.87s.33.71.92.71A2.3,2.3,0,0,0,71.21,12a1.17,1.17,0,0,0,.45-.94Z"/><path class="cls-3" d="M76.64,4.66a10.64,10.64,0,0,0-.08,1.54v5.87a12.16,12.16,0,0,0,.08,1.54H74.71a9.42,9.42,0,0,0,.09-1.54V6.2a9.05,9.05,0,0,0-.09-1.54Z"/><path class="cls-3" d="M79.37,10.82a1.78,1.78,0,0,0,.37,1.07,1.57,1.57,0,0,0,1.26.55,1.48,1.48,0,0,0,1.52-1l1.6.47A3,3,0,0,1,83.41,13a3.31,3.31,0,0,1-2.41.89A3.28,3.28,0,0,1,78.61,13a3.61,3.61,0,0,1-1-2.62,3.2,3.2,0,0,1,3.29-3.48,3,3,0,0,1,3,2,5.12,5.12,0,0,1,.3,1.72,2.49,2.49,0,0,0,0,.26Zm3.08-1.27a1.75,1.75,0,0,0-.31-.77A1.46,1.46,0,0,0,81,8.25a1.5,1.5,0,0,0-1.55,1.3Z"/><path d="M114.84,7.78a11.37,11.37,0,0,0,1.36-.07V9.13a11.9,11.9,0,0,0-1.36-.07h-2.52v1.3h3a12.09,12.09,0,0,0,1.4-.06v1.43a10.32,10.32,0,0,0-1.4-.07h-3v1.2a9.8,9.8,0,0,0,.08,1.46h-1.66a10.87,10.87,0,0,0,.07-1.48V11.66H108a10.32,10.32,0,0,0-1.4.07V10.3a12.45,12.45,0,0,0,1.4.06h2.77V9.06h-2.33a11.9,11.9,0,0,0-1.36.07V7.71a12.23,12.23,0,0,0,1.37.07h2.32V5.51a10.92,10.92,0,0,0-.06-1.44h1.64a9,9,0,0,0-.07,1.43V7.78Zm-6.38-3.37A15.68,15.68,0,0,1,110.11,7l-1.3.71a13,13,0,0,0-1.66-2.61Zm7.39.62a16,16,0,0,1-1.64,2.66L113,7a12.31,12.31,0,0,0,1.54-2.61Z"/><path d="M118.16,11.43v-.28l-.34.14a3.31,3.31,0,0,0-.62-1.16,6,6,0,0,0,2-.84,4.59,4.59,0,0,1-.53-.56,4.68,4.68,0,0,1-.68.54,3.37,3.37,0,0,0-.68-1,5.5,5.5,0,0,0,1.42-1.2h-1.19a.41.41,0,0,0,0-.1,5,5,0,0,0,0-.65V5.7c0-.19,0-.47,0-.76a8,8,0,0,0,.87,0h1V4.79a4.5,4.5,0,0,0,0-.66h1.48a2.33,2.33,0,0,0-.06.69V5h.86a7.22,7.22,0,0,0,.75,0V4.29a8.86,8.86,0,0,0,1.2,0h2.82a9.53,9.53,0,0,0,1.21,0V5.66h-.12a10.08,10.08,0,0,0-1.09,0h-.63a6,6,0,0,1-.24.64h.61a6.23,6.23,0,0,0,1.11,0c0,.36,0,.56,0,1V11c0,.49,0,.78,0,1.18-.06,0-.11,0-.13,0l-.82,0H126a5.09,5.09,0,0,0,1.87,1,4.52,4.52,0,0,0-.77,1.25,6.6,6.6,0,0,1-2.25-1.58l.81-.7H124l.83.68a7.06,7.06,0,0,1-2.06,1.62,3.07,3.07,0,0,0-.7-.92v.15q0,.09,0,.45h-1.28v-.45h-1.34v.54h-1.34a9.9,9.9,0,0,0,0-1Zm3.1-5.3h-2.44v.79a2.43,2.43,0,0,0,.35-.68l1.22.22a.23.23,0,0,0,0,.11l-.1.16-.07.12h1.09Zm.28,4.55a8.11,8.11,0,0,1-1.37-.65,6.37,6.37,0,0,1-1,.65h2.37ZM119.4,8a3.65,3.65,0,0,0,.66.64,4.94,4.94,0,0,0,.65-.73h-1.24Zm0,4.57h1.33v-.8h-1.33Zm2.83-5-.14.19a9,9,0,0,1-1,1.46,6.05,6.05,0,0,0,1.61.48V7.26c0-.32,0-.66,0-1a5.8,5.8,0,0,0,.91,0h.59a4.26,4.26,0,0,0,.25-.64h-.84c-.41,0-.93,0-1.13,0v.59a4.36,4.36,0,0,0,0,.78h-.6l.45.47ZM122,13.25a4.22,4.22,0,0,0,1.6-1.12h-.14l-.82,0c0-.2,0-.8,0-1V9.75a4.31,4.31,0,0,0-.45,1.16l-.2-.05c0,.21,0,.22,0,.67ZM124,7.87h2V7.34h-2Zm0,1.56h2V8.88h-2ZM124,11h2v-.55h-2Z"/></g></g></svg>