<svg width="30" height="16" viewBox="0 0 30 16" fill="none" xmlns="http://www.w3.org/2000/svg">
<path fill-rule="evenodd" clip-rule="evenodd" d="M30 0H0V16H30V0ZM29 1H15V15H29V1ZM5.2428 3.27266L4.74136 2.10001H3.22713L3.74302 3.27266H5.2428ZM6.89464 3.27266H8.33518L7.90881 2.10001H6.48364L6.88876 3.25699L6.89464 3.27266ZM10.4526 5.95404L10.3825 5.91718H4.45761V7.14789H8.23981L7.74743 7.95146H6.88654V9.31994H1.95V10.5179H6.88654V12.7043H5.75708V13.8958H8.04132V10.5179H13.0452V9.31994H8.39581L10.4526 5.95404ZM10.8756 3.92672L11.8613 2.15046L11.8812 2.11498H10.414L9.45229 3.92672H1.95027V6.33561H3.14936V5.10536H11.8469V6.33561H13.0455V3.92672H10.8756ZM27.3064 13.7962H26.0757V2.2H27.3064V13.7962ZM24.9571 10.7597H23.7123V3.15149H24.9571V10.7597ZM22.2405 13.7229H17.3727V10.1754H22.2405V13.7229ZM21.1373 12.5834H18.4769V11.3001H21.1373V12.5834ZM20.3585 7.92386H21.9438V6.78487H20.3585V6.23654H22.0853V5.08371H20.3585V4.56396H19.2553V5.08371H17.5426V6.23654H19.2553V6.78487H17.6705V7.92386H19.2553V8.47219H16.6803V9.61073H22.9199V8.47219H20.3585V7.92386ZM20.3727 2.21447H19.2274V3.00746H16.68V4.77818H17.8398V4.17503H21.7743V4.77818H22.9196V3.00746H20.3727V2.21447Z" fill="#BF0000"/>
</svg>
