<svg width="100" height="16" viewBox="0 0 100 16" fill="none" xmlns="http://www.w3.org/2000/svg">
<rect width="100" height="16" fill="#BF0000"/>
<path d="M12.911 11.406C11.657 10.075 10.689 9.206 9.248 8.106C9.93 7.259 10.447 6.39 11.063 5.026C11.184 4.751 11.261 4.619 11.371 4.487L10.909 4.014C10.722 4.08 10.59 4.091 10.205 4.102L6.278 4.146C6.124 4.146 6.025 4.146 5.992 4.146C5.618 4.146 5.42 4.135 5.123 4.091L5.145 4.982C5.464 4.927 5.783 4.905 6.278 4.894L9.952 4.839C10.084 4.839 10.117 4.839 10.216 4.828C10.205 4.861 10.205 4.872 10.183 4.905C10.161 4.96 10.15 4.971 10.128 5.037C9.325 6.962 7.961 8.7 6.201 9.998C5.354 10.625 4.815 10.922 3.968 11.263C4.243 11.538 4.331 11.659 4.507 11.989C5.321 11.582 5.904 11.219 6.663 10.669C7.455 10.086 7.994 9.58 8.764 8.7C10.172 9.789 11.415 10.988 12.284 12.099L12.911 11.406ZM14.0761 8.227C14.4061 8.194 14.6371 8.183 15.4401 8.183H21.8201C22.5571 8.183 22.8101 8.194 23.1621 8.227V7.336C22.8211 7.38 22.6451 7.391 21.8311 7.391H15.4401C14.6921 7.391 14.3951 7.38 14.0761 7.325V8.227ZM27.0337 4.003C27.0447 4.08 27.0447 4.146 27.0447 4.179C27.0447 4.377 27.0007 4.773 26.9347 5.213C26.7257 6.654 26.3407 7.941 25.8017 9.03C25.3397 9.954 24.8887 10.57 24.2067 11.208C24.5257 11.395 24.6247 11.472 24.9107 11.78C26.4837 10.119 27.3527 8.051 27.8147 4.916C27.8917 4.399 27.9137 4.311 27.9577 4.168L27.0337 4.003ZM30.1907 4.168C30.2457 4.344 30.2677 4.487 30.3337 4.894C30.5647 6.379 30.9607 7.754 31.4887 8.942C32.0387 10.141 32.5887 11.01 33.3257 11.802C33.5897 11.483 33.6997 11.395 34.0077 11.186C32.8857 10.119 32.0497 8.612 31.5107 6.643C31.2357 5.664 31.0267 4.575 31.0047 4.003L30.1907 4.168ZM32.9297 3.442C32.3027 3.442 31.7967 3.948 31.7967 4.564C31.7967 5.191 32.3027 5.697 32.9297 5.697C33.5567 5.697 34.0627 5.191 34.0627 4.564C34.0627 3.948 33.5567 3.442 32.9297 3.442ZM32.9297 3.904C33.3037 3.904 33.6007 4.201 33.6007 4.564C33.6007 4.938 33.3037 5.235 32.9297 5.235C32.5667 5.235 32.2587 4.938 32.2587 4.564C32.2587 4.201 32.5557 3.904 32.9297 3.904ZM35.3027 8.227C35.6327 8.194 35.8637 8.183 36.6667 8.183H43.0467C43.7837 8.183 44.0367 8.194 44.3887 8.227V7.336C44.0477 7.38 43.8717 7.391 43.0577 7.391H36.6667C35.9187 7.391 35.6217 7.38 35.3027 7.325V8.227ZM51.9457 5.609C51.8247 5.048 51.7147 4.773 51.4617 4.443C50.9667 3.783 50.1197 3.431 49.0307 3.431C47.3257 3.431 46.2147 4.322 46.2147 5.708C46.2147 6.478 46.5557 7.061 47.2377 7.446C47.6117 7.655 48.0407 7.809 48.7337 7.952C50.0647 8.249 50.1857 8.282 50.5487 8.491C50.9667 8.722 51.1867 9.129 51.1867 9.668C51.1867 10.691 50.3947 11.307 49.0857 11.307C48.2717 11.307 47.6117 11.032 47.2487 10.548C47.0177 10.251 46.9407 9.987 46.9077 9.459L45.9507 9.58C46.0607 10.306 46.1817 10.647 46.4677 11.032C46.9737 11.714 47.8867 12.077 49.1187 12.077C51.0107 12.077 52.0777 11.197 52.0777 9.646C52.0777 8.37 51.3737 7.699 49.6137 7.325C48.3487 7.05 48.3377 7.05 48.0407 6.929C47.3917 6.665 47.0837 6.258 47.0837 5.686C47.0837 4.795 47.8757 4.19 49.0087 4.19C49.7237 4.19 50.2847 4.41 50.6367 4.828C50.8457 5.081 50.9337 5.301 51.0217 5.741L51.9457 5.609ZM60.8001 11.934C60.6351 11.648 60.4921 11.329 60.2171 10.669L57.7531 4.597C57.4781 3.926 57.4231 3.783 57.3791 3.574H56.2681C56.2131 3.827 56.1251 4.08 55.9161 4.597L53.4521 10.669C53.1551 11.406 53.0781 11.571 52.8581 11.934H54.0021C54.0791 11.549 54.1781 11.23 54.3431 10.812L54.9151 9.393H58.7541L59.3261 10.812C59.4581 11.153 59.5791 11.538 59.6671 11.934H60.8001ZM58.4901 8.634H55.1791L56.5871 5.004C56.6091 4.96 56.6421 4.839 56.7081 4.663C56.7301 4.586 56.7741 4.465 56.8291 4.3C57.0381 4.905 57.0381 4.916 57.0711 5.004L58.4901 8.634ZM66.2121 11.934C66.8281 11.934 67.1361 11.956 67.4881 12.011V11.076C67.0591 11.131 66.7621 11.153 66.2121 11.153H62.7471V4.872C62.7471 4.267 62.7691 3.981 62.8351 3.574H61.8011C61.8671 3.959 61.8891 4.3 61.8891 4.872V10.658C61.8891 11.197 61.8671 11.549 61.8011 11.967C62.1861 11.945 62.4941 11.934 63.0001 11.934H66.2121ZM74.0833 11.087C73.6763 11.142 73.3683 11.164 72.8623 11.164H69.3753V7.93H72.2683C72.8403 7.93 73.1263 7.952 73.5003 8.007V7.083C73.0823 7.138 72.7523 7.16 72.2683 7.16H69.3753V4.344H72.7633C73.3133 4.344 73.6103 4.366 73.9953 4.421V3.497C73.6213 3.552 73.2473 3.574 72.7633 3.574H69.6283C69.1003 3.574 68.8033 3.563 68.4183 3.541C68.4843 4.025 68.5063 4.322 68.5063 4.795V10.658C68.5063 11.219 68.4843 11.549 68.4183 11.967C68.7923 11.945 69.1003 11.934 69.6283 11.934H72.8513C73.4343 11.934 73.7313 11.956 74.0833 12.011V11.087ZM78.0496 5.939V6.72H76.8946C76.4656 6.72 76.2346 6.709 75.9596 6.665V7.325C76.2346 7.281 76.4546 7.27 76.8946 7.27H78.0496V8.161H76.2786C75.8166 8.161 75.5966 8.15 75.3216 8.106V8.799C75.5966 8.755 75.8606 8.744 76.2786 8.744H80.3486C80.7776 8.744 81.0086 8.755 81.2836 8.799V8.106C81.0086 8.15 80.7886 8.161 80.3486 8.161H78.6766V7.27H79.7656C80.1946 7.27 80.3926 7.281 80.6676 7.325V6.665C80.3926 6.709 80.1836 6.72 79.7656 6.72H78.6766V5.939H79.5016C79.9306 5.939 80.1506 5.95 80.4366 5.994V5.323C80.1616 5.367 79.9526 5.378 79.5016 5.378H78.6766C78.6766 5.004 78.6876 4.883 78.7316 4.685H77.9946C78.0386 4.883 78.0496 5.037 78.0496 5.378H77.2026C76.7516 5.378 76.5316 5.367 76.2566 5.323V5.994C76.5426 5.95 76.7736 5.939 77.2026 5.939H78.0496ZM78.0386 3.783H76.4326C75.8826 3.783 75.6406 3.772 75.3436 3.739C75.3766 3.948 75.3876 4.157 75.3876 4.476V4.927C75.3876 5.246 75.3766 5.433 75.3436 5.664H76.0366V4.355H80.6566V5.554H81.3166C81.2946 5.345 81.2836 5.136 81.2836 4.85V4.443C81.2836 4.168 81.2946 3.948 81.3166 3.739C80.9756 3.772 80.6566 3.783 80.1066 3.783H78.7206V3.695C78.7206 3.299 78.7426 3.057 78.7866 2.826H77.9726C78.0166 3.068 78.0386 3.299 78.0386 3.695V3.783ZM77.0376 9.503C76.6086 9.503 76.3336 9.492 76.0586 9.459C76.0916 9.778 76.1026 10.075 76.1026 10.482V11.802C76.1026 12.242 76.0806 12.528 76.0366 12.836H76.7846V12.297H79.8646V12.693H80.5906C80.5466 12.44 80.5356 12.187 80.5356 11.648V10.471C80.5356 9.998 80.5466 9.778 80.5796 9.459C80.2936 9.492 80.0626 9.503 79.6776 9.503H77.0376ZM76.7846 10.086H79.8646V11.714H76.7846V10.086ZM81.9326 3.508C81.9766 3.783 81.9876 4.025 81.9876 4.718V9.041C81.9876 9.734 81.9766 9.943 81.9326 10.273H82.7246C82.6806 9.987 82.6696 9.756 82.6696 9.041V4.707C82.6696 4.102 82.6916 3.783 82.7356 3.508H81.9326ZM83.9016 2.936C83.9566 3.277 83.9786 3.618 83.9786 4.278V11.659C83.9786 11.934 83.8906 12 83.4946 12C83.1206 12 82.6806 11.967 82.1746 11.89C82.2846 12.154 82.3286 12.308 82.3836 12.583C82.7686 12.616 83.1206 12.638 83.3956 12.638C84.4626 12.638 84.6826 12.473 84.6826 11.659V4.267C84.6826 3.64 84.7046 3.244 84.7596 2.936H83.9016ZM87.6416 8.161C87.7736 7.611 87.8726 7.149 87.9826 6.445H90.4026C90.7106 6.445 91.0406 6.456 91.3486 6.478C91.3266 6.269 91.3156 6.038 91.3156 5.664V4.19C91.3156 3.86 91.3266 3.618 91.3486 3.343C91.0406 3.376 90.7106 3.387 90.3806 3.387H87.9056C87.4876 3.387 87.1246 3.365 86.8386 3.321V4.102C87.1796 4.058 87.5096 4.036 87.8946 4.036H90.6006V5.818H88.2686C87.8726 5.818 87.5976 5.807 87.3226 5.774C87.2896 6.621 87.1136 7.611 86.7836 8.821C87.0476 8.799 87.3006 8.788 87.6086 8.788H90.6446C90.4906 10.262 90.3476 11.054 90.1276 11.516C90.0176 11.747 89.8086 11.846 89.3796 11.846C88.8186 11.846 88.1916 11.769 87.4106 11.604C87.4986 11.901 87.5316 12.033 87.5646 12.396C88.2466 12.484 88.8626 12.528 89.4016 12.528C90.1936 12.528 90.5786 12.352 90.7876 11.879C91.0516 11.285 91.2936 9.976 91.3816 8.678C91.4036 8.403 91.4146 8.26 91.4476 8.106C91.1396 8.15 90.8756 8.161 90.4796 8.161H87.6416ZM93.9886 3.068C94.0436 3.475 94.0656 3.706 94.0656 4.135V11.428C94.0656 11.934 94.0436 12.264 93.9886 12.715H94.8796C94.8246 12.275 94.8026 11.956 94.8026 11.439V4.135C94.8026 3.706 94.8136 3.464 94.8796 3.068H93.9886Z" fill="white"/>
</svg>
