<svg width="38" height="16" viewBox="0 0 38 16" fill="none" xmlns="http://www.w3.org/2000/svg">
<rect x="0.5" y="0.5" width="37" height="15" stroke="#333333"/>
<path d="M8.59 5.56H5.81C5.49 5.56 5.3 5.55 5.06 5.52C5.09 5.78 5.11 6 5.11 6.31V9.04C5.11 9.36 5.09 9.64 5.05 9.93H5.77V9.25H8.59V11.58C8.59 12.12 8.57 12.38 8.52 12.72H9.32C9.26 12.4 9.25 12.15 9.25 11.58V9.25H12.23V9.93H12.95C12.91 9.63 12.89 9.37 12.89 9.04V6.31C12.89 5.99 12.9 5.78 12.94 5.52C12.71 5.55 12.52 5.56 12.18 5.56H9.25V4.68C9.25 4.25 9.27 3.97 9.32 3.66H8.52C8.57 3.97 8.59 4.21 8.59 4.7V5.56ZM8.59 6.16V8.65H5.77V6.16H8.59ZM9.25 8.65V6.16H12.23V8.65H9.25ZM18.55 5.59H15.7C15.26 5.59 14.93 5.57 14.65 5.53V6.25C14.96 6.21 15.23 6.2 15.7 6.2H18.55V8.29H16.52C16.18 8.29 16 8.28 15.78 8.25C15.81 8.5 15.83 8.75 15.83 9.06V11.75C15.83 12.07 15.81 12.37 15.77 12.67H16.5V12.05H21.49V12.67H22.22C22.18 12.41 22.16 12.09 22.16 11.75V9.06C22.16 8.73 22.17 8.5 22.21 8.25C21.99 8.28 21.81 8.29 21.47 8.29H19.23V6.2H22.32C22.7 6.2 23.02 6.22 23.36 6.25V5.53C23.08 5.57 22.76 5.59 22.32 5.59H19.23V4.51C19.23 4.12 19.25 3.89 19.3 3.64H18.49C18.54 3.87 18.55 4.08 18.55 4.51V5.59ZM16.5 8.89H21.49V11.46H16.5V8.89ZM26.28 6.52C26.28 6.86 26.27 7.12 26.24 7.39C26.51 7.36 26.82 7.35 27.3 7.35H30.71C31.2 7.35 31.48 7.36 31.76 7.39C31.73 7.15 31.72 6.89 31.72 6.51V4.82C31.72 4.46 31.73 4.25 31.76 3.99C31.49 4.03 31.21 4.04 30.63 4.04H27.36C26.83 4.04 26.55 4.03 26.24 3.99C26.27 4.25 26.28 4.49 26.28 4.83V6.52ZM26.91 4.61H31.08V6.78H26.91V4.61ZM24.84 11.73C24.84 12.24 24.83 12.51 24.79 12.77H25.46V12.14H27.78V12.58H28.43C28.4 12.34 28.39 12.09 28.39 11.6V9.29C28.39 8.73 28.4 8.56 28.42 8.35C28.16 8.37 27.93 8.38 27.61 8.38H25.72C25.33 8.38 25.09 8.37 24.8 8.34C24.83 8.64 24.84 8.92 24.84 9.31V11.73ZM25.46 8.94H27.78V11.58H25.46V8.94ZM29.38 11.79C29.38 12.25 29.37 12.51 29.34 12.77H29.99V12.14H32.55V12.77H33.23C33.19 12.52 33.18 12.27 33.18 11.73V9.32C33.18 8.9 33.19 8.6 33.22 8.34C32.98 8.37 32.74 8.38 32.36 8.38H30.16C29.82 8.38 29.6 8.37 29.35 8.35C29.38 8.59 29.38 8.74 29.38 9.21V11.79ZM29.99 8.94H32.56V11.58H29.99V8.94Z" fill="#333333"/>
</svg>
