<svg width="24" height="16" viewBox="0 0 24 16" fill="none" xmlns="http://www.w3.org/2000/svg">
<rect x="0.5" y="0.5" width="23" height="15" stroke="#333333"/>
<path d="M6.77152 11.94C6.71152 11.6 6.69152 11.29 6.69152 10.81V8.84H8.92152C10.4815 8.84 11.3815 7.99 11.3815 6.52C11.3815 5.13 10.5115 4.34 8.97152 4.34H6.93152C6.47152 4.34 6.19152 4.33 5.83152 4.31C5.89152 4.73 5.91152 5.04 5.91152 5.45V10.82C5.91152 11.29 5.89152 11.58 5.83152 11.94H6.77152ZM6.69152 8.15V5.03H8.92152C10.0015 5.03 10.5815 5.56 10.5815 6.56C10.5815 7.58 9.98152 8.15 8.92152 8.15H6.69152ZM18.5726 11.94C18.4326 11.7 18.2926 11.4 18.1226 11.01C17.8126 10.32 17.5726 9.8 17.3326 9.33C16.9726 8.62 16.7226 8.35 16.3126 8.23C16.8526 8.11 17.1026 7.99 17.3926 7.73C17.8026 7.38 17.9926 6.9 17.9926 6.26C17.9926 5.02 17.1926 4.34 15.7426 4.34H13.5426C13.0826 4.34 12.8026 4.33 12.4526 4.31C12.5126 4.71 12.5326 5.03 12.5326 5.46V10.82C12.5326 11.31 12.5126 11.58 12.4526 11.94H13.3826C13.3226 11.58 13.3026 11.32 13.3026 10.81V8.47H15.1526C15.9526 8.47 16.3426 8.86 16.9226 10.23C17.3426 11.23 17.4826 11.64 17.5126 11.94H18.5726ZM13.3026 7.78V5.03H15.7326C16.6826 5.03 17.1826 5.49 17.1826 6.34C17.1826 6.77 17.0626 7.1 16.8026 7.35C16.5326 7.62 16.1226 7.78 15.6726 7.78H13.3026Z" fill="#333333"/>
</svg>
