<svg width="48" height="16" viewBox="0 0 48 16" fill="none" xmlns="http://www.w3.org/2000/svg">
<path fill-rule="evenodd" clip-rule="evenodd" d="M42.4864 12.8273H44.6071V10.7909H42.4864V12.8273Z" fill="black"/>
<path fill-rule="evenodd" clip-rule="evenodd" d="M43.5467 1.5L41.2935 4.0994H42.4857V10.1545H44.5728V4.0994H45.8L43.5467 1.5Z" fill="black"/>
<path fill-rule="evenodd" clip-rule="evenodd" d="M40.2331 8.54856C40.2331 11.3557 38.8006 12.9546 36.2568 12.9546C33.713 12.9546 32.2805 11.3689 32.2805 8.54856V2.51819H34.2887V8.53565C34.2887 10.1861 35.0115 11.1349 36.2568 11.1349C37.5018 11.1349 38.2249 10.1861 38.2249 8.53565V2.51819H40.2331V8.54856Z" fill="black"/>
<path fill-rule="evenodd" clip-rule="evenodd" d="M27.5999 7.60267C28.5401 7.60267 29.2728 6.87797 29.2728 5.94658C29.2728 5.02804 28.5541 4.3293 27.5999 4.3293H25.8716V7.60267H27.5999ZM27.7381 2.51819C29.8673 2.51819 31.4852 4.0059 31.4852 5.95943C31.4852 7.91297 29.8673 9.41404 27.7381 9.41404H25.8716V12.7H23.7976V2.51819H27.7381Z" fill="black"/>
<path fill-rule="evenodd" clip-rule="evenodd" d="M20.9719 4.992C20.4503 4.40452 19.7817 4.09119 19.0727 4.09119C18.2839 4.09119 17.6685 4.60035 17.6685 5.26616C17.6685 5.64459 17.8558 5.91875 18.2839 6.15349C18.5245 6.27124 18.5244 6.27124 19.7416 6.67586C21.8547 7.36762 22.7373 8.32056 22.7373 9.88693C22.7373 11.6883 21.1859 12.9545 18.9658 12.9545C17.5348 12.9545 16.2643 12.3538 15.3148 11.2183L16.572 9.86098C17.2138 10.657 18.1101 11.127 18.9794 11.127C19.9823 11.127 20.6108 10.657 20.6108 9.8999C20.6108 9.37777 20.4237 9.06445 19.9688 8.81649C19.6613 8.64685 19.5409 8.60769 18.6982 8.3465C16.4384 7.65475 15.5287 6.76716 15.5287 5.26616C15.5287 3.54313 17.04 2.26364 19.0594 2.26364C20.2898 2.26364 21.3732 2.69446 22.2558 3.54313L20.9719 4.992Z" fill="black"/>
<path fill-rule="evenodd" clip-rule="evenodd" d="M2.89007 15.5L1 13.9727H14.2544L2.89007 15.5Z" fill="#BF0000"/>
<path fill-rule="evenodd" clip-rule="evenodd" d="M5.01009 4.08729H6.41582C7.3832 4.08729 8.17459 4.84695 8.17459 5.78269C8.17459 6.721 7.3832 7.48015 6.41582 7.48015H5.01009V4.08729ZM5.01009 12.9545V9.55988H6.53367L9.17156 12.9545H11.8686L8.68094 8.8584C9.67445 8.17005 10.3267 7.05076 10.3267 5.78269C10.3267 3.70038 8.57268 2.00909 6.41582 2.00909H2.85562V12.9545H5.01009Z" fill="#BF0000"/>
</svg>
