<svg width="48" height="16" viewBox="0 0 48 16" fill="none" xmlns="http://www.w3.org/2000/svg">
<rect x="0.5" y="0.5" width="47" height="15" stroke="#333333"/>
<path d="M6.8757 4.32C6.8957 4.54 6.9057 4.66 6.9057 4.86V5.23L6.8857 10.96C6.8857 11.33 6.8657 11.44 6.8157 11.61L7.2157 12.11C7.3557 12.05 7.4057 12.04 7.7957 11.96C10.4657 11.44 11.9357 10.51 13.3057 8.47C13.0657 8.27 13.0057 8.19 12.7557 7.84C12.1757 8.9 11.5057 9.62 10.5057 10.24C9.7057 10.74 8.7957 11.05 7.6457 11.24L7.6757 5.21C7.6757 4.79 7.6957 4.53 7.7257 4.32H6.8757ZM15.56 5.47C16.43 6 17.22 6.65 17.94 7.43L18.46 6.81C17.74 6.1 17.12 5.61 16.05 4.93L15.56 5.47ZM15.63 11.97C15.88 11.89 15.96 11.87 16.23 11.81C17.9 11.43 18.93 11.02 19.96 10.32C21.28 9.41 22.21 8.24 23.01 6.5C22.73 6.31 22.63 6.22 22.4 5.91C21.59 8.03 20.25 9.5 18.32 10.36C17.39 10.79 16.19 11.1 15.41 11.13L15.63 11.97ZM28.24 3.74C28.16 4.1 27.97 4.53 27.65 5.11C27 6.26 26.18 7.18 25.1 7.96C25.36 8.11 25.45 8.18 25.68 8.44C26.67 7.65 27.38 6.87 28.06 5.78L31.56 5.73C31.21 6.79 30.76 7.74 30.17 8.63C29.36 7.96 28.81 7.57 27.96 7.08L27.5 7.59C28.29 8.04 29.02 8.56 29.74 9.21C29.25 9.84 28.79 10.25 28.01 10.79C27.33 11.26 26.79 11.55 25.94 11.88C26.18 12.09 26.27 12.2 26.43 12.5C27.76 11.89 28.75 11.24 29.59 10.44C30.63 9.44 31.51 8 32.2 6.14C32.37 5.67 32.38 5.64 32.49 5.48L32.04 5.03C31.89 5.09 31.71 5.12 31.46 5.13C28.51 5.16 28.51 5.16 28.37 5.18C28.49 4.99 28.59 4.82 28.68 4.63C28.9 4.16 28.9 4.16 29.03 3.97L28.24 3.74ZM36.0943 4.38C36.1243 4.61 36.1343 4.73 36.1343 5.09C36.1343 7.2 35.9943 8.51 35.6843 9.38C35.3543 10.31 34.8143 11.03 33.9943 11.68C34.2943 11.87 34.3943 11.96 34.5943 12.22C35.5043 11.35 35.9843 10.68 36.3243 9.75C36.7043 8.74 36.7843 8 36.8643 5.29C36.8843 4.68 36.8843 4.68 36.9243 4.43L36.0943 4.38ZM38.5843 4.31C38.6243 4.55 38.6243 4.55 38.6243 5.2L38.5643 11.05C38.5643 11.48 38.5543 11.56 38.4943 11.73L38.8943 12.19C38.9843 12.14 39.0043 12.13 39.1243 12.08C39.2643 12.03 39.2643 12.03 39.4443 11.96C40.0343 11.73 40.4343 11.53 40.8743 11.23C41.7343 10.64 42.3943 9.81 42.8843 8.66C42.6143 8.44 42.5343 8.35 42.3243 8.08C42.0843 8.85 41.6943 9.51 41.1443 10.08C40.6243 10.61 40.1143 10.93 39.2843 11.24L39.3443 5.2C39.3443 4.74 39.3543 4.56 39.4043 4.32L38.5843 4.31Z" fill="#333333"/>
</svg>
