<svg width="32" height="32" viewBox="0 0 32 32" fill="none" xmlns="http://www.w3.org/2000/svg">
<path d="M15.6285 1.41251C15.8271 1.19201 16.1729 1.19201 16.3715 1.41251L17.4372 2.59574C17.6018 2.77844 17.8748 2.81438 18.081 2.6805L19.4167 1.81341C19.6656 1.65182 19.9996 1.74133 20.1344 2.00572L20.8576 3.42447C20.9692 3.64354 21.2236 3.7489 21.4575 3.67295L22.972 3.1811C23.2543 3.08945 23.5538 3.26236 23.6155 3.55262L23.9468 5.11019C23.998 5.3507 24.2164 5.51831 24.462 5.50548L26.0522 5.42239C26.3486 5.4069 26.5931 5.65144 26.5776 5.9478L26.4945 7.53805C26.4817 7.7836 26.6493 8.00203 26.8898 8.05319L28.4474 8.38452C28.7377 8.44626 28.9106 8.74576 28.8189 9.02801L28.3271 10.5426C28.2511 10.7764 28.3565 11.0308 28.5756 11.1425L29.9943 11.8656C30.2587 12.0004 30.3482 12.3345 30.1866 12.5834L29.3195 13.919C29.1856 14.1252 29.2216 14.3982 29.4043 14.5628L30.5875 15.6285C30.808 15.8271 30.808 16.1729 30.5875 16.3715L29.4043 17.4373C29.2216 17.6018 29.1856 17.8748 29.3195 18.081L30.1866 19.4167C30.3482 19.6656 30.2587 19.9996 29.9943 20.1344L28.5756 20.8576C28.3565 20.9692 28.2511 21.2236 28.3271 21.4575L28.8189 22.972C28.9106 23.2543 28.7377 23.5538 28.4474 23.6155L26.8898 23.9468C26.6493 23.998 26.4817 24.2164 26.4945 24.462L26.5776 26.0522C26.5931 26.3486 26.3486 26.5931 26.0522 26.5777L24.462 26.4946C24.2164 26.4817 23.998 26.6493 23.9468 26.8898L23.6155 28.4474C23.5538 28.7377 23.2543 28.9106 22.972 28.8189L21.4575 28.3271C21.2236 28.2511 20.9692 28.3565 20.8576 28.5756L20.1344 29.9943C19.9996 30.2587 19.6656 30.3482 19.4167 30.1866L18.081 29.3195C17.8748 29.1857 17.6018 29.2216 17.4372 29.4043L16.3715 30.5875C16.1729 30.808 15.8271 30.808 15.6285 30.5875L14.5628 29.4043C14.3982 29.2216 14.1252 29.1857 13.919 29.3195L12.5833 30.1866C12.3344 30.3482 12.0004 30.2587 11.8656 29.9943L11.1425 28.5756C11.0308 28.3565 10.7764 28.2511 10.5426 28.3271L9.028 28.8189C8.74575 28.9106 8.44625 28.7377 8.3845 28.4474L8.05318 26.8898C8.00202 26.6493 7.78358 26.4817 7.53803 26.4946L5.94778 26.5777C5.65143 26.5931 5.40689 26.3486 5.42237 26.0522L5.50547 24.462C5.5183 24.2164 5.35069 23.998 5.11018 23.9468L3.55261 23.6155C3.26235 23.5538 3.08943 23.2543 3.18109 22.972L3.67294 21.4575C3.74889 21.2236 3.64352 20.9692 3.42445 20.8576L2.00571 20.1344C1.74132 19.9996 1.65181 19.6656 1.81339 19.4167L2.68048 18.081C2.81437 17.8748 2.77843 17.6018 2.59573 17.4373L1.41249 16.3715C1.19199 16.1729 1.19199 15.8271 1.41249 15.6285L2.59573 14.5628C2.77843 14.3982 2.81437 14.1252 2.68048 13.919L1.81339 12.5834C1.65181 12.3345 1.74132 12.0004 2.00571 11.8656L3.42445 11.1425C3.64352 11.0308 3.74889 10.7764 3.67294 10.5426L3.18109 9.02801C3.08943 8.74576 3.26235 8.44626 3.55261 8.38452L5.11018 8.05319C5.35068 8.00203 5.5183 7.7836 5.50547 7.53805L5.42237 5.9478C5.40689 5.65144 5.65143 5.4069 5.94778 5.42239L7.53803 5.50548C7.78358 5.51831 8.00202 5.3507 8.05318 5.11019L8.3845 3.55263C8.44625 3.26236 8.74575 3.08944 9.028 3.1811L10.5426 3.67295C10.7764 3.7489 11.0308 3.64354 11.1425 3.42447L11.8656 2.00572C12.0004 1.74133 12.3344 1.65182 12.5833 1.81341L13.919 2.68049C14.1252 2.81438 14.3982 2.77845 14.5628 2.59574L15.6285 1.41251Z" fill="#BF0000"/>
<path d="M7.01708 14.0421V17.9579H8.17312C8.76471 17.9579 9.17719 17.6662 9.41057 17.0828C9.53812 16.7626 9.60189 16.3813 9.60189 15.9389C9.60189 15.3284 9.50555 14.8602 9.31288 14.5346C9.12292 14.2062 8.743 14.0421 8.17312 14.0421H7.01708ZM8.38479 13C8.75657 13.0054 9.06593 13.0488 9.31288 13.1303C9.7335 13.2687 10.0741 13.5224 10.3346 13.8915C10.5435 14.19 10.686 14.5129 10.762 14.8602C10.838 15.2076 10.876 15.5387 10.876 15.8535C10.876 16.6513 10.7159 17.327 10.3956 17.8806C9.96145 18.6269 9.29117 19 8.38479 19H5.79999V13H8.38479Z" fill="white"/>
<path d="M16.0112 14.0624H12.8362V15.3365H15.7507V16.3786H12.8362V17.9213H16.1578V19H11.611V13H16.0112V14.0624Z" fill="white"/>
<path d="M18.7751 16.7327H20.2975L19.5485 14.3718L18.7751 16.7327ZM18.8525 13H20.269L22.3939 19H21.0343L20.6476 17.7666H18.4373L18.0221 19H16.7114L18.8525 13Z" fill="white"/>
<path d="M22.909 13H24.1628V17.9213H27.1343V19H22.909V13Z" fill="white"/>
</svg>
