<svg width="56" height="16" viewBox="0 0 56 16" fill="none" xmlns="http://www.w3.org/2000/svg">
<rect x="0.5" y="0.5" width="55" height="15" stroke="#333333"/>
<path d="M8.96793 5.56H6.18793C5.86793 5.56 5.67793 5.55 5.43793 5.52C5.46793 5.78 5.48793 6 5.48793 6.31V9.04C5.48793 9.36 5.46793 9.64 5.42793 9.93H6.14793V9.25H8.96793V11.58C8.96793 12.12 8.94793 12.38 8.89793 12.72H9.69793C9.63793 12.4 9.62793 12.15 9.62793 11.58V9.25H12.6079V9.93H13.3279C13.2879 9.63 13.2679 9.37 13.2679 9.04V6.31C13.2679 5.99 13.2779 5.78 13.3179 5.52C13.0879 5.55 12.8979 5.56 12.5579 5.56H9.62793V4.68C9.62793 4.25 9.64793 3.97 9.69793 3.66H8.89793C8.94793 3.97 8.96793 4.21 8.96793 4.7V5.56ZM8.96793 6.16V8.65H6.14793V6.16H8.96793ZM9.62793 8.65V6.16H12.6079V8.65H9.62793ZM18.9279 5.59H16.0779C15.6379 5.59 15.3079 5.57 15.0279 5.53V6.25C15.3379 6.21 15.6079 6.2 16.0779 6.2H18.9279V8.29H16.8979C16.5579 8.29 16.3779 8.28 16.1579 8.25C16.1879 8.5 16.2079 8.75 16.2079 9.06V11.75C16.2079 12.07 16.1879 12.37 16.1479 12.67H16.8779V12.05H21.8679V12.67H22.5979C22.5579 12.41 22.5379 12.09 22.5379 11.75V9.06C22.5379 8.73 22.5479 8.5 22.5879 8.25C22.3679 8.28 22.1879 8.29 21.8479 8.29H19.6079V6.2H22.6979C23.0779 6.2 23.3979 6.22 23.7379 6.25V5.53C23.4579 5.57 23.1379 5.59 22.6979 5.59H19.6079V4.51C19.6079 4.12 19.6279 3.89 19.6779 3.64H18.8679C18.9179 3.87 18.9279 4.08 18.9279 4.51V5.59ZM16.8779 8.89H21.8679V11.46H16.8779V8.89ZM25.988 9.45C26.268 9.41 26.498 9.4 26.898 9.4H28.088C28.508 9.4 28.728 9.41 29.008 9.45V8.61C28.728 8.65 28.518 8.66 28.088 8.66H26.898C26.478 8.66 26.268 8.65 25.988 8.61V9.45ZM35.9521 8.75C36.2721 9.64 36.6321 10.19 37.2721 10.82C38.1221 11.65 39.1721 12.23 40.7521 12.75C40.8821 12.43 40.9521 12.31 41.1121 12.09C39.8721 11.8 38.8221 11.32 37.9921 10.65C38.7821 10.26 39.4621 9.86 40.0021 9.44C40.2521 9.26 40.2621 9.26 40.3721 9.18L39.8721 8.7C39.4221 9.2 38.7421 9.66 37.5721 10.27C37.0921 9.78 36.8821 9.46 36.6021 8.75H38.8721C39.0921 8.75 39.4721 8.76 39.7221 8.77C39.7021 8.54 39.6921 8.29 39.6921 7.88V5.65C39.6921 5.28 39.7121 4.95 39.7321 4.73C39.5221 4.76 39.2221 4.77 38.8521 4.77H36.8921V4.39C36.8921 4.11 36.9121 3.87 36.9621 3.66H36.1721C36.2221 3.88 36.2421 4.13 36.2421 4.38V4.77H34.3921C34.0321 4.77 33.7321 4.76 33.5221 4.73C33.5521 4.96 33.5621 5.28 33.5621 5.64V11.79C32.8321 11.93 32.5221 11.98 32.1221 12L32.3221 12.73C32.4621 12.69 32.6121 12.65 32.8821 12.6C34.5321 12.25 35.4921 12 36.7921 11.58L36.7821 10.96C35.9121 11.24 35.2421 11.42 34.2121 11.66V8.75H35.9521ZM34.2121 5.34H39.0721V6.43H34.2121V5.34ZM34.2121 6.98H39.0721V8.19H34.2121V6.98ZM42.9821 4.91C43.0021 5.09 43.0021 5.12 43.0121 5.5C43.0621 7.96 43.2021 9.24 43.5521 10.19C43.8921 11.15 44.4121 11.71 44.9721 11.71C45.6821 11.71 46.1421 11.04 46.6321 9.29C46.3521 9.07 46.2621 8.98 46.0421 8.72C45.9121 9.4 45.7521 9.93 45.5221 10.43C45.3721 10.76 45.2021 10.93 45.0221 10.93C44.6421 10.93 44.2321 10.24 44.0121 9.22C43.8621 8.58 43.7521 7.21 43.7521 6.11C43.7521 5.56 43.7721 5.23 43.8221 4.92L42.9821 4.91ZM48.0421 5.76C49.2121 7.12 49.9421 8.83 50.1221 10.69L50.8321 10.4C50.6521 9.28 50.4621 8.57 50.0821 7.73C49.7121 6.88 49.3021 6.22 48.6521 5.45L48.0421 5.76Z" fill="#333333"/>
</svg>
