<svg width="71" height="16" viewBox="0 0 71 16" fill="none" xmlns="http://www.w3.org/2000/svg">
<path d="M34.4952 5.3994C33.8507 5.3994 33.2821 5.43647 32.7514 5.54766H32.6377V4.28745H39.9538V2.95312H32.6756V1.39639H31.2351V2.95312H27.7855V4.28745H31.2351V4.36158C31.2351 4.88049 31.2351 5.3994 31.2351 5.84418V5.91831L31.1593 5.95537C28.5437 6.882 27.2548 8.92056 27.2548 10.885C27.2548 13.0348 28.5437 14.0726 30.0221 14.0726C31.4626 14.0726 32.5619 13.3313 33.5854 12.2193C34.8742 10.8109 35.8219 8.84644 36.4663 6.95613L36.5043 6.882L36.5801 6.91906C37.9447 7.40091 38.8545 8.40166 38.8545 9.77306C38.8545 12.1452 36.8075 13.0718 34.3435 13.2942V14.6286C37.6794 14.3691 40.3329 13.2201 40.3329 9.77306C40.3708 7.36384 38.665 5.3994 34.4952 5.3994ZM31.7658 12.034C31.3109 12.4047 30.7423 12.6641 30.2116 12.6641C29.3777 12.6641 28.6953 11.9599 28.6953 10.8479C28.6953 9.21708 29.6809 7.95688 31.1593 7.21558L31.273 7.14145V7.28971C31.3488 9.47654 31.4626 10.6626 31.8037 11.9599V11.997L31.7658 12.034ZM35.2154 6.65961C34.6468 8.36459 33.9645 9.84719 33.0547 10.9962L32.941 11.1445L32.903 10.9591C32.7135 9.84719 32.6756 8.47579 32.6377 6.80787V6.73374H32.7135C33.2442 6.62254 33.8128 6.58548 34.4193 6.58548C34.6468 6.58548 34.9121 6.58548 35.1396 6.62254H35.2533L35.2154 6.65961Z" fill="#828282"/>
<path d="M55.6854 2.91592H52.0842V1.35919H50.53V2.91592H42.0387V4.28732H50.53V6.10349L50.4162 6.06643C49.7718 5.76991 49.0895 5.54752 47.9144 5.54752C45.6399 5.54752 44.2373 6.69653 44.2373 8.29032C44.2373 10.0324 45.6778 10.9961 47.7627 10.9961C48.6725 10.9961 49.3927 10.7737 49.8855 10.5142L50.113 10.403L49.9993 10.6254C49.3169 12.0709 47.6869 12.8864 44.9197 13.0717V14.4802C49.5065 14.1466 52.0463 12.5528 52.0463 7.95674V4.28732H55.6475V2.91592H55.6854ZM48.066 9.80998C47.3078 9.80998 46.7013 9.69879 46.3222 9.40227C45.9053 9.14281 45.6778 8.7351 45.6778 8.21619C45.6778 7.28957 46.6255 6.58534 48.0281 6.58534C49.6202 6.58534 50.5679 7.14131 50.5679 8.03087C50.5679 9.06868 49.6202 9.80998 48.066 9.80998Z" fill="#828282"/>
<path d="M57.3915 1.35919V2.84179L60.2351 4.36145V2.84179L57.3915 1.35919Z" fill="#828282"/>
<path d="M70.6967 8.6979V7.2153L67.8537 5.69564V7.2153L70.6209 8.6979C69.37 8.6979 65.2381 8.6979 64.7453 8.6979C64.7453 8.5867 64.7453 8.36432 64.7453 8.17899H67.0576V1.95209H64.5936L64.9348 0.914276H63.4185L63.0773 1.95209H61.0303V8.17899H63.3048C63.3048 8.36432 63.3048 8.5867 63.3048 8.6979C62.812 8.6979 58.7559 8.6979 57.467 8.6979L60.2343 7.2153V5.69564L57.3912 7.2153V10.0322C58.3768 10.0322 61.182 10.0322 62.1296 10.0322C61.1061 10.9589 59.5519 12.0708 57.2775 12.8492L57.05 12.9233V14.3318L57.5049 14.1835C60.0068 13.2939 61.9401 12.182 63.3048 10.8106C63.3048 11.8855 63.3048 14.5171 63.3048 14.5171H64.7453C64.7453 14.5171 64.7453 11.8855 64.7453 10.8106C66.1478 12.182 68.0811 13.331 70.583 14.1464L71 14.2947V12.8862L70.7725 12.8121C68.4602 12.0708 66.906 10.9589 65.8825 9.99517C66.8302 9.99517 69.749 9.99517 70.6967 9.99517V8.6979ZM62.4329 3.2123C62.9257 3.2123 65.1243 3.2123 65.6171 3.2123C65.6171 3.54588 65.6171 4.02773 65.6171 4.36131C65.1243 4.36131 62.9257 4.36131 62.4329 4.36131C62.4329 4.02773 62.4329 3.54588 62.4329 3.2123ZM62.4329 6.91879C62.4329 6.54814 62.4329 5.99216 62.4329 5.62152C62.9257 5.62152 65.1243 5.62152 65.6171 5.62152C65.6171 5.99216 65.6171 6.54814 65.6171 6.91879C65.1243 6.91879 62.9257 6.91879 62.4329 6.91879Z" fill="#828282"/>
<path d="M70.6973 2.84179V1.35919L67.8537 2.84179V4.36145L70.6973 2.84179Z" fill="#828282"/>
<path d="M23.3491 3.63303L16.4882 0L9.62735 3.63303L16.4882 7.26605L23.3491 3.63303ZM8.88963 12.3303L15.7874 16V8.40367L8.88963 4.73394V12.3303ZM17.1522 8.40367V16L24.05 12.3303V4.73394L17.1522 8.40367Z" fill="#828282"/>
<path d="M7.56172 3.41287H0V4.73397H7.56172V3.41287Z" fill="#828282"/>
<path d="M7.56172 7.48627H0V8.80737H7.56172V7.48627Z" fill="#828282"/>
<path d="M7.56172 11.5963H0V12.9174H7.56172V11.5963Z" fill="#828282"/>
</svg>
