<svg width="48" height="16" viewBox="0 0 48 16" fill="none" xmlns="http://www.w3.org/2000/svg">
<rect x="0.5" y="0.5" width="47" height="15" stroke="#333333"/>
<path d="M9.96793 5.56H7.18793C6.86793 5.56 6.67793 5.55 6.43793 5.52C6.46793 5.78 6.48793 6 6.48793 6.31V9.04C6.48793 9.36 6.46793 9.64 6.42793 9.93H7.14793V9.25H9.96793V11.58C9.96793 12.12 9.94793 12.38 9.89793 12.72H10.6979C10.6379 12.4 10.6279 12.15 10.6279 11.58V9.25H13.6079V9.93H14.3279C14.2879 9.63 14.2679 9.37 14.2679 9.04V6.31C14.2679 5.99 14.2779 5.78 14.3179 5.52C14.0879 5.55 13.8979 5.56 13.5579 5.56H10.6279V4.68C10.6279 4.25 10.6479 3.97 10.6979 3.66H9.89793C9.94793 3.97 9.96793 4.21 9.96793 4.7V5.56ZM9.96793 6.16V8.65H7.14793V6.16H9.96793ZM10.6279 8.65V6.16H13.6079V8.65H10.6279ZM19.9279 5.59H17.0779C16.6379 5.59 16.3079 5.57 16.0279 5.53V6.25C16.3379 6.21 16.6079 6.2 17.0779 6.2H19.9279V8.29H17.8979C17.5579 8.29 17.3779 8.28 17.1579 8.25C17.1879 8.5 17.2079 8.75 17.2079 9.06V11.75C17.2079 12.07 17.1879 12.37 17.1479 12.67H17.8779V12.05H22.8679V12.67H23.5979C23.5579 12.41 23.5379 12.09 23.5379 11.75V9.06C23.5379 8.73 23.5479 8.5 23.5879 8.25C23.3679 8.28 23.1879 8.29 22.8479 8.29H20.6079V6.2H23.6979C24.0779 6.2 24.3979 6.22 24.7379 6.25V5.53C24.4579 5.57 24.1379 5.59 23.6979 5.59H20.6079V4.51C20.6079 4.12 20.6279 3.89 20.6779 3.64H19.8679C19.9179 3.87 19.9279 4.08 19.9279 4.51V5.59ZM17.8779 8.89H22.8679V11.46H17.8779V8.89ZM26.988 9.45C27.268 9.41 27.498 9.4 27.898 9.4H29.088C29.508 9.4 29.728 9.41 30.008 9.45V8.61C29.728 8.65 29.518 8.66 29.088 8.66H27.898C27.478 8.66 27.268 8.65 26.988 8.61V9.45ZM40.2021 4.75V11.77C40.2021 12 40.1221 12.05 39.7521 12.05C39.3321 12.05 38.7521 12.01 38.1721 11.93C38.2621 12.17 38.3121 12.37 38.3321 12.61C38.8721 12.64 39.3221 12.66 39.6621 12.66C40.6321 12.66 40.8621 12.51 40.8621 11.86V4.75H41.0621C41.4521 4.75 41.8021 4.77 42.1021 4.81V4.1C41.8021 4.14 41.4621 4.16 41.0421 4.16H34.3421C33.9121 4.16 33.5821 4.14 33.2921 4.1V4.81C33.6021 4.77 33.9421 4.75 34.3421 4.75H40.2021ZM38.3621 6.95C38.3621 6.54 38.3721 6.36 38.4121 6.11C38.1421 6.14 37.9021 6.15 37.4721 6.15H35.4221C34.9921 6.15 34.7521 6.14 34.4921 6.11C34.5321 6.36 34.5421 6.59 34.5421 6.98V10.14C34.5421 10.41 34.5221 10.67 34.4821 10.94H35.1921V10.03H37.5621C37.8521 10.03 38.2021 10.04 38.4021 10.06C38.3721 9.85 38.3621 9.65 38.3621 9.32V6.95ZM35.1921 6.72H37.7121V9.46H35.1921V6.72Z" fill="#333333"/>
</svg>
