<svg width="76" height="16" viewBox="0 0 76 16" fill="none" xmlns="http://www.w3.org/2000/svg">
<rect x="0.5" y="0.5" width="75" height="15" stroke="#333333"/>
<path d="M8.96793 5.56H6.18793C5.86793 5.56 5.67793 5.55 5.43793 5.52C5.46793 5.78 5.48793 6 5.48793 6.31V9.04C5.48793 9.36 5.46793 9.64 5.42793 9.93H6.14793V9.25H8.96793V11.58C8.96793 12.12 8.94793 12.38 8.89793 12.72H9.69793C9.63793 12.4 9.62793 12.15 9.62793 11.58V9.25H12.6079V9.93H13.3279C13.2879 9.63 13.2679 9.37 13.2679 9.04V6.31C13.2679 5.99 13.2779 5.78 13.3179 5.52C13.0879 5.55 12.8979 5.56 12.5579 5.56H9.62793V4.68C9.62793 4.25 9.64793 3.97 9.69793 3.66H8.89793C8.94793 3.97 8.96793 4.21 8.96793 4.7V5.56ZM8.96793 6.16V8.65H6.14793V6.16H8.96793ZM9.62793 8.65V6.16H12.6079V8.65H9.62793ZM18.9279 5.59H16.0779C15.6379 5.59 15.3079 5.57 15.0279 5.53V6.25C15.3379 6.21 15.6079 6.2 16.0779 6.2H18.9279V8.29H16.8979C16.5579 8.29 16.3779 8.28 16.1579 8.25C16.1879 8.5 16.2079 8.75 16.2079 9.06V11.75C16.2079 12.07 16.1879 12.37 16.1479 12.67H16.8779V12.05H21.8679V12.67H22.5979C22.5579 12.41 22.5379 12.09 22.5379 11.75V9.06C22.5379 8.73 22.5479 8.5 22.5879 8.25C22.3679 8.28 22.1879 8.29 21.8479 8.29H19.6079V6.2H22.6979C23.0779 6.2 23.3979 6.22 23.7379 6.25V5.53C23.4579 5.57 23.1379 5.59 22.6979 5.59H19.6079V4.51C19.6079 4.12 19.6279 3.89 19.6779 3.64H18.8679C18.9179 3.87 18.9279 4.08 18.9279 4.51V5.59ZM16.8779 8.89H21.8679V11.46H16.8779V8.89ZM25.988 9.45C26.268 9.41 26.498 9.4 26.898 9.4H28.088C28.508 9.4 28.728 9.41 29.008 9.45V8.61C28.728 8.65 28.518 8.66 28.088 8.66H26.898C26.478 8.66 26.268 8.65 25.988 8.61V9.45ZM40.8621 10.87C40.7721 10.82 40.7521 10.8 40.5921 10.68C40.0921 10.31 39.4121 9.94 38.8621 9.74C38.8221 9.11 38.8121 8.79 38.7921 7.62C39.3521 7.57 39.8321 7.5 40.2721 7.41C40.4221 7.38 40.4521 7.37 40.5521 7.36L40.5321 6.7C40.1921 6.84 39.5421 6.96 38.7821 7.04C38.7821 6.36 38.7821 6.33 38.7821 6.26C38.7821 5.97 38.7921 5.77 38.8021 5.43C39.2021 5.39 39.5121 5.35 39.8721 5.28C40.3121 5.21 40.3121 5.21 40.4421 5.19L40.4221 4.54C39.6021 4.78 38.3521 4.92 37.0721 4.92C36.3121 4.92 35.7521 4.88 35.3621 4.78L35.3321 5.44C35.5221 5.44 35.5721 5.44 35.9321 5.46C36.3121 5.49 36.7221 5.5 37.1321 5.5C37.5121 5.5 37.7621 5.49 38.1521 5.47C38.1321 5.91 38.1321 6.11 38.1321 6.29C38.1321 6.41 38.1321 6.56 38.1421 7.08C37.6621 7.1 37.2721 7.11 36.9421 7.11C36.1921 7.11 35.6721 7.07 35.2821 6.97L35.2621 7.64C35.3021 7.64 35.3321 7.64 35.3421 7.64C35.4121 7.64 35.4721 7.64 35.5521 7.65C36.2821 7.69 36.5221 7.7 36.9721 7.7C37.4021 7.7 37.6321 7.69 38.1621 7.67C38.1821 8.8 38.2121 9.44 38.2321 9.58C37.9121 9.46 37.5721 9.4 37.1721 9.4C36.0221 9.4 35.2321 9.97 35.2321 10.8C35.2321 11.64 35.9521 12.18 37.0721 12.18C37.9021 12.18 38.5621 11.88 38.7621 11.41C38.8521 11.2 38.8921 10.98 38.8921 10.68C38.8921 10.55 38.8921 10.5 38.8721 10.4C38.9221 10.42 38.9221 10.42 39.0321 10.47C39.0521 10.47 39.0521 10.47 39.2521 10.59C39.8721 10.96 40.3121 11.28 40.5621 11.56L40.8621 10.87ZM38.2221 10.16C38.2321 10.17 38.2421 10.51 38.2421 10.59C38.2421 11.27 37.8721 11.59 37.0821 11.59C36.3421 11.59 35.8921 11.29 35.8921 10.8C35.8921 10.29 36.3921 9.98 37.2121 9.98C37.5521 9.98 37.7821 10.02 38.2221 10.16ZM33.8321 12.24C33.8221 12.19 33.8221 12.15 33.8221 12.12C33.8221 11.58 34.2421 10.21 34.7321 9.16L34.2521 8.92C33.9921 9.54 33.7521 10.18 33.6721 10.5C33.6121 10.74 33.6121 10.74 33.5621 10.88L33.5321 10.87C33.5321 10.49 33.5221 10.41 33.5221 10.32C33.5221 10.07 33.5221 10.07 33.5121 9.82C33.5021 9.59 33.4921 9.35 33.4921 9.11C33.4921 8.04 33.6121 6.85 33.8421 5.77C33.9921 5.04 34.1321 4.51 34.2521 4.23L33.4821 4.11C33.4621 4.27 33.4521 4.34 33.3821 4.65C32.9921 6.55 32.8521 7.69 32.8521 9.04C32.8521 9.86 32.9221 10.8 33.0221 11.52C33.1121 12.11 33.1121 12.11 33.1121 12.28L33.8321 12.24ZM43.7121 12.27C43.7021 12.22 43.7021 12.18 43.7021 12.16C43.7021 11.61 44.1221 10.24 44.6021 9.19L44.1321 8.95C43.8821 9.52 43.6921 10.04 43.5521 10.53L43.4921 10.74C43.4921 10.77 43.4721 10.83 43.4421 10.91H43.4121C43.4021 10.55 43.4021 10.44 43.4021 10.35V10.15C43.4021 10.12 43.4021 10.02 43.3921 9.86C43.3821 9.62 43.3721 9.39 43.3721 9.15C43.3721 8.07 43.4921 6.89 43.7221 5.8C43.8721 5.08 44.0121 4.55 44.1321 4.26L43.3521 4.14C43.3421 4.3 43.3321 4.37 43.2621 4.69C42.8721 6.59 42.7321 7.73 42.7321 9.08C42.7321 9.89 42.8021 10.83 42.9021 11.56L42.9721 11.99C42.9821 12.08 42.9921 12.17 42.9921 12.21C42.9921 12.23 42.9921 12.24 42.9921 12.31L43.7121 12.27ZM50.7421 10.91C50.6421 10.85 50.6421 10.85 50.4721 10.72C49.9421 10.33 49.1921 9.92 48.7421 9.77C48.7021 9.23 48.6921 8.73 48.6721 7.66C49.1821 7.61 49.6721 7.54 50.1521 7.45C50.3121 7.41 50.3221 7.41 50.4321 7.4L50.4121 6.74C50.2121 6.84 49.2921 7.02 48.6621 7.07C48.6621 6.39 48.6621 6.36 48.6621 6.3C48.6621 6.01 48.6721 5.81 48.6821 5.46C48.8621 5.45 48.8921 5.44 49.1121 5.41C49.2221 5.4 49.2221 5.4 49.3721 5.38L49.3421 4.77C48.6221 4.9 47.8421 4.96 46.9621 4.96C46.1921 4.96 45.6321 4.91 45.2421 4.82L45.2121 5.48C45.4121 5.48 45.4621 5.48 45.8121 5.5C46.2121 5.53 46.6121 5.54 47.0121 5.54C47.3621 5.54 47.6321 5.53 48.0321 5.51C48.0121 5.95 48.0121 6.15 48.0121 6.33C48.0121 6.45 48.0121 6.59 48.0221 7.12C47.5421 7.14 47.1521 7.15 46.8221 7.15C46.0721 7.15 45.5521 7.11 45.1621 7.01L45.1421 7.68C45.1821 7.68 45.2121 7.68 45.2221 7.68C45.2921 7.68 45.3521 7.68 45.4321 7.69C46.2221 7.73 46.4021 7.74 46.8521 7.74C47.1821 7.74 47.6021 7.73 48.0421 7.7C48.0521 8.2 48.0521 8.24 48.0521 8.32L48.0921 9.39L48.1021 9.52C48.1021 9.54 48.1021 9.57 48.1121 9.61C47.7921 9.49 47.4521 9.44 47.0521 9.44C45.9021 9.44 45.1121 10.01 45.1121 10.84C45.1121 11.68 45.8321 12.22 46.9521 12.22C47.7821 12.22 48.4421 11.92 48.6421 11.44C48.7321 11.23 48.7721 11.02 48.7721 10.72C48.7721 10.59 48.7721 10.54 48.7521 10.43C49.2821 10.67 50.2021 11.31 50.4421 11.6L50.7421 10.91ZM48.1021 10.2C48.1121 10.2 48.1221 10.55 48.1221 10.63C48.1221 11.31 47.7521 11.63 46.9621 11.63C46.2221 11.63 45.7721 11.33 45.7721 10.84C45.7721 10.34 46.2721 10.02 47.0621 10.02C47.4421 10.02 47.6621 10.06 48.1021 10.2ZM49.2121 3.77C49.4721 4.19 49.7121 4.75 49.9221 5.44L50.4521 5.26C50.2321 4.56 50.0821 4.23 49.7421 3.62L49.2121 3.77ZM50.3721 3.46C50.6121 3.84 50.8921 4.48 51.0821 5.1L51.6021 4.91C51.4421 4.37 51.1821 3.8 50.8821 3.29L50.3721 3.46ZM57.7921 6.84V5.13C59.0821 4.92 59.8421 4.73 60.6721 4.39C60.9321 4.28 60.9421 4.28 61.0321 4.25L60.5221 3.69C60.2721 3.87 60.0221 3.98 59.6021 4.12C58.7821 4.38 57.7621 4.58 57.2321 4.58C57.2121 4.58 57.1621 4.58 57.1121 4.58C57.1421 4.87 57.1621 5.3 57.1621 6.43C57.1621 9.77 56.8621 11.17 55.9021 12.35C56.1521 12.48 56.2621 12.57 56.4721 12.77C56.8121 12.31 57.0121 11.93 57.2121 11.4C57.5621 10.49 57.7721 9.14 57.7821 7.81C57.7821 7.55 57.7821 7.55 57.7821 7.42H59.3521V11.78C59.3521 12.27 59.3321 12.52 59.2921 12.78H60.0621C60.0121 12.53 60.0021 12.28 60.0021 11.78V7.42H60.3721C60.7821 7.42 61.0021 7.43 61.2521 7.47V6.78C61.0221 6.82 60.7821 6.84 60.3321 6.84H57.7921ZM54.8421 4.61V4.34C54.8421 4.01 54.8521 3.85 54.8921 3.64H54.1621C54.2021 3.86 54.2121 4.02 54.2121 4.34V4.61H53.2121C52.7721 4.61 52.5621 4.6 52.3321 4.56V5.23C52.5921 5.19 52.7821 5.18 53.2021 5.18H55.7621C56.1521 5.18 56.3421 5.19 56.6121 5.23V4.56C56.3721 4.6 56.1821 4.61 55.7721 4.61H54.8421ZM52.9621 6.91C52.5621 6.91 52.3521 6.9 52.1321 6.86V7.53C52.3621 7.49 52.5721 7.48 52.9621 7.48H55.9321C56.2921 7.48 56.4921 7.49 56.7421 7.53V6.86C56.5121 6.9 56.3121 6.91 55.9321 6.91H55.3421C55.5721 6.52 55.7821 6.06 56.0221 5.46L55.4221 5.27C55.2821 5.87 55.1021 6.32 54.7521 6.91H52.9621ZM54.0021 9.14C53.7221 9.66 53.5721 9.87 53.2721 10.21C52.9021 10.62 52.4721 10.98 51.9721 11.31C52.1321 11.48 52.2421 11.64 52.3521 11.87C53.2621 11.17 53.8321 10.51 54.2421 9.65C54.2221 9.98 54.2121 10.24 54.2121 10.48V11.9C54.2121 12.23 54.1921 12.5 54.1521 12.76H54.8421C54.8021 12.49 54.7921 12.25 54.7921 11.9V10.45C54.7821 10.08 54.7721 9.79 54.7521 9.57C55.1421 10.17 55.3521 10.4 56.0021 10.95C56.1221 10.72 56.1921 10.6 56.3521 10.41C55.6021 9.93 55.3221 9.67 54.9421 9.14H55.8921C56.2721 9.14 56.4721 9.15 56.7021 9.19V8.54C56.4421 8.59 56.2421 8.6 55.8921 8.6H54.7921V8.07C54.7921 7.94 54.8021 7.78 54.8321 7.66H54.1621C54.1921 7.78 54.2121 7.94 54.2121 8.07V8.6H52.9921C52.5821 8.6 52.3821 8.59 52.1521 8.54V9.2C52.3921 9.15 52.5821 9.14 52.9721 9.14H54.0021ZM54.0121 6.63C53.8421 6.08 53.7221 5.78 53.4421 5.28L52.9121 5.48C53.1821 5.95 53.3121 6.26 53.4821 6.82L54.0121 6.63ZM63.9021 6.52C63.9021 6.86 63.8921 7.12 63.8621 7.39C64.1321 7.36 64.4421 7.35 64.9221 7.35H68.3321C68.8221 7.35 69.1021 7.36 69.3821 7.39C69.3521 7.15 69.3421 6.89 69.3421 6.51V4.82C69.3421 4.46 69.3521 4.25 69.3821 3.99C69.1121 4.03 68.8321 4.04 68.2521 4.04H64.9821C64.4521 4.04 64.1721 4.03 63.8621 3.99C63.8921 4.25 63.9021 4.49 63.9021 4.83V6.52ZM64.5321 4.61H68.7021V6.78H64.5321V4.61ZM62.4621 11.73C62.4621 12.24 62.4521 12.51 62.4121 12.77H63.0821V12.14H65.4021V12.58H66.0521C66.0221 12.34 66.0121 12.09 66.0121 11.6V9.29C66.0121 8.73 66.0221 8.56 66.0421 8.35C65.7821 8.37 65.5521 8.38 65.2321 8.38H63.3421C62.9521 8.38 62.7121 8.37 62.4221 8.34C62.4521 8.64 62.4621 8.92 62.4621 9.31V11.73ZM63.0821 8.94H65.4021V11.58H63.0821V8.94ZM67.0021 11.79C67.0021 12.25 66.9921 12.51 66.9621 12.77H67.6121V12.14H70.1721V12.77H70.8521C70.8121 12.52 70.8021 12.27 70.8021 11.73V9.32C70.8021 8.9 70.8121 8.6 70.8421 8.34C70.6021 8.37 70.3621 8.38 69.9821 8.38H67.7821C67.4421 8.38 67.2221 8.37 66.9721 8.35C67.0021 8.59 67.0021 8.74 67.0021 9.21V11.79ZM67.6121 8.94H70.1821V11.58H67.6121V8.94Z" fill="#333333"/>
</svg>
