<svg width="66" height="16" viewBox="0 0 66 16" fill="none" xmlns="http://www.w3.org/2000/svg">
<rect x="0.5" y="0.5" width="65" height="15" stroke="#333333"/>
<path d="M8.96793 5.56H6.18793C5.86793 5.56 5.67793 5.55 5.43793 5.52C5.46793 5.78 5.48793 6 5.48793 6.31V9.04C5.48793 9.36 5.46793 9.64 5.42793 9.93H6.14793V9.25H8.96793V11.58C8.96793 12.12 8.94793 12.38 8.89793 12.72H9.69793C9.63793 12.4 9.62793 12.15 9.62793 11.58V9.25H12.6079V9.93H13.3279C13.2879 9.63 13.2679 9.37 13.2679 9.04V6.31C13.2679 5.99 13.2779 5.78 13.3179 5.52C13.0879 5.55 12.8979 5.56 12.5579 5.56H9.62793V4.68C9.62793 4.25 9.64793 3.97 9.69793 3.66H8.89793C8.94793 3.97 8.96793 4.21 8.96793 4.7V5.56ZM8.96793 6.16V8.65H6.14793V6.16H8.96793ZM9.62793 8.65V6.16H12.6079V8.65H9.62793ZM18.9279 5.59H16.0779C15.6379 5.59 15.3079 5.57 15.0279 5.53V6.25C15.3379 6.21 15.6079 6.2 16.0779 6.2H18.9279V8.29H16.8979C16.5579 8.29 16.3779 8.28 16.1579 8.25C16.1879 8.5 16.2079 8.75 16.2079 9.06V11.75C16.2079 12.07 16.1879 12.37 16.1479 12.67H16.8779V12.05H21.8679V12.67H22.5979C22.5579 12.41 22.5379 12.09 22.5379 11.75V9.06C22.5379 8.73 22.5479 8.5 22.5879 8.25C22.3679 8.28 22.1879 8.29 21.8479 8.29H19.6079V6.2H22.6979C23.0779 6.2 23.3979 6.22 23.7379 6.25V5.53C23.4579 5.57 23.1379 5.59 22.6979 5.59H19.6079V4.51C19.6079 4.12 19.6279 3.89 19.6779 3.64H18.8679C18.9179 3.87 18.9279 4.08 18.9279 4.51V5.59ZM16.8779 8.89H21.8679V11.46H16.8779V8.89ZM25.988 9.45C26.268 9.41 26.498 9.4 26.898 9.4H28.088C28.508 9.4 28.728 9.41 29.008 9.45V8.61C28.728 8.65 28.518 8.66 28.088 8.66H26.898C26.478 8.66 26.268 8.65 25.988 8.61V9.45ZM35.8421 10.47C36.2221 10.47 36.4121 10.48 36.6421 10.52V9.91C36.4221 9.95 36.2421 9.96 35.8521 9.96H34.5221C34.5721 9.73 34.6021 9.51 34.6321 9.21H35.6821C36.0521 9.21 36.2221 9.22 36.4721 9.26V8.68C36.2221 8.71 36.0721 8.72 35.6821 8.72H34.6821C34.7021 8.4 34.7021 8.4 34.7121 8.08H35.7821C36.1221 8.08 36.2621 8.08 36.4421 8.1C36.4221 7.94 36.4221 7.84 36.4221 7.7V6.37C36.4221 6.3 36.4321 6.19 36.4421 6.05C36.2421 6.07 36.1521 6.07 35.7821 6.07H33.1221C32.7321 6.07 32.6421 6.07 32.4521 6.05C32.4721 6.27 32.4721 6.34 32.4721 6.47V7.68C32.4721 7.81 32.4721 7.88 32.4521 8.1C32.6421 8.08 32.7321 8.08 33.1121 8.08H34.1421C34.1321 8.36 34.1321 8.43 34.1121 8.72H33.2021C32.8221 8.72 32.6221 8.71 32.3821 8.67V9.26C32.6121 9.22 32.8421 9.21 33.2021 9.21H34.0721C34.0321 9.58 34.0121 9.68 33.9521 9.96H32.9721C32.5821 9.96 32.3821 9.95 32.1521 9.91V10.52C32.3821 10.48 32.6121 10.47 32.9721 10.47H33.8221C33.6721 10.88 33.5021 11.15 33.2021 11.45C32.9121 11.73 32.6721 11.89 32.1221 12.15C32.3221 12.33 32.4021 12.45 32.5121 12.67C33.5021 12.12 33.9721 11.62 34.3221 10.71C34.7921 11.4 35.2821 11.85 36.0721 12.32C36.1921 12.12 36.2921 12 36.4621 11.83C35.6921 11.46 35.1521 11.03 34.7321 10.47H35.8421ZM34.1621 6.56C34.1621 7.17 34.1621 7.51 34.1621 7.59H33.0221V6.56H34.1621ZM34.7421 6.56H35.8921V7.59H34.7321V7.54L34.7421 6.56ZM37.8021 5.34C37.9621 5.03 38.1421 4.6 38.3321 4.13C38.4021 3.93 38.4121 3.92 38.4721 3.81L37.8121 3.64C37.7721 3.86 37.7321 4.01 37.6421 4.3C37.3421 5.21 36.9421 5.91 36.4321 6.42C36.5921 6.58 36.6921 6.72 36.7921 6.92C36.9521 6.7 37.0121 6.61 37.1321 6.43V11.71C37.1321 12.23 37.1221 12.49 37.0721 12.73H37.7221V12.16H40.2621C40.7121 12.16 40.9921 12.17 41.2421 12.21V11.52C41.0021 11.57 40.7921 11.58 40.2621 11.58H39.6221V9.92H39.9921C40.4221 9.92 40.7121 9.93 40.9321 9.97V9.31C40.7221 9.35 40.4121 9.37 40.0021 9.37H39.6221V7.86H40.0321C40.4521 7.86 40.7521 7.88 40.9521 7.91V7.25C40.7421 7.29 40.4421 7.31 40.0221 7.31H39.6221V5.9H40.1521C40.5921 5.9 40.9221 5.92 41.1321 5.95V5.28C40.9121 5.32 40.5821 5.34 40.1521 5.34H39.5621C39.7821 4.93 39.9621 4.54 40.2121 3.88L39.6121 3.71C39.4721 4.3 39.2721 4.82 38.9721 5.34H37.8021ZM37.7221 7.31V5.9H39.0421V7.31H37.7221ZM37.7221 7.86H39.0421V9.37H37.7221V7.86ZM37.7221 9.92H39.0421V11.58H37.7221V9.92ZM33.3321 4.54H32.9821C32.6121 4.54 32.3621 4.52 32.1521 4.48V5.12C32.3621 5.08 32.6021 5.06 32.9621 5.06H33.3321V5.27C33.3321 5.52 33.3221 5.69 33.3021 5.84H33.9321C33.9121 5.68 33.9021 5.5 33.9021 5.27V5.06H34.9921V5.27C34.9921 5.57 34.9821 5.7 34.9621 5.84H35.5921C35.5721 5.71 35.5621 5.53 35.5621 5.27V5.06H35.8221C36.2121 5.06 36.4821 5.07 36.6921 5.11V4.49C36.4321 4.53 36.1821 4.54 35.8221 4.54H35.5621V4.32C35.5621 4.01 35.5721 3.88 35.6021 3.73H34.9521C34.9821 3.9 34.9921 4.03 34.9921 4.34V4.54H33.9021V4.34C33.9021 4 33.9121 3.87 33.9421 3.73H33.2921C33.3221 3.91 33.3321 4.08 33.3321 4.35V4.54ZM43.0021 5.88C43.0721 5.87 43.1221 5.87 43.1621 5.87C43.1821 5.87 43.2521 5.87 43.3421 5.88C44.1421 5.91 44.5921 5.93 44.6921 5.93H45.0921C45.0421 6.66 45.0421 6.71 45.0321 7.44C43.5821 8.07 42.7121 9.19 42.7121 10.42C42.7121 11.31 43.2521 11.94 44.0021 11.94C44.7021 11.94 45.4621 11.53 46.2321 10.73C47.0121 9.94 47.5521 9.08 48.1321 7.73C49.2121 8.01 49.7821 8.61 49.7821 9.47C49.7821 10.36 49.1521 11.09 48.0621 11.47C47.5821 11.64 47.1521 11.72 46.5621 11.74C46.7421 12.01 46.7921 12.12 46.8821 12.41C47.7821 12.3 48.3521 12.14 48.9221 11.84C49.9521 11.3 50.4921 10.51 50.4921 9.53C50.4921 8.36 49.7221 7.51 48.3421 7.19C48.5121 6.72 48.6221 6.45 48.6521 6.39L47.9621 6.18C47.9221 6.48 47.8421 6.78 47.7221 7.08C47.4721 7.06 47.3521 7.05 47.1421 7.05C46.6121 7.05 46.1721 7.11 45.6621 7.25C45.6721 6.76 45.6721 6.76 45.7321 5.91C46.6621 5.88 48.1821 5.71 49.2721 5.51C49.4621 5.48 49.4921 5.48 49.6221 5.46L49.5821 4.76C48.8221 5.03 47.4021 5.24 45.7721 5.32C45.8421 4.54 45.8921 4.2 45.9821 3.92L45.2021 3.87C45.2121 3.94 45.2121 4 45.2121 4.02C45.2121 4.09 45.1921 4.48 45.1821 4.59C45.1421 5.1 45.1421 5.1 45.1321 5.34C44.9521 5.35 44.9121 5.35 44.8821 5.35C43.9621 5.35 43.4321 5.31 43.0121 5.19L43.0021 5.88ZM45.0321 8.07C45.0321 9.28 45.0921 10.01 45.2321 10.78C44.7821 11.14 44.4521 11.29 44.0821 11.29C43.6521 11.29 43.3621 10.93 43.3621 10.38C43.3621 9.88 43.5821 9.35 43.9721 8.89C44.2521 8.57 44.5421 8.34 45.0321 8.07ZM45.7721 10.36C45.7721 10.31 45.7721 10.26 45.7721 10.25C45.7721 10.19 45.7721 10.17 45.7621 10.11C45.6721 9.28 45.6621 9.11 45.6521 7.82C46.1121 7.67 46.5821 7.59 47.0421 7.59C47.1521 7.59 47.2021 7.59 47.5221 7.61C47.0621 8.66 46.6421 9.36 45.9921 10.11C45.9121 10.19 45.9021 10.21 45.8021 10.37L45.7721 10.36ZM54.2821 3.9C54.2821 4.02 54.2721 4.07 54.2521 4.22C54.0021 5.99 53.9121 6.93 53.9121 7.91C53.9121 7.96 53.9121 8.05 53.9121 8.14L53.9321 9.18L53.9421 9.36C53.9421 9.38 53.9421 9.42 53.9421 9.47L54.6621 9.44C54.6521 9.29 54.6521 9.24 54.6521 9.2C54.6521 8.47 54.8421 7.7 55.1921 6.97C55.7621 5.8 56.4021 5.23 57.1621 5.23C58.1221 5.23 58.6821 6.16 58.6821 7.77C58.6821 9.37 58.1321 10.42 56.9621 11.09C56.3821 11.42 55.8621 11.58 54.9321 11.72C55.1521 11.99 55.2121 12.1 55.3321 12.4C56.0321 12.25 56.6321 12.05 57.1121 11.81C58.6121 11.06 59.4221 9.69 59.4221 7.88C59.4221 6.81 59.2421 6.07 58.8221 5.45C58.4321 4.87 57.8721 4.56 57.2221 4.56C56.4421 4.56 55.7821 4.99 55.2221 5.85C54.9321 6.3 54.7321 6.79 54.6121 7.34C54.5621 7.55 54.5621 7.55 54.5421 7.63L54.5021 7.62C54.5321 7.11 54.6721 6.02 54.8321 5.01C54.9221 4.47 54.9821 4.19 55.0621 3.98L54.2821 3.9Z" fill="#333333"/>
</svg>
