<svg width="80" height="17" viewBox="0 0 80 17" fill="none" xmlns="http://www.w3.org/2000/svg">
<path d="M43.2968 13.4307H10.7368L13.3432 16L43.2968 13.4307Z" fill="#BF0000"/>
<path d="M13.771 2.91973V3.30903C13.1485 2.91973 12.6428 2.68616 11.8648 2.68616C9.56967 2.68616 7.85803 4.74942 7.85803 7.31876C7.85803 9.8881 9.60857 11.9514 11.8648 11.9514C12.6039 11.9514 13.1485 11.7178 13.771 11.3285V11.7178H15.7549V2.91973H13.771ZM11.8648 9.84917C10.7367 9.84917 9.91977 8.75915 9.91977 7.35769C9.91977 5.95623 10.7367 4.86621 11.8648 4.86621C12.9929 4.86621 13.771 5.95623 13.771 7.35769C13.8099 8.75915 12.9929 9.84917 11.8648 9.84917Z" fill="#BF0000"/>
<path d="M29.7981 2.91968V8.09729C29.7981 9.07053 29.1368 9.88805 28.1643 9.88805C27.1918 9.88805 26.5305 9.07053 26.5305 8.09729V2.91968H24.5076V8.09729C24.5076 10.2384 25.947 11.9513 28.0865 11.9513C29.059 11.9513 29.7981 11.4063 29.7981 11.4063V11.7177H31.821V2.91968H29.7981Z" fill="#BF0000"/>
<path d="M48.4702 11.7567V6.57911C48.4702 5.60588 49.1315 4.78836 50.1041 4.78836C51.0766 4.78836 51.7379 5.60588 51.7379 6.57911V11.7567H53.7607V6.57911C53.7607 4.43799 52.3214 2.7251 50.1819 2.7251C49.2093 2.7251 48.4702 3.27011 48.4702 3.27011V2.91974H46.4474V11.7567H48.4702Z" fill="#BF0000"/>
<path d="M2.10064 11.7566V8.33085H3.57887L6.14633 11.7566H8.75268L5.64062 7.63012C6.61314 6.92939 7.23555 5.80044 7.23555 4.51577C7.23555 2.41358 5.52391 0.700684 3.42327 0.700684H0V11.7177H2.10064V11.7566ZM2.10064 2.8418H3.46217C4.39579 2.8418 5.17381 3.62039 5.17381 4.5547C5.17381 5.489 4.39579 6.26759 3.46217 6.26759H2.10064V2.8418Z" fill="#BF0000"/>
<path d="M37.2281 9.69338C37.0336 9.81017 36.8391 9.92696 36.5668 9.92696C36.2556 9.92696 35.6332 9.69338 35.6332 8.83694V5.06078H37.3448V2.91966H35.6332V0.700684H33.6103V2.91966H32.56V5.02185H33.6103V8.83694C33.6103 10.8223 35.0885 11.9902 36.6057 11.9902C37.1503 11.9902 37.9283 11.7956 38.5507 11.4452L37.2281 9.69338Z" fill="#BF0000"/>
<path d="M20.7343 7.08516L24.1964 2.91971H21.3956L18.9837 5.99513V0H16.922V11.7567H18.9837V8.13625L21.9402 11.7567H24.7411L20.7343 7.08516Z" fill="#BF0000"/>
<path d="M41.8571 2.7251C39.5231 2.7251 37.8892 4.74943 37.8892 7.3577C37.8892 10.0828 39.9899 11.9903 42.0516 11.9903C43.1019 11.9903 44.4635 11.6399 45.5916 10.0049L43.841 8.99274C42.4795 11.0171 40.1844 10.0049 39.9121 7.98057H45.6694C46.1751 4.78836 44.1134 2.7251 41.8571 2.7251ZM43.6076 6.18982H39.9899C40.4178 4.12656 43.2186 4.00977 43.6076 6.18982Z" fill="#BF0000"/>
<path fill-rule="evenodd" clip-rule="evenodd" d="M79.2857 0H57V12H79.2857V0ZM78.5429 0.75H68.1429V11.25H78.5429V0.75ZM60.8947 2.45447L60.5222 1.57495H59.3973L59.7805 2.45447H60.8947ZM62.1217 2.45447H63.1918L62.8751 1.57495H61.8164L62.1174 2.44275L62.1217 2.45447ZM64.7648 4.46545L64.7127 4.43787H60.3113V5.36084H63.121L62.7552 5.96362H62.1157V6.98999H58.4485V7.88843H62.1157V9.5282H61.2767V10.4219H62.9735V7.88843H66.6907V6.98999H63.2369L64.7648 4.46545ZM65.079 2.94495L65.8112 1.61279L65.826 1.58618H64.7361L64.0217 2.94495H58.4487V4.75171H59.3395V3.82898H65.8005V4.75171H66.6909V2.94495H65.079ZM77.2848 10.3472H76.3705V1.65002H77.2848V10.3472ZM75.5396 8.06982H74.6149V2.36365H75.5396V8.06982ZM73.5215 10.2922H69.9055V7.63159H73.5215V10.2922ZM72.702 9.43762H70.7257V8.4751H72.702V9.43762ZM72.1235 5.94287H73.3011V5.08862H72.1235V4.67749H73.4062V3.81287H72.1235V3.42297H71.304V3.81287H70.0316V4.67749H71.304V5.08862H70.1267V5.94287H71.304V6.35413H69.3911V7.20813H74.0262V6.35413H72.1235V5.94287ZM72.134 1.66089H71.2832V2.25562H69.3909V3.58362H70.2524V3.13135H73.1752V3.58362H74.026V2.25562H72.134V1.66089Z" fill="#BF0000"/>
</svg>
