<svg width="48" height="16" viewBox="0 0 48 16" fill="none" xmlns="http://www.w3.org/2000/svg">
<path d="M0 2.60838V12.8583H4.5318C6.38392 12.8583 7.61867 11.6861 7.61867 9.91485C7.61867 8.69059 6.83054 7.81798 5.54324 7.59657C6.48901 7.31005 7.10638 6.47651 7.10638 5.48668C7.10638 3.85868 5.76655 2.60838 4.01951 2.60838H0ZM1.97035 4.43174H3.86188C4.47925 4.43174 4.99155 4.96572 4.99155 5.61692C4.99155 6.29417 4.49239 6.82816 3.88815 6.82816H1.97035V4.43174ZM1.97035 8.6385H4.40044C5.01782 8.6385 5.51697 9.17248 5.51697 9.84973C5.51697 10.514 5.01782 11.0349 4.40044 11.0349H1.97035V8.6385Z" fill="black"/>
<path d="M12.8905 2.39999C10.1714 2.39999 8.37182 4.53593 8.37182 7.73984C8.37182 10.9307 10.1714 13.0667 12.8642 13.0667C15.557 13.0667 17.3566 10.9307 17.3566 7.73984C17.3566 4.56198 15.557 2.39999 12.8905 2.39999ZM12.8511 4.22336C14.3748 4.22336 15.2549 5.49971 15.2549 7.72681C15.2549 9.8888 14.3354 11.2433 12.8642 11.2433C11.393 11.2433 10.4735 9.90182 10.4735 7.73984C10.4735 5.51273 11.3536 4.22336 12.8511 4.22336Z" fill="black"/>
<path d="M18.6408 2.60838V12.8583H20.6112V6.28115L24.2891 12.8583H26.2595V2.60838H24.2891V8.88595L20.6112 2.60838H18.6408Z" fill="black"/>
<path d="M35.8055 2.60838H33.8352V8.6385C33.8352 10.2925 33.1258 11.2433 31.9042 11.2433C30.6826 11.2433 29.9733 10.2925 29.9733 8.6385V2.60838H28.0029V8.65152C28.0029 11.4777 29.4084 13.0667 31.9042 13.0667C34.4 13.0667 35.8055 11.4647 35.8055 8.65152V2.60838Z" fill="black"/>
<path d="M43.9001 3.67635C43.0332 2.82979 41.9692 2.39999 40.7607 2.39999C38.7772 2.39999 37.2929 3.67635 37.2929 5.39552C37.2929 6.89328 38.1861 7.77891 40.4061 8.46918C41.2336 8.72966 41.3518 8.76874 41.6539 8.93805C42.1006 9.1855 42.2845 9.49808 42.2845 10.019C42.2845 10.7744 41.6671 11.2433 40.6819 11.2433C39.8281 11.2433 38.948 10.7744 38.3175 9.97997L37.0827 11.3345C38.0154 12.4676 39.2633 13.0667 40.6688 13.0667C42.8493 13.0667 44.373 11.8033 44.373 10.006C44.373 8.44314 43.5061 7.49238 41.4306 6.80211C40.2353 6.39837 40.2353 6.39837 39.9989 6.28115C39.5785 6.04672 39.3946 5.77321 39.3946 5.39552C39.3946 4.73129 39.9989 4.22336 40.7739 4.22336C41.4701 4.22336 42.1268 4.53593 42.6391 5.12201L43.9001 3.67635Z" fill="black"/>
<path d="M48 2.60838H46.0297V9.70646H48V2.60838ZM48 12.8583V10.9047H46.0297V12.8583H48Z" fill="black"/>
</svg>
