<svg width="76" height="16" viewBox="0 0 76 16" fill="none" xmlns="http://www.w3.org/2000/svg">
<rect x="0.5" y="0.5" width="75" height="15" stroke="#828282"/>
<path fill-rule="evenodd" clip-rule="evenodd" d="M12.5071 9.27277C11.21 10.7138 9.49857 11.5894 7.95523 11.9173V10.4498C9.98424 9.86551 12.1454 8.16957 12.8069 5.58967H8.41319V4.16769H14.6057C14.5094 5.62603 14.0952 6.88421 13.4859 7.93233C13.9534 9.15489 14.8796 9.93859 15.6822 10.3855V11.9999C14.2803 11.5255 13.1771 10.4854 12.5071 9.27277Z" fill="#828282"/>
<path fill-rule="evenodd" clip-rule="evenodd" d="M15.783 8.20663H22.6669V6.75711H15.783V8.20663Z" fill="#828282"/>
<path fill-rule="evenodd" clip-rule="evenodd" d="M30.421 4.10237C30.2004 4.10237 30.0235 4.28563 30.0235 4.51295C30.0235 4.7322 30.2004 4.92353 30.421 4.92353C30.6328 4.92353 30.8271 4.7322 30.8271 4.51295C30.8271 4.28563 30.6328 4.10237 30.421 4.10237ZM30.421 5.47036C29.9002 5.47036 29.4944 5.04289 29.4944 4.51295C29.4944 3.98375 29.9002 3.55554 30.421 3.55554C30.933 3.55554 31.3472 3.98375 31.3472 4.51295C31.3472 5.04289 30.933 5.47036 30.421 5.47036ZM27.7216 4.67748V4.00285H29.2568V4.70502C29.2568 7.00324 29.6263 9.0455 30.9419 10.3033V12C28.9125 10.9868 27.7216 8.68009 27.7216 4.67748ZM22.9935 12V10.3217C24.3173 9.06312 24.6872 7.00324 24.6872 4.69547V4.00285H26.1957V4.66866C26.1957 8.72599 25.0048 10.9967 22.9935 12Z" fill="#828282"/>
<path fill-rule="evenodd" clip-rule="evenodd" d="M31.2835 8.20663H38.1667V6.75711H31.2835V8.20663Z" fill="#828282"/>
<path fill-rule="evenodd" clip-rule="evenodd" d="M42.6212 10.4512C42.8642 10.4512 43.1001 10.4105 43.3278 10.3293C43.5574 10.2482 43.7609 10.113 43.9393 9.92535C44.1183 9.73622 44.2612 9.49126 44.3681 9.18829C44.4754 8.88457 44.5294 8.51586 44.5294 8.07994C44.5294 7.68111 44.4914 7.32121 44.4164 6.99914C44.3415 6.67816 44.2185 6.4031 44.0466 6.17393C43.8757 5.94551 43.6479 5.7696 43.3666 5.64767C43.0834 5.52575 42.7352 5.46552 42.3213 5.46552H41.1201V10.4512H42.6212ZM42.7388 4.00204C43.2323 4.00204 43.6913 4.08357 44.1166 4.24626C44.5415 4.40895 44.9095 4.65244 45.2201 4.97708C45.5313 5.30283 45.7739 5.70863 45.9495 6.19597C46.1243 6.68367 46.2124 7.25584 46.2124 7.91321C46.2124 8.49015 46.1406 9.02192 45.9981 9.50852C45.8549 9.99733 45.6389 10.4178 45.3501 10.7722C45.0595 11.1266 44.6992 11.4061 44.2668 11.6088C43.8341 11.8119 43.3246 11.9132 42.7388 11.9132H39.4372V4.00204H42.7388Z" fill="#828282"/>
<path fill-rule="evenodd" clip-rule="evenodd" d="M53.0613 4.00186V5.46534H49.0211V7.16054H52.7299V8.51237H49.0211V10.4511H53.1477V11.9134H47.3381V4.00186H53.0613Z" fill="#828282"/>
<path fill-rule="evenodd" clip-rule="evenodd" d="M58.807 8.85578L57.8421 5.95197H57.8214L56.8238 8.85578H58.807ZM58.7107 4.00189L61.5725 11.9135H59.8256L59.2461 10.1522H56.385L55.7839 11.9135H54.091L56.9851 4.00189H58.7107Z" fill="#828282"/>
<path fill-rule="evenodd" clip-rule="evenodd" d="M64.2741 4.00186V10.4511H68.0046V11.9134H62.5912V4.00186H64.2741Z" fill="#828282"/>
</svg>
