<svg width="68" height="16" viewBox="0 0 68 16" fill="none" xmlns="http://www.w3.org/2000/svg">
<rect x="0.5" y="0.5" width="67" height="15" stroke="#333333"/>
<path d="M6.87 4.83C7 4.86 7.04 4.88 7.2 4.94C8.16 5.32 9 5.53 9.78 5.58C9.56 5.67 9.39 5.77 9.14 5.95C8.49 6.44 8.15 6.95 8.15 7.48C8.15 7.9 8.32 8.25 8.72 8.69C9.38 9.42 9.38 9.42 9.55 9.68C9.76 9.97 9.86 10.26 9.86 10.52C9.86 11.07 9.38 11.48 8.76 11.48C8.18 11.48 7.61 11.19 7.04 10.62C6.96 11.01 6.93 11.1 6.83 11.33C7.52 11.92 8.12 12.17 8.82 12.17C9.86 12.17 10.61 11.48 10.61 10.55C10.61 9.98 10.34 9.45 9.69 8.76C9.02 8.05 9.02 8.05 8.9 7.85C8.84 7.74 8.79 7.57 8.79 7.46C8.79 7 9.21 6.51 9.99 6.05C10.31 5.87 10.5 5.79 10.74 5.75L10.75 5.04C10.68 5.05 10.63 5.05 10.6 5.05C10.06 5.05 8.93 4.86 8.29 4.66C7.79 4.5 7.39 4.34 7.17 4.18L6.87 4.83ZM6.05 8.11C5.83 9.28 5.3 10.52 4.67 11.32C4.97 11.47 5.06 11.54 5.28 11.74C5.34 11.64 5.35 11.63 5.39 11.56C5.6 11.24 5.6 11.24 5.68 11.1C6.04 10.43 6.37 9.62 6.6 8.78C6.68 8.51 6.69 8.48 6.74 8.33L6.05 8.11ZM11.15 8.31C11.76 8.95 12.57 10.55 12.81 11.57L13.46 11.23C13.22 10.52 13.07 10.17 12.79 9.62C12.47 9.01 12.38 8.87 11.76 8.02L11.15 8.31ZM16.41 5.3C16.63 5.27 16.73 5.26 16.95 5.25C18.47 5.2 19.67 5.13 19.99 5.07C20.05 5.06 20.05 5.06 20.08 5.06L20.1 5.08L20.06 5.12C20.04 5.14 20.02 5.16 20.02 5.16C19.94 5.24 19.94 5.24 19.88 5.3C19.19 5.98 17.61 7.37 16.54 8.22C15.86 8.77 15.5 9.03 15.14 9.24L15.59 9.88C16.75 8.81 18.33 8.17 19.8 8.17C21.15 8.17 21.95 8.74 21.95 9.7C21.95 10.55 21.4 11.16 20.35 11.45C20.21 11.01 20.1 10.77 19.89 10.49C19.49 9.96 18.91 9.67 18.24 9.67C17.41 9.67 16.79 10.17 16.79 10.84C16.79 11.76 17.6 12.28 19.01 12.28C21.23 12.28 22.68 11.25 22.68 9.69C22.68 8.41 21.61 7.59 19.94 7.59C19.06 7.59 18.25 7.8 17.49 8.21L17.47 8.18C18.17 7.73 19.38 6.69 20.76 5.34C21.08 5.03 21.13 4.99 21.27 4.92L20.85 4.37C20.72 4.44 20.63 4.46 20.37 4.48C19.47 4.55 18.14 4.61 17.31 4.61C16.83 4.61 16.65 4.6 16.37 4.55L16.41 5.3ZM19.69 11.63C19.33 11.69 19.21 11.7 18.96 11.7C18.53 11.7 18.1 11.61 17.84 11.47C17.57 11.31 17.44 11.12 17.44 10.86C17.44 10.48 17.75 10.24 18.25 10.24C18.97 10.24 19.47 10.72 19.69 11.63ZM25.51 6.71C25.66 6.69 25.71 6.68 25.9 6.68C27.22 6.66 28.47 6.56 29.46 6.42C29.52 6.52 29.52 6.54 29.63 6.75C30.06 7.59 30.31 8 30.83 8.71C30.41 8.49 29.62 8.35 28.76 8.35C27.95 8.35 27.35 8.46 26.82 8.72C26.12 9.06 25.69 9.69 25.69 10.35C25.69 10.75 25.85 11.14 26.14 11.45C26.6 11.93 27.52 12.2 28.74 12.2C29.73 12.2 30.68 12.03 31.68 11.66L31.57 10.89C30.82 11.28 29.72 11.53 28.73 11.53C27.87 11.53 27.15 11.36 26.78 11.07C26.54 10.87 26.4 10.6 26.4 10.29C26.4 9.93 26.61 9.57 26.94 9.36C27.39 9.08 28 8.94 28.84 8.94C29.52 8.94 30.08 9.03 30.59 9.2C30.87 9.3 31.01 9.39 31.28 9.61L31.95 9.23C31.25 8.3 30.51 7.1 30.15 6.32C30.25 6.3 30.25 6.3 30.49 6.25C31.12 6.13 31.24 6.1 31.84 5.94C32.14 5.86 32.22 5.84 32.43 5.8L32.33 5.09C31.79 5.32 30.88 5.56 29.91 5.72C29.82 5.53 29.79 5.48 29.55 4.84C29.3 4.2 29.3 4.2 29.26 3.94L28.47 4.05C28.56 4.23 28.62 4.37 28.73 4.63C28.91 5.08 29.07 5.48 29.22 5.82C28.28 5.95 27.15 6.03 26.24 6.03C25.9 6.03 25.73 6.02 25.47 5.98L25.51 6.71ZM37.1 4.15C37.16 4.31 37.18 4.36 37.27 4.78C37.53 6.06 37.72 6.76 38 7.58C37.38 7.89 37.07 8.08 36.69 8.39C36.1 8.87 35.8 9.45 35.8 10.09C35.8 10.88 36.22 11.43 37.04 11.73C37.52 11.91 38.27 12 39.26 12C39.96 12 40.44 11.97 41.47 11.87C42.02 11.81 42.02 11.81 42.21 11.81L42.13 10.98C41.54 11.19 40.42 11.32 39.27 11.32C37.31 11.32 36.54 10.97 36.54 10.06C36.54 9.23 37.28 8.57 38.99 7.89C39.87 7.53 41.3 7.07 42 6.92L41.7 6.16C41.5 6.26 41.41 6.29 41.06 6.42C39.51 6.96 39.23 7.07 38.64 7.31C38.3 6.31 37.93 4.67 37.89 4L37.1 4.15ZM44.51 8.66C44.71 8.62 44.92 8.6 45.34 8.58C45.57 8.56 45.75 8.55 46.1 8.52V11.75C46.1 12.18 46.08 12.44 46.04 12.75H46.74C46.7 12.44 46.68 12.18 46.68 11.75V8.47C47.01 8.43 47.31 8.4 47.59 8.35C47.65 8.54 47.68 8.65 47.77 8.96L48.27 8.72C48.01 7.91 47.8 7.41 47.45 6.72L46.99 6.96C47.2 7.34 47.26 7.48 47.41 7.85C46.84 7.93 46.44 7.96 45.8 8C46.28 7.39 47.11 6.21 47.58 5.45C47.71 5.24 47.76 5.16 47.85 5.05L47.27 4.72C47.15 5.08 46.78 5.73 46.19 6.61C46 6.36 45.91 6.25 45.59 5.87C45.98 5.28 46.18 4.96 46.56 4.24C46.66 4.06 46.7 3.99 46.79 3.86L46.18 3.61C46.08 4.01 45.77 4.62 45.23 5.44C45.13 5.32 45.05 5.24 44.87 5.04L44.49 5.49C44.96 5.96 45.45 6.54 45.86 7.11C45.65 7.4 45.56 7.52 45.47 7.63C45.25 7.92 45.25 7.92 45.16 8.03C44.93 8.04 44.88 8.04 44.81 8.04C44.66 8.04 44.57 8.03 44.42 8.01L44.51 8.66ZM51.08 5.48V4.74C51.08 4.35 51.1 4.07 51.14 3.79H50.44C50.48 4.08 50.5 4.37 50.5 4.75V5.48H49.35C48.91 5.48 48.71 5.47 48.41 5.44C48.44 5.76 48.45 6.02 48.45 6.43V11.6C48.45 12.12 48.44 12.43 48.4 12.72H49.08C49.05 12.48 49.04 12.14 49.04 11.63V6.04H50.49C50.47 7.03 50.3 7.76 49.93 8.55C49.69 9.07 49.44 9.42 49.07 9.76C49.25 9.9 49.38 10.05 49.51 10.27C49.87 9.84 50.08 9.54 50.3 9.07C50.6 8.42 50.74 7.92 50.81 7.15C50.92 7.89 51.05 8.32 51.33 8.9C51.6 9.43 51.84 9.8 52.23 10.23C52.35 10.01 52.48 9.83 52.63 9.7V11.71C52.63 11.9 52.52 11.96 52.2 11.96C51.9 11.96 51.59 11.93 51.13 11.86C51.21 12.08 51.26 12.27 51.27 12.52C51.58 12.55 51.92 12.56 52.24 12.56C53.02 12.56 53.23 12.4 53.23 11.8V6.45C53.23 6.04 53.24 5.75 53.27 5.44C53 5.47 52.76 5.48 52.33 5.48H51.08ZM52.63 6.04V9.69C52.31 9.38 52.12 9.15 51.9 8.76C51.38 7.88 51.11 6.96 51.08 6.04H52.63ZM44.98 9.12C44.92 10.35 44.8 10.99 44.49 11.81L45.04 12.08C45.32 11.21 45.43 10.62 45.54 9.23L44.98 9.12ZM47.08 9.22C47.32 10.05 47.42 10.6 47.49 11.57L48.05 11.4C47.93 10.46 47.81 9.89 47.59 9.07L47.08 9.22ZM56.14 6.28H55.38C54.97 6.28 54.77 6.27 54.54 6.23V6.88C54.77 6.84 55 6.83 55.38 6.83H56.04C55.93 7.24 55.69 7.87 55.45 8.34C55.1 9.01 54.77 9.5 54.31 10.01C54.47 10.2 54.56 10.34 54.68 10.58C55.4 9.68 55.86 8.8 56.19 7.62C56.17 8.1 56.14 8.83 56.14 9.2V11.6C56.14 12.14 56.12 12.45 56.08 12.76H56.81C56.77 12.48 56.75 12.17 56.75 11.6V9.04C56.72 8.01 56.72 8.01 56.7 7.55C56.95 8.29 57.16 8.67 57.62 9.27C57.74 9.03 57.79 8.95 57.96 8.74C57.42 8.17 57.09 7.65 56.77 6.83H57.23C57.53 6.83 57.72 6.84 57.92 6.87V6.24C57.73 6.27 57.54 6.28 57.23 6.28H56.75V4.66C57.11 4.56 57.35 4.46 57.73 4.3C57.89 4.22 57.9 4.22 57.98 4.18L57.6 3.66C57.06 4.06 56.09 4.35 54.65 4.55C54.78 4.74 54.84 4.86 54.91 5.08C55.49 4.98 55.69 4.94 56.14 4.83V6.28ZM59.06 5.71C58.73 5.71 58.55 5.7 58.27 5.67C58.29 5.9 58.3 6.14 58.3 6.36V7.94C58.3 8.21 58.29 8.44 58.27 8.67C58.52 8.64 58.72 8.63 59.04 8.63H59.41C59.4 9.46 59.27 10.14 59.02 10.68C58.68 11.43 58.19 11.88 57.29 12.29C57.51 12.47 57.63 12.6 57.77 12.81C58.72 12.31 59.27 11.73 59.64 10.82C59.89 10.2 60.01 9.53 60.04 8.63H60.98V11.9C60.98 12.5 61.18 12.63 62.06 12.63C62.91 12.63 63.18 12.56 63.35 12.31C63.52 12.07 63.59 11.72 63.67 10.8C63.45 10.74 63.31 10.67 63.08 10.51C63.05 11.24 63 11.64 62.92 11.83C62.84 11.99 62.69 12.04 62.26 12.04C61.68 12.04 61.6 12.01 61.6 11.77V8.63H62.21C62.55 8.63 62.78 8.64 63.03 8.67C63 8.42 62.99 8.23 62.99 7.95V6.33C62.99 6.03 63 5.86 63.03 5.67C62.77 5.7 62.55 5.71 62.21 5.71H61.61C61.95 5.18 62.19 4.74 62.52 3.99L61.87 3.74C61.62 4.54 61.42 4.97 60.98 5.71H59.06ZM58.9 6.26H62.39V8.08H58.9V6.26ZM60.09 5.29C59.84 4.74 59.61 4.34 59.21 3.77L58.64 4.03C59.03 4.54 59.25 4.93 59.5 5.55L60.09 5.29Z" fill="#333333"/>
</svg>
