<svg width="32" height="16" viewBox="0 0 32 16" fill="none" xmlns="http://www.w3.org/2000/svg">
<rect x="0.5" y="0.5" width="31" height="15" fill="white" stroke="#BF0000"/>
<path fill-rule="evenodd" clip-rule="evenodd" d="M27.75 1.25C28.1642 1.25 28.5 0.914185 28.5 0.5H27C27 0.914185 27.3358 1.25 27.75 1.25ZM27.75 4.25C28.1642 4.25 28.5 3.91418 28.5 3.5C28.5 3.08582 28.1642 2.75 27.75 2.75C27.3358 2.75 27 3.08582 27 3.5C27 3.91418 27.3358 4.25 27.75 4.25ZM28.5 6.5C28.5 6.91418 28.1642 7.25 27.75 7.25C27.3358 7.25 27 6.91418 27 6.5C27 6.08582 27.3358 5.75 27.75 5.75C28.1642 5.75 28.5 6.08582 28.5 6.5ZM27.75 10.25C28.1642 10.25 28.5 9.91418 28.5 9.5C28.5 9.08582 28.1642 8.75 27.75 8.75C27.3358 8.75 27 9.08582 27 9.5C27 9.91418 27.3358 10.25 27.75 10.25ZM28.5 12.5C28.5 12.9142 28.1642 13.25 27.75 13.25C27.3358 13.25 27 12.9142 27 12.5C27 12.0858 27.3358 11.75 27.75 11.75C28.1642 11.75 28.5 12.0858 28.5 12.5ZM27.75 14.75C27.3358 14.75 27 15.0858 27 15.5H28.5C28.5 15.0858 28.1642 14.75 27.75 14.75ZM22.912 9.71198C23.2591 10.0135 24.0224 10.6293 24.3349 10.6293C24.7396 10.6293 24.9478 10.2022 24.9478 9.87512C24.9478 9.63641 24.8667 9.49841 24.6587 9.35999C24.4095 9.19269 24.1509 9.02533 23.9566 8.89966L23.9538 8.89783C23.8429 8.82605 23.7532 8.76801 23.6987 8.73157C23.3169 8.48022 22.7502 7.95221 22.4149 7.54999H24.3349C24.5662 7.54999 24.9362 7.49976 24.9362 6.94666C24.9362 6.36841 24.4851 6.36841 24.3349 6.36841H21.6051C21.2929 5.81512 21.154 5.37531 21.05 5.02332H23.9647C24.3349 5.02332 24.4969 4.87268 24.4969 4.41998C24.4969 3.86713 24.1149 3.86713 23.9647 3.86713H22.542C22.6115 3.77887 23.0973 2.97443 23.0973 2.68555C23.0973 2.22021 22.5304 2.15735 22.4149 2.15735C21.9987 2.15735 21.8829 2.40863 21.7438 2.74823C21.5242 3.2511 21.3275 3.59045 21.154 3.86713H19.5349L19.545 3.82361L19.5453 3.82251C19.595 3.61066 19.778 2.83038 19.778 2.50934C19.778 2.13245 19.454 2.0191 19.1533 2.0191C18.7138 2.0191 18.6211 2.258 18.5751 2.5722C18.494 3.11285 18.4478 3.3891 18.3204 3.86713H17.6149C17.4529 3.50244 17.268 3.11285 17.0947 2.79846C16.8053 2.28333 16.7127 2.1449 16.412 2.1449C16.0998 2.1449 15.7413 2.34601 15.7413 2.63489C15.7413 2.78577 15.7644 2.83624 16.0536 3.33911C16.074 3.37238 16.0932 3.40619 16.112 3.44104C16.1351 3.48395 16.1574 3.52838 16.1801 3.57507C16.2014 3.61884 16.223 3.66461 16.2459 3.71307L16.2787 3.7821C16.2918 3.80957 16.3055 3.83789 16.3198 3.86713H15.082C14.92 3.86713 14.55 3.86713 14.55 4.45776C14.55 5.02332 14.9315 5.02332 15.082 5.02332H17.9618C17.7191 5.67712 17.5224 6.06689 17.3489 6.36841H14.6658C14.4227 6.36841 14.0642 6.41864 14.0642 6.95911C14.0642 7.54999 14.5153 7.54999 14.6658 7.54999H16.5509C15.7758 8.49286 15.3018 8.79443 14.4227 9.3349C14.2031 9.4729 14.0411 9.61133 14.0411 9.87512C14.0411 10.3029 14.3304 10.642 14.6311 10.642C14.9762 10.642 15.8365 9.92053 16.244 9.5788L16.2502 9.57355C16.3198 9.95087 16.5855 9.97577 16.7707 9.97577H18.1238C17.9851 10.7805 17.5456 11.4591 16.9095 11.9117C16.3891 12.276 16.1578 12.3391 14.9896 12.5905C14.6078 12.6658 14.5616 12.9551 14.5616 13.1436C14.5616 13.2189 14.5616 13.86 15.1629 13.86C15.4522 13.86 16.7591 13.6589 17.8462 12.8291C18.702 12.1758 19.2109 11.1073 19.3729 9.97577H21.1773C21.6282 9.97577 21.6282 10.2397 21.6282 10.4409C21.6282 10.8936 21.5707 11.5095 21.4896 11.8864C21.4087 12.2511 21.3047 12.4393 21.0271 12.4897C20.8649 12.5278 20.0555 12.4897 19.8818 12.4897C19.7316 12.4897 19.2804 12.4897 19.2804 13.1184C19.2804 13.3949 19.3962 13.684 19.6622 13.7595C19.8355 13.8096 20.3791 13.8096 20.8304 13.8096C22.1255 13.8096 22.484 13.6085 22.7153 12.2133C22.8198 11.5471 22.9467 10.1771 22.912 9.71198ZM12.7473 8.27222C12.5278 8.27222 12.4584 8.22174 11.834 7.7442C11.6718 7.61841 10.92 7.09064 10.7698 6.98999C10.5849 6.86444 10.4111 6.73865 10.4111 6.43707C10.4111 6.1731 10.5962 5.80841 10.9549 5.75818C11.0938 5.74554 11.2324 5.77087 11.7296 6.09753C12.2502 6.43707 12.8169 6.85199 13.1293 7.14087C13.2449 7.25421 13.3144 7.37976 13.3144 7.56818C13.3144 7.94531 13.0251 8.27222 12.7473 8.27222ZM13.2333 12.722C13.2333 12.4078 13.0484 12.3198 12.8284 12.2191C11.7182 11.7416 10.4809 11.2009 9.35867 10.0822H12.7242C13.164 10.0822 13.3145 9.88135 13.3145 9.4411C13.3145 8.87555 12.9095 8.8631 12.7242 8.8631H8.51443V8.12134H9.05777C10.0295 8.12134 10.2491 7.84509 10.2491 6.8269V4.17444C10.2491 3.1311 10.0064 2.87976 9.05777 2.87976H8.35245C8.37576 2.81714 8.49155 2.50269 8.49155 2.37689C8.49155 2.05023 8.09799 2 7.8551 2C7.34622 2 7.24243 2.2262 7.09201 2.87976H6.70999C5.75021 2.87976 5.65756 3.36975 5.65756 4.17444V6.8269C5.65756 7.85754 5.88889 8.12134 6.84888 8.12134H7.33466V8.8631H3.08978C2.69644 8.8631 2.5 9.02643 2.5 9.50403C2.5 10.0822 2.95132 10.0822 3.08978 10.0822H6.49045C5.33398 11.2764 3.86465 11.8673 3.07843 12.1813C2.85867 12.2695 2.60422 12.3827 2.60422 12.7598C2.60422 13.0991 2.82401 13.4889 3.1709 13.4889C3.65689 13.4889 5.854 12.3322 7.33466 10.5851V13.2751C7.33466 13.7529 7.51999 13.9162 7.95911 13.9162C8.47977 13.9162 8.51443 13.5138 8.51443 13.2751V10.5851C10.0642 12.4078 12.2271 13.4889 12.6551 13.4889C13.0135 13.4889 13.2333 13.0611 13.2333 12.722ZM3.33289 6.68842C3.61044 6.54999 4.23489 6.1731 4.54733 5.99689C4.72067 5.89667 4.84799 5.82086 4.99823 5.82086C5.44955 5.82086 5.51889 6.36151 5.51889 6.4873C5.51889 6.76373 5.51889 6.85199 4.65134 7.40485C4.258 7.65643 3.36755 8.20929 3.03223 8.20929C2.67355 8.20929 2.5 7.76929 2.5 7.49286C2.5 7.11676 2.67258 7.02802 3.3273 6.69135L3.33289 6.68842ZM4.478 3.29468C4.20044 3.06824 3.6333 2.64111 3.36752 2.64111C3.08975 2.64111 2.78909 2.95514 2.78909 3.33221C2.78909 3.48309 2.85864 3.62158 2.95132 3.70935C3.0101 3.76605 3.20926 3.91919 3.39218 4.05988L3.39438 4.06152C3.53433 4.16913 3.66443 4.2691 3.71442 4.31268C4.46622 4.91602 4.5473 4.97888 4.72064 4.97888C5.11377 4.97888 5.3222 4.55157 5.3222 4.2627C5.3222 3.98962 5.24353 3.92487 4.50952 3.32068L4.478 3.29468ZM11.2723 3.60504C11.3599 3.51721 11.4727 3.40216 11.5854 3.28705L11.5894 3.2829C11.7837 3.08466 11.9772 2.88715 12.0418 2.82959C12.1691 2.71625 12.2964 2.61603 12.4815 2.61603C12.7591 2.61603 13.0595 2.93005 13.0595 3.2569C13.0595 3.43292 13.0251 3.59601 12.308 4.33783C12.1227 4.52649 11.7644 4.89093 11.5215 5.05444C11.4522 5.10468 11.3364 5.14227 11.2325 5.14227C10.9087 5.14227 10.6311 4.77783 10.6311 4.46356C10.6311 4.19958 10.7813 4.06134 11.14 3.7345C11.1689 3.70789 11.2153 3.66223 11.2723 3.60504ZM9.1167 4.28369C9.1167 4.07013 9.02405 3.9317 8.79269 3.9317H7.12738C6.88428 3.9317 6.80338 4.07013 6.80338 4.28369V5.01257H9.1167V4.28369ZM9.1167 6.74731V5.94287H6.80338V6.74731C6.80338 6.98596 6.89606 7.112 7.12738 7.112H8.79269C9.0127 7.112 9.1167 6.98596 9.1167 6.74731ZM19.2003 5.06958H19.8943C19.9636 5.38403 20.0678 5.78625 20.3452 6.41467H18.6798C18.6891 6.39221 18.6994 6.36768 18.7107 6.34119L18.743 6.26501C18.8611 5.98676 19.0467 5.5498 19.2003 5.06958ZM18.0438 7.59631C17.5791 8.29327 17.1676 8.73773 17.0718 8.84113L17.0607 8.85321H21.9876C21.6754 8.52655 21.3282 8.099 20.9929 7.59631H18.0438Z" fill="#BF0000"/>
</svg>
