<svg width="50" height="16" viewBox="0 0 50 16" fill="none" xmlns="http://www.w3.org/2000/svg">
<path fill-rule="evenodd" clip-rule="evenodd" d="M0 0H50V1H0V0ZM0 15H50V16H0V15ZM11.1057 3.824C11.1057 4.37943 10.6557 4.85258 10.1034 4.89372C9.73525 9.78972 6.63638 12.0217 2.85229 12.4023V10.808C6.01252 10.2731 7.91479 8.32915 8.22161 5.27429H1.72729V3.66972H8.99889C9.03979 3.41258 9.16252 3.18629 9.35684 3.02172C9.54093 2.85715 9.78638 2.75429 10.0421 2.75429C10.625 2.75429 11.1057 3.23772 11.1057 3.824ZM10.4921 3.824C10.4921 3.57714 10.2875 3.37143 10.0421 3.37143C9.79662 3.37143 9.59207 3.57714 9.59207 3.824C9.59207 4.07085 9.79662 4.27657 10.0421 4.27657C10.2875 4.27657 10.4921 4.07085 10.4921 3.824ZM20.2841 6.216C19.7114 9.44572 17.5841 12.2537 12.5114 12.3669H11.8977V3.42858H13.6159V10.5874C16.2648 10.2686 17.8909 8.82858 18.4739 6.216H20.2841ZM21.5364 5.25372C24.083 5.24343 26.5989 5.35658 29.2171 5.60343V3.88572C26.9159 3.66972 24.0318 3.59772 21.5364 3.57715V5.25372ZM21.8125 8.34972C24.0523 8.36 26.4148 8.51429 28.7978 8.792V7.11543C26.4046 6.82743 23.95 6.75543 21.8125 6.74515V8.34972ZM29.6159 12.4023C26.9364 12.0011 23.8068 11.7543 21.1477 11.7337V10.0366C23.8887 10.0571 26.9977 10.2731 29.6159 10.6434V12.4023ZM39.5159 3.928C39.4546 7.56915 37.1432 9.08115 34.8932 9.472C34.1466 11.1691 32.7046 12.1051 31.0682 12.4651V10.84C32.7966 10.192 33.7784 8.92686 33.7784 6.53029V6.04686H35.425V6.63315C35.425 7.01372 35.4046 7.37372 35.3637 7.71315C36.6625 7.32229 37.3478 6.39658 37.583 5.19315H30.7614V3.58858H39.5159V3.928ZM39.0114 12.2811H48.4C47.7148 9.98743 46.825 8.01258 45.9966 6.32572H44.1046C44.1629 6.4459 44.2226 6.56836 44.2832 6.69273C44.9021 7.96275 45.6174 9.43059 46.0273 10.6766H40.9034C41.8648 8.48572 42.7341 6.22286 43.4705 3.49715H41.6193C41.0773 5.64686 39.8091 9.26743 39.0114 10.8V12.2811Z" fill="#828282"/>
</svg>
