<svg xmlns="http://www.w3.org/2000/svg" viewBox="0 0 140 18"><defs><style>.cls-1{fill:#fff;}.cls-2{fill:#bf0000;}</style></defs><g id="レイヤー_2" data-name="レイヤー 2"><g id="レイヤー_1-2" data-name="レイヤー 1"><rect class="cls-1" width="140" height="18"/><rect class="cls-1" x="94.75" y="0.48" width="44.57" height="17.02"/><rect class="cls-2" x="94.75" y="0.48" width="44.57" height="17.02"/><path d="M139,1V17H1V1H139m1-1H0V18H140V0Z"/><path class="cls-2" d="M13.59,12a9.77,9.77,0,0,0,.09,1.65h-2a9.59,9.59,0,0,0,.1-1.63V6.14a9.64,9.64,0,0,0-.09-1.51c.44,0,.74,0,1.5,0h3.2A13.56,13.56,0,0,0,18,4.59V6.36a10.9,10.9,0,0,0-1.58-.08h-2.8V8.37h2.25a11.08,11.08,0,0,0,1.58-.08V10a12.8,12.8,0,0,0-1.58-.08H13.59Z"/><path class="cls-2" d="M23.14,13a3.13,3.13,0,0,1-2.12.69,2.49,2.49,0,0,1-1.73-.52,1.81,1.81,0,0,1-.63-1.43c0-1.07.75-1.81,2.11-2.12a11.4,11.4,0,0,1,2.37-.21V9c0-.54-.38-.8-1.13-.8a1.82,1.82,0,0,0-1,.25,1.16,1.16,0,0,0-.42.6l-1.74-.28a2.34,2.34,0,0,1,.83-1.24A3.84,3.84,0,0,1,22,6.91a3.2,3.2,0,0,1,2.3.68,1.89,1.89,0,0,1,.52,1.57v3a10.66,10.66,0,0,0,.08,1.47H23.14Zm0-2.41a6.61,6.61,0,0,0-2,.24c-.51.15-.77.45-.77.87s.33.71.92.71A2.25,2.25,0,0,0,22.68,12a1.15,1.15,0,0,0,.46-.94Z"/><path class="cls-2" d="M27.74,11.47A1.13,1.13,0,0,0,28,12a1.47,1.47,0,0,0,1.13.38c.71,0,1.17-.26,1.17-.66a.5.5,0,0,0-.24-.43,2.67,2.67,0,0,0-1-.31,7.53,7.53,0,0,1-1.8-.5,1.68,1.68,0,0,1-1-1.57c0-1.26,1-2,2.75-2a3.14,3.14,0,0,1,2.18.67,2,2,0,0,1,.65,1.2L30,9c-.06-.51-.38-.73-1-.73s-1.07.22-1.07.58a.49.49,0,0,0,.34.44,4,4,0,0,0,1,.29,5.78,5.78,0,0,1,1.92.61A1.63,1.63,0,0,1,32,11.63c0,1.36-1.1,2.16-3,2.16a3.12,3.12,0,0,1-2.69-1,2.49,2.49,0,0,1-.43-1.06Z"/><path class="cls-2" d="M33,13.61a11.76,11.76,0,0,0,.08-1.54V6.2A10.47,10.47,0,0,0,33,4.66h1.9a9.05,9.05,0,0,0-.09,1.54V7.53c0,.1,0,.24,0,.44a3,3,0,0,1,2.31-1,2.09,2.09,0,0,1,2.28,2.33v2.78a11,11,0,0,0,.08,1.54H37.58a12.17,12.17,0,0,0,.09-1.54V9.71c0-.57-.09-.84-.36-1a1,1,0,0,0-.63-.18,2.24,2.24,0,0,0-1.82,1.33v2.24A10.9,10.9,0,0,0,35,13.61Z"/><path class="cls-2" d="M42.7,7.09a10.51,10.51,0,0,0-.08,1.56v3.41a11.44,11.44,0,0,0,.08,1.55H40.76a12.05,12.05,0,0,0,.09-1.54V8.63a10.8,10.8,0,0,0-.09-1.54Zm0-2.43V6.18H40.78V4.66Z"/><path class="cls-2" d="M43.69,10.35a3.44,3.44,0,1,1,6.88,0,3.44,3.44,0,1,1-6.88,0Zm1.75,0c0,1.3.64,2.09,1.7,2.09s1.68-.77,1.68-2.06-.62-2.1-1.67-2.1S45.44,9,45.44,10.33Z"/><path class="cls-2" d="M51.57,13.61a10.13,10.13,0,0,0,.09-1.54V8.63a9.05,9.05,0,0,0-.09-1.54h1.82v.44c0,.09,0,.24,0,.44a3,3,0,0,1,2.31-1A2.09,2.09,0,0,1,58,9.29v2.78A9.5,9.5,0,0,0,58,13.61H56.11a10.55,10.55,0,0,0,.09-1.54V9.71c0-.57-.09-.82-.35-1a1.11,1.11,0,0,0-.65-.19,2.3,2.3,0,0,0-1.8,1.33v2.24a12.69,12.69,0,0,0,.08,1.54Z"/><path class="cls-2" d="M61,10.76a1.4,1.4,0,0,0,.3.89,1.78,1.78,0,0,0,1.46.59c1,0,1.56-.44,1.56-1.14a.87.87,0,0,0-.43-.79A5.67,5.67,0,0,0,62,9.7,4.18,4.18,0,0,1,60.33,9a2.33,2.33,0,0,1-.95-1.95c0-1.61,1.29-2.64,3.32-2.64A3.43,3.43,0,0,1,65.57,5.6a3,3,0,0,1,.56,1.34l-1.93.21a1.36,1.36,0,0,0-.29-.71A1.59,1.59,0,0,0,62.69,6c-.86,0-1.43.42-1.43,1a.82.82,0,0,0,.38.71,3,3,0,0,0,1,.37,10.49,10.49,0,0,1,2.17.59,2.52,2.52,0,0,1,1.11,1A2.5,2.5,0,0,1,66.28,11c0,1.79-1.26,2.82-3.46,2.82a3.78,3.78,0,0,1-3.07-1.14,3.11,3.11,0,0,1-.63-1.73Z"/><path class="cls-2" d="M71.66,13a3.12,3.12,0,0,1-2.12.69,2.49,2.49,0,0,1-1.73-.52,1.81,1.81,0,0,1-.63-1.43c0-1.07.75-1.81,2.11-2.12a11.4,11.4,0,0,1,2.37-.21V9c0-.54-.38-.8-1.13-.8a1.84,1.84,0,0,0-1,.25,1.16,1.16,0,0,0-.42.6l-1.74-.28a2.4,2.4,0,0,1,.83-1.24,3.84,3.84,0,0,1,2.37-.63,3.2,3.2,0,0,1,2.3.68,1.89,1.89,0,0,1,.52,1.57v3a10.66,10.66,0,0,0,.08,1.47H71.66Zm0-2.41a6.61,6.61,0,0,0-2,.24c-.51.15-.77.45-.77.87s.33.71.92.71A2.3,2.3,0,0,0,71.21,12a1.17,1.17,0,0,0,.45-.94Z"/><path class="cls-2" d="M76.64,4.66a10.64,10.64,0,0,0-.08,1.54v5.87a12.16,12.16,0,0,0,.08,1.54H74.71a9.42,9.42,0,0,0,.09-1.54V6.2a9.05,9.05,0,0,0-.09-1.54Z"/><path class="cls-2" d="M79.37,10.82a1.78,1.78,0,0,0,.37,1.07,1.57,1.57,0,0,0,1.26.55,1.48,1.48,0,0,0,1.52-1l1.6.47A3,3,0,0,1,83.41,13a3.31,3.31,0,0,1-2.41.89A3.28,3.28,0,0,1,78.61,13a3.61,3.61,0,0,1-1-2.62,3.2,3.2,0,0,1,3.29-3.48,3,3,0,0,1,3,2,5.12,5.12,0,0,1,.3,1.72,2.49,2.49,0,0,0,0,.26Zm3.08-1.27a1.75,1.75,0,0,0-.31-.77A1.46,1.46,0,0,0,81,8.25a1.5,1.5,0,0,0-1.55,1.3Z"/><path class="cls-1" d="M106.54,7a4.86,4.86,0,0,0,0-.82V5.63a5.19,5.19,0,0,0,0-.84,8.83,8.83,0,0,0,1.16,0h1.23V4.78a3.57,3.57,0,0,0-.05-.71h1.53a3.4,3.4,0,0,0,0,.7v.07h1a9.58,9.58,0,0,0,1.22,0c0,.27,0,.5,0,.83v.53c0,.35,0,.57,0,.8h-.52v.58a9.57,9.57,0,0,0-1,0h-.83v.42h1a5.08,5.08,0,0,0,.86,0V9a6.49,6.49,0,0,0-.86,0h-1v.46h1.35a8.22,8.22,0,0,0,1,0v1.18a6.11,6.11,0,0,0-1,0h-4.11a7.05,7.05,0,0,0-1,0V9.34a8.83,8.83,0,0,0,1,0H109V8.92h-1c-.46,0-.61,0-.88,0V7.86a5.57,5.57,0,0,0,.88,0h1V7.49h-.82a9.53,9.53,0,0,0-1,0V7Zm4.7,3.87a6.25,6.25,0,0,0,.84,0c0,.27,0,.51,0,1v1.47a5.79,5.79,0,0,0,.06,1h-1.4V13.9h-2.2v.43h-1.42a5.37,5.37,0,0,0,.06-.94V11.88a9.34,9.34,0,0,0,0-1.05,8.15,8.15,0,0,0,.93,0Zm-3.38-4.4H109V6h-1.13Zm.64,6.32h2.2V12h-2.2Zm2.57-6.32h.27V6h-1.1v.51Zm3.3-1.57A6.59,6.59,0,0,0,114.31,6v4.49a7.7,7.7,0,0,0,0,1.14H113a10.78,10.78,0,0,0,0-1.14V6.06a11.34,11.34,0,0,0,0-1.16Zm2-.75a9.23,9.23,0,0,0-.07,1.33v7.31c0,1.15-.36,1.41-1.87,1.41l-1,0a4.09,4.09,0,0,0-.36-1.37c.69.07,1,.09,1.24.09.53,0,.62,0,.62-.33v-7a7.93,7.93,0,0,0-.07-1.37Z"/><path class="cls-1" d="M122.21,9.26a6.85,6.85,0,0,0,.87,0,3.68,3.68,0,0,0,0,.58,15.18,15.18,0,0,1-.37,2.93A1.63,1.63,0,0,1,121.58,14a4.15,4.15,0,0,1-1.22.14c-.43,0-1,0-1.68-.07a6.68,6.68,0,0,0-.34-1.49,12.14,12.14,0,0,0,2,.19c.44,0,.64-.06.74-.26a6,6,0,0,0,.36-2h-3c-.32,0-.56,0-.82,0a18.22,18.22,0,0,0,.52-3.7c.25,0,.45,0,.82,0h2.51V5.75H119a9.07,9.07,0,0,0-1.19.07V4.39a10.55,10.55,0,0,0,1.22.06h2.88c.47,0,.82,0,1.12,0,0,.27,0,.55,0,.91v2a8.15,8.15,0,0,0,0,.89c-.25,0-.62,0-1,0h-2.46c-.06.4-.1.67-.19,1.12Zm4.41-5a9,9,0,0,0-.07,1.3v7.33a11.23,11.23,0,0,0,.07,1.46H125a10,10,0,0,0,.08-1.47V5.51a7.67,7.67,0,0,0-.08-1.3Z"/></g></g></svg>