<svg width="86" height="16" viewBox="0 0 86 16" fill="none" xmlns="http://www.w3.org/2000/svg">
<rect x="0.5" y="0.5" width="85" height="15" stroke="#333333"/>
<path d="M10.5479 6.84V5.13C11.8379 4.92 12.5979 4.73 13.4279 4.39C13.6879 4.28 13.6979 4.28 13.7879 4.25L13.2779 3.69C13.0279 3.87 12.7779 3.98 12.3579 4.12C11.5379 4.38 10.5179 4.58 9.98793 4.58C9.96793 4.58 9.91793 4.58 9.86793 4.58C9.89793 4.87 9.91793 5.3 9.91793 6.43C9.91793 9.77 9.61793 11.17 8.65793 12.35C8.90793 12.48 9.01793 12.57 9.22793 12.77C9.56793 12.31 9.76793 11.93 9.96793 11.4C10.3179 10.49 10.5279 9.14 10.5379 7.81C10.5379 7.55 10.5379 7.55 10.5379 7.42H12.1079V11.78C12.1079 12.27 12.0879 12.52 12.0479 12.78H12.8179C12.7679 12.53 12.7579 12.28 12.7579 11.78V7.42H13.1279C13.5379 7.42 13.7579 7.43 14.0079 7.47V6.78C13.7779 6.82 13.5379 6.84 13.0879 6.84H10.5479ZM7.59793 4.61V4.34C7.59793 4.01 7.60793 3.85 7.64793 3.64H6.91793C6.95793 3.86 6.96793 4.02 6.96793 4.34V4.61H5.96793C5.52793 4.61 5.31793 4.6 5.08793 4.56V5.23C5.34793 5.19 5.53793 5.18 5.95793 5.18H8.51793C8.90793 5.18 9.09793 5.19 9.36793 5.23V4.56C9.12793 4.6 8.93793 4.61 8.52793 4.61H7.59793ZM5.71793 6.91C5.31793 6.91 5.10793 6.9 4.88793 6.86V7.53C5.11793 7.49 5.32793 7.48 5.71793 7.48H8.68793C9.04793 7.48 9.24793 7.49 9.49793 7.53V6.86C9.26793 6.9 9.06793 6.91 8.68793 6.91H8.09793C8.32793 6.52 8.53793 6.06 8.77793 5.46L8.17793 5.27C8.03793 5.87 7.85793 6.32 7.50793 6.91H5.71793ZM6.75793 9.14C6.47793 9.66 6.32793 9.87 6.02793 10.21C5.65793 10.62 5.22793 10.98 4.72793 11.31C4.88793 11.48 4.99793 11.64 5.10793 11.87C6.01793 11.17 6.58793 10.51 6.99793 9.65C6.97793 9.98 6.96793 10.24 6.96793 10.48V11.9C6.96793 12.23 6.94793 12.5 6.90793 12.76H7.59793C7.55793 12.49 7.54793 12.25 7.54793 11.9V10.45C7.53793 10.08 7.52793 9.79 7.50793 9.57C7.89793 10.17 8.10793 10.4 8.75793 10.95C8.87793 10.72 8.94793 10.6 9.10793 10.41C8.35793 9.93 8.07793 9.67 7.69793 9.14H8.64793C9.02793 9.14 9.22793 9.15 9.45793 9.19V8.54C9.19793 8.59 8.99793 8.6 8.64793 8.6H7.54793V8.07C7.54793 7.94 7.55793 7.78 7.58793 7.66H6.91793C6.94793 7.78 6.96793 7.94 6.96793 8.07V8.6H5.74793C5.33793 8.6 5.13793 8.59 4.90793 8.54V9.2C5.14793 9.15 5.33793 9.14 5.72793 9.14H6.75793ZM6.76793 6.63C6.59793 6.08 6.47793 5.78 6.19793 5.28L5.66793 5.48C5.93793 5.95 6.06793 6.26 6.23793 6.82L6.76793 6.63ZM18.9279 5.59H16.0779C15.6379 5.59 15.3079 5.57 15.0279 5.53V6.25C15.3379 6.21 15.6079 6.2 16.0779 6.2H18.9279V8.29H16.8979C16.5579 8.29 16.3779 8.28 16.1579 8.25C16.1879 8.5 16.2079 8.75 16.2079 9.06V11.75C16.2079 12.07 16.1879 12.37 16.1479 12.67H16.8779V12.05H21.8679V12.67H22.5979C22.5579 12.41 22.5379 12.09 22.5379 11.75V9.06C22.5379 8.73 22.5479 8.5 22.5879 8.25C22.3679 8.28 22.1879 8.29 21.8479 8.29H19.6079V6.2H22.6979C23.0779 6.2 23.3979 6.22 23.7379 6.25V5.53C23.4579 5.57 23.1379 5.59 22.6979 5.59H19.6079V4.51C19.6079 4.12 19.6279 3.89 19.6779 3.64H18.8679C18.9179 3.87 18.9279 4.08 18.9279 4.51V5.59ZM16.8779 8.89H21.8679V11.46H16.8779V8.89ZM26.6579 6.52C26.6579 6.86 26.6479 7.12 26.6179 7.39C26.8879 7.36 27.1979 7.35 27.6779 7.35H31.0879C31.5779 7.35 31.8579 7.36 32.1379 7.39C32.1079 7.15 32.0979 6.89 32.0979 6.51V4.82C32.0979 4.46 32.1079 4.25 32.1379 3.99C31.8679 4.03 31.5879 4.04 31.0079 4.04H27.7379C27.2079 4.04 26.9279 4.03 26.6179 3.99C26.6479 4.25 26.6579 4.49 26.6579 4.83V6.52ZM27.2879 4.61H31.4579V6.78H27.2879V4.61ZM25.2179 11.73C25.2179 12.24 25.2079 12.51 25.1679 12.77H25.8379V12.14H28.1579V12.58H28.8079C28.7779 12.34 28.7679 12.09 28.7679 11.6V9.29C28.7679 8.73 28.7779 8.56 28.7979 8.35C28.5379 8.37 28.3079 8.38 27.9879 8.38H26.0979C25.7079 8.38 25.4679 8.37 25.1779 8.34C25.2079 8.64 25.2179 8.92 25.2179 9.31V11.73ZM25.8379 8.94H28.1579V11.58H25.8379V8.94ZM29.7579 11.79C29.7579 12.25 29.7479 12.51 29.7179 12.77H30.3679V12.14H32.9279V12.77H33.6079C33.5679 12.52 33.5579 12.27 33.5579 11.73V9.32C33.5579 8.9 33.5679 8.6 33.5979 8.34C33.3579 8.37 33.1179 8.38 32.7379 8.38H30.5379C30.1979 8.38 29.9779 8.37 29.7279 8.35C29.7579 8.59 29.7579 8.74 29.7579 9.21V11.79ZM30.3679 8.94H32.9379V11.58H30.3679V8.94ZM35.988 9.45C36.268 9.41 36.498 9.4 36.898 9.4H38.088C38.508 9.4 38.728 9.41 39.008 9.45V8.61C38.728 8.65 38.518 8.66 38.088 8.66H36.898C36.478 8.66 36.268 8.65 35.988 8.61V9.45ZM46.8421 5.17V4.46C46.8421 4.05 46.8521 3.88 46.9021 3.64H46.1421C46.1821 3.9 46.2021 4.13 46.2021 4.46V5.17H43.9921C43.5221 5.17 43.2521 5.15 42.8921 5.1V5.82C43.2621 5.78 43.5721 5.76 43.9921 5.76H46.2021V7.56H43.4221C42.9621 7.56 42.6821 7.54 42.3221 7.49V8.21C42.6821 8.17 43.0221 8.15 43.4221 8.15H45.9321C44.9821 9.56 43.6721 10.7 42.0321 11.56C42.2221 11.74 42.3321 11.89 42.4821 12.13C43.3921 11.6 44.0621 11.09 44.7921 10.37C45.3821 9.79 45.7221 9.36 46.2421 8.52C46.2121 9.12 46.2021 9.29 46.2021 9.6V11.76C46.2021 12.18 46.1821 12.46 46.1321 12.75H46.9121C46.8621 12.45 46.8421 12.18 46.8421 11.76V9.58C46.8421 9.33 46.8321 9.08 46.8021 8.5C47.4121 9.48 47.7421 9.9 48.4121 10.53C49.1121 11.19 49.7321 11.63 50.7321 12.19C50.8521 11.96 50.9221 11.86 51.1721 11.57C49.4521 10.76 48.1621 9.67 47.1121 8.15H49.8321C50.3121 8.15 50.6421 8.17 50.9521 8.21V7.49C50.6721 7.54 50.3521 7.56 49.8321 7.56H46.8421V5.76H49.2321C49.7221 5.76 50.0321 5.78 50.3421 5.82V5.1C50.0621 5.15 49.7721 5.17 49.2221 5.17H46.8421ZM57.2121 9.01C57.1021 9.64 57.0021 9.95 56.8021 10.32C56.4121 9.96 56.1321 9.62 56.0021 9.33L55.4421 9.66C55.5121 9.73 55.5221 9.75 55.6021 9.84C56.1221 10.47 56.1221 10.47 56.4721 10.79C55.9321 11.36 55.2121 11.77 54.0521 12.15C54.2121 12.31 54.3121 12.46 54.4421 12.7C55.6421 12.25 56.3021 11.82 56.9021 11.13C57.9821 11.89 59.2421 12.37 60.8721 12.63C60.9421 12.4 61.0521 12.17 61.1821 11.97C59.5321 11.8 58.3021 11.39 57.2521 10.67C57.5321 10.23 57.6821 9.76 57.8121 9.01H59.5421C59.9921 9.01 60.2521 9.02 60.5321 9.05C60.5021 8.86 60.5021 8.68 60.5021 8.25V7.05C60.5021 6.77 60.5121 6.52 60.5321 6.3C60.2621 6.32 60.0321 6.33 59.6021 6.33H57.9821C57.9821 6.18 57.9821 6.05 57.9821 5.98C57.9921 5.79 57.9921 5.66 57.9921 5.62C57.9921 5.43 57.9921 5.43 57.9921 5.33H60.1621C60.5821 5.33 60.8221 5.34 61.1021 5.38V4.71C60.8121 4.75 60.5021 4.77 60.1021 4.77H57.9921C57.9921 4.14 58.0021 3.89 58.0421 3.62H57.3221C57.3721 3.96 57.3821 4.16 57.3821 4.77H55.5321C55.1521 4.77 54.8421 4.75 54.5721 4.71V5.38C54.8321 5.34 55.0721 5.33 55.4921 5.33H57.3921V5.73L57.3821 6.33H55.7421C55.2521 6.33 55.1121 6.32 54.8421 6.3C54.8721 6.53 54.8821 6.64 54.8821 7V8.37C54.8821 8.63 54.8721 8.82 54.8421 9.05C55.1221 9.02 55.3521 9.01 55.7221 9.01H57.2121ZM57.3721 6.89C57.3521 7.58 57.3221 8.06 57.2821 8.45H55.4921V6.89H57.3721ZM59.8821 6.89V8.45H57.8821C57.9221 7.99 57.9421 7.57 57.9621 6.89H59.8821ZM53.1221 11.56C53.1221 12.07 53.1021 12.38 53.0621 12.76H53.7921C53.7521 12.4 53.7421 12.05 53.7421 11.59V6.11C54.0621 5.4 54.1821 5.08 54.4221 4.36C54.5021 4.1 54.5321 4.01 54.6021 3.81L53.9121 3.63C53.8421 4.12 53.7621 4.44 53.5321 5.05C53.1121 6.2 52.5421 7.19 51.8521 7.97C52.0321 8.15 52.1221 8.28 52.2521 8.52C52.7021 7.92 52.9121 7.59 53.1521 7.08C53.1221 7.71 53.1221 7.78 53.1221 8.29V11.56ZM66.9921 9.42H69.9221V11.68C69.9221 11.93 69.8321 11.98 69.3921 11.98C69.0321 11.98 68.5421 11.94 67.9621 11.87C68.0521 12.12 68.0921 12.29 68.1121 12.52C68.5321 12.55 69.0321 12.57 69.3521 12.57C70.3221 12.57 70.5521 12.42 70.5521 11.79V5.08C70.5521 4.63 70.5621 4.37 70.5921 4.1C70.3021 4.13 70.0321 4.14 69.5321 4.14H64.1521C63.6521 4.14 63.3521 4.13 63.0521 4.1C63.0921 4.53 63.0921 4.72 63.0921 5.73C63.0921 8.2 63.0021 9.66 62.7821 10.58C62.6221 11.26 62.4021 11.71 61.9721 12.27C62.2321 12.42 62.3321 12.49 62.5521 12.7C63.2221 11.75 63.4821 10.93 63.6321 9.42H66.3721V11.31C66.3721 11.84 66.3621 12.14 66.3221 12.4H67.0421C67.0021 12.16 66.9921 11.84 66.9921 11.31V9.42ZM66.9921 6.49V4.74H69.9221V6.49H66.9921ZM66.3721 6.49H63.7321L63.7421 5.93V4.74H66.3721V6.49ZM66.9921 7.06H69.9221V8.84H66.9921V7.06ZM66.3721 7.06V8.84H63.6721C63.7021 8.38 63.7021 8.34 63.7121 7.72C63.7121 7.58 63.7121 7.34 63.7221 7.06H66.3721ZM73.9021 6.52C73.9021 6.86 73.8921 7.12 73.8621 7.39C74.1321 7.36 74.4421 7.35 74.9221 7.35H78.3321C78.8221 7.35 79.1021 7.36 79.3821 7.39C79.3521 7.15 79.3421 6.89 79.3421 6.51V4.82C79.3421 4.46 79.3521 4.25 79.3821 3.99C79.1121 4.03 78.8321 4.04 78.2521 4.04H74.9821C74.4521 4.04 74.1721 4.03 73.8621 3.99C73.8921 4.25 73.9021 4.49 73.9021 4.83V6.52ZM74.5321 4.61H78.7021V6.78H74.5321V4.61ZM72.4621 11.73C72.4621 12.24 72.4521 12.51 72.4121 12.77H73.0821V12.14H75.4021V12.58H76.0521C76.0221 12.34 76.0121 12.09 76.0121 11.6V9.29C76.0121 8.73 76.0221 8.56 76.0421 8.35C75.7821 8.37 75.5521 8.38 75.2321 8.38H73.3421C72.9521 8.38 72.7121 8.37 72.4221 8.34C72.4521 8.64 72.4621 8.92 72.4621 9.31V11.73ZM73.0821 8.94H75.4021V11.58H73.0821V8.94ZM77.0021 11.79C77.0021 12.25 76.9921 12.51 76.9621 12.77H77.6121V12.14H80.1721V12.77H80.8521C80.8121 12.52 80.8021 12.27 80.8021 11.73V9.32C80.8021 8.9 80.8121 8.6 80.8421 8.34C80.6021 8.37 80.3621 8.38 79.9821 8.38H77.7821C77.4421 8.38 77.2221 8.37 76.9721 8.35C77.0021 8.59 77.0021 8.74 77.0021 9.21V11.79ZM77.6121 8.94H80.1821V11.58H77.6121V8.94Z" fill="#333333"/>
</svg>
