<svg width="109" height="16" viewBox="0 0 109 16" fill="none" xmlns="http://www.w3.org/2000/svg">
<path d="M66.4426 3.30901C66.0147 8.83699 62.5136 11.3285 58.2345 11.7567V9.96595C61.8134 9.382 63.953 7.16303 64.3031 3.73724H56.9508V1.94648H65.1589C65.1978 1.67397 65.3534 1.40147 65.5479 1.20682C65.7424 1.01217 66.0147 0.895386 66.3259 0.895386C66.9872 0.895386 67.5318 1.4404 67.5318 2.1022C67.5707 2.72507 67.065 3.27008 66.4426 3.30901ZM66.3648 1.59612C66.0925 1.59612 65.8591 1.82969 65.8591 2.1022C65.8591 2.3747 66.0925 2.60828 66.3648 2.60828C66.6371 2.60828 66.8705 2.3747 66.8705 2.1022C66.8705 1.82969 66.6371 1.59612 66.3648 1.59612Z" fill="#BF0000"/>
<path d="M69.0877 11.7177H68.3875V1.67395H70.3325V9.73235C73.3279 9.38198 75.1562 7.74694 75.8175 4.82723H77.8792C77.2179 8.44767 74.8061 11.601 69.0877 11.7177Z" fill="#BF0000"/>
<path d="M78.4629 11.0171V9.10952C81.575 9.14845 85.076 9.38202 88.0325 9.81025V11.7956C84.9982 11.3285 81.4583 11.056 78.4629 11.0171ZM78.8908 3.73725V1.82971C81.7306 1.86864 84.9593 1.9465 87.5657 2.18008V4.12655C84.6092 3.85404 81.7695 3.69833 78.8908 3.73725ZM79.202 7.20198V5.41122C81.6139 5.41122 84.4147 5.48908 87.0989 5.83944V7.70806C84.4147 7.39662 81.7306 7.20198 79.202 7.20198Z" fill="#BF0000"/>
<path d="M93.712 8.48666C92.8562 10.3942 91.2224 11.4453 89.394 11.8735V10.0438C91.3391 9.30418 92.4672 7.90272 92.4672 5.17765V4.63264H94.3344V5.29444C94.3344 5.72267 94.2955 6.11196 94.2566 6.50126C95.7349 6.07303 96.5129 5.02194 96.7852 3.65941H89.0828V1.86865H99.0025V2.25795C98.8858 6.34554 96.2795 8.0195 93.712 8.48666Z" fill="#BF0000"/>
<path d="M98.3801 11.6399V9.96594C99.2748 8.25305 100.714 4.16546 101.337 1.75183H103.437C102.62 4.82726 101.609 7.35767 100.52 9.84915H106.316C105.81 8.29198 104.877 6.46229 104.137 4.94405H106.277C107.211 6.85159 108.222 9.07057 109 11.6399H98.3801Z" fill="#BF0000"/>
<path d="M43.2968 13.4307H10.7368L13.3432 16L43.2968 13.4307Z" fill="#BF0000"/>
<path d="M13.771 2.91973V3.30903C13.1485 2.91973 12.6428 2.68616 11.8648 2.68616C9.56967 2.68616 7.85803 4.74942 7.85803 7.31876C7.85803 9.8881 9.60857 11.9514 11.8648 11.9514C12.6039 11.9514 13.1485 11.7178 13.771 11.3285V11.7178H15.7549V2.91973H13.771ZM11.8648 9.84917C10.7367 9.84917 9.91977 8.75915 9.91977 7.35769C9.91977 5.95623 10.7367 4.86621 11.8648 4.86621C12.9929 4.86621 13.771 5.95623 13.771 7.35769C13.8099 8.75915 12.9929 9.84917 11.8648 9.84917Z" fill="#BF0000"/>
<path d="M29.7981 2.91968V8.09729C29.7981 9.07053 29.1368 9.88805 28.1643 9.88805C27.1918 9.88805 26.5305 9.07053 26.5305 8.09729V2.91968H24.5076V8.09729C24.5076 10.2384 25.947 11.9513 28.0865 11.9513C29.059 11.9513 29.7981 11.4063 29.7981 11.4063V11.7177H31.821V2.91968H29.7981Z" fill="#BF0000"/>
<path d="M48.4702 11.7567V6.57911C48.4702 5.60588 49.1315 4.78836 50.1041 4.78836C51.0766 4.78836 51.7379 5.60588 51.7379 6.57911V11.7567H53.7607V6.57911C53.7607 4.43799 52.3214 2.7251 50.1819 2.7251C49.2093 2.7251 48.4702 3.27011 48.4702 3.27011V2.91974H46.4474V11.7567H48.4702Z" fill="#BF0000"/>
<path d="M2.10064 11.7566V8.33085H3.57887L6.14633 11.7566H8.75268L5.64062 7.63012C6.61314 6.92939 7.23555 5.80044 7.23555 4.51577C7.23555 2.41358 5.52391 0.700684 3.42327 0.700684H0V11.7177H2.10064V11.7566ZM2.10064 2.8418H3.46217C4.39579 2.8418 5.17381 3.62039 5.17381 4.5547C5.17381 5.489 4.39579 6.26759 3.46217 6.26759H2.10064V2.8418Z" fill="#BF0000"/>
<path d="M37.2281 9.69338C37.0336 9.81017 36.8391 9.92696 36.5668 9.92696C36.2556 9.92696 35.6332 9.69338 35.6332 8.83694V5.06078H37.3448V2.91966H35.6332V0.700684H33.6103V2.91966H32.56V5.02185H33.6103V8.83694C33.6103 10.8223 35.0885 11.9902 36.6057 11.9902C37.1503 11.9902 37.9283 11.7956 38.5507 11.4452L37.2281 9.69338Z" fill="#BF0000"/>
<path d="M20.7343 7.08516L24.1964 2.91971H21.3956L18.9837 5.99513V0H16.922V11.7567H18.9837V8.13625L21.9402 11.7567H24.7411L20.7343 7.08516Z" fill="#BF0000"/>
<path d="M41.8571 2.7251C39.5231 2.7251 37.8892 4.74943 37.8892 7.3577C37.8892 10.0828 39.9899 11.9903 42.0516 11.9903C43.1019 11.9903 44.4635 11.6399 45.5916 10.0049L43.841 8.99274C42.4795 11.0171 40.1844 10.0049 39.9121 7.98057H45.6694C46.1751 4.78836 44.1134 2.7251 41.8571 2.7251ZM43.6076 6.18982H39.9899C40.4178 4.12656 43.2186 4.00977 43.6076 6.18982Z" fill="#BF0000"/>
</svg>
