<svg width="48" height="16" viewBox="0 0 48 16" fill="none" xmlns="http://www.w3.org/2000/svg">
<rect x="0.5" y="0.5" width="47" height="15" stroke="#333333"/>
<path d="M8.74 11.45C8.28 11.28 7.95 11.09 7.66 10.84C7.31 10.52 7.13 10.28 6.87 9.74C6.94 9.5 7.09 8.92 7.14 8.68C7.23 8.29 7.23 8.29 7.26 8.16L6.56 8.02C6.56 8.06 6.56 8.09 6.56 8.12C6.56 8.69 6.29 9.7 5.95 10.4C5.61 11.11 5.29 11.53 4.6 12.18C4.88 12.37 4.95 12.44 5.12 12.65C5.87 11.86 6.23 11.33 6.64 10.38C7.17 11.44 8.15 12.04 9.71 12.26C10.22 12.33 10.42 12.34 11.9 12.34C12.17 12.34 12.24 12.34 13.11 12.32C13.15 12.03 13.2 11.87 13.33 11.62C12.49 11.69 11.8 11.72 10.99 11.72C10.28 11.72 9.8 11.69 9.36 11.61V9.39H11.29C11.7 9.39 11.96 9.4 12.25 9.45V8.77C11.99 8.81 11.72 8.83 11.29 8.83H9.36V7.2H11.11C11.55 7.2 11.82 7.22 12.1 7.26V6.57C11.83 6.61 11.55 6.63 11.11 6.63H6.97C6.53 6.63 6.25 6.61 5.98 6.57V7.26C6.28 7.22 6.54 7.2 6.97 7.2H8.74V11.45ZM8.59 4.85H5.88C5.48 4.85 5.19 4.84 4.87 4.81C4.9 5 4.91 5.23 4.91 5.49V6.12C4.91 6.43 4.9 6.61 4.87 6.83H5.53V5.43H12.51V6.83H13.16C13.13 6.62 13.12 6.42 13.12 6.12V5.49C13.12 5.21 13.13 5.02 13.16 4.81C12.84 4.84 12.55 4.85 12.16 4.85H9.24V4.36C9.24 4.14 9.26 3.96 9.31 3.74H8.53C8.57 3.98 8.59 4.14 8.59 4.37V4.85ZM22.46 9.49V11.82C22.46 11.98 22.38 12.04 22.14 12.04C21.82 12.04 21.59 12.01 21.04 11.91C21.14 12.21 21.17 12.33 21.2 12.62C21.74 12.65 21.85 12.66 21.99 12.66C22.4 12.66 22.68 12.62 22.8 12.55C22.98 12.45 23.07 12.24 23.07 11.9V5.16C23.07 4.72 23.08 4.42 23.11 4.19C22.84 4.22 22.62 4.23 22.16 4.23H20.78C20.32 4.23 20.1 4.22 19.82 4.19C19.85 4.47 19.86 4.7 19.86 5.37C19.86 7.51 19.79 9.28 19.69 10.01C19.54 11.02 19.3 11.57 18.7 12.27C18.94 12.43 18.95 12.44 19.19 12.73C19.95 11.74 20.23 10.96 20.36 9.49H22.46ZM22.46 7.1V8.93H20.39C20.43 8.29 20.43 8.08 20.45 7.1H22.46ZM22.46 6.54H20.46C20.46 6.36 20.46 6.32 20.46 6.15V4.79H22.46V6.54ZM15.53 4.94H15.47C15.05 4.94 14.79 4.92 14.61 4.88V5.53C14.8 5.49 15.06 5.48 15.47 5.48H15.53V9.75H15.25C14.87 9.75 14.65 9.74 14.45 9.7V10.34C14.67 10.3 14.86 10.29 15.26 10.29H18.42C18.81 10.29 19.1 10.3 19.33 10.32V9.7C19.15 9.73 18.9 9.75 18.54 9.75V5.48C18.96 5.48 19.16 5.49 19.37 5.52V4.88C19.19 4.92 18.9 4.94 18.54 4.94V4.76C18.54 4.34 18.56 4.05 18.6 3.8H17.91C17.95 4.04 17.96 4.3 17.96 4.75V4.94H16.12V4.76C16.12 4.36 16.13 4.06 16.17 3.8H15.47C15.51 4.08 15.53 4.35 15.53 4.75V4.94ZM16.12 9.75V8.59H17.96V9.75H16.12ZM16.12 8.08V7.03H17.96V8.08H16.12ZM16.12 6.52V5.48H17.96V6.52H16.12ZM16.04 10.64C15.67 11.31 15.29 11.71 14.54 12.2C14.77 12.36 14.87 12.47 15 12.68C15.77 12.07 16.07 11.73 16.56 10.95L16.04 10.64ZM17.36 10.94C17.67 11.43 17.9 11.69 18.33 12.09C18.5 11.89 18.59 11.8 18.79 11.66C18.33 11.31 18.13 11.1 17.81 10.63L17.36 10.94ZM30.28 7.39V8.08H29.32C28.77 8.08 28.48 8.07 28.22 8.05C28.25 8.41 28.26 8.66 28.26 9.03V10.58C27.98 10.57 27.83 10.56 27.61 10.53V11.12C27.85 11.08 27.96 11.07 28.26 11.06V11.69C28.26 12.19 28.25 12.49 28.22 12.79H28.87C28.84 12.52 28.83 12.34 28.83 11.69V11.06H32.35V11.87C32.35 12.1 32.29 12.14 31.93 12.14C31.66 12.14 31.29 12.11 30.9 12.06C30.96 12.26 30.99 12.38 31.01 12.63C31.45 12.65 31.67 12.66 31.99 12.66C32.74 12.66 32.92 12.51 32.92 11.89V11.06C33.22 11.07 33.3 11.07 33.5 11.1V10.52C33.32 10.56 33.17 10.58 32.92 10.58V9.01C32.92 8.55 32.94 8.23 32.97 8.03C32.72 8.06 32.4 8.08 32 8.08H30.83V7.39H32.54C32.99 7.39 33.21 7.4 33.48 7.45V6.84C33.22 6.89 33.01 6.9 32.55 6.9H31.86V6.15H32.29C32.64 6.15 32.89 6.16 33.12 6.2V5.65C32.88 5.68 32.69 5.69 32.3 5.69H31.86V5.01H32.51C32.87 5.01 33.07 5.02 33.35 5.06V4.48C33.14 4.52 32.91 4.53 32.5 4.53H31.86C31.86 4.19 31.88 3.98 31.92 3.75H31.25C31.3 3.94 31.31 4.06 31.31 4.53H29.79C29.79 4.13 29.81 3.94 29.85 3.75H29.18C29.23 3.96 29.24 4.14 29.24 4.53H28.72C28.3 4.53 28.09 4.52 27.85 4.47V5.06C28.1 5.02 28.33 5.01 28.71 5.01H29.24V5.69H28.92C28.51 5.69 28.34 5.68 28.09 5.65V6.2C28.34 6.16 28.54 6.15 28.92 6.15H29.24V6.9H28.66C28.2 6.9 27.99 6.89 27.72 6.84V7.45C28 7.4 28.22 7.39 28.66 7.39H30.28ZM30.28 10.58H28.83V9.78H30.28V10.58ZM30.83 10.58V9.78H32.35V10.58H30.83ZM30.28 9.32H28.83V8.56H30.28V9.32ZM30.83 9.32V8.56H32.35V9.32H30.83ZM29.79 5.01H31.31V5.69H29.79V5.01ZM29.79 6.15H31.31V6.9H29.79V6.15ZM26.67 10.14C27.02 10.14 27.23 10.15 27.45 10.17C27.43 9.99 27.42 9.71 27.42 9.16V5.08C27.42 4.48 27.43 4.31 27.45 4.09C27.24 4.11 27.02 4.12 26.68 4.12H25.71C25.34 4.12 25.13 4.11 24.89 4.09C24.92 4.38 24.93 4.66 24.93 5.15V9.14C24.93 9.61 24.92 9.98 24.9 10.17C25.14 10.15 25.35 10.14 25.7 10.14H26.67ZM25.49 4.65H26.87V5.91H25.49V4.65ZM25.49 6.43H26.87V7.69H25.49V6.43ZM25.49 8.22H26.87V9.61H25.49V8.22ZM25.46 10.38C25.23 11.23 25 11.7 24.52 12.33C24.71 12.44 24.78 12.49 25.01 12.7C25.48 12.03 25.7 11.56 25.98 10.64L25.46 10.38ZM26.4 10.64C26.66 11.38 26.87 11.82 27.26 12.48C27.47 12.29 27.57 12.22 27.74 12.13C27.32 11.53 27.11 11.11 26.88 10.4L26.4 10.64ZM38.7 4.92C38.65 5.92 38.57 6.42 38.38 7.1C38.07 8.17 37.56 9.13 36.84 10.01C36.18 10.81 35.61 11.3 34.52 11.98C34.77 12.16 34.9 12.31 35.06 12.57C35.69 12.14 35.95 11.93 36.32 11.59C36.84 11.11 37.3 10.6 37.67 10.07C38.35 9.11 38.76 8.16 39.07 6.83C39.25 7.61 39.4 8.05 39.7 8.68C40.04 9.42 40.55 10.18 41.13 10.84C41.73 11.53 42.2 11.94 43.07 12.55C43.29 12.21 43.36 12.14 43.63 11.91C42.73 11.36 42.35 11.06 41.76 10.46C41.14 9.81 40.65 9.14 40.26 8.39C39.68 7.28 39.41 6.16 39.41 4.9C39.41 4.68 39.42 4.49 39.45 4.24C39.25 4.28 39 4.3 38.52 4.3H37.2C36.84 4.3 36.64 4.29 36.44 4.25V4.97C36.77 4.94 37.01 4.92 37.2 4.92H38.7Z" fill="#333333"/>
</svg>
