<?xml version="1.0" encoding="utf-8"?>
<svg width="61" height="32" viewBox="0 0 61 32" fill="none" xmlns="http://www.w3.org/2000/svg">
  <path d="M10.0013 24.1055C10.0013 23.7549 9.69557 23.4481 9.34618 23.4481H0.611432C0.305716 23.4481 0 23.7549 0 24.1055V25.4203C0 25.7709 0.305716 26.0777 0.655106 26.0777H7.20616C7.33718 26.0777 7.42453 26.1654 7.42453 26.2969C7.38086 26.9543 7.03147 27.8747 6.28902 28.5321C5.63391 29.1019 4.80411 29.4087 3.75594 29.4087C3.36288 29.4087 3.05716 29.7593 3.10083 30.1538L3.27553 31.4248C3.36288 31.7754 3.66859 31.9945 3.97431 31.9945C6.02697 31.8631 7.24984 31.118 7.99229 30.4606C9.43352 29.1457 9.95761 27.3488 9.95761 26.0777V24.1055H10.0013Z" fill="#BF0000"/>
  <path d="M8.03593 20.1609H1.96529C1.6159 20.1609 1.31018 20.4677 1.31018 20.8184V22.0894C1.31018 22.44 1.6159 22.7468 1.96529 22.7468H8.03593C8.38532 22.7468 8.69104 22.44 8.69104 22.0894V20.8184C8.69104 20.4677 8.38532 20.1609 8.03593 20.1609Z" fill="#BF0000"/>
  <path d="M20.3955 20.5115H13.233C12.971 20.5115 12.709 20.6868 12.6216 20.9498L11.4424 24.2369C11.3114 24.5875 11.4861 24.9382 11.8355 25.0697L13.0147 25.5079C13.3641 25.6394 13.7135 25.4641 13.8445 25.1135L14.5433 23.2289C14.5869 23.1412 14.6743 23.0974 14.7616 23.0974H18.2992C18.4302 23.0974 18.5176 23.185 18.5176 23.3165V26.0777C18.5176 26.7351 18.2119 27.787 17.3821 28.5321C16.7269 29.1018 15.8971 29.4086 14.849 29.4086C14.4559 29.4086 14.1502 29.7593 14.1939 30.1537L14.3686 31.4247C14.4122 31.7315 14.718 31.9945 15.0237 31.9945C17.0763 31.863 18.2992 31.1179 19.0417 30.4605C20.4829 29.1457 21.007 27.3487 21.007 26.0777V21.8264V21.169C21.0506 20.8183 20.7449 20.5115 20.3955 20.5115Z" fill="#BF0000"/>
  <path d="M30.5716 30.0661L29.2614 28.4882C29.9165 28.1815 30.3969 27.8308 30.79 27.524C32.2312 26.2092 32.7553 24.4122 32.7553 23.1412V21.169C32.7553 20.8183 32.4496 20.5115 32.1002 20.5115H23.3654C23.016 20.5115 22.7103 20.8183 22.7103 21.169V22.4838C22.7103 22.8344 23.016 23.1412 23.3654 23.1412H29.9165C30.0475 23.1412 30.1349 23.2289 30.1349 23.3604C30.0912 24.0178 29.7418 24.9382 28.9993 25.5956C28.5626 25.99 28.0385 26.253 27.4271 26.3845L26.1169 24.8505C25.8548 24.5437 25.4181 24.4999 25.1561 24.719L24.1516 25.5518C23.8895 25.7709 23.8458 26.2092 24.1079 26.516L28.4753 31.7315C28.7373 32.0383 29.174 32.0821 29.4361 31.863L30.4406 31.0303C30.8336 30.7673 30.8336 30.3729 30.5716 30.0661Z" fill="#BF0000"/>
  <path d="M48.7398 15.1207H12.1849L15.1111 18.0133L48.7398 15.1207Z" fill="#BF0000"/>
  <path d="M15.5915 3.28714V3.72542C14.8928 3.28714 14.325 3.02417 13.4515 3.02417C10.9184 3.068 8.95312 5.39089 8.95312 8.28354C8.95312 11.1762 10.9184 13.4991 13.4515 13.4991C14.2813 13.4991 14.8928 13.2361 15.5915 12.7978V13.2361H17.8189V3.28714H15.5915ZM13.4515 11.0885C12.185 11.0885 11.2678 9.86135 11.2678 8.28354C11.2678 6.70573 12.185 5.47854 13.4515 5.47854C14.7181 5.47854 15.5915 6.70573 15.5915 8.28354C15.6352 9.86135 14.7181 11.0885 13.4515 11.0885Z" fill="#BF0000"/>
  <path d="M33.5852 3.28711V9.11625C33.5852 10.2119 32.8427 11.1323 31.7509 11.1323C30.659 11.1323 29.9166 10.2119 29.9166 9.11625V3.28711H27.6892V9.11625C27.6892 11.5268 29.3051 13.4552 31.7072 13.4552C32.799 13.4552 33.6288 12.8416 33.6288 12.8416V13.1923H35.8999V3.28711H33.5852Z" fill="#BF0000"/>
  <path d="M54.5485 13.2361V7.40697C54.5485 6.31127 55.2909 5.39088 56.3828 5.39088C57.4746 5.39088 58.2171 6.31127 58.2171 7.40697V13.2361H60.4444V7.40697C60.4444 4.99643 58.8285 3.06799 56.4264 3.06799C55.3346 3.06799 54.5048 3.68159 54.5048 3.68159V3.28713H52.2338V13.2361H54.5485Z" fill="#BF0000"/>
  <path d="M2.48924 13.2361V9.37925H4.14884L7.03131 13.2361H9.95745L6.46355 8.59034C7.55539 7.80144 8.25417 6.53042 8.25417 5.08409C8.25417 2.71738 6.33253 0.78894 3.97415 0.78894H0.130859V13.1923H2.48924V13.2361ZM2.48924 3.19949H4.01782C5.06599 3.19949 5.93946 4.07605 5.93946 5.12792C5.93946 6.1798 5.06599 7.05636 4.01782 7.05636H2.48924V3.19949Z" fill="#BF0000"/>
  <path d="M41.9268 10.9132C41.7084 11.0447 41.49 11.1762 41.1843 11.1762C40.8349 11.1762 40.1361 10.9132 40.1361 9.94901V5.69769H42.0578V3.28714H40.1361V0.78894H37.8651V3.28714H36.6859V5.65386H37.8651V9.94901C37.8651 12.1842 39.5247 13.4991 41.228 13.4991C41.8394 13.4991 42.7129 13.2799 43.4117 12.8855L41.9268 10.9132Z" fill="#BF0000"/>
  <path d="M23.4092 7.97671L27.2961 3.28711H24.108L21.4439 6.74953V0H19.1292V13.2361H21.4439V9.16007L24.7631 13.2361H27.9076L23.4092 7.97671Z" fill="#BF0000"/>
  <path d="M47.1239 3.06799C44.5035 3.06799 42.6692 5.34705 42.6692 8.28354C42.6692 11.3515 45.0276 13.4991 47.3423 13.4991C48.5215 13.4991 50.05 13.1046 51.3166 11.2638L49.3513 10.1243C47.8227 12.4034 45.2459 11.2638 44.9402 8.98479H51.4039C51.9717 5.39088 49.657 3.06799 47.1239 3.06799ZM49.0892 6.96869H45.0276C45.508 4.6458 48.6088 4.51432 49.0892 6.96869Z" fill="#BF0000"/>
</svg>
