<svg width="32" height="32" viewBox="0 0 32 32" fill="none" xmlns="http://www.w3.org/2000/svg">
<path d="M5.06667 0H26.9333C29.7317 0 32 2.26827 32 5.06667V26.9333C32 29.7317 29.7317 32 26.9333 32H5.06667C2.26827 32 0 29.7317 0 26.9333V5.06667C0 2.26827 2.26827 0 5.06667 0Z" fill="#EBEBEB"/>
<path d="M3.33331 11.6741C3.33331 13.9653 5.11358 15.9157 7.40158 15.9973C9.80371 16.0826 11.7781 14.1594 11.7781 11.7754V7.33435H4.33331C3.78078 7.33435 3.33331 7.78182 3.33331 8.33435V11.6741Z" fill="#EC0606"/>
<path d="M20.2219 11.6741C20.2219 13.9653 22.0021 15.9157 24.2901 15.9973C26.6923 16.0826 28.6667 14.1594 28.6667 11.7754V8.33435C28.6667 7.78182 28.2192 7.33435 27.6667 7.33435H20.2219V11.6741Z" fill="#134FF3"/>
<path d="M11.7776 11.6741C11.7776 13.9653 13.5579 15.9157 15.8459 15.9973C18.248 16.0826 20.2224 14.1594 20.2224 11.7754V7.33435H11.7776V11.6741Z" fill="white"/>
<path d="M5.56002 25.3333L4.66669 24.584H10.9318L5.56002 25.3333Z" fill="#BF0000"/>
<path d="M6.57758 24.0213V22.3605H7.29705L8.54291 24.0213H9.81651L8.31091 22.0176C8.78025 21.681 9.08798 21.1333 9.08798 20.513C9.08798 19.4944 8.25971 18.6666 7.24105 18.6666H5.55945V24.0213H6.57758ZM6.57758 19.6837H7.24158C7.69865 19.6837 8.07198 20.0554 8.07198 20.513C8.07198 20.9722 7.69811 21.3434 7.24158 21.3434H6.57758V19.6837Z" fill="#BF0000"/>
<path d="M15.7499 20.6458C15.7499 20.4666 15.6048 20.321 15.4251 20.321H10.9925C10.8123 20.321 10.6661 20.4672 10.6661 20.6474V21.3232C10.6661 21.5034 10.8123 21.6496 10.9925 21.6496H14.3307C14.3941 21.6496 14.4448 21.7034 14.4389 21.7669C14.4085 22.1018 14.2485 22.5589 13.8715 22.8976C13.5435 23.1925 13.1104 23.3445 12.5803 23.3504C12.3797 23.353 12.2267 23.5301 12.2576 23.728L12.3573 24.3706C12.3829 24.536 12.5307 24.657 12.6976 24.6469C13.7397 24.5861 14.3637 24.2106 14.7451 23.8682C15.4859 23.2021 15.7499 22.2858 15.7499 21.6506V20.6458Z" fill="black"/>
<path d="M14.7504 18.6672H11.6667C11.4859 18.6672 11.3392 18.8134 11.3392 18.9936V19.6459C11.3392 19.8262 11.4859 19.9723 11.6667 19.9723H14.7504C14.9312 19.9723 15.0779 19.8262 15.0779 19.6459V18.9936C15.0774 18.8128 14.9307 18.6672 14.7504 18.6672Z" fill="black"/>
<path d="M21.0411 18.8357H17.3995C17.2629 18.8357 17.1413 18.921 17.0944 19.0496L16.4875 20.7173C16.4251 20.8874 16.5136 21.0757 16.6837 21.1376L17.2933 21.3594C17.4635 21.4218 17.6517 21.3333 17.7136 21.1632L18.0597 20.2122C18.0752 20.1696 18.1157 20.1408 18.1616 20.1408H19.9557C20.0155 20.1408 20.064 20.1888 20.064 20.249V21.6528C20.064 21.9909 19.9141 22.5205 19.4912 22.9002C19.1632 23.1952 18.7301 23.3472 18.2 23.353C17.9995 23.3557 17.8464 23.5328 17.8773 23.7306L17.9765 24.3685C18.0027 24.5344 18.1504 24.656 18.3179 24.6464C19.3595 24.5882 19.9835 24.2128 20.3643 23.8704C21.1051 23.2042 21.3691 22.288 21.3691 21.6528V19.4885V19.1637C21.3691 18.9829 21.2224 18.8357 21.0411 18.8357Z" fill="black"/>
<path d="M26.2155 23.6677L25.5526 22.8768C25.8864 22.7322 26.1376 22.553 26.3286 22.3813C27.0694 21.7152 27.3334 20.7989 27.3334 20.1637V19.1605C27.3334 18.9813 27.1883 18.8357 27.0086 18.8357H22.576C22.3958 18.8357 22.2496 18.9818 22.2496 19.1621V19.8378C22.2496 20.0181 22.3958 20.1642 22.576 20.1642H25.9142C25.9776 20.1642 26.0283 20.2181 26.0224 20.2816C25.992 20.6165 25.832 21.0736 25.455 21.4122C25.2352 21.6096 24.967 21.7418 24.6555 21.8096L23.9952 21.0224C23.8656 20.8672 23.648 20.8357 23.5099 20.9514L23.0102 21.3706C22.872 21.4864 22.8656 21.7061 22.9958 21.8608L25.2155 24.5061C25.3451 24.6613 25.5627 24.6928 25.7008 24.577L26.2006 24.1578C26.3387 24.0426 26.3451 23.8229 26.2155 23.6677Z" fill="black"/>
</svg>
