<svg width="44" height="44" viewBox="0 0 44 44" fill="none" xmlns="http://www.w3.org/2000/svg">
<mask id="mask0" mask-type="alpha" maskUnits="userSpaceOnUse" x="0" y="0" width="44" height="44">
<circle cx="22" cy="22" r="22" fill="#C4C4C4"/>
</mask>
<g mask="url(#mask0)">
<path d="M37.5036 6.39092C28.9121 -2.20062 14.9824 -2.20062 6.39089 6.39092L21.9472 21.9473L37.5036 6.39092Z" fill="#FFC700"/>
<path d="M6.39089 6.39092C-2.20065 14.9824 -2.20065 28.9121 6.39088 37.5036L21.9472 21.9473L6.39089 6.39092Z" fill="#00CE01"/>
<path d="M37.5036 37.5036C46.0951 28.9121 46.0951 14.9825 37.5036 6.39092L21.9472 21.9473L37.5036 37.5036Z" fill="#FF3939"/>
<path d="M6.39089 37.5036C14.9824 46.0951 28.912 46.0951 37.5036 37.5036L21.9472 21.9473L6.39089 37.5036Z" fill="#00A0F0"/>
</g>
<mask id="mask1" mask-type="alpha" maskUnits="userSpaceOnUse" x="0" y="0" width="44" height="44">
<circle cx="22" cy="22" r="22" fill="#C4C4C4"/>
</mask>
<g mask="url(#mask1)">
<path d="M37.5036 6.39092C28.9121 -2.20062 14.9824 -2.20062 6.39089 6.39092L21.9472 21.9473L37.5036 6.39092Z" fill="#EFF273"/>
<path d="M6.39089 6.39092C-2.20065 14.9824 -2.20065 28.9121 6.39088 37.5036L21.9472 21.9473L6.39089 6.39092Z" fill="#4DF388"/>
<path d="M37.5036 37.5036C46.0951 28.9121 46.0951 14.9825 37.5036 6.39092L21.9472 21.9473L37.5036 37.5036Z" fill="#FD7562"/>
<path d="M6.39089 37.5036C14.9824 46.0951 28.912 46.0951 37.5036 37.5036L21.9472 21.9473L6.39089 37.5036Z" fill="#54ADFF"/>
</g>
</svg>
