<svg width="24" height="12" viewBox="0 0 24 12" fill="none" xmlns="http://www.w3.org/2000/svg">
    <path d="M6.948 6.056H4.656C4.116 6.056 3.744 6.032 3.42 5.984V6.836C3.768 6.788 4.14 6.764 4.656 6.764H6.948V10.46H5.172C4.608 10.46 4.224 10.436 3.876 10.388V11.24C4.296 11.18 4.692 11.156 5.172 11.156H9.708C10.188 11.156 10.584 11.18 11.004 11.24V10.388C10.644 10.436 10.272 10.46 9.708 10.46H7.74V6.764H10.248C10.776 6.764 11.124 6.788 11.496 6.836V5.972C11.124 6.032 10.74 6.056 10.248 6.056H7.74V3.056C8.904 2.732 9.444 2.528 10.836 1.916L10.236 1.244C9.864 1.532 9.192 1.832 8.34 2.132C7.032 2.576 5.52 2.9 3.744 3.104C3.96 3.392 4.02 3.5 4.128 3.824C5.076 3.68 5.772 3.536 6.948 3.26V6.056ZM1.992 10.304C1.992 10.952 1.968 11.336 1.908 11.768H2.844C2.784 11.324 2.76 10.88 2.76 10.328V3.932C3.312 2.84 3.408 2.624 3.792 1.604C3.852 1.436 3.876 1.376 3.936 1.244L3.108 0.956C3.048 1.376 2.832 2.024 2.544 2.696C1.968 4.04 1.236 5.132 0.324 6.044C0.516 6.248 0.672 6.476 0.816 6.74C1.38 6.08 1.74 5.564 2.04 4.964C2.004 5.612 1.992 5.996 1.992 6.464V10.304ZM17.532 1.916H14.76C14.196 1.916 13.848 1.892 13.572 1.844V2.588C13.932 2.552 14.232 2.54 14.748 2.54H15.48C15.768 3.164 15.84 3.344 15.972 3.716H14.172C13.476 3.716 13.068 3.692 12.732 3.644V4.412C13.068 4.364 13.428 4.352 14.148 4.352H21.9C22.62 4.352 22.992 4.364 23.316 4.412V3.644C22.98 3.704 22.632 3.716 21.912 3.716H19.944C20.172 3.332 20.316 3.044 20.544 2.54H21.252C21.792 2.54 22.116 2.552 22.5 2.588V1.844C22.2 1.892 21.852 1.916 21.264 1.916H18.312V1.688C18.312 1.4 18.336 1.148 18.384 0.872H17.46C17.508 1.172 17.532 1.412 17.532 1.688V1.916ZM16.752 3.716C16.596 3.272 16.428 2.888 16.26 2.54H19.74C19.572 2.96 19.38 3.332 19.152 3.716H16.752ZM20.496 8.552C20.928 8.552 21.48 8.564 21.78 8.588C21.744 8.312 21.732 8.024 21.732 7.58V6.08C21.732 5.576 21.744 5.288 21.78 5.036C21.456 5.072 21.096 5.084 20.424 5.084H15.516C14.892 5.084 14.556 5.072 14.196 5.036C14.232 5.336 14.244 5.6 14.244 6.092V7.604C14.244 8.072 14.232 8.324 14.196 8.588C14.592 8.564 14.94 8.552 15.516 8.552H20.496ZM14.952 5.684H21.024V6.5H14.952V5.684ZM14.952 7.076H21.024V7.952H14.952V7.076ZM13.284 11.66C14.028 10.82 14.352 10.304 14.76 9.32L14.076 9.008C13.728 9.944 13.416 10.412 12.636 11.192L13.284 11.66ZM16.308 9.944C16.308 9.512 16.32 9.32 16.38 9.032H15.492C15.54 9.296 15.564 9.596 15.564 9.944V10.94C15.564 11.612 15.888 11.708 18.096 11.708C20.82 11.708 20.916 11.648 20.988 9.776C20.628 9.704 20.556 9.68 20.244 9.5C20.256 9.584 20.256 9.632 20.256 9.692C20.256 10.304 20.196 10.724 20.088 10.82C19.896 11.012 19.5 11.048 17.856 11.048C17.16 11.048 16.752 11.024 16.548 10.976C16.356 10.928 16.308 10.868 16.308 10.712V9.944ZM23.4 11.012C22.812 10.196 22.38 9.68 21.636 8.936L21.024 9.284C21.732 9.992 22.176 10.544 22.776 11.468L23.4 11.012ZM19.212 10.088C18.66 9.476 18.276 9.14 17.688 8.732L17.172 9.104C17.796 9.572 18.096 9.872 18.612 10.532L19.212 10.088Z" fill="#717171"/>
</svg>
