<svg width="40" height="40" viewBox="0 0 40 40" fill="none" xmlns="http://www.w3.org/2000/svg">
<rect width="40" height="40" fill="#E5E5E5"/>
<g id="Page SP ItemReview">
<rect width="375" height="3938" transform="translate(-24 -3341)" fill="#F7F7F7"/>
<g id="GlobalFooter SP">
<rect width="375" height="618" transform="translate(-24 -21)" fill="white"/>
<g id="Promotion List">
<rect width="375" height="130" transform="translate(-24 -12)" fill="white"/>
<g id="ListItem">
<rect width="375" height="65" transform="translate(-24 -12)" fill="white"/>
<g id="Contents">
<g id="Main">
<g id="PrefixElement">
<g id="Images" clip-path="url(#clip0)">
<g id="App / Ichiba">
<g id="Group">
<path id="Vector" d="M6.33333 0.5H33.6667C36.8885 0.5 39.5 3.11148 39.5 6.33333V33.6667C39.5 36.8885 36.8885 39.5 33.6667 39.5H6.33333C3.11148 39.5 0.5 36.8885 0.5 33.6667V6.33333C0.5 3.11148 3.11148 0.5 6.33333 0.5Z" fill="white" stroke="#D1D1D1"/>
<g id="Logo / R Symbol">
<g id="Vector_2">
<path d="M12.9719 32.9188L9.60508 30.0953H33.2234L12.9719 32.9188Z" fill="#BF0000"/>
<path fill-rule="evenodd" clip-rule="evenodd" d="M16.8059 21.7113V27.9727H12.9719V7.78711H19.3094C23.1484 7.78711 26.2715 10.9102 26.2715 14.7492C26.2715 17.0852 25.1086 19.152 23.3414 20.4215L29.0238 27.9727H24.2199L19.5176 21.7113H16.8059ZM19.3094 11.6211H16.8058V17.8773H19.3094C21.0359 17.8773 22.4426 16.4809 22.4426 14.7492C22.4426 13.0227 21.0308 11.6211 19.3094 11.6211Z" fill="#BF0000"/>
</g>
</g>
</g>
</g>
</g>
</g>
</g>
</g>
</g>
</g>
</g>
</g>
<defs>
<clipPath id="clip0">
<rect width="40" height="40" fill="white"/>
</clipPath>
</defs>
</svg>