<svg width="36" height="48" viewBox="0 0 36 48" fill="none" xmlns="http://www.w3.org/2000/svg">
<path d="M18 12C8.6 12 1 19.6 1 29C1 31.1 1.4 33.1 2.1 34.9L23.9 13.1C22.1 12.4 20.1 12 18 12Z" fill="#808080"/>
<path d="M23.9 13.1L2.09998 34.9C4.49998 41.4 10.7 46 18 46C27.4 46 35 38.4 35 29C35 21.7 30.4 15.5 23.9 13.1Z" fill="#262626"/>
<path d="M26.1 12.9L33.4 9.2C33.8 9.1 34 8.8 34 8.4V0H24V12C22.1 11.3 20.1 11 18 11C15.9 11 13.9 11.4 12 12V0H2V8.4C2 8.8 2.2 9.1 2.6 9.3L9.9 13C4 15.9 0 22 0 29C0 38.9 8.1 47 18 47C27.9 47 36 38.9 36 29C36 22 32 15.9 26.1 12.9ZM18 44C9.7 44 3 37.3 3 29C3 20.7 9.7 14 18 14C26.3 14 33 20.7 33 29C33 37.3 26.3 44 18 44Z" fill="black"/>
<path d="M18.5 19.6C23.4 19.6 27 23.6 27 29C27 34.6 23.5 38.5 18.5 38.5H12.3V19.6H18.5ZM16 35.1H18.6C21.4 35.1 23.3 32.6 23.3 29C23.3 25.4 21.4 22.9 18.6 22.9H16V35.1Z" fill="white"/>
<path d="M18 11C20.1 11 22.1 11.4 24 12V0H12V12C13.9 11.4 15.9 11 18 11Z" fill="#404040"/>
</svg>
