<svg width="24" height="24" viewBox="0 0 24 24" fill="none" xmlns="http://www.w3.org/2000/svg">
<path d="M12 0.699997C5.70001 0.699997 0.700012 5.7 0.700012 12C0.700012 13.4 1.00001 14.7 1.40001 15.9L15.9 1.4C14.7 0.899997 13.4 0.699997 12 0.699997Z" fill="#99B7DD"/>
<path d="M15.9 1.39999L1.40002 15.9C3.00002 20.3 7.10002 23.3 12 23.3C18.3 23.3 23.3 18.2 23.3 12C23.3 7.09999 20.3 2.99999 15.9 1.39999Z" fill="#004BAA"/>
<path d="M12 1.3C17.9 1.3 22.7 6.1 22.7 12C22.7 17.9 17.9 22.7 12 22.7C6.1 22.7 1.3 17.9 1.3 12C1.3 6.1 6.1 1.3 12 1.3ZM12 0C5.4 0 0 5.4 0 12C0 18.6 5.4 24 12 24C18.6 24 24 18.6 24 12C24 5.4 18.6 0 12 0Z" fill="#2F8CC2"/>
<path d="M12.9 5.7C15.4 5.7 17.2 7.5 17.2 10C17.2 12.4 15.3 14.3 12.9 14.3H10.7V18.4H8.29999V5.7H12.9ZM12.7 12C13.8 12 14.6 11.1 14.6 10C14.6 8.9 13.8 8 12.7 8H10.7V12H12.7Z" fill="white"/>
<path d="M12 2C17.5 2 22 6.5 22 12C22 17.5 17.5 22 12 22C6.5 22 2 17.5 2 12C2 6.5 6.5 2 12 2ZM12 0C5.4 0 0 5.4 0 12C0 18.6 5.4 24 12 24C18.6 24 24 18.6 24 12C24 5.4 18.6 0 12 0Z" fill="#2382B4"/>
</svg>
