<svg width="36" height="48" viewBox="0 0 36 48" fill="none" xmlns="http://www.w3.org/2000/svg">
<path d="M18 12C8.6 12 1 19.6 1 29C1 31.1 1.4 33.1 2.1 34.9L23.9 13.1C22.1 12.4 20.1 12 18 12Z" fill="#EFEFEF"/>
<path d="M23.9001 13.1L2.1001 34.9C4.5001 41.4 10.7001 46 18.0001 46C27.4001 46 35.0001 38.4 35.0001 29C35.0001 21.7 30.4001 15.5 23.9001 13.1Z" fill="#C9C9C9"/>
<path d="M26.1 12.9L33.4 9.2C33.8 9.1 34 8.8 34 8.4V0H24V12C22.1 11.3 20.1 11 18 11C15.9 11 13.9 11.4 12 12V0H2V8.4C2 8.8 2.2 9.1 2.6 9.3L9.9 13C4 15.9 0 22 0 29C0 38.9 8.1 47 18 47C27.9 47 36 38.9 36 29C36 22 32 15.9 26.1 12.9ZM18 44C9.7 44 3 37.3 3 29C3 20.7 9.7 14 18 14C26.3 14 33 20.7 33 29C33 37.3 26.3 44 18 44Z" fill="#646464"/>
<path d="M19.3 27.3C17.1 26.6 17.1 26.6 16.7 26.3C15.9 25.9 15.6 25.4 15.6 24.7C15.6 23.5 16.7 22.5 18.1 22.5C19.4 22.5 20.6 23.1 21.5 24.2L23.8 21.5C22.2 19.9 20.3 19.1 18.1 19.1C14.5 19.1 11.8 21.5 11.8 24.6C11.8 27.4 13.4 29 17.5 30.3C19 30.8 19.2 30.9 19.8 31.2C20.6 31.7 21 32.2 21 33.2C21 34.6 19.9 35.5 18.1 35.5C16.5 35.5 14.9 34.6 13.8 33.2L11.5 35.7C13.2 37.8 15.5 38.9 18.1 38.9C22.1 38.9 24.9 36.6 24.9 33.3C24.7 30.4 23.1 28.6 19.3 27.3Z" fill="#646464"/>
<path d="M18 11C20.1 11 22.1 11.4 24 12V0H12V12C13.9 11.4 15.9 11 18 11Z" fill="#838383"/>
</svg>
