<svg width="24" height="24" viewBox="0 0 24 24" fill="none" xmlns="http://www.w3.org/2000/svg">
<path d="M12 0.699997C5.70001 0.699997 0.700012 5.7 0.700012 12C0.700012 13.4 1.00001 14.7 1.40001 15.9L15.9 1.4C14.7 0.899997 13.4 0.699997 12 0.699997Z" fill="#FBF4CE"/>
<path d="M15.9 1.39999L1.40002 15.9C3.00002 20.3 7.10002 23.3 12 23.3C18.3 23.3 23.3 18.2 23.3 12C23.3 7.09999 20.3 2.99999 15.9 1.39999Z" fill="#F0D23C"/>
<path d="M12 0C5.4 0 0 5.4 0 12C0 18.6 5.4 24 12 24C18.6 24 24 18.6 24 12C24 5.4 18.6 0 12 0ZM12 22C6.5 22 2 17.5 2 12C2 6.5 6.5 2 12 2C17.5 2 22 6.5 22 12C22 17.5 17.5 22 12 22Z" fill="#99740E"/>
<path d="M12.1 13.8H14.5V15.4C14 16 13.1 16.3 12.2 16.3C10.2 16.3 8.80001 14.5 8.80001 12C8.80001 9.49999 10.1 7.69999 11.9 7.69999C13.1 7.69999 14.1 8.39999 14.7 9.69999L16.7 8.49999C15.7 6.49999 13.9 5.39999 11.9 5.39999C8.70001 5.39999 6.20001 8.29999 6.20001 12C6.20001 15.8 8.70001 18.5 12.1 18.5C14 18.5 15.5 17.8 16.8 16.5V11.4H12V13.8H12.1Z" fill="#99740E"/>
</svg>
