<svg width="24" height="24" viewBox="0 0 24 24" fill="none" xmlns="http://www.w3.org/2000/svg">
<path d="M12 0.699997C5.70001 0.699997 0.700012 5.7 0.700012 12C0.700012 13.4 1.00001 14.7 1.40001 15.9L15.9 1.4C14.7 0.899997 13.4 0.699997 12 0.699997Z" fill="#808080"/>
<path d="M15.9 1.39999L1.40002 15.9C3.00002 20.3 7.10002 23.3 12 23.3C18.3 23.3 23.3 18.2 23.3 12C23.3 7.09999 20.3 2.99999 15.9 1.39999Z" fill="#262626"/>
<path d="M12 2C17.5 2 22 6.5 22 12C22 17.5 17.5 22 12 22C6.5 22 2 17.5 2 12C2 6.5 6.5 2 12 2ZM12 0C5.4 0 0 5.4 0 12C0 18.6 5.4 24 12 24C18.6 24 24 18.6 24 12C24 5.4 18.6 0 12 0Z" fill="black"/>
<path d="M12.4 5.7C15.7 5.7 18.1 8.3 18.1 12C18.1 15.7 15.8 18.3 12.4 18.3H8.29999V5.7H12.4ZM10.7 16.1H12.4C14.3 16.1 15.5 14.5 15.5 12C15.5 9.6 14.2 8 12.4 8H10.7V16.1Z" fill="white"/>
</svg>
