<svg width="24" height="24" viewBox="0 0 24 24" fill="none" xmlns="http://www.w3.org/2000/svg">
<path d="M12 0.699997C5.70001 0.699997 0.700012 5.7 0.700012 12C0.700012 13.4 1.00001 14.7 1.40001 15.9L15.9 1.4C14.7 0.899997 13.4 0.699997 12 0.699997Z" fill="#EFEFEF"/>
<path d="M15.9 1.39999L1.40002 15.9C3.00002 20.3 7.10002 23.3 12 23.3C18.3 23.3 23.3 18.2 23.3 12C23.3 7.09999 20.3 2.99999 15.9 1.39999Z" fill="#C9C9C9"/>
<path d="M12 0C5.4 0 0 5.4 0 12C0 18.6 5.4 24 12 24C18.6 24 24 18.6 24 12C24 5.4 18.6 0 12 0ZM12 22C6.5 22 2 17.5 2 12C2 6.5 6.5 2 12 2C17.5 2 22 6.5 22 12C22 17.5 17.5 22 12 22Z" fill="#646464"/>
<path d="M12.9 10.9C11.4 10.4 11.4 10.4 11.2 10.3C10.7 10 10.5 9.7 10.5 9.2C10.5 8.4 11.2 7.8 12.2 7.8C13 7.8 13.8 8.2 14.5 8.9L16 7.1C14.9 6.1 13.6 5.5 12.2 5.5C9.80001 5.5 8.00001 7.1 8.00001 9.2C8.00001 11 9.10001 12.1 11.8 13C12.8 13.3 13 13.4 13.3 13.6C13.8 13.9 14.1 14.3 14.1 14.9C14.1 15.8 13.3 16.4 12.1 16.4C11.1 16.4 10 15.8 9.20001 14.8L7.70001 16.5C8.80001 17.9 10.4 18.6 12.1 18.6C14.8 18.6 16.6 17 16.6 14.8C16.5 12.9 15.4 11.7 12.9 10.9Z" fill="#646464"/>
</svg>
