<svg width="36" height="48" viewBox="0 0 36 48" fill="none" xmlns="http://www.w3.org/2000/svg">
<path d="M18 12C8.6 12 1 19.6 1 29C1 31.1 1.4 33.1 2.1 34.9L23.9 13.1C22.1 12.4 20.1 12 18 12Z" fill="#99B7DD"/>
<path d="M23.9 13.1L2.09998 34.9C4.49998 41.4 10.7 46 18 46C27.4 46 35 38.4 35 29C35 21.7 30.4 15.5 23.9 13.1Z" fill="#004BAA"/>
<path d="M18 13C26.8 13 34 20.2 34 29C34 37.8 26.8 45 18 45C9.2 45 2 37.8 2 29C2 20.2 9.2 13 18 13ZM18 11C8.1 11 0 19.1 0 29C0 38.9 8.1 47 18 47C27.9 47 36 38.9 36 29C36 19.1 27.9 11 18 11Z" fill="#2F8CC2"/>
<path d="M19.3 19.6C23 19.6 25.8 22.4 25.8 26C25.8 29.6 23 32.4 19.3 32.4H16.1V38.5H12.5V19.6H19.3ZM19.1 29C20.7 29 22 27.7 22 25.9C22 24.2 20.8 22.9 19.1 22.9H16.1V29H19.1Z" fill="white"/>
<path d="M26.1 12.9L33.4 9.2C33.8 9.1 34 8.8 34 8.4V0H24V12C22.1 11.3 20.1 11 18 11C15.9 11 13.9 11.4 12 12V0H2V8.4C2 8.8 2.2 9.1 2.6 9.3L9.9 13C4 15.9 0 22 0 29C0 38.9 8.1 47 18 47C27.9 47 36 38.9 36 29C36 22 32 15.9 26.1 12.9ZM18 44C9.7 44 3 37.3 3 29C3 20.7 9.7 14 18 14C26.3 14 33 20.7 33 29C33 37.3 26.3 44 18 44Z" fill="#2382B4"/>
<path d="M18 11C20.1 11 22.1 11.4 24 12V0H12V12C13.9 11.4 15.9 11 18 11Z" fill="#4F9BC3"/>
</svg>
