<svg width="36" height="48" viewBox="0 0 36 48" fill="none" xmlns="http://www.w3.org/2000/svg">
<path d="M18 12C8.6 12 1 19.6 1 29C1 31.1 1.4 33.1 2.1 34.9L23.9 13.1C22.1 12.4 20.1 12 18 12Z" fill="#FBF4CE"/>
<path d="M23.9 13.1L2.09998 34.9C4.49998 41.4 10.7 46 18 46C27.4 46 35 38.4 35 29C35 21.7 30.4 15.5 23.9 13.1Z" fill="#F0D23C"/>
<path d="M26.1 12.9L33.4 9.2C33.8 9.1 34 8.8 34 8.4V0H24V12C22.1 11.3 20.1 11 18 11C15.9 11 13.9 11.4 12 12V0H2V8.4C2 8.8 2.2 9.1 2.6 9.3L9.9 13C4 15.9 0 22 0 29C0 38.9 8.1 47 18 47C27.9 47 36 38.9 36 29C36 22 32 15.9 26.1 12.9ZM18 44C9.7 44 3 37.3 3 29C3 20.7 9.7 14 18 14C26.3 14 33 20.7 33 29C33 37.3 26.3 44 18 44Z" fill="#99740E"/>
<path d="M18.1 31.7H21.8V34.1C21 35 19.7 35.5 18.3 35.5C15.3 35.5 13.2 32.8 13.2 29C13.2 25.3 15.2 22.5 17.9 22.5C19.7 22.5 21.1 23.6 22 25.5L25.1 23.7C23.6 20.8 21 19.1 17.9 19.1C13.1 19.1 9.40002 23.4 9.40002 29C9.40002 34.7 13.1 38.8 18.3 38.8C21.1 38.8 23.4 37.8 25.3 35.9V28.3H18.1V31.7Z" fill="#99740E"/>
<path d="M18 11C20.1 11 22.1 11.4 24 12V0H12V12C13.9 11.4 15.9 11 18 11Z" fill="#AD903E"/>
</svg>
