<svg width="26" height="14" viewBox="0 0 26 14" fill="none" xmlns="http://www.w3.org/2000/svg">
<rect opacity="0.6" x="0.5" y="0.5" width="25" height="13" stroke="#BF0000"/>
<path d="M6.66 9.61C7.38 9.01 7.6 8.81 8.05 8.31C9.25 7.01 10.06 5.82 10.77 4.33C10.96 3.93 10.99 3.87 11.1 3.67L10.38 3.37C10.16 4.27 9.55 5.4 8.66 6.61C7.97 7.55 7.47 8.09 6.66 8.82V5.76C6.66 5.39 6.68 5.11 6.73 4.82H5.95C6 5.23 6.02 5.45 6.02 5.77V9.3C5.08 10.02 4.47 10.38 3.42 10.86C3.66 11.05 3.76 11.17 3.91 11.42C4.84 10.92 5.24 10.66 6.02 10.08V10.66C6.02 11.36 6.41 11.52 8.11 11.52C9.2 11.52 9.74 11.46 10.03 11.29C10.42 11.07 10.58 10.51 10.71 8.94C10.46 8.89 10.31 8.83 10.05 8.69C10.03 9.4 10.01 9.67 9.94 10.07C9.85 10.6 9.76 10.74 9.5 10.82C9.27 10.89 8.81 10.93 8.19 10.93C6.94 10.93 6.66 10.85 6.66 10.51V9.61ZM5.98 3.12C7.3 3.65 8.03 4.05 8.94 4.74L9.35 4.17C8.33 3.49 7.67 3.14 6.37 2.62L5.98 3.12ZM4.5 5.83C4.37 6.69 4.28 7.09 4.04 7.82C3.84 8.45 3.71 8.74 3.37 9.37L3.98 9.73C4.59 8.42 4.83 7.65 5.15 6.01L4.5 5.83ZM10.45 6.22C10.85 6.84 11.01 7.12 11.27 7.72C11.6 8.46 11.77 8.94 12.04 9.88L12.67 9.51C12.16 8.01 11.7 7.02 11.01 5.91L10.45 6.22ZM19.14 3.63C19.02 4.01 18.89 4.32 18.7 4.67H17.98C17.54 4.67 17.37 4.66 17.13 4.63C17.16 4.91 17.17 5.18 17.17 5.53V8.83C17.17 9.19 17.16 9.49 17.13 9.78C17.41 9.75 17.64 9.74 18 9.74H21.03C21.39 9.74 21.67 9.75 21.93 9.78C21.9 9.51 21.89 9.22 21.89 8.8V5.58C21.89 5.15 21.9 4.88 21.93 4.63C21.71 4.66 21.45 4.67 21.01 4.67H19.35C19.5 4.37 19.65 4.02 19.79 3.63H21.45C21.99 3.63 22.23 3.64 22.44 3.68V3C22.16 3.04 21.83 3.06 21.42 3.06H17.83C17.42 3.06 17.11 3.04 16.83 3V3.68C17.1 3.64 17.34 3.63 17.79 3.63H19.14ZM17.78 5.2H21.28V6.16H17.78V5.2ZM17.78 6.68H21.28V7.64H17.78V6.68ZM17.78 8.16H21.28V9.2H17.78V8.16ZM16.07 2.73C15.96 2.91 15.86 3.02 15.64 3.24C14.96 3.92 14.34 4.35 13.45 4.75C13.57 4.9 13.72 5.13 13.81 5.34C14.74 4.84 15.53 4.25 16.38 3.42C16.56 3.24 16.56 3.24 16.65 3.16L16.07 2.73ZM16.27 8.14C16.14 8.38 16.02 8.56 15.78 8.83C14.97 9.76 14.3 10.29 13.35 10.74C13.52 10.93 13.63 11.09 13.74 11.33C14.94 10.64 15.7 9.97 16.84 8.6L16.27 8.14ZM19.94 10.21C20.67 10.92 21.25 11.28 22.28 11.7C22.38 11.5 22.49 11.32 22.64 11.15C21.63 10.8 21.14 10.51 20.44 9.86L19.94 10.21ZM16.2 5.32C16.08 5.5 15.96 5.65 15.7 5.91C14.9 6.69 14.31 7.1 13.42 7.49C13.59 7.73 13.66 7.85 13.76 8.09C14.65 7.64 15.44 7.06 16.26 6.25C16.6 5.91 16.6 5.91 16.74 5.78L16.2 5.32ZM18.25 9.89C17.53 10.54 16.99 10.84 15.89 11.2C16.05 11.38 16.17 11.55 16.26 11.72C17.35 11.3 17.88 10.99 18.7 10.27L18.25 9.89Z" fill="#BF0000"/>
</svg>