<svg width="28" height="16" viewBox="0 0 28 16" fill="none" xmlns="http://www.w3.org/2000/svg">
<path d="M0 2C0 0.895431 0.895431 0 2 0H26C27.1046 0 28 0.895431 28 2V14C28 15.1046 27.1046 16 26 16H2C0.895431 16 0 15.1046 0 14V2Z" fill="#551B5F"/>
<path d="M12.24 6.27C12.74 6.27 13.02 6.29 13.34 6.34V5.56C13.07 5.61 12.74 5.63 12.23 5.63H9.2C9.23 5.2 9.24 4.91 9.25 4.4C9.25 3.91 9.27 3.69 9.32 3.36H8.5C8.54 3.63 8.57 3.99 8.57 4.45C8.57 4.84 8.56 5.15 8.53 5.63H5.77C5.24 5.63 4.91 5.61 4.65 5.56V6.34C4.94 6.29 5.22 6.27 5.75 6.27H8.47C8.28 7.8 7.86 8.86 7.08 9.76C6.43 10.51 5.7 11 4.45 11.51C4.66 11.73 4.74 11.84 4.88 12.12C5.86 11.67 6.41 11.32 7.04 10.76C8.06 9.84 8.72 8.63 8.99 7.17C9.71 9.46 10.95 10.92 13.19 12.11C13.35 11.79 13.43 11.68 13.63 11.44C12.49 10.95 11.65 10.34 10.92 9.49C10.16 8.6 9.63 7.55 9.29 6.27H12.24ZM20.84 9.52C21.26 9.52 21.49 9.53 21.74 9.57V8.98C21.48 9.02 21.28 9.03 20.85 9.03H19.15C19.2 8.74 19.21 8.58 19.23 8.14H20.68C21.04 8.14 21.31 8.15 21.53 8.18V7.61C21.29 7.65 21.08 7.66 20.68 7.66H20.11C20.33 7.35 20.48 7.12 20.67 6.77L20.11 6.6C19.92 7.03 19.8 7.25 19.51 7.66H18.49C18.29 7.3 18.1 7.01 17.79 6.61L17.28 6.82C17.58 7.17 17.7 7.34 17.89 7.66H17.38C16.97 7.66 16.76 7.65 16.53 7.61V8.18C16.75 8.15 17.01 8.14 17.38 8.14H18.65C18.64 8.61 18.63 8.73 18.59 9.03H17.19C16.77 9.03 16.53 9.02 16.3 8.98V9.57C16.57 9.53 16.8 9.52 17.21 9.52H18.47C18.34 9.92 18.17 10.19 17.91 10.43C17.51 10.79 16.99 11.04 16.14 11.28C16.31 11.44 16.41 11.58 16.51 11.8C17.95 11.28 18.57 10.77 18.95 9.81C19.48 10.58 20.2 11.11 21.25 11.48C21.15 11.47 21.14 11.47 21.03 11.45C21.12 11.67 21.15 11.79 21.18 12.08C21.51 12.1 21.84 12.12 22.12 12.12C22.92 12.12 23.09 11.97 23.09 11.29V4.54C23.09 4.1 23.1 3.82 23.14 3.44C22.86 3.47 22.6 3.48 22.09 3.48H20.4C19.9 3.48 19.66 3.47 19.38 3.44C19.4 3.74 19.41 4.04 19.41 4.39V5.48C19.41 5.84 19.4 6.14 19.38 6.4C19.65 6.38 19.97 6.37 20.4 6.37H22.47V11.26C22.47 11.49 22.39 11.55 22.12 11.55C21.86 11.55 21.61 11.53 21.25 11.48C21.34 11.25 21.41 11.12 21.55 10.92C20.51 10.64 19.81 10.2 19.33 9.52H20.84ZM19.99 3.95H22.47V4.68H19.99V3.95ZM19.99 5.14H22.47V5.9H19.99V5.14ZM15.6 6.37H17.49C17.91 6.37 18.22 6.38 18.5 6.4C18.48 6.15 18.47 5.87 18.47 5.48V4.39C18.47 4.02 18.48 3.72 18.5 3.44C18.22 3.47 17.98 3.48 17.48 3.48H15.98C15.48 3.48 15.22 3.47 14.94 3.44C14.97 3.76 14.98 4.05 14.98 4.54V11.09C14.98 11.63 14.96 11.94 14.92 12.21H15.66C15.62 11.96 15.6 11.66 15.6 11.09V6.37ZM15.6 3.95H17.9V4.68H15.6V3.95ZM15.6 5.14H17.9V5.9H15.6V5.14Z" fill="white"/>
</svg>
