<svg width="28" height="16" viewBox="0 0 28 16" fill="none" xmlns="http://www.w3.org/2000/svg">
<path d="M0 2C0 0.895431 0.895431 0 2 0H26C27.1046 0 28 0.895431 28 2V14C28 15.1046 27.1046 16 26 16H2C0.895431 16 0 15.1046 0 14V2Z" fill="#00148D"/>
<path d="M10.84 9.52C11.26 9.52 11.49 9.53 11.74 9.57V8.98C11.48 9.02 11.28 9.03 10.85 9.03H9.15C9.2 8.74 9.21 8.58 9.23 8.14H10.68C11.04 8.14 11.31 8.15 11.53 8.18V7.61C11.29 7.65 11.08 7.66 10.68 7.66H10.11C10.33 7.35 10.48 7.12 10.67 6.77L10.11 6.6C9.92 7.03 9.8 7.25 9.51 7.66H8.49C8.29 7.3 8.1 7.01 7.79 6.61L7.28 6.82C7.58 7.17 7.7 7.34 7.89 7.66H7.38C6.97 7.66 6.76 7.65 6.53 7.61V8.18C6.75 8.15 7.01 8.14 7.38 8.14H8.65C8.64 8.61 8.63 8.73 8.59 9.03H7.19C6.77 9.03 6.53 9.02 6.3 8.98V9.57C6.57 9.53 6.8 9.52 7.21 9.52H8.47C8.34 9.92 8.17 10.19 7.91 10.43C7.51 10.79 6.99 11.04 6.14 11.28C6.31 11.44 6.41 11.58 6.51 11.8C7.95 11.28 8.57 10.77 8.95 9.81C9.48 10.58 10.2 11.11 11.25 11.48C11.15 11.47 11.14 11.47 11.03 11.45C11.12 11.67 11.15 11.79 11.18 12.08C11.51 12.1 11.84 12.12 12.12 12.12C12.92 12.12 13.09 11.97 13.09 11.29V4.54C13.09 4.1 13.1 3.82 13.14 3.44C12.86 3.47 12.6 3.48 12.09 3.48H10.4C9.9 3.48 9.66 3.47 9.38 3.44C9.4 3.74 9.41 4.04 9.41 4.39V5.48C9.41 5.84 9.4 6.14 9.38 6.4C9.65 6.38 9.97 6.37 10.4 6.37H12.47V11.26C12.47 11.49 12.39 11.55 12.12 11.55C11.86 11.55 11.61 11.53 11.25 11.48C11.34 11.25 11.41 11.12 11.55 10.92C10.51 10.64 9.81 10.2 9.33 9.52H10.84ZM9.99 3.95H12.47V4.68H9.99V3.95ZM9.99 5.14H12.47V5.9H9.99V5.14ZM5.6 6.37H7.49C7.91 6.37 8.22 6.38 8.5 6.4C8.48 6.15 8.47 5.87 8.47 5.48V4.39C8.47 4.02 8.48 3.72 8.5 3.44C8.22 3.47 7.98 3.48 7.48 3.48H5.98C5.48 3.48 5.22 3.47 4.94 3.44C4.97 3.76 4.98 4.05 4.98 4.54V11.09C4.98 11.63 4.96 11.94 4.92 12.21H5.66C5.62 11.96 5.6 11.66 5.6 11.09V6.37ZM5.6 3.95H7.9V4.68H5.6V3.95ZM5.6 5.14H7.9V5.9H5.6V5.14ZM19.12 8.03L19.14 7.68C19.16 7.2 19.16 7.15 19.19 7.02H18.55C18.58 7.19 18.59 7.34 18.59 7.62C18.59 7.77 18.58 7.88 18.57 8.03H18.31C18 8.03 17.86 8.02 17.71 7.99V8.62C17.88 8.58 18.06 8.57 18.29 8.57H18.53C18.46 9.34 18.39 9.75 18.22 10.26C18.02 10.92 17.81 11.3 17.44 11.71C17.61 11.85 17.77 12.01 17.87 12.18C18.56 11.31 18.95 10.15 19.09 8.57H19.83C19.8 9.96 19.74 10.72 19.59 11.26C19.54 11.45 19.47 11.5 19.24 11.5C19.04 11.5 18.82 11.47 18.55 11.4C18.63 11.61 18.66 11.73 18.68 12.01C18.91 12.03 19.05 12.04 19.16 12.04C19.45 12.04 19.69 12 19.82 11.93C20.04 11.81 20.11 11.65 20.21 11.01C20.29 10.46 20.39 9.13 20.39 8.49C20.4 8.3 20.4 8.16 20.42 8C20.18 8.02 20.01 8.03 19.67 8.03H19.12ZM22.05 8.03C22.05 7.95 22.05 7.9 22.05 7.84C22.06 7.37 22.07 7.19 22.11 7.02H21.47C21.49 7.17 21.5 7.34 21.5 7.65C21.5 7.81 21.49 7.88 21.49 8.03H21.35C21.02 8.03 20.88 8.02 20.71 7.98V8.61C20.88 8.58 21.04 8.57 21.31 8.57H21.46C21.41 9.22 21.31 9.74 21.14 10.24C20.92 10.9 20.65 11.34 20.21 11.77C20.38 11.88 20.51 12.01 20.65 12.23C21.15 11.65 21.44 11.15 21.68 10.43C21.87 9.84 21.96 9.34 22.01 8.57H22.86C22.84 9.77 22.76 10.72 22.65 11.22C22.6 11.44 22.52 11.49 22.28 11.49C22.04 11.49 21.83 11.46 21.53 11.4C21.61 11.61 21.64 11.76 21.66 12C22.04 12.03 22.11 12.03 22.27 12.03C22.95 12.03 23.11 11.87 23.24 11.06C23.31 10.62 23.42 9.1 23.43 8.52C23.43 8.28 23.44 8.18 23.46 8C23.21 8.02 23 8.03 22.69 8.03H22.05ZM16.79 8.92V11.18C16.79 11.49 16.74 11.54 16.45 11.54C16.23 11.54 16.01 11.51 15.72 11.44C15.8 11.67 15.83 11.81 15.85 12.08C16.14 12.11 16.32 12.12 16.49 12.12C17.16 12.12 17.35 11.93 17.35 11.26V4.48C17.35 3.88 17.35 3.69 17.37 3.49C17.14 3.52 16.9 3.53 16.55 3.53H15.95C15.59 3.53 15.37 3.52 15.1 3.49C15.14 3.84 15.15 4.12 15.15 4.97C15.15 9.41 15.02 10.65 14.43 11.81C14.64 11.96 14.74 12.06 14.92 12.29C15.38 11.37 15.56 10.54 15.65 8.92H16.79ZM15.68 8.37C15.69 8.01 15.7 7.64 15.7 7.27C15.71 7.11 15.71 6.86 15.71 6.54H16.79V8.37H15.68ZM15.72 5.99L15.73 5.53V4.1H16.79V5.99H15.72ZM20.54 4.27C20.59 4.04 20.62 3.92 20.63 3.77C20.66 3.51 20.68 3.41 20.72 3.23L20.03 3.22C20.05 3.34 20.06 3.41 20.06 3.53C20.06 3.74 20.02 4 19.96 4.27H18.93C18.47 4.27 18.2 4.26 17.93 4.22V4.86C18.17 4.82 18.44 4.81 18.89 4.81H19.79C19.65 5.13 19.52 5.35 19.31 5.59C18.88 6.07 18.44 6.34 17.7 6.59C17.88 6.76 17.98 6.91 18.08 7.1C19.32 6.54 20.04 5.83 20.4 4.81H22.37C22.33 5.37 22.28 5.7 22.19 5.95C22.12 6.14 22.01 6.2 21.73 6.2C21.37 6.2 20.96 6.16 20.59 6.08C20.68 6.31 20.7 6.41 20.72 6.69C21.04 6.73 21.42 6.75 21.67 6.75C22.06 6.75 22.29 6.71 22.45 6.6C22.64 6.47 22.76 6.18 22.85 5.68C22.91 5.28 22.96 4.96 22.99 4.6C23.01 4.43 23.01 4.41 23.03 4.23C22.79 4.26 22.6 4.27 22.25 4.27H20.54Z" fill="white"/>
</svg>
