<svg width="28" height="16" viewBox="0 0 28 16" fill="none" xmlns="http://www.w3.org/2000/svg">
<path d="M0 2C0 0.895431 0.895431 0 2 0H26C27.1046 0 28 0.895431 28 2V14C28 15.1046 27.1046 16 26 16H2C0.895431 16 0 15.1046 0 14V2Z" fill="#A23124"/>
<path d="M7.19 6.28C7.43 6.25 7.78 6.24 8.2 6.24H9.94V6.97H8.41C8.08 6.97 7.87 6.96 7.68 6.94C7.7 7.14 7.71 7.39 7.71 7.66V9.69C7.71 9.98 7.7 10.2 7.68 10.4C7.88 10.38 8.1 10.37 8.41 10.37H12.22C12.54 10.37 12.76 10.38 12.96 10.4C12.94 10.21 12.93 9.98 12.93 9.65V7.66C12.93 7.36 12.94 7.12 12.96 6.94C12.75 6.96 12.57 6.97 12.22 6.97H10.51V6.24H12.53C12.98 6.24 13.31 6.26 13.53 6.29V5.66C13.31 5.69 12.99 5.71 12.51 5.71H11.69V4.71H12.29C12.71 4.71 13.05 4.72 13.27 4.75V4.13C13.01 4.16 12.64 4.18 12.27 4.18H11.69V4C11.69 3.62 11.7 3.43 11.74 3.21H11.06C11.09 3.47 11.1 3.65 11.1 4V4.18H9.45V3.98C9.45 3.62 9.46 3.44 9.49 3.21H8.81C8.85 3.44 8.86 3.61 8.86 3.98V4.18H8.42C8.04 4.18 7.71 4.16 7.43 4.13V4.75C7.66 4.72 7.97 4.71 8.41 4.71H8.86V5.71H8.19C7.81 5.71 7.62 5.7 7.3 5.67V5.08C7.12 5.11 6.95 5.12 6.66 5.12H6.3V4.19C6.3 3.7 6.31 3.42 6.35 3.17H5.65C5.69 3.41 5.7 3.63 5.7 4.2V5.12H5.23C4.9 5.12 4.7 5.11 4.53 5.08V5.7C4.69 5.68 4.94 5.66 5.23 5.66H5.62C5.34 6.96 4.88 8.04 4.24 8.83C4.43 9.02 4.49 9.11 4.64 9.37C4.86 9.05 5.02 8.77 5.2 8.36C5.41 7.89 5.47 7.73 5.76 6.71C5.72 7.56 5.7 8.11 5.7 8.36V11.14C5.7 11.68 5.68 12 5.64 12.3H6.36C6.32 12.02 6.3 11.68 6.3 11.14V8.13C6.28 7.43 6.27 6.88 6.25 6.47C6.53 7.19 6.71 7.52 7.06 8.01C7.21 7.79 7.29 7.68 7.44 7.52C6.91 6.95 6.6 6.43 6.33 5.66H6.67C6.84 5.66 6.99 5.67 7.19 5.68V6.28ZM11.1 5.71H9.45V4.71H11.1V5.71ZM9.94 7.48V8.37H8.3V7.48H9.94ZM9.94 8.88V9.86H8.3V8.88H9.94ZM10.51 9.86V8.88H12.34V9.86H10.51ZM10.51 8.37V7.48H12.34V8.37H10.51ZM10.89 10.91C11.77 11.66 12.04 11.83 13.15 12.32C13.26 12.1 13.35 11.96 13.52 11.74C12.48 11.4 12.05 11.16 11.32 10.52L10.89 10.91ZM9.16 10.52C8.84 10.87 8.67 11 8.3 11.21C7.85 11.46 7.54 11.57 6.91 11.72C7.07 11.9 7.18 12.06 7.29 12.27C8.4 11.92 8.92 11.62 9.61 10.92L9.16 10.52ZM14.48 8.2C14.59 8.17 14.67 8.16 14.83 8.15C15.33 8.1 15.33 8.1 15.98 8.04V11.28C15.98 11.67 15.96 12.01 15.92 12.3H16.61C16.57 12.01 16.55 11.7 16.55 11.28V7.98C16.98 7.93 16.98 7.93 17.41 7.86C17.46 8.01 17.48 8.11 17.56 8.42L18.05 8.18C17.84 7.51 17.62 6.98 17.28 6.33L16.86 6.54C17.06 6.93 17.12 7.07 17.24 7.37C16.69 7.44 16.14 7.5 15.81 7.52C16.22 6.98 16.88 6.01 17.17 5.5C17.52 4.89 17.65 4.68 17.72 4.59L17.14 4.26C17.01 4.68 16.71 5.24 16.13 6.15C15.94 5.88 15.85 5.77 15.54 5.4C15.94 4.84 16.17 4.48 16.42 3.99C16.58 3.68 16.66 3.55 16.74 3.43L16.14 3.14C16.07 3.52 15.65 4.34 15.2 5C15.05 4.83 14.98 4.76 14.77 4.53L14.42 4.99C15.07 5.65 15.37 6.02 15.8 6.67C15.7 6.82 15.49 7.11 15.18 7.55C14.93 7.56 14.76 7.57 14.68 7.57C14.56 7.57 14.5 7.57 14.38 7.55L14.48 8.2ZM19.69 6.15C19.36 6.15 19.17 6.14 18.94 6.11V6.7C19.14 6.67 19.35 6.66 19.68 6.66H20.4V9.77H19.76V8.17C19.76 7.7 19.77 7.46 19.8 7.26H19.22C19.26 7.51 19.27 7.73 19.27 8.17V10.09C19.27 10.47 19.26 10.71 19.22 10.97H19.76V10.26H21.59V10.76L22.11 10.77C22.09 10.62 22.08 10.45 22.08 10.02V8.18C22.08 7.73 22.09 7.46 22.12 7.27L21.54 7.26C21.58 7.49 21.59 7.74 21.59 8.17V9.77H20.92V6.66H21.65C21.98 6.66 22.2 6.67 22.4 6.7V6.1C22.17 6.14 21.98 6.15 21.65 6.15H21.3C21.6 5.54 21.7 5.3 21.96 4.52L21.43 4.31C21.27 4.98 21.09 5.49 20.76 6.15H19.69ZM14.92 8.63C14.85 9.92 14.72 10.62 14.41 11.41L14.93 11.67C15.23 10.82 15.36 10.1 15.46 8.73L14.92 8.63ZM16.93 8.76C17.12 9.48 17.21 10.01 17.29 10.95L17.81 10.82C17.68 9.84 17.6 9.42 17.4 8.61L16.93 8.76ZM18.13 11.1C18.13 11.68 18.12 11.97 18.08 12.27H18.76C18.72 12 18.71 11.72 18.71 11.1V4.05H22.65V11.29C22.65 11.52 22.58 11.56 22.22 11.56C21.95 11.56 21.61 11.52 21.11 11.44C21.2 11.71 21.23 11.84 21.24 12.08C21.59 12.11 22.09 12.13 22.32 12.13C23.03 12.13 23.23 11.97 23.23 11.4V4.65C23.23 4.08 23.24 3.77 23.27 3.47C23.04 3.5 22.72 3.51 22.19 3.51H19.11C18.62 3.51 18.33 3.5 18.1 3.47C18.12 3.73 18.13 4 18.13 4.56V11.1ZM19.25 4.54C19.54 5.06 19.68 5.37 19.86 5.94L20.35 5.74C20.16 5.18 20.01 4.86 19.72 4.34L19.25 4.54Z" fill="white"/>
</svg>
