<svg width="28" height="16" viewBox="0 0 28 16" fill="none" xmlns="http://www.w3.org/2000/svg">
<path d="M0 2C0 0.895431 0.895431 0 2 0H26C27.1046 0 28 0.895431 28 2V14C28 15.1046 27.1046 16 26 16H2C0.895431 16 0 15.1046 0 14V2Z" fill="black"/>
<path d="M6.05 11.19C6.05 11.55 6.03 11.79 6 12.04H6.71C6.67 11.82 6.66 11.63 6.66 11.19V10.24H8.58V11.3C8.58 11.8 8.57 12.05 8.52 12.35H9.23C9.18 12.06 9.17 11.82 9.17 11.3V10.24H11.33V11.29C11.33 11.45 11.26 11.49 11 11.49C10.73 11.49 10.37 11.46 10.03 11.42C10.11 11.6 10.13 11.71 10.18 11.97C10.41 11.99 10.75 12 10.97 12C11.74 12 11.94 11.86 11.94 11.33V10.44C11.94 10.25 11.94 10.22 11.95 9.99C12.44 10.24 12.69 10.34 13.33 10.55C13.45 10.31 13.53 10.18 13.68 10C12.38 9.69 11.74 9.41 11.07 8.84H12.46C12.89 8.84 13.19 8.86 13.47 8.9V8.26C13.17 8.3 12.89 8.32 12.45 8.32H8.27C8.46 8.09 8.53 7.99 8.7 7.73H11.36C11.66 7.73 11.92 7.74 12.16 7.76C12.14 7.55 12.13 7.35 12.13 7.1V5.72C12.13 5.46 12.14 5.25 12.16 5.04C11.96 5.06 11.8 5.07 11.37 5.07H6.64C6.2 5.07 6.04 5.06 5.84 5.04C5.86 5.25 5.87 5.5 5.87 5.72V7.1C5.87 7.31 5.86 7.55 5.84 7.76C6.08 7.74 6.33 7.73 6.64 7.73H8.07C7.91 7.97 7.84 8.06 7.6 8.32H5.52C5.08 8.32 4.8 8.3 4.5 8.26V8.9C4.81 8.86 5.08 8.84 5.52 8.84H7.02C6.25 9.42 5.42 9.82 4.43 10.09C4.61 10.26 4.71 10.39 4.79 10.62C5.35 10.39 5.65 10.26 6.05 10.05C6.05 10.18 6.05 10.24 6.05 10.32V11.19ZM10.37 8.84C10.85 9.3 11.09 9.49 11.5 9.74C11.33 9.75 11.27 9.75 11.11 9.75H9.17C9.17 9.46 9.19 9.3 9.23 9.08H8.54C8.57 9.28 8.58 9.43 8.58 9.75H6.93C6.85 9.75 6.82 9.75 6.59 9.75C7.09 9.44 7.38 9.22 7.78 8.84H10.37ZM6.47 5.54H11.53V6.17H6.47V5.54ZM6.47 6.62H11.53V7.27H6.47V6.62ZM7.21 3.87H5.61C5.19 3.87 4.87 3.85 4.59 3.8V4.44C4.95 4.39 5.24 4.37 5.6 4.37H7.21C7.2 4.6 7.2 4.67 7.17 4.86H7.85C7.82 4.7 7.82 4.65 7.82 4.37H10.12C10.12 4.65 10.11 4.71 10.09 4.87H10.77C10.74 4.69 10.73 4.57 10.73 4.37H12.4C12.77 4.37 13.04 4.39 13.41 4.45V3.81C13.13 3.85 12.8 3.87 12.39 3.87H10.73V3.76C10.73 3.49 10.74 3.37 10.77 3.17H10.08C10.11 3.37 10.12 3.5 10.12 3.75V3.87H7.82V3.75C7.82 3.49 7.82 3.37 7.85 3.17H7.17C7.2 3.38 7.21 3.51 7.21 3.75V3.87ZM18.41 4.41V10.98C18.41 11.51 18.39 11.84 18.34 12.16H19.17C19.12 11.84 19.1 11.52 19.1 10.98V6.27C19.93 6.69 19.93 6.69 20.14 6.82C21.09 7.36 21.57 7.68 22.26 8.22L22.65 7.6C21.4 6.73 21.07 6.54 19.1 5.55V4.41H22.24C22.7 4.41 23.05 4.43 23.4 4.47V3.73C23.06 3.77 22.72 3.79 22.24 3.79H15.76C15.26 3.79 14.92 3.77 14.59 3.73V4.47C14.94 4.43 15.28 4.41 15.76 4.41H18.41Z" fill="white"/>
</svg>
