<svg width="28" height="16" viewBox="0 0 28 16" fill="none" xmlns="http://www.w3.org/2000/svg">
<path d="M0 2C0 0.895431 0.895431 0 2 0H26C27.1046 0 28 0.895431 28 2V14C28 15.1046 27.1046 16 26 16H2C0.895431 16 0 15.1046 0 14V2Z" fill="#E6B557"/>
<path d="M5.6 4.64C4.92 4.63 4.92 4.63 4.6 4.58V5.26C4.91 5.22 5.18 5.2 5.6 5.2H12.42C12.85 5.2 13.13 5.22 13.42 5.26V4.58C13.15 4.62 12.87 4.64 12.42 4.64H10.37C10.7 4.29 11.05 3.85 11.45 3.26L10.81 3.02C10.45 3.71 10.17 4.1 9.68 4.64H8.25C7.89 3.99 7.79 3.85 7.09 3.01L6.49 3.25C7.03 3.84 7.22 4.09 7.56 4.64H5.6ZM5.91 9.92H8.07V11.26C8.07 11.47 8.01 11.52 7.72 11.52C7.5 11.52 7.21 11.49 6.85 11.42C6.94 11.67 6.96 11.75 7.01 12.04C7.39 12.07 7.63 12.08 7.84 12.08C8.49 12.08 8.68 11.91 8.68 11.31V7.07C8.68 6.5 8.69 6.24 8.71 6.01C8.5 6.04 8.35 6.05 7.8 6.05H6.23C5.83 6.05 5.59 6.04 5.26 6.01C5.28 6.24 5.29 6.41 5.29 6.9V11.1C5.29 11.6 5.28 11.9 5.24 12.18H5.97C5.93 11.93 5.91 11.65 5.91 11.12V9.92ZM5.91 9.36V8.28H8.07V9.36H5.91ZM5.91 7.72V6.62H8.07V7.72H5.91ZM9.95 6.13C9.99 6.41 10 6.56 10 7.07V9.11C10 9.81 9.99 9.98 9.96 10.23H10.66C10.62 9.99 10.62 9.86 10.62 9.1V7.07C10.62 6.53 10.63 6.37 10.67 6.13H9.95ZM12.06 5.83C12.11 6.11 12.12 6.29 12.12 6.89V11.22C12.12 11.48 12.05 11.52 11.66 11.52C11.33 11.52 10.9 11.48 10.37 11.39C10.48 11.65 10.52 11.81 10.56 12.06C11.06 12.1 11.39 12.12 11.73 12.12C12.55 12.12 12.76 11.94 12.76 11.24V6.91C12.76 6.36 12.77 6.09 12.82 5.83H12.06ZM14.66 11.9C14.79 11.85 14.92 11.81 15.05 11.78C16.19 11.51 17.32 11.18 18.51 10.78L18.5 10.21C17.94 10.4 17.76 10.45 17.32 10.58C17.57 10.09 17.79 9.53 18.07 8.62L17.44 8.44C17.34 9.06 17.08 9.83 16.67 10.77C15.68 11.03 14.97 11.17 14.48 11.2L14.66 11.9ZM20.64 4.22C20.56 4.54 20.43 4.89 20.25 5.31H19.8C19.39 5.31 19.17 5.3 18.92 5.28C18.95 5.55 18.96 5.82 18.96 6.21V9.38C18.96 9.69 18.95 10.01 18.93 10.31C19.27 10.29 19.5 10.28 19.79 10.28H22.12C22.42 10.28 22.71 10.29 22.98 10.31C22.96 10.01 22.95 9.74 22.95 9.37V6.17C22.95 5.78 22.96 5.53 22.98 5.27C22.77 5.3 22.53 5.31 22.07 5.31H20.86C21 5.01 21.16 4.6 21.28 4.22H22.43C22.88 4.22 23.1 4.23 23.4 4.28V3.6C23.15 3.64 22.88 3.66 22.39 3.66H19.81C19.31 3.66 19.05 3.64 18.78 3.6V4.28C19.06 4.23 19.31 4.22 19.76 4.22H20.64ZM19.55 5.84H22.36V6.78H19.55V5.84ZM19.55 7.29H22.36V8.23H19.55V7.29ZM19.55 8.74H22.36V9.74H19.55V8.74ZM14.6 4.27C14.9 4.22 15.1 4.21 15.6 4.21H17.4C17.82 4.21 18.07 4.22 18.38 4.25V3.58C18.1 3.63 17.86 3.64 17.38 3.64H15.62C15.13 3.64 14.88 3.63 14.6 3.58V4.27ZM15.03 7.19C15.03 7.59 15.02 7.8 14.99 8.13C15.26 8.1 15.53 8.09 15.9 8.09H17.28C17.62 8.09 17.9 8.1 18.16 8.13C18.13 7.88 18.12 7.69 18.12 7.24V6.07C18.12 5.66 18.13 5.5 18.16 5.19C17.87 5.23 17.71 5.24 17.25 5.24H15.91C15.47 5.24 15.26 5.23 14.99 5.19C15.02 5.47 15.03 5.7 15.03 6.09V7.19ZM15.63 5.77H17.52V7.56H15.63V5.77ZM16.35 10.36C16.11 9.54 15.96 9.15 15.64 8.48L15.08 8.68C15.41 9.38 15.57 9.82 15.76 10.58L16.35 10.36ZM21.28 10.8C21.9 11.45 22.38 11.83 23.29 12.38C23.48 12.13 23.61 11.99 23.77 11.85C22.85 11.39 22.41 11.08 21.78 10.44L21.28 10.8ZM19.88 10.46C19.55 10.8 19.37 10.95 19.01 11.2C18.6 11.47 18.35 11.6 17.8 11.82C18.05 12.03 18.13 12.11 18.29 12.32C19.19 11.87 19.65 11.55 20.4 10.83L19.88 10.46Z" fill="white"/>
</svg>
