<svg width="28" height="16" viewBox="0 0 28 16" fill="none" xmlns="http://www.w3.org/2000/svg">
<path d="M0 2C0 0.895431 0.895431 0 2 0H26C27.1046 0 28 0.895431 28 2V14C28 15.1046 27.1046 16 26 16H2C0.895431 16 0 15.1046 0 14V2Z" fill="#5A943C"/>
<path d="M8.6 3.32C8.64 3.61 8.66 3.9 8.66 4.33V11.15C8.66 11.35 8.57 11.4 8.21 11.4C7.81 11.4 7.37 11.35 6.73 11.23C6.84 11.52 6.88 11.66 6.91 11.97C7.48 12.02 7.88 12.04 8.29 12.04C9.12 12.04 9.35 11.86 9.35 11.22V4.34C9.35 3.89 9.37 3.59 9.41 3.32H8.6ZM10.94 5.7C10.97 5.78 10.97 5.78 11.01 5.9C11.33 6.91 11.48 7.42 11.49 7.43C11.96 8.74 12.34 9.47 13.19 10.61C13.36 10.41 13.5 10.29 13.76 10.11C13.08 9.27 12.66 8.55 12.27 7.57C11.89 6.63 11.73 6.08 11.65 5.5L10.94 5.7ZM6.18 5.56C6.15 5.96 6.05 6.46 5.88 7.06C5.51 8.35 5.1 9.17 4.33 10.17C4.58 10.29 4.74 10.4 4.94 10.58C5.78 9.39 6.24 8.36 6.63 6.84C6.84 6.02 6.87 5.9 6.92 5.74L6.18 5.56ZM14.55 8.2C14.73 8.18 14.85 8.17 15.16 8.15C15.4 8.14 15.73 8.12 16.16 8.09V11.24C16.16 11.66 16.14 11.94 16.1 12.24H16.81C16.77 11.94 16.75 11.68 16.75 11.24V8.04C17.27 8 17.37 7.99 17.7 7.94C17.76 8.12 17.79 8.21 17.86 8.46L18.38 8.22C18.1 7.42 17.93 7.04 17.58 6.4L17.11 6.63C17.3 6.97 17.37 7.11 17.5 7.44C17 7.5 16.55 7.54 15.94 7.56C16.36 7.03 16.85 6.33 17.19 5.8C17.68 5.05 17.68 5.05 17.85 4.82L17.26 4.47C17.11 4.89 17.04 5.02 16.29 6.2C15.96 5.81 15.96 5.81 15.65 5.47C16.1 4.8 16.31 4.45 16.66 3.74C16.75 3.56 16.78 3.5 16.87 3.38L16.24 3.12C16.15 3.57 15.81 4.26 15.28 5.08C15.16 4.96 15.09 4.88 14.9 4.69L14.52 5.15C15.1 5.67 15.39 5.98 15.97 6.68C15.74 7.01 15.61 7.19 15.3 7.59C15.14 7.59 15.11 7.59 15.06 7.59C14.85 7.59 14.65 7.58 14.46 7.56L14.55 8.2ZM20.44 5.29V6.84H19.53C19.1 6.84 18.81 6.82 18.53 6.78V7.46C18.81 7.42 19.15 7.4 19.53 7.4H22.23C22.64 7.4 22.94 7.42 23.23 7.46V6.78C22.96 6.82 22.66 6.84 22.22 6.84H21.05V5.29H22.49C22.88 5.29 23.22 5.31 23.5 5.35V4.67C23.22 4.71 22.93 4.73 22.49 4.73H21.05V4.06C21.05 3.71 21.07 3.48 21.11 3.23H20.38C20.42 3.49 20.44 3.72 20.44 4.04V4.73H19.22C18.78 4.73 18.49 4.71 18.21 4.67V5.35C18.5 5.31 18.8 5.29 19.22 5.29H20.44ZM15.07 8.75C14.97 10.06 14.86 10.59 14.51 11.41L15.06 11.68C15.37 10.87 15.49 10.26 15.64 8.88L15.07 8.75ZM17.25 8.87C17.47 9.62 17.57 10.2 17.64 11.09L18.19 10.93C18.05 9.98 17.93 9.39 17.74 8.72L17.25 8.87ZM19.33 11.65H22.27V12.21H22.95C22.92 11.98 22.9 11.62 22.9 11.24V9.33C22.9 8.89 22.91 8.64 22.94 8.4C22.73 8.43 22.51 8.44 22.14 8.44H19.44C19.13 8.44 18.89 8.43 18.67 8.4C18.7 8.68 18.71 8.89 18.71 9.31V11.26C18.71 11.71 18.7 11.98 18.66 12.21H19.33V11.65ZM19.33 9.01H22.27V11.09H19.33V9.01Z" fill="white"/>
</svg>
