<svg width="32" height="32" viewBox="0 0 32 32" fill="none" xmlns="http://www.w3.org/2000/svg">
<path d="M5.06667 0H26.9333C29.7317 0 32 2.26827 32 5.06667V26.9333C32 29.7317 29.7317 32 26.9333 32H5.06667C2.26827 32 0 29.7317 0 26.9333V5.06667C0 2.26827 2.26827 0 5.06667 0Z" fill="#C61F79"/>
<path fill-rule="evenodd" clip-rule="evenodd" d="M19.0402 12.2427C17.7531 12.2427 16.6214 12.8894 15.9556 13.8706C15.2899 12.8894 14.1581 12.2427 12.871 12.2427C10.8072 12.2427 9.14287 13.9151 9.14287 15.989C9.14287 18.0629 10.8072 19.7354 12.871 19.7354C14.1581 19.7354 15.2899 19.0887 15.9556 18.1075C16.6214 19.0887 17.7531 19.7354 19.0402 19.7354C21.104 19.7354 22.7684 18.0629 22.7684 15.989C22.7684 13.9374 21.104 12.2427 19.0402 12.2427ZM12.871 18.0852C11.7171 18.0852 10.8072 17.1486 10.8072 16.0113C10.8072 14.8517 11.7393 13.9374 12.871 13.9374C14.025 13.9374 14.9348 14.874 14.9348 16.0113C14.957 17.1486 14.025 18.0852 12.871 18.0852ZM19.0402 18.0852C17.8863 18.0852 16.9764 17.1486 16.9764 16.0113C16.9764 14.8517 17.9085 13.9374 19.0402 13.9374C20.1942 13.9374 21.104 14.874 21.104 16.0113C21.104 17.1486 20.1942 18.0852 19.0402 18.0852ZM26.4744 12.3095L24.8544 15.2754L23.2122 12.2872H21.0153L21.9251 13.09C22.3024 13.4691 22.5909 13.8705 22.7906 14.3611C22.8794 14.5841 22.9459 14.7848 23.0125 15.0301L24.0777 16.9256C24.0777 16.9479 24.1221 17.0148 24.1443 17.0148C24.2996 17.2378 24.5215 17.4385 24.8544 17.4162C25.1651 17.4162 25.4314 17.2378 25.5867 17.0148L25.6089 16.9256L26.4744 15.3646V19.49H28.2275V12.3095H26.4744ZM8.52151 18.286C8.81 18.3529 9.09848 18.3306 9.38697 18.2191C9.54231 18.4867 9.74203 18.732 9.94176 18.955L9.9418 18.955C10.1193 19.1111 10.2968 19.2672 10.4744 19.401C9.94176 19.7355 9.36478 19.8916 8.81 19.8916C8.56589 19.8916 8.2774 19.8693 8.0333 19.8024C6.63524 19.4233 5.63663 18.063 5.28156 17.4609V19.5348H3.52844V17.171V12.3097H6.41332C7.74481 12.332 8.83219 13.4247 8.83219 14.785C8.83219 15.8999 8.09987 16.8365 7.07907 17.1487C7.43413 17.617 7.94453 18.1299 8.52151 18.286ZM5.30375 15.6323H6.28018C6.79058 15.6323 7.19002 15.2086 7.19002 14.6735C7.19002 14.1829 6.85715 13.6923 6.34675 13.6923H5.30375V15.6323Z" fill="white"/>
</svg>
