<svg width="75" height="24" viewBox="0 0 75 24" fill="none" xmlns="http://www.w3.org/2000/svg">
<path fill-rule="evenodd" clip-rule="evenodd" d="M47.0078 0.450012C43.1303 0.450012 39.6778 2.41531 37.6593 5.38981C35.6409 2.41531 32.1884 0.450012 28.3109 0.450012C22.0432 0.450012 16.9972 5.49605 16.9972 11.7638C16.9972 18.0315 22.0432 23.0775 28.3109 23.0775C32.1884 23.0775 35.6409 21.1122 37.6593 18.1377C39.6778 21.1122 43.1303 23.0775 47.0078 23.0775C53.2755 23.0775 58.3215 18.0315 58.3215 11.7638C58.3215 5.54916 53.2755 0.450012 47.0078 0.450012ZM28.3109 18.0846C24.8584 18.0846 22.0432 15.2694 22.0432 11.7638C22.0432 8.3112 24.8584 5.49605 28.3109 5.49605C31.7635 5.49605 34.5786 8.3112 34.5786 11.7638C34.5786 15.2694 31.7635 18.0846 28.3109 18.0846ZM47.0078 18.0846C43.5552 18.0846 40.7401 15.2694 40.7401 11.7638C40.7401 8.3112 43.5552 5.49605 47.0078 5.49605C50.4603 5.49605 53.2755 8.3112 53.2755 11.7638C53.2755 15.2694 50.4603 18.0846 47.0078 18.0846ZM17.6877 18.5095C16.7847 18.8813 15.9348 18.9344 15.085 18.6688C13.3322 18.1908 11.7918 16.6504 10.7295 15.2163C13.8102 14.2602 16.0411 11.4451 16.0411 8.04562C16.0411 3.95568 12.7479 0.662474 8.71105 0.556242H0V15.2694V22.387H5.31161V16.1193C6.37394 17.9783 9.40156 22.0683 13.704 23.2368C14.4476 23.4493 15.2975 23.5555 16.0411 23.5555C17.7408 23.5555 19.4405 23.0775 21.0871 22.0683C20.5028 21.6434 19.9717 21.2184 19.4936 20.6873C18.75 20.0499 18.1657 19.3062 17.6877 18.5095ZM8.28612 10.7014H5.31161V4.85865H8.49858C10.039 4.85865 11.0482 6.3459 11.0482 7.83315C10.995 9.42664 9.82649 10.7014 8.28612 10.7014ZM69.5821 0.60936H69.6353V0.662476H75V22.4401H69.6884V9.9578L67.0857 14.5258L67.0326 14.632C67.006 14.6586 66.9662 14.725 66.9263 14.7914C66.8865 14.8578 66.8467 14.9242 66.8201 14.9507C66.3952 15.5881 65.7047 16.1193 64.7486 16.1724H64.6955H64.6423C63.6863 16.1724 63.0489 15.5881 62.5708 14.9507C62.5443 14.9242 62.5044 14.8578 62.4646 14.7914C62.4247 14.725 62.3849 14.6586 62.3583 14.632L59.1183 8.89548C58.9589 8.15185 58.7465 7.56758 58.4809 6.87707C57.8435 5.38981 56.9405 4.16814 55.8251 3.0527L53.063 0.60936H59.7025L64.6423 9.58599L69.5821 0.60936Z" fill="#C61F79"/>
</svg>
