<svg width="192" height="192" viewBox="0 0 192 192" fill="none" xmlns="http://www.w3.org/2000/svg">
<path d="M177.646 133.959V58.0411C177.646 52.2917 174.58 46.9846 169.605 44.1099L103.869 6.15601C98.8937 3.28133 92.7624 3.28133 87.787 6.15601L22.0411 44.12C17.0657 46.9946 14 52.3018 14 58.0511V133.959C14 139.708 17.0657 145.015 22.0411 147.89L87.787 185.844C92.7624 188.719 98.8937 188.719 103.869 185.844L169.615 147.89C174.58 145.015 177.646 139.698 177.646 133.959Z" fill="#D1B055"/>
<path opacity="0.8" d="M177.646 133.959V58.0411C177.646 52.2917 174.58 46.9846 169.605 44.1099L103.869 6.15601C98.8937 3.28133 92.7624 3.28133 87.787 6.15601L22.0411 44.12C17.0657 46.9946 14 52.3018 14 58.0511V133.959C14 139.708 17.0657 145.015 22.0411 147.89L87.787 185.844C92.7624 188.719 98.8937 188.719 103.869 185.844L169.615 147.89C174.58 145.015 177.646 139.698 177.646 133.959Z" fill="url(#paint0_linear)"/>
<path d="M177.646 133.778V121.586L106.412 51.6686L87.4452 53.709L71.3027 118.661L51.9338 139.839L98.8736 187.533C100.602 187.201 102.291 186.578 103.859 185.673L169.605 147.719C174.58 144.835 177.646 139.527 177.646 133.778Z" fill="black" fill-opacity="0.2"/>
<path fill-rule="evenodd" clip-rule="evenodd" d="M139.823 139.115L107.317 52.8847C106.965 51.9499 105.859 51.196 104.864 51.196H86.7718C85.7767 51.196 84.671 51.9599 84.3192 52.8847L51.8132 139.115C51.4614 140.05 51.984 140.804 52.9791 140.804H71.0716C72.0666 140.804 73.1723 140.04 73.5241 139.115L79.1428 124.47H112.483L118.102 139.115C118.454 140.05 119.559 140.804 120.554 140.804H138.647C139.652 140.804 140.175 140.05 139.823 139.115ZM85.9777 106.378L95.1847 81.732C95.5365 80.7973 96.1095 80.7973 96.4613 81.732L105.668 106.378H85.9777Z" fill="white"/>
<defs>
<linearGradient id="paint0_linear" x1="95.8244" y1="4.00503" x2="95.8244" y2="187.995" gradientUnits="userSpaceOnUse">
<stop stop-color="white" stop-opacity="0.1"/>
<stop offset="1" stop-opacity="0.4"/>
</linearGradient>
</defs>
</svg>
