<svg width="192" height="192" viewBox="0 0 192 192" fill="none" xmlns="http://www.w3.org/2000/svg">
<path d="M177.646 133.959V58.0411C177.646 52.2917 174.58 46.9846 169.605 44.1099L103.869 6.15601C98.8937 3.28133 92.7624 3.28133 87.787 6.15601L22.0411 44.12C17.0657 46.9946 14 52.3018 14 58.0511V133.959C14 139.708 17.0657 145.015 22.0411 147.89L87.787 185.844C92.7624 188.719 98.8937 188.719 103.869 185.844L169.615 147.89C174.58 145.015 177.646 139.698 177.646 133.959Z" fill="#C61E79"/>
<path opacity="0.8" d="M177.646 133.959V58.0411C177.646 52.2917 174.58 46.9846 169.605 44.1099L103.869 6.15601C98.8937 3.28133 92.7624 3.28133 87.787 6.15601L22.0411 44.12C17.0657 46.9946 14 52.3018 14 58.0511V133.959C14 139.708 17.0657 145.015 22.0411 147.89L87.787 185.844C92.7624 188.719 98.8937 188.719 103.869 185.844L169.615 147.89C174.58 145.015 177.646 139.698 177.646 133.959Z" fill="url(#paint0_linear)"/>
<path d="M169.605 147.87C174.58 144.995 177.646 139.688 177.646 133.939V96.0452L131.098 50.3618L94.1595 64.3131L59.7336 92.1453L59.5627 117.887L61.7539 139.256L106.362 184.376L169.605 147.87Z" fill="black" fill-opacity="0.2"/>
<path fill-rule="evenodd" clip-rule="evenodd" d="M117.931 99.0104C114.624 100.91 110.774 102.026 106.874 102.026C102.995 102.026 99.1249 100.9 95.818 99.0104C92.5212 100.9 88.6514 102.026 84.7615 102.026C80.8616 102.026 77.0119 100.91 73.705 99.0104C70.3981 100.91 67.0611 101.845 63.1913 101.845C61.945 101.845 60.779 101.443 59.6331 101.021V134.19C59.6331 138.181 62.6385 141.226 66.6691 141.226H79.7358V125.144C79.7358 116.178 86.7517 109.062 95.818 109.062C104.884 109.062 111.9 116.178 111.9 125.144V141.226H124.967C129.008 141.226 132.003 138.181 132.003 134.19V101.021C130.978 101.563 130.234 102.026 128.987 102.026C125.138 102.016 121.238 100.92 117.931 99.0104ZM95.818 116.098C90.7722 116.098 86.7718 120.148 86.7718 125.144V141.226H104.864V125.144C104.864 120.158 100.864 116.098 95.818 116.098ZM130.998 50.7639H60.6383L48.5767 80.1641C48.5767 88.1449 54.5773 93.9847 62.6485 93.9847C66.9706 93.9847 71.0314 92.9092 73.705 89.9642C76.3787 92.9695 80.3992 93.9847 84.7615 93.9847C89.1238 93.9847 93.1443 92.9695 95.818 89.9642C98.4917 92.9695 102.512 93.9847 106.874 93.9847C111.237 93.9847 115.257 92.9695 117.931 89.9642C120.615 92.9092 123.66 93.9847 127.982 93.9847C136.054 93.9847 143.059 87.9036 143.059 79.9128L130.998 50.7639Z" fill="white"/>
<defs>
<linearGradient id="paint0_linear" x1="95.8244" y1="4.00503" x2="95.8244" y2="187.995" gradientUnits="userSpaceOnUse">
<stop stop-color="white" stop-opacity="0.1"/>
<stop offset="1" stop-opacity="0.4"/>
</linearGradient>
</defs>
</svg>
