<svg width="192" height="192" viewBox="0 0 192 192" fill="none" xmlns="http://www.w3.org/2000/svg">
<path d="M177.646 133.959V58.0411C177.646 52.2917 174.58 46.9846 169.605 44.1099L103.869 6.15601C98.8937 3.28133 92.7624 3.28133 87.787 6.15601L22.0411 44.12C17.0657 46.9946 14 52.3018 14 58.0511V133.959C14 139.708 17.0657 145.015 22.0411 147.89L87.787 185.844C92.7624 188.719 98.8937 188.719 103.869 185.844L169.615 147.89C174.58 145.015 177.646 139.698 177.646 133.959Z" fill="#C7C7C7"/>
<path opacity="0.8" d="M177.646 133.959V58.0411C177.646 52.2917 174.58 46.9846 169.605 44.1099L103.869 6.15601C98.8937 3.28133 92.7624 3.28133 87.787 6.15601L22.0411 44.12C17.0657 46.9946 14 52.3018 14 58.0511V133.959C14 139.708 17.0657 145.015 22.0411 147.89L87.787 185.844C92.7624 188.719 98.8937 188.719 103.869 185.844L169.615 147.89C174.58 145.015 177.646 139.698 177.646 133.959Z" fill="url(#paint0_linear)"/>
<path d="M169.605 147.86C174.58 144.985 177.646 139.678 177.646 133.929V97.2314L131.46 51.8998L72.4586 71.4195L70.5187 120.39L59.9045 140.1L104.522 185.432L169.605 147.86Z" fill="black" fill-opacity="0.2"/>
<path fill-rule="evenodd" clip-rule="evenodd" d="M130.766 73.0377C131.762 73.0377 132.576 72.2235 132.576 71.2285V53.4878C132.576 52.4927 131.762 51.6786 130.766 51.6786H60.8895C59.8944 51.6786 59.0803 52.4927 59.0803 53.4878V138.512C59.0803 139.507 59.8944 140.321 60.8895 140.321H130.766C131.762 140.321 132.576 139.507 132.576 138.512V120.952C132.576 119.957 131.762 119.143 130.766 119.143H80.4293V105.122H123.821C124.816 105.122 125.63 104.307 125.63 103.312V88.7882C125.63 87.7931 124.816 86.9789 123.821 86.9789H80.4293V73.0377H130.766Z" fill="white"/>
<defs>
<linearGradient id="paint0_linear" x1="95.8244" y1="4.00503" x2="95.8244" y2="187.995" gradientUnits="userSpaceOnUse">
<stop stop-color="white" stop-opacity="0.1"/>
<stop offset="1" stop-opacity="0.4"/>
</linearGradient>
</defs>
</svg>
