<svg width="192" height="192" viewBox="0 0 192 192" fill="none" xmlns="http://www.w3.org/2000/svg">
<path d="M177.646 133.959V58.0411C177.646 52.2917 174.58 46.9846 169.605 44.1099L103.869 6.15601C98.8937 3.28133 92.7624 3.28133 87.787 6.15601L22.0411 44.12C17.0657 46.9946 14 52.3018 14 58.0511V133.959C14 139.708 17.0657 145.015 22.0411 147.89L87.787 185.844C92.7624 188.719 98.8937 188.719 103.869 185.844L169.615 147.89C174.58 145.015 177.646 139.698 177.646 133.959Z" fill="#B3765D"/>
<path opacity="0.8" d="M177.646 133.959V58.0411C177.646 52.2917 174.58 46.9846 169.605 44.1099L103.869 6.15601C98.8937 3.28133 92.7624 3.28133 87.787 6.15601L22.0411 44.12C17.0657 46.9946 14 52.3018 14 58.0511V133.959C14 139.708 17.0657 145.015 22.0411 147.89L87.787 185.844C92.7624 188.719 98.8937 188.719 103.869 185.844L169.615 147.89C174.58 145.015 177.646 139.698 177.646 133.959Z" fill="url(#paint0_linear)"/>
<path d="M169.605 147.89C174.58 145.015 177.646 139.708 177.646 133.959V113.354L128.857 65.469L72.4586 71.4495L70.5187 120.42L66.86 129.566L115.589 179.069L169.605 147.89Z" fill="black" fill-opacity="0.2"/>
<path fill-rule="evenodd" clip-rule="evenodd" d="M138.466 105.172H119.338C118.343 105.172 117.147 105.896 116.685 106.77C112.825 113.997 105.206 118.922 96.4613 118.922C83.8167 118.922 73.5342 108.64 73.5342 95.995C73.5342 83.3504 83.8167 73.0678 96.4613 73.0678C105.206 73.0678 112.825 77.993 116.685 85.2199C117.147 86.1045 118.343 86.8181 119.338 86.8181H138.466C139.461 86.8181 140.044 86.0441 139.752 85.0893C134.888 65.7002 117.358 51.3569 96.4613 51.3569C71.8053 51.3569 51.8232 71.339 51.8232 95.995C51.8232 120.651 71.8053 140.633 96.4613 140.633C117.358 140.633 134.888 126.28 139.752 106.901C140.044 105.956 139.461 105.172 138.466 105.172Z" fill="white"/>
<defs>
<linearGradient id="paint0_linear" x1="95.8244" y1="4.00503" x2="95.8244" y2="187.995" gradientUnits="userSpaceOnUse">
<stop stop-color="white" stop-opacity="0.1"/>
<stop offset="1" stop-opacity="0.4"/>
</linearGradient>
</defs>
</svg>
