<svg width="192" height="192" viewBox="0 0 192 192" fill="none" xmlns="http://www.w3.org/2000/svg">
<path d="M177.646 133.959V58.0411C177.646 52.2917 174.58 46.9846 169.605 44.1099L103.869 6.15601C98.8937 3.28133 92.7624 3.28133 87.787 6.15601L22.0411 44.12C17.0657 46.9946 14 52.3018 14 58.0511V133.959C14 139.708 17.0657 145.015 22.0411 147.89L87.787 185.844C92.7624 188.719 98.8937 188.719 103.869 185.844L169.615 147.89C174.58 145.015 177.646 139.698 177.646 133.959Z" fill="#C7C7C7"/>
<path opacity="0.8" d="M177.646 133.959V58.0411C177.646 52.2917 174.58 46.9846 169.605 44.1099L103.869 6.15601C98.8937 3.28133 92.7624 3.28133 87.787 6.15601L22.0411 44.12C17.0657 46.9946 14 52.3018 14 58.0511V133.959C14 139.708 17.0657 145.015 22.0411 147.89L87.787 185.844C92.7624 188.719 98.8937 188.719 103.869 185.844L169.615 147.89C174.58 145.015 177.646 139.698 177.646 133.959Z" fill="url(#paint0_linear)"/>
<path d="M177.626 133.899V117.083L110.302 51.0153L92.2398 107.343L70.4886 120.36L51.8434 145.307L93.657 187.784C97.1247 188.246 100.713 187.583 103.839 185.774L169.585 147.82C174.56 144.955 177.626 139.648 177.626 133.899Z" fill="black" fill-opacity="0.2"/>
<path d="M140.044 145.749C140.044 145.749 140.808 125.043 131.159 115.324C121.178 105.272 105.869 104.539 105.869 104.539V97.5027C105.869 97.5027 117.931 89.7933 117.931 72.3743C117.931 54.9554 108.453 46.2408 95.818 46.2408C83.1834 46.2408 73.705 54.9554 73.705 72.3743C73.705 89.7933 85.7666 97.5027 85.7666 97.5027V104.539C85.7666 104.539 70.6192 104.539 60.6383 114.59C50.989 124.31 51.592 145.749 51.592 145.749H140.044Z" fill="white"/>
<defs>
<linearGradient id="paint0_linear" x1="95.8244" y1="4.00503" x2="95.8244" y2="187.995" gradientUnits="userSpaceOnUse">
<stop stop-color="white" stop-opacity="0.1"/>
<stop offset="1" stop-opacity="0.4"/>
</linearGradient>
</defs>
</svg>
