<svg width="192" height="192" viewBox="0 0 192 192" fill="none" xmlns="http://www.w3.org/2000/svg">
<path d="M177.646 133.959V58.0411C177.646 52.2917 174.58 46.9846 169.605 44.1099L103.869 6.15601C98.8937 3.28133 92.7624 3.28133 87.787 6.15601L22.0411 44.12C17.0657 46.9946 14 52.3018 14 58.0511V133.959C14 139.708 17.0657 145.015 22.0411 147.89L87.787 185.844C92.7624 188.719 98.8937 188.719 103.869 185.844L169.615 147.89C174.58 145.015 177.646 139.698 177.646 133.959Z" fill="#AEC2CC"/>
<path opacity="0.8" d="M177.646 133.959V58.0411C177.646 52.2917 174.58 46.9846 169.605 44.1099L103.869 6.15601C98.8937 3.28133 92.7624 3.28133 87.787 6.15601L22.0411 44.12C17.0657 46.9946 14 52.3018 14 58.0511V133.959C14 139.708 17.0657 145.015 22.0411 147.89L87.787 185.844C92.7624 188.719 98.8937 188.719 103.869 185.844L169.615 147.89C174.58 145.015 177.646 139.698 177.646 133.959Z" fill="url(#paint0_linear)"/>
<path d="M104.05 185.733L169.605 147.88C174.58 145.005 177.646 139.698 177.646 133.949V107.896L126.887 58.0812L74.9715 56.6238L75.3233 118.832L59.1607 140.13L104.05 185.733Z" fill="black" fill-opacity="0.2"/>
<path fill-rule="evenodd" clip-rule="evenodd" d="M131.772 93.6027C134.626 89.2907 136.295 84.1343 136.295 78.576C136.295 63.5291 124.102 51.3368 109.056 51.3368H61.1609C60.1658 51.3368 59.3517 52.151 59.3517 53.146V138.804C59.3517 139.799 60.1658 140.613 61.1609 140.613L113.106 140.683C128.153 140.683 140.345 128.491 140.345 113.444C140.345 105.614 137.049 98.5681 131.772 93.6027ZM105.266 122.43H81.8969V104.428H105.266C110.242 104.428 114.272 108.459 114.272 113.434C114.272 118.399 110.242 122.43 105.266 122.43ZM105.266 87.5719H81.8969V69.5699H105.266C110.242 69.5699 114.272 73.6005 114.272 78.576C114.272 83.5413 110.242 87.5719 105.266 87.5719Z" fill="white"/>
<defs>
<linearGradient id="paint0_linear" x1="95.8244" y1="4.00503" x2="95.8244" y2="187.995" gradientUnits="userSpaceOnUse">
<stop stop-color="white" stop-opacity="0.1"/>
<stop offset="1" stop-opacity="0.4"/>
</linearGradient>
</defs>
</svg>
