<svg width="192" height="192" viewBox="0 0 192 192" fill="none" xmlns="http://www.w3.org/2000/svg">
<path d="M177.646 133.959V58.0411C177.646 52.2917 174.58 46.9846 169.605 44.1099L103.869 6.15601C98.8937 3.28133 92.7624 3.28133 87.787 6.15601L22.0411 44.12C17.0657 46.9946 14 52.3018 14 58.0511V133.959C14 139.708 17.0657 145.015 22.0411 147.89L87.787 185.844C92.7624 188.719 98.8937 188.719 103.869 185.844L169.615 147.89C174.58 145.015 177.646 139.698 177.646 133.959Z" fill="#C7C7C7"/>
<path opacity="0.8" d="M177.646 133.959V58.0411C177.646 52.2917 174.58 46.9846 169.605 44.1099L103.869 6.15601C98.8937 3.28133 92.7624 3.28133 87.787 6.15601L22.0411 44.12C17.0657 46.9946 14 52.3018 14 58.0511V133.959C14 139.708 17.0657 145.015 22.0411 147.89L87.787 185.844C92.7624 188.719 98.8937 188.719 103.869 185.844L169.615 147.89C174.58 145.015 177.646 139.698 177.646 133.959Z" fill="url(#paint0_linear)"/>
<path d="M169.605 147.9C174.58 145.026 177.646 139.718 177.646 133.969V113.364L128.857 65.4791L72.4486 71.4597L70.5087 120.43L59.8945 140.141L104.512 185.472L169.605 147.9Z" fill="black" fill-opacity="0.2"/>
<path fill-rule="evenodd" clip-rule="evenodd" d="M97.7679 51.2664C97.6373 51.2363 97.4965 51.2162 97.3558 51.2162H61.2112C60.2161 51.2162 59.4019 52.0303 59.4019 53.0254V138.975C59.4019 139.97 60.2161 140.784 61.2112 140.784L97.3558 140.723C97.5066 140.723 97.6473 140.703 97.778 140.663C121.449 139.558 140.295 120.018 140.295 96.0754C140.295 72.1431 121.439 52.3721 97.7679 51.2664ZM95.6571 119.013L81.1329 119.073V72.9271H95.6571C108.302 72.9271 118.584 83.4408 118.584 96.0854C118.584 108.73 108.292 119.013 95.6571 119.013Z" fill="white"/>
<defs>
<linearGradient id="paint0_linear" x1="95.8244" y1="4.00503" x2="95.8244" y2="187.995" gradientUnits="userSpaceOnUse">
<stop stop-color="white" stop-opacity="0.1"/>
<stop offset="1" stop-opacity="0.4"/>
</linearGradient>
</defs>
</svg>
