<svg width="192" height="192" viewBox="0 0 192 192" fill="none" xmlns="http://www.w3.org/2000/svg">
<path d="M177.646 133.959V58.0411C177.646 52.2917 174.58 46.9846 169.605 44.1099L103.869 6.15601C98.8937 3.28133 92.7624 3.28133 87.787 6.15601L22.0411 44.12C17.0657 46.9946 14 52.3018 14 58.0511V133.959C14 139.708 17.0657 145.015 22.0411 147.89L87.787 185.844C92.7624 188.719 98.8937 188.719 103.869 185.844L169.615 147.89C174.58 145.015 177.646 139.698 177.646 133.959Z" fill="#C61E79"/>
<path opacity="0.8" d="M177.646 133.959V58.0411C177.646 52.2917 174.58 46.9846 169.605 44.1099L103.869 6.15601C98.8937 3.28133 92.7624 3.28133 87.787 6.15601L22.0411 44.12C17.0657 46.9946 14 52.3018 14 58.0511V133.959C14 139.708 17.0657 145.015 22.0411 147.89L87.787 185.844C92.7624 188.719 98.8937 188.719 103.869 185.844L169.615 147.89C174.58 145.015 177.646 139.698 177.646 133.959Z" fill="url(#paint0_linear)"/>
<path d="M128.394 60.2926L94.1595 64.3735L74.2377 84.647L122.263 115.595L117.991 133.386L97.3558 136.944H70.3177L113.187 180.497L169.595 147.93C174.57 145.056 177.636 139.749 177.636 133.999V108.63L128.394 60.2926Z" fill="black" fill-opacity="0.2"/>
<path fill-rule="evenodd" clip-rule="evenodd" d="M107.859 87.8031L94.9837 84.8178C88.0684 83.3302 84.4097 81.1591 84.4097 76.1435C84.4097 70.183 89.6967 66.9264 97.5569 66.9264C106.141 66.9264 110.503 70.9268 112.101 76.9275C112.322 77.8422 113.317 78.586 114.312 78.586H133.722C134.717 78.586 135.43 77.7819 135.3 76.7868C132.113 53.4878 110.604 47.9495 96.0592 47.9495C74.3684 47.9495 59.4622 59.609 59.4622 78.0432C59.4622 92.688 68.0059 101.222 86.1687 105.152L101.346 108.539C109.206 110.027 111.106 113.283 111.106 116.399C111.106 121.415 106.633 124.531 98.0896 124.531C88.0382 124.531 81.2536 120.339 79.1227 113.253C78.8513 112.298 77.816 111.514 76.8209 111.514H57.5826C56.5876 111.514 55.884 112.318 56.0146 113.303C58.9697 134.793 77.233 144.04 97.4262 144.04C120.474 144.04 135.651 132.522 135.651 114.077C135.651 98.2364 124.665 91.4618 107.859 87.8031Z" fill="white"/>
<defs>
<linearGradient id="paint0_linear" x1="95.8244" y1="4.00503" x2="95.8244" y2="187.995" gradientUnits="userSpaceOnUse">
<stop stop-color="white" stop-opacity="0.1"/>
<stop offset="1" stop-opacity="0.4"/>
</linearGradient>
</defs>
</svg>
