<svg width="192" height="192" viewBox="0 0 192 192" fill="none" xmlns="http://www.w3.org/2000/svg">
<path d="M188 96C188 103.889 179.27 110.524 177.322 117.796C175.306 125.323 179.495 135.423 175.688 142.01C171.822 148.694 160.948 150.094 155.516 155.516C150.094 160.938 148.694 171.822 142.01 175.688C135.423 179.505 125.323 175.316 117.796 177.322C110.524 179.27 103.889 188 96 188C88.1115 188 81.4757 179.27 74.2038 177.322C66.6775 175.306 56.577 179.495 49.9902 175.688C43.3055 171.822 41.906 160.948 36.4838 155.516C31.0617 150.094 20.1783 148.694 16.3123 142.01C12.4953 135.423 16.6843 125.323 14.6779 117.796C12.7302 110.524 4 103.889 4 96C4 88.1115 12.7302 81.4757 14.6779 74.2038C16.694 66.6775 12.5051 56.577 16.3123 49.9902C20.1783 43.3055 31.0519 41.906 36.4838 36.4838C41.9157 31.0617 43.3055 20.1783 49.9902 16.3123C56.577 12.4953 66.6775 16.6843 74.2038 14.6779C81.4757 12.7302 88.1115 4 96 4C103.889 4 110.524 12.7302 117.796 14.6779C125.323 16.694 135.423 12.5051 142.01 16.3123C148.694 20.1783 150.094 31.0519 155.516 36.4838C160.938 41.906 171.822 43.3055 175.688 49.9902C179.505 56.577 175.316 66.6775 177.322 74.2038C179.27 81.4757 188 88.1115 188 96Z" fill="#C61E79"/>
<path opacity="0.8" d="M96 188C88.1115 188 81.4757 179.27 74.2038 177.322C66.6775 175.306 56.577 179.495 49.9902 175.688C43.3055 171.822 41.906 160.948 36.4838 155.516C31.0617 150.094 20.1783 148.694 16.3123 142.01C12.4953 135.423 16.6843 125.323 14.6779 117.796C12.7302 110.524 4 103.889 4 96C4 88.1115 12.7302 81.4757 14.6779 74.2038C16.694 66.6775 12.5051 56.577 16.3123 49.9902C20.1783 43.3055 31.0519 41.906 36.4838 36.4838C41.9157 31.0617 43.3055 20.1783 49.9902 16.3123C56.577 12.4953 66.6775 16.6843 74.2038 14.6779C81.4757 12.7302 88.1115 4 96 4C103.889 4 110.524 12.7302 117.796 14.6779C125.323 16.694 135.423 12.5051 142.01 16.3123C148.694 20.1783 150.094 31.0519 155.516 36.4838C160.938 41.9157 171.822 43.3055 175.688 49.9902C179.505 56.577 175.316 66.6775 177.322 74.2038C179.27 81.4757 188 88.1115 188 96C188 103.889 179.27 110.524 177.322 117.796C175.306 125.323 179.495 135.423 175.688 142.01C171.822 148.694 160.948 150.094 155.516 155.516C150.094 160.938 148.694 171.822 142.01 175.688C135.423 179.505 125.323 175.316 117.796 177.322C110.524 179.27 103.889 188 96 188Z" fill="url(#paint0_linear)"/>
<path d="M175.609 142.029C179.426 135.443 175.237 125.342 177.244 117.816C178.066 114.743 180.102 111.787 182.177 108.792C160.625 86.4869 138.095 63.3303 137.987 63.8686C137.772 64.8962 82.66 130.216 82.66 130.216L124.06 171.577L129.874 177.175C134.268 177.508 138.555 177.655 141.922 175.707C148.606 171.841 150.006 160.968 155.428 155.536C160.86 150.114 171.743 148.714 175.609 142.029Z" fill="black" fill-opacity="0.1"/>
<path fill-rule="evenodd" clip-rule="evenodd" d="M146.649 71.7177L134.19 59.2586C133.426 58.4952 132.183 58.4952 131.42 59.2586L88.3953 102.283C87.6319 103.047 86.389 103.047 85.6256 102.283L60.5702 77.2279C59.8068 76.4645 58.5639 76.4645 57.8005 77.2279L45.3511 89.6871C44.5877 90.4505 44.5877 91.6935 45.3511 92.4569L85.6353 132.741C86.3988 133.505 87.6417 133.505 88.4051 132.741L146.649 74.4973C147.412 73.7241 147.412 72.4811 146.649 71.7177Z" fill="white"/>
<defs>
<linearGradient id="paint0_linear" x1="96" y1="4" x2="96" y2="188" gradientUnits="userSpaceOnUse">
<stop offset="0.0217" stop-color="white" stop-opacity="0.2"/>
<stop offset="1" stop-opacity="0.2"/>
</linearGradient>
</defs>
</svg>
