<svg width="40" height="40" viewBox="0 0 40 40" fill="none" xmlns="http://www.w3.org/2000/svg">
<circle cx="20" cy="20" r="17.5" fill="white"/>
<path fill-rule="evenodd" clip-rule="evenodd" d="M20 37.5C29.665 37.5 37.5 29.665 37.5 20C37.5 10.335 29.665 2.5 20 2.5C10.335 2.5 2.5 10.335 2.5 20C2.5 29.665 10.335 37.5 20 37.5ZM14.3663 24.375H12.5474L9.00646 18.6178V24.375H7.1875V15.625H9.00646L12.5534 21.3942V15.625H14.3663V24.375ZM21.5146 20.5829H18.0222V22.9267H22.1209V24.375H16.2032V15.625H22.1088V17.0853H18.0222V19.1707H21.5146V20.5829ZM31.6246 15.625L30.4362 21.851L28.9871 15.625H27.4471L25.9919 21.8389L24.7974 15.625H22.9846L24.943 24.375H26.774L28.211 18.5216L29.648 24.375H31.4791L33.4375 15.625H31.6246Z" fill="#4DC4FF"/>
</svg>
