<svg width="52" height="52" viewBox="0 0 52 52" fill="none" xmlns="http://www.w3.org/2000/svg">
<path d="M25.5419 0.291708C25.7816 0.00823304 26.2186 0.00823262 26.4582 0.291708L27.9395 2.04364C28.149 2.29145 28.5176 2.32776 28.7715 2.12558L30.5661 0.696296C30.8565 0.465028 31.2851 0.55028 31.4648 0.875068L32.5759 2.88232C32.733 3.16625 33.0875 3.27376 33.3759 3.125L35.4148 2.07328C35.7447 1.90311 36.1485 2.07034 36.2614 2.42396L36.9595 4.60939C37.0583 4.91852 37.3849 5.09312 37.6968 5.00348L39.9018 4.36976C40.2585 4.26721 40.6219 4.50999 40.6637 4.87885L40.922 7.15849C40.9585 7.48094 41.2448 7.71591 41.5682 7.68884L43.8545 7.49746C44.2244 7.46649 44.5334 7.77549 44.5024 8.14542L44.311 10.4316C44.284 10.755 44.5189 11.0413 44.8414 11.0779L47.121 11.3362C47.4899 11.378 47.7327 11.7413 47.6301 12.0981L46.9964 14.3031C46.9067 14.615 47.0813 14.9416 47.3905 15.0404L49.5759 15.7384C49.9295 15.8514 50.0968 16.2551 49.9266 16.585L48.8749 18.624C48.7261 18.9124 48.8336 19.2668 49.1176 19.424L51.1248 20.535C51.4496 20.7148 51.5348 21.1434 51.3036 21.4338L49.8743 23.2284C49.6721 23.4822 49.7084 23.8508 49.9562 24.0604L51.7082 25.5416C51.9916 25.7813 51.9916 26.2183 51.7082 26.458L49.9562 27.9393C49.7084 28.1488 49.6721 28.5174 49.8743 28.7712L51.3036 30.5658C51.5348 30.8562 51.4496 31.2848 51.1248 31.4646L49.1176 32.5756C48.8336 32.7328 48.7261 33.0872 48.8749 33.3756L49.9266 35.4146C50.0968 35.7445 49.9295 36.1482 49.5759 36.2612L47.3905 36.9593C47.0813 37.058 46.9067 37.3847 46.9964 37.6966L47.6301 39.9015C47.7327 40.2583 47.4899 40.6216 47.121 40.6634L44.8414 40.9217C44.5189 40.9583 44.284 41.2446 44.311 41.568L44.5024 43.8542C44.5334 44.2241 44.2244 44.5331 43.8545 44.5022L41.5682 44.3108C41.2448 44.2837 40.9585 44.5187 40.922 44.8411L40.6637 47.1208C40.6219 47.4896 40.2585 47.7324 39.9018 47.6299L37.6968 46.9961C37.3849 46.9065 37.0583 47.0811 36.9595 47.3902L36.2614 49.5757C36.1485 49.9293 35.7447 50.0965 35.4148 49.9263L33.3759 48.8746C33.0875 48.7259 32.733 48.8334 32.5759 49.1173L31.4648 51.1246C31.2851 51.4493 30.8565 51.5346 30.5661 51.3033L28.7715 49.874C28.5176 49.6719 28.149 49.7082 27.9395 49.956L26.4582 51.7079C26.2186 51.9914 25.7816 51.9914 25.5419 51.7079L24.0606 49.956C23.8511 49.7082 23.4825 49.6719 23.2286 49.874L21.434 51.3033C21.1437 51.5346 20.7151 51.4493 20.5353 51.1246L19.4243 49.1173C19.2671 48.8334 18.9127 48.7259 18.6243 48.8746L16.5853 49.9263C16.2554 50.0965 15.8516 49.9293 15.7387 49.5757L15.0406 47.3902C14.9419 47.0811 14.6152 46.9065 14.3033 46.9961L12.0984 47.6299C11.7416 47.7324 11.3782 47.4896 11.3364 47.1208L11.0781 44.8411C11.0416 44.5187 10.7553 44.2837 10.4319 44.3108L8.14566 44.5022C7.77573 44.5331 7.46673 44.2241 7.4977 43.8542L7.68908 41.568C7.71615 41.2446 7.48119 40.9583 7.15873 40.9217L4.8791 40.6634C4.51024 40.6216 4.26746 40.2583 4.37 39.9015L5.00372 37.6966C5.09336 37.3847 4.91877 37.058 4.60964 36.9593L2.4242 36.2612C2.07058 36.1482 1.90335 35.7445 2.07353 35.4146L3.12524 33.3756C3.27401 33.0872 3.16649 32.7328 2.88256 32.5756L0.875312 31.4646C0.550525 31.2848 0.465272 30.8562 0.69654 30.5658L2.12583 28.7712C2.328 28.5174 2.2917 28.1488 2.04388 27.9393L0.291952 26.458C0.00847718 26.2183 0.00847676 25.7813 0.291952 25.5416L2.04388 24.0604C2.2917 23.8508 2.328 23.4822 2.12583 23.2284L0.696541 21.4338C0.465272 21.1434 0.550525 20.7148 0.875312 20.535L2.88256 19.424C3.16649 19.2668 3.27401 18.9124 3.12524 18.624L2.07353 16.585C1.90335 16.2551 2.07058 15.8514 2.4242 15.7384L4.60964 15.0404C4.91877 14.9416 5.09336 14.615 5.00372 14.3031L4.37 12.0981C4.26746 11.7413 4.51024 11.378 4.8791 11.3362L7.15873 11.0779C7.48119 11.0413 7.71615 10.755 7.68908 10.4316L7.4977 8.14542C7.46673 7.77549 7.77573 7.46649 8.14566 7.49746L10.4319 7.68884C10.7553 7.71591 11.0416 7.48095 11.0781 7.15849L11.3364 4.87885C11.3782 4.50999 11.7416 4.26721 12.0984 4.36976L14.3033 5.00348C14.6152 5.09312 14.9419 4.91852 15.0406 4.60939L15.7387 2.42396C15.8516 2.07034 16.2554 1.90311 16.5853 2.07328L18.6243 3.125C18.9127 3.27376 19.2671 3.16625 19.4243 2.88232L20.5353 0.875068C20.7151 0.550281 21.1437 0.465028 21.434 0.696296L23.2286 2.12558C23.4825 2.32776 23.8511 2.29145 24.0606 2.04364L25.5419 0.291708Z" fill="#BF0000"/>
</svg>
