<svg width="32" height="32" viewBox="0 0 32 32" fill="none" xmlns="http://www.w3.org/2000/svg">
<path fill-rule="evenodd" clip-rule="evenodd" d="M28.7247 9.47816C28.7378 9.75963 28.7434 10.0426 28.7434 10.3269C28.7434 19.0021 22.1398 29.0066 10.0637 29.0066C6.35558 29.0066 2.90573 27.9197 0 26.0576C0.51392 26.1182 1.03642 26.1486 1.56608 26.1486C4.64205 26.1486 7.47277 25.0993 9.72019 23.3383C6.84634 23.2848 4.42278 21.3867 3.58694 18.7783C3.98682 18.8549 4.39821 18.8967 4.82112 18.8967C5.42016 18.8967 6.00038 18.8158 6.55181 18.6658C3.54803 18.0638 1.28474 15.4092 1.28474 12.2294C1.28474 12.2006 1.28474 12.173 1.28614 12.1457C2.17088 12.6379 3.18285 12.9339 4.25958 12.9669C2.49715 11.7906 1.33811 9.77985 1.33811 7.50211C1.33811 6.29969 1.66285 5.1724 2.2272 4.20242C5.46496 8.17487 10.3034 10.7875 15.7596 11.0618C15.6471 10.581 15.5892 10.0801 15.5892 9.56481C15.5892 5.94026 18.5297 3 22.1556 3C24.0436 3 25.7499 3.7982 26.9478 5.07422C28.4433 4.7797 29.8477 4.23276 31.1167 3.48076C30.6259 5.01368 29.5852 6.29969 28.2298 7.11248C29.5576 6.95363 30.8236 6.60138 32 6.07889C31.1209 7.39536 30.0067 8.55157 28.7247 9.47816Z" fill="#1DA1F2"/>
</svg>
