<svg width="32" height="32" viewBox="0 0 32 32" fill="none" xmlns="http://www.w3.org/2000/svg">
<path fill-rule="evenodd" clip-rule="evenodd" d="M32 14.4843C32 7.32492 24.8226 1.5 15.9998 1.5C7.17812 1.5 0 7.32492 0 14.4843C0 20.9029 5.69203 26.2781 13.381 27.2943C13.9021 27.4067 14.6111 27.6382 14.7906 28.0835C14.9517 28.4878 14.896 29.1217 14.8422 29.5304C14.8422 29.5304 14.6547 30.6594 14.6137 30.9C14.5441 31.3043 14.2922 32.482 15.9998 31.7624C17.7078 31.0428 25.2141 26.3367 28.5711 22.4728H28.5704C30.8893 19.9302 32 17.3495 32 14.4843Z" fill="#00B900"/>
<path fill-rule="evenodd" clip-rule="evenodd" d="M26.6715 12.7706C26.8436 12.7706 26.9828 12.6311 26.9828 12.459V11.3365C26.9828 11.1644 26.8436 11.0249 26.6715 11.0249H22.1883H22.1876C22.1034 11.0249 22.0279 11.0582 21.9715 11.1128C21.9704 11.1139 21.969 11.115 21.9679 11.1161C21.966 11.1179 21.9642 11.1198 21.9631 11.1216C21.9096 11.1772 21.8767 11.2527 21.8767 11.3362V11.3365V18.3073V18.3077C21.8767 18.3912 21.91 18.467 21.9638 18.523C21.9649 18.5241 21.9664 18.526 21.9679 18.5274C21.9693 18.5289 21.9712 18.5304 21.9723 18.5315C22.0283 18.5853 22.1041 18.6186 22.1876 18.6186H22.1883H26.6715C26.8436 18.6186 26.9828 18.4791 26.9828 18.3073V17.1845C26.9828 17.0124 26.8436 16.8729 26.6715 16.8729H23.6224V15.6944H26.6715C26.8436 15.6944 26.9828 15.5553 26.9828 15.3828V14.2607C26.9828 14.0886 26.8436 13.9487 26.6715 13.9487H23.6224V12.7706H26.6715Z" fill="white"/>
<path fill-rule="evenodd" clip-rule="evenodd" d="M20.4738 11.0249H19.3517C19.1792 11.0249 19.0397 11.1644 19.0397 11.3362V15.478L15.8449 11.1633C15.8375 11.1523 15.8291 11.1417 15.8207 11.1318L15.8189 11.1296C15.8126 11.123 15.8064 11.1165 15.7998 11.1106C15.798 11.1088 15.7961 11.1069 15.7943 11.1051C15.7888 11.1003 15.7833 11.0956 15.7775 11.0912C15.7749 11.089 15.7723 11.0868 15.7694 11.085C15.7643 11.0813 15.7588 11.0776 15.7533 11.074C15.7504 11.0718 15.7471 11.0703 15.7438 11.0685C15.7383 11.0652 15.7328 11.0619 15.7273 11.059C15.724 11.0575 15.7207 11.0557 15.7174 11.0542C15.7116 11.0516 15.7057 11.0487 15.6995 11.0465C15.6958 11.0454 15.6929 11.0439 15.6896 11.0432C15.6834 11.0406 15.6771 11.0388 15.6709 11.037C15.6672 11.0359 15.6639 11.0352 15.6599 11.0341C15.6541 11.0326 15.6482 11.0315 15.6423 11.0304C15.6379 11.0293 15.6332 11.0289 15.6292 11.0286C15.6237 11.0275 15.6182 11.0267 15.6127 11.0264C15.6072 11.026 15.6021 11.0256 15.5966 11.0253C15.5925 11.0253 15.5892 11.0249 15.5856 11.0249H14.4635C14.2914 11.0249 14.1519 11.1644 14.1519 11.3362V18.3077C14.1519 18.4791 14.2914 18.6183 14.4635 18.6183H15.5856C15.7577 18.6183 15.8976 18.4791 15.8976 18.3077V14.167L19.0961 18.4871C19.1181 18.5183 19.1455 18.5435 19.1752 18.5641C19.1763 18.5648 19.1774 18.5655 19.1785 18.5666C19.1847 18.5703 19.1913 18.5747 19.1979 18.578C19.2008 18.5798 19.2038 18.5816 19.2067 18.5831C19.2114 18.5857 19.2166 18.5879 19.2217 18.5901C19.2265 18.5923 19.2312 18.5944 19.2367 18.5966C19.24 18.5981 19.2429 18.5992 19.2459 18.6003C19.2532 18.6025 19.2601 18.6047 19.2675 18.6069C19.2686 18.6073 19.2704 18.6076 19.2719 18.608C19.2971 18.615 19.3239 18.6183 19.3517 18.6183H20.4738C20.6459 18.6183 20.7854 18.4791 20.7854 18.3077V11.3362C20.7854 11.1644 20.6459 11.0249 20.4738 11.0249Z" fill="white"/>
<path fill-rule="evenodd" clip-rule="evenodd" d="M12.749 11.0249H11.6265C11.4544 11.0249 11.3149 11.1644 11.3149 11.3362V18.3077C11.3149 18.4791 11.4544 18.6183 11.6265 18.6183H12.749C12.9211 18.6183 13.0606 18.4791 13.0606 18.3077V11.3362C13.0606 11.1644 12.9211 11.0249 12.749 11.0249Z" fill="white"/>
<path fill-rule="evenodd" clip-rule="evenodd" d="M10.0435 16.873H6.99407V11.3363C6.99407 11.1642 6.85454 11.0247 6.68279 11.0247H5.56035C5.38823 11.0247 5.2487 11.1642 5.2487 11.3363V18.3071V18.3075C5.2487 18.3913 5.28203 18.4668 5.33586 18.5228C5.33696 18.5243 5.33806 18.5261 5.33989 18.5276C5.34172 18.529 5.34319 18.5305 5.34428 18.5319C5.40068 18.5854 5.47612 18.6187 5.55962 18.6187H5.56035H10.0435C10.2156 18.6187 10.3548 18.4788 10.3548 18.3071V17.1847C10.3548 17.0125 10.2156 16.873 10.0435 16.873Z" fill="white"/>
</svg>
