<svg width="32" height="32" viewBox="0 0 32 32" fill="none" xmlns="http://www.w3.org/2000/svg">
<path fill-rule="evenodd" clip-rule="evenodd" d="M0 0.000366211H31.9995V31.9999H0V0.000366211Z" fill="white"/>
<path fill-rule="evenodd" clip-rule="evenodd" d="M22.9915 26.7905C22.2903 26.7905 21.4903 26.6972 20.7963 26.5125C16.7735 25.4309 13.9182 21.5855 12.9234 19.8438V25.7299H7.92685V19.0392V5.20984L16.1362 5.21624C19.9204 5.31681 23.0336 8.42901 23.0336 12.2653C23.0336 15.4415 20.9463 18.1268 18.058 19.0081C19.0601 20.3402 20.5138 21.8177 22.1476 22.2511C22.9458 22.4623 23.7531 22.4065 24.5879 22.081C25.0514 22.8161 25.6009 23.4981 26.2244 24.118C26.698 24.5898 27.1908 25.0222 27.7303 25.4017C26.2016 26.3187 24.5723 26.7905 22.9915 26.7905ZM15.9147 9.24768H12.9232V14.7416H15.7191C17.1682 14.7416 18.2992 13.5128 18.2992 12.0637C18.2992 10.6346 17.3502 9.24768 15.9147 9.24768ZM0 31.9997H32V0H0V31.9997Z" fill="#C61E79"/>
</svg>
