<svg width="32" height="32" viewBox="0 0 32 32" fill="none" xmlns="http://www.w3.org/2000/svg">
<path fill-rule="evenodd" clip-rule="evenodd" d="M25.4784 0H6.52166C2.91987 0 6.10352e-05 2.91978 6.10352e-05 6.52155V25.4782C6.10352e-05 29.08 2.91987 31.9998 6.52166 31.9998H25.4784C29.0803 31.9998 32.0001 29.08 32.0001 25.4782V6.52155C32.0001 2.91978 29.0803 0 25.4784 0Z" fill="white"/>
<path fill-rule="evenodd" clip-rule="evenodd" d="M24.7296 21.4334C24.7296 22.4514 23.9043 23.2766 22.8864 23.2766C21.8684 23.2766 21.0432 22.4514 21.0432 21.4334C21.0432 20.4155 21.8684 19.5902 22.8864 19.5902C23.9043 19.5902 24.7296 20.4155 24.7296 21.4334ZM18.1824 21.1647C17.8617 21.7504 17.3737 22.2272 16.7808 22.5343C16.288 22.7967 15.68 22.9887 14.9504 23.104C14.2208 23.2149 13.0304 23.2703 11.3792 23.2703H7.27045V8.72961H11.2576C12.896 8.72961 14.0416 8.77441 14.6944 8.88321C15.3472 8.99201 15.904 9.17761 16.3712 9.43361C16.8836 9.70829 17.3092 10.1206 17.6 10.624C17.8875 11.1562 18.033 11.7536 18.0224 12.3584C18.0224 13.184 17.8176 13.8304 17.3952 14.3232C16.9728 14.816 16.3072 15.1808 15.3856 15.4304C16.4182 15.5072 17.2246 15.8698 17.8048 16.5184C18.3872 17.1647 18.6752 18.0287 18.6752 19.1103C18.6752 19.8911 18.5088 20.576 18.1824 21.1647ZM13.7536 14.5471C14.112 14.3295 14.2976 13.9775 14.2976 13.4335C14.2976 12.8895 14.1312 12.5055 13.792 12.2815C13.4549 12.0596 12.7936 11.9487 11.808 11.9487H10.9568V14.8671H11.744C12.7232 14.8671 13.3952 14.7647 13.7536 14.5471ZM14.3808 17.8367C14.0288 17.5935 13.3632 17.4719 12.4032 17.4719H10.9568V20.6399H12.3456C13.28 20.6399 13.9456 20.5246 14.336 20.2879L14.3296 20.2942C14.7264 20.0574 14.9184 19.7311 14.9184 19.1166C14.9184 18.5023 14.7328 18.0799 14.3808 17.8367ZM21.2864 18.4269H24.4864V8.72961H21.2864V18.4269ZM25.4784 0H6.52166C2.91987 0 6.10352e-05 2.91978 6.10352e-05 6.52155V25.4782C6.10352e-05 29.08 2.91987 31.9998 6.52166 31.9998H25.4784C29.0803 31.9998 32.0001 29.08 32.0001 25.4782V6.52155C32.0001 2.91978 29.0803 0 25.4784 0Z" fill="#00A4DE"/>
</svg>
