<svg width="32" height="32" viewBox="0 0 32 32" fill="none" xmlns="http://www.w3.org/2000/svg">
<path fill-rule="evenodd" clip-rule="evenodd" d="M28.64 17.9398C27.9116 23.8002 23.9668 24.714 22.5542 25.0413C22.3995 25.0772 22.2752 25.106 22.1888 25.1334C21.8135 25.2534 18.3401 26.1178 13.9719 25.8297C13.9719 25.8297 10.7151 29.7482 9.69998 30.7711C9.54123 30.9296 9.35361 30.9968 9.22852 30.9633C9.05533 30.9199 9.00724 30.7135 9.00724 30.411C9.01203 29.9788 9.03607 25.0565 9.03607 25.0565C2.88605 23.3523 3.02957 17.0946 3.11097 13.544C3.11374 13.4229 3.11646 13.305 3.11884 13.1904C3.19098 9.71853 3.84525 6.87563 5.784 4.96438C9.27182 1.81423 16.4543 2.28481 16.4543 2.28481C22.5207 2.31362 25.4264 4.13369 26.0999 4.74355C28.3322 6.65957 29.4723 11.236 28.64 17.9398ZM27.7692 3.12038C26.9706 2.3904 23.7522 0.0566611 16.5841 0.0229697C16.5841 0.0229697 8.1268 -0.486063 4.00397 3.28847C1.70923 5.57912 0.901035 8.93093 0.819247 13.0896C0.732639 17.2483 0.622012 25.0326 8.14606 27.1455H8.15085L8.14606 30.3677C8.14606 30.3677 8.09793 31.674 8.95908 31.938C9.82682 32.2067 10.396 31.5612 11.14 30.7173C11.287 30.5507 11.4408 30.3762 11.605 30.1996C12.1486 29.6138 12.9039 28.7494 13.4716 28.0915C18.6144 28.5237 22.5736 27.5344 23.021 27.3904C23.0454 27.3825 23.0724 27.3743 23.102 27.3659C23.1343 27.3567 23.1696 27.3471 23.2078 27.3371C23.2676 27.3212 23.3344 27.3042 23.4076 27.2857C25.0697 26.8638 30.0238 25.606 30.8914 18.516C31.8776 10.4917 30.4103 5.41103 27.7692 3.12038ZM19.5329 13.3167C19.3179 13.3167 19.1387 13.1481 19.1282 12.9315C19.0617 11.5573 18.4131 10.8845 17.087 10.8142C16.8634 10.8024 16.6918 10.6118 16.7036 10.3886C16.7155 10.1653 16.9055 9.99355 17.1301 10.0059C18.8802 10.0987 19.8512 11.0968 19.9382 12.8925C19.9489 13.1156 19.7764 13.3054 19.5528 13.3162L19.54 13.3167H19.5329ZM21.6022 14.0128L21.6116 14.013C21.8312 14.013 22.0118 13.8377 22.0168 13.6173C22.0528 12.037 21.5734 10.6945 20.592 9.62722C19.6112 8.56057 18.2401 7.95778 16.5167 7.83571C16.2944 7.81972 16.0994 7.98769 16.0835 8.21071C16.0677 8.43361 16.2359 8.62722 16.4592 8.64309C17.9903 8.75161 19.1467 9.25258 19.9946 10.1746C20.8413 11.0955 21.2376 12.2156 21.2061 13.5989C21.201 13.8224 21.3784 14.0077 21.6022 14.0128ZM23.7426 14.8436C23.5201 14.8436 23.3388 14.6644 23.3372 14.442C23.3189 12.0031 22.5847 10.0587 21.1548 8.66323C19.7213 7.2687 17.9106 6.55446 15.7734 6.54079C15.5495 6.53933 15.3691 6.35695 15.3705 6.13344C15.372 5.91079 15.5533 5.73134 15.776 5.73134H15.7786C18.1327 5.74636 20.132 6.53798 21.7213 8.084C23.3118 9.63637 24.1281 11.7733 24.1481 14.4359C24.1498 14.6594 23.9696 14.8421 23.7457 14.8436H23.7426ZM18.0659 18.0022C17.7628 18.3816 17.1903 18.3335 17.1903 18.3335C13.0242 17.2722 11.9081 13.0608 11.9081 13.0608C11.9081 13.0608 11.86 12.4942 12.2401 12.1868L12.9905 11.5913C13.3658 11.3032 13.6015 10.607 13.2215 9.92495C13.0098 9.54567 12.5864 8.86855 12.2737 8.44118C11.9418 7.98977 11.1721 7.06765 11.1673 7.06289C10.7968 6.62111 10.2484 6.52028 9.67111 6.81801C9.67111 6.81801 9.66629 6.82277 9.66153 6.82277C9.11307 7.13015 8.60318 7.54311 8.12686 8.06655L8.11722 8.07619C7.76129 8.50356 7.55439 8.92617 7.50626 9.33913C7.49671 9.38723 7.49182 9.4496 7.49671 9.52163C7.49182 9.70412 7.52075 9.88173 7.57843 10.0595L7.59766 10.0739C7.77567 10.7125 8.22788 11.7738 9.20453 13.5458C9.83948 14.6935 10.489 15.654 11.1336 16.4607C11.4703 16.8881 11.8552 17.3251 12.2978 17.7717L12.3411 17.8148L12.3844 17.8582L12.4277 17.9014L12.471 17.9446C12.9184 18.3864 13.3562 18.7705 13.7843 19.1067C14.5925 19.7501 15.5499 20.3985 16.7045 21.0324C18.4796 22.0072 19.5428 22.4585 20.1827 22.6363L20.1971 22.6555C20.3751 22.7132 20.5531 22.7371 20.7359 22.7371C20.808 22.742 20.8706 22.7371 20.9187 22.7276C21.3325 22.6795 21.7558 22.473 22.1839 22.1177L22.1935 22.1081C22.7179 21.6326 23.1317 21.1188 23.4395 20.5761C23.4395 20.5761 23.4444 20.5713 23.4444 20.5665C23.7426 19.9903 23.6416 19.4429 23.199 19.073C23.199 19.073 22.2706 18.2999 21.8183 17.9685C21.395 17.6564 20.7118 17.2387 20.3318 17.0225C19.6487 16.6432 18.9511 16.8784 18.6625 17.2531L18.0659 18.0022Z" fill="#665CAC"/>
</svg>
