<svg width="32" height="32" viewBox="0 0 32 32" fill="none" xmlns="http://www.w3.org/2000/svg">
<path fill-rule="evenodd" clip-rule="evenodd" d="M30.2337 0H1.76609C0.790483 0 0 0.790597 0 1.76607V30.2335C0 31.2089 0.790483 31.9997 1.76609 31.9997H17.0921V19.6077H12.9219V14.7783H17.0921V11.2168C17.0921 7.08372 19.6164 4.83314 23.3035 4.83314C25.0696 4.83314 26.5876 4.96455 27.03 5.0233V9.34268L24.4727 9.34388C22.4676 9.34388 22.0792 10.2967 22.0792 11.6949V14.7783H26.8616L26.2388 19.6077H22.0792V31.9997H30.2337C31.2089 31.9997 31.9998 31.2089 31.9998 30.2335V1.76607C31.9998 0.790597 31.2089 0 30.2337 0Z" fill="#3C5A99"/>
</svg>
