<svg xmlns="http://www.w3.org/2000/svg" viewBox="0 0 94 28"><defs><style>.cls-1{fill:none}.cls-2{fill:#bf0000}.cls-3{fill:#fff}</style></defs><path class="cls-1" d="M20.249 26.4H-1.46A1.54 1.54 0 01-3 24.855V3.145a1.54 1.54 0 011.54-1.54h21.709a1.54 1.54 0 011.54 1.54v21.71a1.54 1.54 0 01-1.54 1.545z"/><path class="cls-2" d="M4.034 23.854l-2.569-2.156h18.014L4.034 23.854z"/><path class="cls-2" d="M6.96 20.082v-4.775h2.069l3.582 4.775h3.663l-4.329-5.762a5.307 5.307 0 00-3.076-9.635H4.034v15.4zm0-12.474h1.909a2.387 2.387 0 110 4.773H6.96z"/><g><path class="cls-2" d="M58.9 21.22l-.433-.961a2.94 2.94 0 001.806-.773 2.155 2.155 0 00.358-1.223h-2.38v-.994h5.559v.994h-2.059c-.135 1.909-1.021 2.608-2.851 2.957zm3.679-5.6v.98h-3.8v-.987zm.575-.477a6.247 6.247 0 01.413 1.384l-.548.181a5.892 5.892 0 00-.372-1.4zm.906-.182a5.777 5.777 0 01.42 1.378l-.548.181a5.508 5.508 0 00-.386-1.391z"/><path class="cls-2" d="M67.264 21.213h-1v-2.15a9.485 9.485 0 01-1.806.807l-.441-.87a7.555 7.555 0 002.158-1 7.65 7.65 0 001.792-1.626l.825.618a9.463 9.463 0 01-1.528 1.408z"/><path class="cls-2" d="M74.955 20.306l-.907.88a20.887 20.887 0 00-1.893-1.894 7.867 7.867 0 01-2.57 1.854l-.609-.893a6.3 6.3 0 003.578-3.553h-3.179v-1.017h4.606a6.683 6.683 0 01-1.164 2.809 18.532 18.532 0 012.138 1.814z"/><path class="cls-2" d="M76.517 17.853a4.031 4.031 0 01-.737.578l-.717-.813A4.049 4.049 0 0076.8 15.65h3.85a6.2 6.2 0 01-1.3 3.581 6.127 6.127 0 01-3.314 2l-.562-.968a5.282 5.282 0 002.687-1.363 9.39 9.39 0 00-1.644-1.047zm2.814-1.229h-1.806c-.122.188-.25.363-.386.538a8.029 8.029 0 011.657.954 4.087 4.087 0 00.535-1.492z"/><path class="cls-2" d="M83.869 16.657l-.568.975a8.756 8.756 0 00-2.11-1.022l.48-.914a9.019 9.019 0 012.198.961zm-2.55 3.259a5.449 5.449 0 003.111-1.095 5.783 5.783 0 001.556-2.836l.947.652c-.866 2.829-2.435 4.073-5.37 4.435z"/><path class="cls-2" d="M92.891 20.306l-.906.88a20.771 20.771 0 00-1.894-1.894 7.867 7.867 0 01-2.57 1.854l-.609-.893A6.293 6.293 0 0090.49 16.7h-3.178v-1.017h4.606a6.683 6.683 0 01-1.164 2.809 18.523 18.523 0 012.137 1.814z"/></g><g><path class="cls-2" d="M60.614 8.943l-1.2.734a9.236 9.236 0 00-1.452-2.211l1.085-.622a9.768 9.768 0 011.567 2.099zm2.314 2.1a6.6 6.6 0 01-3.632 2.2l-.83-1.118a6.072 6.072 0 003.305-1.82 7.635 7.635 0 001.357-3.592L64.557 7a9.763 9.763 0 01-1.628 4.039z"/><path class="cls-2" d="M70.515 9.166v1.318h-5.807V9.166z"/><path class="cls-2" d="M74.1 9.286l-.5 1.125a9.937 9.937 0 00-2.323-.981l.447-1.046a8.478 8.478 0 012.376.902zm-2.339 2.53a6.063 6.063 0 003.456-1.157 6.8 6.8 0 001.724-3.185l1.11.8a7.751 7.751 0 01-2.123 3.481 7.51 7.51 0 01-3.9 1.436zm3.065-4.438L74.312 8.5a11.258 11.258 0 00-2.4-.926l.463-1.022a10.146 10.146 0 012.448.826z"/><path class="cls-2" d="M82.111 13.261l-1.189.136-.471-3.313-1.461.216-.151-1.126 1.452-.191-.183-1.269 1.173-.114.176 1.229 3.049-.4a3.781 3.781 0 01-1.549 3.337l-.878-.783a2.411 2.411 0 001.078-1.3l-1.541.231z"/><path class="cls-2" d="M87.516 8.512c0 1.644-.16 3.592-1.421 4.8l-.967-.982a4.914 4.914 0 001.118-3.7v-1.9h1.269zm2.163 3.033a2.285 2.285 0 001.077-.9 4.571 4.571 0 00.583-1.7l1.213.519a5.569 5.569 0 01-1.133 2.426 4.109 4.109 0 01-3.009 1.253V6.524h1.269z"/></g><g><path class="cls-2" d="M32.807 13.677v.459h-.576v-2.009h.835c0-.065.009-.125.014-.186h-.8v-1.327h.529v.562a3.19 3.19 0 00.33-.218 2.967 2.967 0 00-.256-.181l.232-.251c.1.065.2.125.288.191a2.2 2.2 0 00.186-.223h-1.455v-.53h.905v-.236h.626v.236h.882v.53H33.6l.283.171a2.823 2.823 0 01-.2.274c.079.07.153.144.228.223l-.274.278a2.216 2.216 0 00-.218-.236 2.3 2.3 0 01-.371.246l-.241-.269v.311h1.123v-.877h.487v.413a3.324 3.324 0 00.427-1.314l.608.065a3.957 3.957 0 01-.14.655h.251a4.032 4.032 0 00.209-.687l.608.046a5.768 5.768 0 01-.223.64h.329v.608h-.329v.432h.264v.556h-.264v.437h.264v.552h-.264v.441h.366v.635h-1.856V11.77a.77.77 0 01-.111.125l-.139-.26v.306h-.854c-.009.06-.023.12-.037.186h.965V13.8a.3.3 0 01-.329.339h-.534l-.1-.636c-.239.062-.48.123-.721.174zm.213-1.044h-.213v.561c.041-.005.083-.005.124-.009.033-.185.069-.367.089-.552zm.441.181l.278-.075a6.211 6.211 0 01.191.655v-.761h-.515c-.047.171-.093.339-.144.506.088-.014.176-.028.26-.047a3.14 3.14 0 00-.07-.278zm1.814-1.773v.432h.293v-.432zm0 .988v.437h.293v-.437zm0 .989v.441h.293v-.441z"/><path class="cls-2" d="M37.172 11.31v-.7h.761v-.655h.767c-.014.283-.019.562-.024.84a1.817 1.817 0 011.2-.538c.547 0 .784.362.784.872v.256l-.023.756a9.85 9.85 0 00-.014.52c0 .3.028.408.511.408.046 0 .088-.005.13-.005l-.172.743a2.155 2.155 0 01-.84-.139c-.376-.182-.4-.567-.4-.929 0-.194.014-.389.019-.584l.028-.715v-.14c0-.158-.061-.283-.237-.283-.367 0-.78.422-1 .691 0 .306-.009.617-.009.924 0 .431.005.858.028 1.29h-.752v-.2c0-.352.005-.7.009-1.062a4.828 4.828 0 01-.538.719l-.348-.757a5.372 5.372 0 00.891-1.058V11.3z"/><path class="cls-2" d="M42.521 10.206c.534-.028 1.067-.06 1.6-.079l1.072-.028.023.743a5.227 5.227 0 00-.376-.014 2.9 2.9 0 00-.455.037 2.221 2.221 0 00-1.155.738 1.286 1.286 0 00-.348.826.6.6 0 00.158.394.942.942 0 00.455.2 4.76 4.76 0 00.923.084c.139 0 .279-.005.418-.014l-.1.8a5.1 5.1 0 01-1.759-.227 1.248 1.248 0 01-.858-1.207 1.97 1.97 0 01.993-1.559c-.608.051-1.216.093-1.819.172l-.042-.8c.421-.001.849-.038 1.27-.066z"/><path class="cls-2" d="M45.779 10.275v-.269h.942v.269l-.149 2.358h-.645zm.051 2.7h.84v.766h-.84z"/><path class="cls-2" d="M54.392 4.055H24.246a1.874 1.874 0 00-1.873 1.873v16.144a1.874 1.874 0 001.873 1.873h30.146a1.874 1.874 0 001.873-1.873V5.928a1.874 1.874 0 00-1.873-1.873zm.981 18.03a.968.968 0 01-.968.968H24.233a.968.968 0 01-.968-.968V5.915a.968.968 0 01.968-.968h30.172a.968.968 0 01.968.968z"/><g><path class="cls-2" d="M28.954 15.708v.652q-.047 1.407-.1 2.812c-.017.469-.038.938-.059 1.406a.275.275 0 01-.259.291h-2.51c-.22 0-.321-.106-.33-.334-.012-.331-.017-.663-.029-.994q-.048-1.405-.1-2.812l-.027-.926a.81.81 0 00-.012-.1h-.5a.537.537 0 01-.2-.033.3.3 0 01-.16-.307q0-1.251.005-2.5v-1.944c0-.272.1-.37.37-.37l4.424.008c.273 0 .364.088.364.36q0 2.233-.008 4.468c0 .227-.1.328-.327.329a21.52 21.52 0 00-.542-.006z"/><path class="cls-2" d="M26.61 8.539h1.347a.258.258 0 01.156.056l.571-.365a1.433 1.433 0 00-2.8-.005l.569.367a.264.264 0 01.157-.053z"/><path class="cls-2" d="M28.222 8.808v.412l.23.149a1.426 1.426 0 00.266-.829v-.1l-.5.32a.277.277 0 01.004.048z"/><path class="cls-2" d="M26.344 8.805a.277.277 0 01.01-.05l-.5-.323v.112a1.426 1.426 0 00.288.85l.206-.131z"/><path class="cls-2" d="M27.955 9.554h-1.346a.264.264 0 01-.206-.1l-.142.091a1.426 1.426 0 002.016.031l.054-.055-.149-.1a.263.263 0 01-.227.133z"/><path class="cls-3" d="M28.221 9.22v-.412a.277.277 0 00-.01-.05l.5-.32a1.436 1.436 0 00-.028-.206l-.571.366a.258.258 0 00-.156-.056H26.61a.258.258 0 00-.156.056l-.569-.367a1.393 1.393 0 00-.03.2l.5.322a.222.222 0 00-.01.05v.459l-.2.131a1.545 1.545 0 00.123.145l.142-.091a.261.261 0 00.205.1h1.347a.265.265 0 00.227-.135l.149.1a1.423 1.423 0 00.12-.147z"/><g><path class="cls-2" d="M53.081 15.751v.652q-.048 1.406-.1 2.812-.027.7-.059 1.406a.275.275 0 01-.259.29h-.041q-1.234 0-2.469-.006c-.22 0-.321-.105-.33-.334-.013-.331-.018-.662-.029-.993l-.1-2.812c-.011-.309-.018-.618-.027-.927 0-.025-.006-.051-.012-.094h-.5a.5.5 0 01-.194-.033.3.3 0 01-.16-.306q0-1.251.005-2.5v-1.944c0-.273.1-.371.369-.37l4.424.007c.273 0 .365.088.365.36q0 2.235-.008 4.469c0 .227-.1.327-.328.329z"/><path class="cls-2" d="M50.737 8.582h1.347a.265.265 0 01.155.057l.571-.366a1.433 1.433 0 00-2.8 0l.569.367a.261.261 0 01.158-.058z"/><path class="cls-2" d="M52.348 8.851v.412l.229.148a1.423 1.423 0 00.266-.828c0-.035 0-.069-.005-.1l-.5.32a.228.228 0 01.01.048z"/><path class="cls-2" d="M50.471 8.847a.211.211 0 01.01-.05l-.5-.322c0 .037-.005.074-.005.112a1.426 1.426 0 00.288.85l.206-.131z"/><path class="cls-2" d="M52.081 9.6h-1.346a.257.257 0 01-.2-.1l-.143.092a1.426 1.426 0 002.016.031c.018-.018.037-.036.054-.055l-.149-.1a.263.263 0 01-.232.132z"/><path class="cls-3" d="M52.348 9.263v-.412a.23.23 0 00-.01-.051l.5-.32a1.425 1.425 0 00-.029-.205l-.57.366a.255.255 0 00-.156-.057h-1.347a.258.258 0 00-.156.056l-.569-.367a1.393 1.393 0 00-.03.2l.5.322a.277.277 0 00-.01.05v.459l-.2.131a1.545 1.545 0 00.123.145l.143-.091a.261.261 0 00.2.1h1.346a.26.26 0 00.227-.135l.149.1a1.526 1.526 0 00.12-.146z"/></g></g><path class="cls-2" d="M47.345 16.993l-3.311-1.912v1.273h-9.429v-1.273l-3.312 1.912 3.312 1.912v-1.273h9.429v1.273l3.311-1.912z"/></g><path class="cls-1" d="M0 0h94v28H0z"/></svg>