<svg width="124" height="18" viewBox="0 0 124 18" fill="none" xmlns="http://www.w3.org/2000/svg">
<path fill-rule="evenodd" clip-rule="evenodd" d="M32.1486 17.3481V13.9502C35.051 11.387 35.8538 7.21424 35.8538 2.50499V1.13395H39.1268V2.50499C39.1268 10.7313 36.5331 15.3213 32.1486 17.3481ZM42.3997 2.50499V1.13395H45.7345V2.5646C45.7345 7.21424 46.5372 11.387 49.3779 13.9502V17.4077C44.9934 15.3213 42.3997 10.612 42.3997 2.50499ZM48.2663 4.11448C47.1548 4.11448 46.2285 3.22032 46.2285 2.14733C46.2285 1.07434 47.093 0.180176 48.2663 0.180176C49.3779 0.180176 50.3042 1.07434 50.3042 2.14733C50.3042 3.22032 49.3779 4.11448 48.2663 4.11448ZM48.2663 1.31278C47.7723 1.31278 47.4018 1.67044 47.4018 2.14733C47.4018 2.5646 47.7723 2.98188 48.2663 2.98188C48.6986 2.98188 49.1309 2.5646 49.1309 2.14733C49.1927 1.73005 48.7604 1.31278 48.2663 1.31278ZM0.283691 17.1694C3.6184 16.5137 7.32362 14.7254 10.1643 11.8045C11.6464 14.3081 13.993 16.3945 17.0807 17.4079V14.1293C15.3516 13.1755 13.3137 11.6256 12.3257 9.12199C13.6225 6.97601 14.5488 4.47236 14.7341 1.49182H1.27176V4.35314H10.8436C9.3615 9.53927 4.66821 12.9967 0.283691 14.1889V17.1694ZM17.0805 6.73755H31.7162V9.65847H17.0805V6.73755ZM49.8714 6.73755H64.507V9.65847H49.8714V6.73755ZM69.6497 13.2346C69.8349 13.5923 70.1437 13.8903 70.4525 14.1288C70.7613 14.3672 71.1935 14.546 71.6258 14.6653C72.0581 14.7845 72.5521 14.8441 73.0461 14.8441C73.3549 14.8441 73.7254 14.8441 74.0959 14.7845C74.4665 14.7249 74.837 14.6056 75.1458 14.4864C75.4545 14.3672 75.7633 14.1288 75.9486 13.8903C76.1956 13.6519 76.2573 13.2942 76.2573 12.8769C76.2573 12.4597 76.1338 12.102 75.825 11.8039C75.5163 11.5059 75.1458 11.3271 74.7135 11.1482C74.2195 10.9694 73.7254 10.7906 73.1079 10.6713C72.6075 10.5747 72.1477 10.439 71.6627 10.2958C71.5492 10.2623 71.4342 10.2284 71.317 10.1945C70.6995 10.0156 70.082 9.83679 69.5262 9.65796C68.9086 9.41951 68.4146 9.18107 67.9206 8.82341C67.4265 8.46574 67.056 8.04847 66.809 7.51197C66.5002 6.97547 66.3767 6.37937 66.3767 5.66404C66.3767 4.82949 66.562 4.11416 66.9325 3.51805C67.303 2.92195 67.7971 2.38545 68.3528 2.02779C68.9704 1.61051 69.5879 1.31246 70.329 1.13362C71.07 0.954793 71.8111 0.835571 72.5521 0.835571C73.4167 0.835571 74.2812 0.954793 75.084 1.13362C75.8868 1.31246 76.5661 1.61051 77.1836 2.02779C77.8012 2.44506 78.2952 2.98156 78.6657 3.63727C79.0363 4.29299 79.2215 5.06793 79.2215 6.0217H75.7016C75.7016 5.54482 75.578 5.12754 75.3928 4.82949C75.2075 4.53144 74.9605 4.29299 74.7135 4.11416C74.4047 3.93533 74.0959 3.81611 73.7254 3.7565C73.3549 3.69689 72.9226 3.63727 72.4904 3.63727C72.1816 3.63727 71.8728 3.69689 71.6258 3.7565C71.317 3.81611 71.07 3.93533 70.823 4.05455C70.6365 4.14456 70.4852 4.30254 70.3425 4.45151L70.3422 4.45181L70.342 4.45205C70.2959 4.5002 70.2507 4.5474 70.2055 4.59105C70.082 4.82949 69.9585 5.12754 69.9585 5.4256C69.9585 5.72365 70.0202 6.0217 70.1437 6.20053C70.2672 6.37937 70.5142 6.5582 70.8848 6.73703C71.2151 6.89648 71.6437 7.00854 72.2141 7.15771L72.2143 7.15775L72.4286 7.21392C72.7071 7.29457 73.0358 7.37522 73.4091 7.4668C73.8636 7.5783 74.3841 7.706 74.9605 7.86963C75.1149 7.89944 75.3002 7.94415 75.5163 7.99631C75.7324 8.04847 75.9795 8.10808 76.2573 8.16769C76.8131 8.34652 77.3689 8.58496 77.9247 8.94263C78.4805 9.30029 78.9128 9.71757 79.345 10.3137C79.7155 10.9098 79.9626 11.6251 79.9626 12.5193C79.9626 13.2346 79.8391 13.9499 79.5303 14.546C79.2215 15.2018 78.7892 15.7382 78.2334 16.1555C77.6777 16.6324 76.9366 16.9901 76.0721 17.2285C75.2075 17.467 74.2195 17.5862 73.1079 17.5862C72.1816 17.5862 71.317 17.467 70.4525 17.2881C69.5879 17.0497 68.8469 16.7516 68.1676 16.2747C67.4883 15.7979 66.9943 15.2018 66.6237 14.4864C66.2532 13.7711 66.068 12.9365 66.068 11.9232H69.5879C69.3409 12.4 69.4644 12.8769 69.6497 13.2346ZM96.4507 17.1691L90.2136 1.13379H86.4466L80.1477 17.1691H83.8529L85.1497 13.5924H91.3869L92.622 17.1691H96.4507ZM88.2992 5.0681L90.3988 10.9696H86.0761L88.2374 5.0681H88.2992ZM101.514 1.13379V14.1885H109.604V17.1691H97.871V1.13379H101.514ZM123.499 4.11432V1.13379H111.086V17.1691H123.684V14.1885H114.73V10.2542H122.819V7.51213H114.73V4.11432H123.499Z" fill="#BF0000"/>
</svg>
